<svg width="152" height="26" viewBox="0 0 152 26" fill="none" xmlns="http://www.w3.org/2000/svg">
<path d="M18.6087 3.74498C17.578 2.69904 16.456 1.90983 15.2427 1.38877C14.0124 0.858666 12.6858 0.588677 11.3461 0.595754C8.33951 0.595754 5.78742 1.74629 3.68223 4.03785C1.57894 6.32941 0.529194 9.27135 0.525391 12.8599C0.525391 16.321 1.60936 19.2211 3.78112 21.5469C5.95287 23.8803 8.52778 25.046 11.5021 25.046C12.7696 25.0596 14.0269 24.8177 15.199 24.3348C16.3381 23.8575 17.4715 23.0797 18.6011 21.9919V24.4546H24.4147V1.2062H18.6106L18.6087 3.74498ZM17.0684 17.7872C15.8741 19.067 14.3679 19.6984 12.5537 19.7022C10.7946 19.7022 9.31319 19.0518 8.11321 17.7492C6.91133 16.4503 6.30849 14.792 6.30849 12.7819C6.30849 10.7775 6.90372 9.14203 8.08278 7.86218C9.26564 6.58423 10.749 5.95097 12.5366 5.95097C14.3679 5.95097 15.8817 6.57853 17.076 7.83366C18.2721 9.09259 18.6582 10.5246 18.6544 12.5499C18.6544 14.6228 18.2683 16.5112 17.0684 17.7872ZM57.7592 3.74498C56.8009 2.74925 55.6584 1.94904 54.3951 1.38877C53.1627 0.858945 51.8342 0.588985 50.4928 0.595754C47.4938 0.595754 44.9341 1.74629 42.8327 4.03785C40.7294 6.33131 39.6797 9.27325 39.6759 12.8618C39.6721 16.3229 40.756 19.223 42.9316 21.5488C45.1033 23.8822 47.6783 25.0479 50.6582 25.0479C51.9233 25.0615 53.1782 24.8196 54.3476 24.3367C55.4848 23.8594 56.6182 23.0816 57.7478 21.9938V24.4565H63.5613V1.2062H57.7592V3.74498ZM56.2188 17.7872C55.0246 19.067 53.5146 19.6984 51.708 19.7022C49.9451 19.7022 48.4637 19.0518 47.2599 17.7492C46.058 16.4503 45.4552 14.792 45.459 12.7819C45.4628 10.7775 46.0485 9.14203 47.2333 7.86218C48.4161 6.58423 49.8995 5.95097 51.6871 5.95097C53.5146 5.95097 55.0284 6.57853 56.2264 7.83366C57.4226 9.09259 57.8049 10.5246 57.8011 12.5499C57.8011 14.6228 57.4188 16.5112 56.2188 17.7872ZM98.549 1.77291C97.2995 1.00272 95.8562 0.618574 94.2093 0.618574C92.6765 0.602361 91.1644 0.972541 89.8125 1.69494C88.4718 2.41189 87.3403 3.45783 86.4142 4.84037C85.7105 3.45783 84.7749 2.40808 83.6149 1.69114C82.437 0.968457 81.0791 0.592742 79.6973 0.607164C78.2634 0.607164 76.9418 0.879108 75.7266 1.4268C74.5133 1.97069 73.4103 2.79603 72.4176 3.90282V1.2062H66.5984L66.5927 24.4565H72.4062L72.41 14.1416C72.4138 11.9109 72.6097 10.2755 72.9995 9.23712C73.3951 8.20069 73.9846 7.39626 74.7738 6.81624C75.5668 6.24573 76.4435 5.95477 77.4134 5.95477C78.2787 5.95667 79.0222 6.18488 79.6346 6.63938C80.2469 7.09579 80.7033 7.78992 81.0095 8.71985C81.3157 9.65169 81.4697 11.154 81.4697 13.2326L81.4583 24.4565H87.2794V13.999C87.287 11.7816 87.4791 10.1728 87.8614 9.17246C88.2493 8.16836 88.8388 7.38866 89.6281 6.81624C90.4085 6.25173 91.3501 5.95365 92.3133 5.96618C93.6235 5.96618 94.5991 6.434 95.259 7.36013C95.917 8.29577 96.2422 10.0758 96.2422 12.7001L96.2346 24.4565H102.05L102.058 10.8403C102.058 8.04665 101.786 6.02894 101.24 4.79092C100.698 3.54911 99.8003 2.5431 98.549 1.77291ZM122.355 17.6027C120.799 19.1507 118.937 19.9247 116.773 19.9247C114.959 19.9228 113.475 19.4227 112.304 18.4338C111.134 17.4449 110.419 16.1137 110.147 14.4364L128.801 14.4478L128.824 13.341C128.824 9.50906 127.687 6.4302 125.403 4.08919C123.125 1.7577 120.162 0.590048 116.513 0.584343C113.082 0.584343 110.224 1.75389 107.953 4.1025C105.673 6.44161 104.536 9.38735 104.536 12.934C104.532 16.4009 105.673 19.2781 107.949 21.5792C110.224 23.886 113.181 25.0346 116.803 25.0346C119.143 25.0346 121.156 24.62 122.86 23.7852C124.557 22.9541 126.017 21.6629 127.234 19.9247L122.355 17.6027ZM112.549 6.91513C113.77 6.01562 115.193 5.56872 116.809 5.57253C118.306 5.57253 119.616 5.97188 120.738 6.7706C121.872 7.57502 122.627 8.61526 123.009 9.89321L110.419 9.8856C111.07 8.46883 111.783 7.47614 112.549 6.91703M142.602 12.1524L150.462 1.2024H143.832L139.282 7.54079L134.716 1.2024H127.982L135.921 12.2171L127.143 24.4565H133.772L139.24 16.8344L144.736 24.4565H151.474L142.602 12.1524ZM38.4112 0.489258C37.3349 0.489258 36.3954 0.692741 35.6119 1.08639C34.8379 1.47434 33.9498 2.18178 32.9495 3.22011V1.2043H27.3965V24.4565H33.212L33.2082 12.3635C33.2082 7.93255 34.4329 5.70945 37.3976 5.70945C37.9111 5.70945 38.436 5.82165 38.9646 6.01943C39.9193 4.42199 41.0223 2.92154 42.2546 1.539C40.9272 0.856288 39.6454 0.489258 38.4112 0.489258Z" fill="#001E31"/>
</svg>
