<svg width="140" height="52" viewBox="0 0 140 52" fill="none" xmlns="http://www.w3.org/2000/svg">
<path d="M54.9163 51.5214C51.447 51.5214 48.5559 50.49 46.3154 48.4417C44.0748 46.379 42.9473 43.2563 42.9473 39.0593V23.7038C42.9473 23.5319 43.0918 23.3887 43.2653 23.3887H49.2642C49.4377 23.3887 49.5823 23.5319 49.5823 23.7038V38.7872C49.5823 40.9501 50.0737 42.5688 51.0567 43.6574C52.0397 44.7317 53.3262 45.276 54.9163 45.276C56.5064 45.276 57.7784 44.7317 58.7759 43.6574C59.7588 42.5831 60.2503 40.9501 60.2503 38.7872V23.7038C60.2503 23.5319 60.3948 23.3887 60.5683 23.3887H66.5673C66.7407 23.3887 66.8853 23.5319 66.8853 23.7038V39.045C66.8853 43.199 65.7433 46.3217 63.4883 48.3987C61.2333 50.4757 58.3422 51.5214 54.9163 51.5214Z" fill="#001E31"/>
<path d="M99.3212 36.925L78.5344 40.8642C78.3176 40.9071 78.2019 41.1506 78.3176 41.3369C78.997 42.4828 79.9221 43.4139 81.1219 44.1158C82.4518 44.8893 83.8973 45.276 85.4874 45.276C86.9474 45.276 88.2195 44.9752 89.3325 44.3593C90.4456 43.7433 91.1973 43.1131 91.5731 42.4828L91.8911 42.0387C92.0791 41.7809 92.426 41.695 92.7151 41.8382L97.3986 44.216C97.7311 44.3879 97.8467 44.789 97.6588 45.1041C97.6299 45.1471 97.601 45.1901 97.5721 45.2474C97.3842 45.5625 96.9216 46.1211 96.1988 46.9376C95.4761 47.7398 94.6666 48.456 93.7848 49.0719C92.903 49.6879 91.7032 50.2465 90.1854 50.7622C88.6676 51.2635 87.0486 51.5214 85.3429 51.5214C80.9774 51.5214 77.4214 50.1462 74.6893 47.3817C71.9572 44.6314 70.584 41.2079 70.584 37.1399C70.584 33.1148 71.9717 29.7056 74.7616 26.941C77.537 24.1622 80.9918 22.7727 85.0971 22.7727C89.2025 22.7727 92.6284 24.1192 95.3604 26.8265C98.0347 29.4621 99.4368 32.728 99.5814 36.6099C99.5958 36.7674 99.4802 36.8964 99.3212 36.925ZM85.0827 29.0037C82.9867 29.0037 81.2086 29.634 79.7631 30.9088C78.4043 32.0978 77.5948 33.6448 77.3202 35.5642C77.2913 35.7791 77.4936 35.9653 77.696 35.9223L91.6599 33.2723C91.8767 33.2294 91.9923 33.0002 91.8911 32.814C90.489 30.2643 88.2195 29.0037 85.0827 29.0037Z" fill="#001E31"/>
<path d="M6.635 48.728V51.1488C6.635 51.3207 6.49044 51.4639 6.31698 51.4639H0.318017C0.144553 51.4639 0 51.3207 0 51.1488L0 5.46894C0 5.29705 0.144553 5.15381 0.318017 5.15381H6.31698C6.49044 5.15381 6.635 5.29705 6.635 5.46894L6.635 25.4512C6.85183 25.2363 7.15539 24.9928 7.56014 24.692C7.96489 24.3912 8.89003 23.9901 10.3211 23.4888C11.7522 22.9731 13.2844 22.7296 14.9034 22.7296C18.8353 22.7296 22.1311 24.0761 24.7909 26.769C27.4507 29.462 28.7661 32.8998 28.7661 37.0968C28.7661 41.2938 27.4362 44.7459 24.7909 47.4245C22.1456 50.1175 18.8498 51.4639 14.9179 51.4639C13.2989 51.4639 11.7955 51.2491 10.4223 50.7907C9.04904 50.3466 8.06607 49.8883 7.47341 49.4299L6.635 48.728ZM8.62983 31.1522C7.12648 32.6133 6.38926 34.59 6.38926 37.0968C6.38926 39.6035 7.14093 41.5802 8.62983 43.0413C10.1332 44.5024 12.0124 45.2329 14.2819 45.2329C16.5514 45.2329 18.4305 44.5024 19.9339 43.0413C21.4373 41.5802 22.1745 39.6035 22.1745 37.0968C22.1745 34.59 21.4228 32.6133 19.9339 31.1522C18.4305 29.6912 16.5514 28.9606 14.2819 28.9606C11.9979 28.9606 10.1187 29.6912 8.62983 31.1522Z" fill="#001E31"/>
<path d="M32.5957 50.7329L32.5957 5.46845C32.5957 5.29656 32.7403 5.15332 32.9137 5.15332H38.9271C39.1006 5.15332 39.2452 5.29656 39.2452 5.46845L39.2452 50.7329C39.2452 50.9048 39.1006 51.048 38.9271 51.048H32.9137C32.7403 51.048 32.5957 50.9048 32.5957 50.7329Z" fill="#001E31"/>
<path d="M103.281 0.32641V7.28797C103.281 7.50283 103.382 7.70337 103.57 7.81796L113.01 14.1206C113.227 14.2638 113.516 14.2638 113.732 14.1206L118.893 10.6685C119.081 10.5396 119.081 10.2674 118.893 10.1385L103.773 0.0542499C103.556 -0.088992 103.281 0.0685741 103.281 0.32641Z" fill="#001E31"/>
<path d="M103.918 51.4638L139.348 51.4495C139.709 51.4495 139.999 51.163 139.999 50.8049V24.434C139.999 24.3338 139.941 24.2335 139.854 24.1619L130.154 17.673C129.938 17.5298 129.649 17.5298 129.432 17.673L124.271 21.1108C124.083 21.2397 124.083 21.5119 124.271 21.6408L133.19 27.614C133.277 27.6713 133.335 27.7716 133.335 27.8862V44.5882C133.335 44.9463 133.046 45.2328 132.684 45.2328H125.587C125.225 45.2328 124.936 44.9463 124.936 44.5882L124.936 30.0205L121.554 27.7572L118.287 29.9488L118.287 44.6025C118.287 44.9606 117.998 45.2471 117.636 45.2471H110.539C110.177 45.2471 109.888 44.9606 109.888 44.6025L109.888 27.8145C109.888 27.7143 109.946 27.614 110.033 27.5424L139.666 7.73202C139.84 7.61742 139.955 7.41689 139.955 7.20202V0.32641C139.955 0.0685741 139.666 -0.088992 139.449 0.0542499L103.412 24.0902C103.325 24.1475 103.268 24.2478 103.268 24.3624L103.268 50.8335C103.282 51.1773 103.571 51.4638 103.918 51.4638Z" fill="#001E31"/>
</svg>
