<svg width="140" height="33" viewBox="0 0 140 33" fill="none" xmlns="http://www.w3.org/2000/svg">
<g clip-path="url(#clip0_3441_4190)">
<path d="M22.1403 15.4406C24.1457 12.2863 24.2904 8.94564 22.5248 5.67146C20.7627 2.40077 17.9285 0.693552 14.2266 0.646874C10.7285 0.600197 7.22696 0.623536 3.72543 0.640106C1.23995 0.650142 0.0170044 1.89713 0.0103304 4.42447C-0.00278739 8.41888 0.00710849 12.4131 0.00710849 16.4075C0.00710849 20.4019 -0.0126833 24.7296 0.0137825 28.8906C0.0269002 31.0478 1.23351 32.3914 3.31809 32.4248C7.08911 32.4848 10.87 32.5716 14.6378 32.3947C22.0616 32.0413 26.135 23.9092 22.1044 17.5644C21.5718 16.7242 21.6342 16.2341 22.1405 15.4406H22.1403ZM14.2036 25.6865C14.0949 25.6932 13.9865 25.6932 13.8781 25.6932H10.9356C10.8797 25.6965 10.8238 25.7 10.7713 25.6932C9.4365 25.5665 7.43753 26.3266 6.91144 25.3866C6.22747 24.1662 6.68798 22.2923 6.63205 20.702C6.60582 19.9685 7.0562 19.9318 7.58551 19.9351C9.82106 19.9451 12.0568 19.8985 14.2892 19.9652C15.8937 20.0119 17.0706 21.3221 17.051 22.8592C17.0312 24.3996 15.8476 25.5733 14.2038 25.6867L14.2036 25.6865ZM13.9734 13.1767C12.9346 13.2334 11.8923 13.1867 10.8535 13.1867C6.60559 13.1968 6.65162 13.1968 6.60559 8.88239C6.59247 7.68535 6.81915 7.20854 8.11137 7.29209C10.0215 7.41532 11.9415 7.30213 13.8583 7.332C15.7291 7.36538 17.0112 8.54234 17.0508 10.1929C17.0902 11.8499 15.8573 13.0768 13.9734 13.1769V13.1767Z" fill="#001E31"/>
<path d="M86.3391 16.4487C86.3388 12.5068 86.3319 8.56486 86.3409 4.62319C86.3476 1.71076 87.4561 0.544761 90.2728 0.534725C95.1445 0.517221 100.017 0.518155 104.889 0.534959C107.315 0.54336 108.764 1.79291 108.792 3.83271C108.821 5.91219 107.279 7.274 104.837 7.2838C101.278 7.29804 97.7198 7.31834 94.1623 7.26676C93.2367 7.25346 92.8887 7.50668 92.9746 8.468C93.1067 9.94768 92.3914 11.8421 93.256 12.8081C94.0636 13.7101 95.9406 13.0534 97.3451 13.0783C99.8078 13.122 102.272 13.079 104.735 13.0937C107.254 13.1087 108.765 14.3671 108.792 16.4375C108.819 18.5265 107.325 19.812 104.808 19.8225C101.359 19.837 97.9096 19.8659 94.4622 19.8029C93.3854 19.7833 92.8342 19.9723 92.9702 21.2217C93.1249 22.6411 92.3974 24.5066 93.2404 25.3895C94.0912 26.2801 95.9332 25.6313 97.3391 25.6551C99.9111 25.6987 102.485 25.6471 105.057 25.6742C107.284 25.6975 108.759 27.0409 108.789 29.0063C108.82 31.0183 107.417 32.3953 105.163 32.4104C100.073 32.445 94.9814 32.4485 89.891 32.4055C87.5576 32.3859 86.3648 31.1364 86.3478 28.7736C86.3181 24.6655 86.3395 20.557 86.3393 16.4484L86.3391 16.4487Z" fill="#001E31"/>
<path d="M64.7587 21.1614C64.7587 24.0223 64.7709 26.5081 64.7552 28.9939C64.74 31.3814 63.3116 32.9841 61.265 32.9489C59.2665 32.9146 57.8684 31.3614 57.864 29.062C57.8474 20.6765 57.8472 12.2911 57.8645 3.90553C57.8691 1.63094 59.3042 0.0541806 61.2891 0.0336426C63.2605 0.0131046 64.7331 1.61414 64.7534 3.85722C64.7762 6.39226 64.7587 8.92777 64.7587 11.8264C67.4138 9.4718 69.8215 7.33864 72.2268 5.20269C73.7508 3.84928 75.2518 2.46833 76.7985 1.14246C78.5616 -0.369183 80.5447 -0.303834 81.9092 1.25285C83.2486 2.78084 83.0456 4.79706 81.2855 6.38806C77.8525 9.49117 74.4028 12.5765 70.9017 15.5998C70.033 16.3502 70.1356 16.7133 70.9346 17.4074C74.427 20.4412 77.879 23.5235 81.3161 26.622C82.7777 27.9395 83.1238 29.4518 82.4341 30.938C81.4399 33.0803 78.832 33.5956 76.9021 31.9215C73.5326 28.9983 70.2274 25.9986 66.8937 23.033C66.2813 22.4882 65.6613 21.9524 64.7591 21.1619L64.7587 21.1614Z" fill="#001E31"/>
<path d="M139.734 27.7206C136.226 19.1917 132.714 10.6696 129.187 2.15075C128.602 0.73713 127.513 -0.00970697 125.985 9.52652e-05C124.518 0.0133983 123.486 0.777039 122.927 2.11411C119.386 10.6262 115.852 19.1418 112.36 27.6739C111.581 29.5777 112.436 31.5416 114.168 32.2252C115.967 32.9354 117.772 32.1519 118.627 30.2381C119.212 28.9277 119.777 27.6074 120.254 26.2538C120.54 25.4369 120.981 25.1634 121.819 25.1802C124.607 25.2236 127.398 25.2369 130.186 25.1734C131.117 25.1501 131.538 25.5002 131.847 26.3471C132.376 27.8009 132.961 29.2378 133.649 30.6183C134.402 32.1288 135.934 32.7356 137.535 32.322C139.014 31.9386 140.02 30.5849 140.001 28.7078C139.964 28.5645 139.899 28.1211 139.734 27.7208L139.734 27.7206ZM123.604 18.2782C124.406 16.3211 125.169 14.4705 126.034 12.3635C126.908 14.4474 127.668 16.2611 128.513 18.2782H123.604H123.604Z" fill="#001E31"/>
<path d="M44.1702 24.1579C44.1688 25.8779 44.2064 27.5989 44.1596 29.3178C44.0989 31.5546 42.7461 32.9787 40.7582 32.9888C38.7673 32.9988 37.348 31.6085 37.2986 29.3678C37.2226 25.9293 37.2452 22.4878 37.2868 19.0483C37.2983 18.1038 37.0473 17.3642 36.4652 16.6283C33.7282 13.1675 31.031 9.67413 28.3288 6.185C26.7919 4.20051 26.8932 2.06269 28.5644 0.759455C30.2071 -0.521371 32.1773 -0.129281 33.699 1.80946C35.7424 4.41289 37.8113 6.99765 39.7808 9.65755C40.5198 10.6555 40.8984 10.8618 41.7368 9.71847C43.7265 7.00512 45.8541 4.39562 47.938 1.75392C49.4427 -0.153553 51.4228 -0.519504 53.0758 0.780927C54.6815 2.04378 54.8097 4.20774 53.3449 6.08301C50.696 9.47365 48.0554 12.8718 45.3428 16.2097C44.4949 17.2527 44.0432 18.2905 44.1463 19.6659C44.2577 21.1553 44.1716 22.6602 44.1702 24.1583V24.1579Z" fill="#001E31"/>
</g>
<defs>
<clipPath id="clip0_3441_4190">
<rect width="140" height="32.9885" fill="white"/>
</clipPath>
</defs>
</svg>
