<svg width="130" height="58" viewBox="0 0 130 58" fill="none" xmlns="http://www.w3.org/2000/svg">
<g clip-path="url(#clip0_3441_4172)">
<path d="M64.8303 13.6783C70.236 9.11116 75.6198 4.56246 81.0199 0L130 0C126.482 15.3851 122.976 30.7169 119.466 46.0656C113.644 49.311 107.838 52.5478 101.932 55.84C105.018 41.786 108.084 27.8225 111.144 13.8815C111.095 13.8347 111.079 13.8168 111.06 13.8028C111.042 13.7895 111.022 13.7773 111.001 13.7698C110.979 13.762 110.955 13.7578 110.932 13.7565C110.885 13.7544 110.838 13.7555 110.79 13.7549C110.767 13.7549 110.743 13.7542 110.72 13.7544C110.625 13.7555 110.531 13.7581 110.437 13.7583C95.4188 13.7653 80.4004 13.7721 65.3824 13.7788C65.3116 13.7788 65.241 13.782 65.1702 13.7835C65.1467 13.784 65.123 13.784 65.0996 13.7835C65.0762 13.783 65.0519 13.7846 65.029 13.7799C65.0066 13.7752 64.985 13.7653 64.9639 13.7552C64.9436 13.7456 64.9249 13.7329 64.8301 13.6775L64.8303 13.6783Z" fill="#001E31"/>
<path d="M23.4257 21.8034C21.8247 21.9967 20.2863 22.183 18.7473 22.367C18.6552 22.3779 18.5604 22.3685 18.4747 22.3685C18.2893 22.2147 18.3726 22.0118 18.358 21.833C18.239 20.3968 16.9902 19.424 15.5608 19.65C14.3302 19.8444 13.3735 20.4846 12.6459 21.4644C11.5679 22.916 11.0413 24.583 10.8187 26.3563C10.7426 26.9619 10.6804 27.5707 10.8366 28.1763C11.076 29.1034 11.4814 29.927 12.4748 30.2167C13.6266 30.5527 14.7184 30.4048 15.6345 29.5539C16.0327 29.1842 16.3678 28.7578 16.6248 28.2769C16.8459 27.8635 17.0547 27.4436 17.2974 26.9715C18.9895 27.2462 20.6933 27.5229 22.4369 27.8061C22.2437 28.5323 21.9602 29.1442 21.6305 29.734C20.8493 31.1315 19.8059 32.2948 18.4682 33.1857C17.4753 33.8472 16.38 34.2494 15.2069 34.4539C13.4914 34.7529 11.7842 34.7532 10.1054 34.2541C7.50509 33.4814 6.01248 31.6805 5.47579 29.0818C5.09847 27.255 5.26148 25.4285 5.78046 23.6458C6.29631 21.8741 7.05512 20.2167 8.27509 18.7978C9.87473 16.9375 11.8845 15.8257 14.3156 15.4815C15.6777 15.2887 17.0323 15.2996 18.3833 15.615C20.7886 16.1765 22.3593 17.6351 23.1499 19.9522C23.3473 20.5303 23.4983 21.1191 23.4252 21.8037L23.4257 21.8034Z" fill="#001E31"/>
<path d="M11.9555 50.0401C13.5841 50.243 15.24 50.546 16.8695 50.8216C16.9724 51.0038 16.9268 51.141 16.8771 51.2698C15.9568 53.6555 14.4744 55.5592 12.1516 56.7378C11.1092 57.2668 9.98821 57.525 8.83385 57.6284C7.51258 57.7469 6.196 57.6908 4.91223 57.3224C2.36317 56.5907 0.853895 54.8663 0.249767 52.3354C-0.150468 50.6592 -0.0364124 48.9738 0.356271 47.3091C0.808065 45.3929 1.5463 43.595 2.79335 42.0511C4.44637 40.0045 6.57697 38.7903 9.21638 38.4793C10.5403 38.3232 11.8527 38.3268 13.138 38.6773C15.804 39.404 17.3768 41.1607 17.9122 43.8553C17.9624 44.1081 17.9955 44.3643 18.0304 44.6197C18.0361 44.6618 18.0106 44.7083 17.9781 44.839C16.3615 45.031 14.7142 45.2269 13.0943 45.4194C12.8917 45.2004 12.9766 44.9764 12.9575 44.7751C12.849 43.6256 11.9225 42.743 10.7663 42.6723C9.70958 42.6079 8.84036 43.0189 8.06437 43.6828C7.33447 44.3074 6.83007 45.0944 6.44182 45.9627C5.81217 47.3715 5.43433 48.8361 5.43329 50.388C5.43303 50.9606 5.52391 51.5096 5.78952 52.0233C6.3111 53.0317 7.19828 53.5058 8.41799 53.4071C9.42314 53.3258 10.1851 52.815 10.7725 52.0233C11.1376 51.5315 11.4498 51.0064 11.693 50.4431C11.7488 50.3139 11.7897 50.1794 11.955 50.0403L11.9555 50.0401Z" fill="#001E31"/>
<path d="M29.9058 25.0505C28.4257 24.8824 26.938 24.7135 25.3983 24.5387C25.534 23.7413 25.892 23.1242 26.3597 22.5669C26.9956 21.809 27.8023 21.2901 28.7483 21.0087C29.2655 20.8549 29.7954 20.7008 30.3292 20.6549C32.2812 20.4867 34.2355 20.4257 36.1676 20.8614C37.417 21.1431 38.3751 21.784 38.7862 23.0577C38.9917 23.6937 39.0047 24.3464 38.918 25.0089C38.744 26.3395 38.4123 27.636 38.0816 28.9322C37.8436 29.8655 37.6163 30.8009 37.4762 31.7534C37.3803 32.4055 37.3595 33.0631 37.5264 33.7143C37.5717 33.8909 37.5756 34.0783 37.6043 34.3074H32.8265C32.6786 33.8891 32.6809 33.4214 32.6259 32.8893C32.2406 33.1621 31.9424 33.3827 31.6349 33.589C29.9363 34.7283 28.0885 34.9094 26.162 34.3586C24.7765 33.9624 23.795 32.5866 23.7304 31.0513C23.6284 28.6288 24.8751 27.298 27.0289 26.6978C28.2747 26.3507 29.5704 26.2207 30.8581 26.0854C31.8854 25.9773 32.9111 25.8573 33.8905 25.6086C34.1217 25.3207 34.1037 24.9965 34.1352 24.7036C34.1816 24.2736 33.7556 23.8034 33.223 23.6787C32.0619 23.4066 30.6982 23.5467 30.0753 24.8702C30.0566 24.9102 30.0126 24.9385 29.9061 25.05L29.9058 25.0505ZM33.3363 28.2881C32.0536 28.4916 30.8852 28.7132 29.7501 29.0863C29.5751 29.1437 29.4118 29.2487 29.2564 29.3516C28.7556 29.6834 28.5572 30.1568 28.652 30.744C28.7457 31.3249 29.1444 31.624 29.6754 31.7729C30.2534 31.9353 30.7878 31.7773 31.299 31.511C32.5595 30.8547 33.052 29.7081 33.3358 28.2879L33.3363 28.2881Z" fill="#001E31"/>
<path d="M46.0119 43.8891H51.0085C49.9492 48.3947 48.9011 52.8524 47.8467 57.3362H43.2152C43.3413 56.7284 43.4574 56.169 43.5894 55.5338C43.2178 55.6507 43.048 55.8783 42.8496 56.0545C41.5153 57.24 39.9524 57.7591 38.178 57.6643C36.2878 57.5632 35.1064 56.274 35.1683 54.3864C35.2001 53.4175 35.4441 52.4817 35.6608 51.5468C36.2474 49.0143 36.8719 46.4904 37.4812 43.9642C37.9814 43.8348 41.0917 43.7982 42.3296 43.9078C42.4621 44.0783 42.3746 44.2669 42.3345 44.4373C41.7523 46.901 41.1601 49.3625 40.5755 51.8256C40.4446 52.3772 40.349 52.9332 40.6005 53.4814C41.1914 53.9328 42.0111 53.9091 42.6645 53.4066C43.1957 52.9982 43.5985 52.4824 43.886 51.8776C44.2099 51.1966 44.4607 50.4873 44.6362 49.7564C45.101 47.8215 45.5461 45.8822 46.0119 43.8886V43.8891Z" fill="#001E31"/>
<path d="M85.7426 51.9293H76.0046C75.8755 53.0021 76.3213 54.0915 77.1228 54.4129C78.4485 54.9448 79.5627 54.5332 80.4682 53.4173C82.0123 53.5695 83.5518 53.7213 85.1015 53.874C84.9262 54.4522 84.3338 55.2958 83.7903 55.7772C82.5862 56.8438 81.1621 57.3866 79.5773 57.5695C78.211 57.7272 76.8601 57.6986 75.5031 57.4393C73.1777 56.995 71.7867 55.5754 71.2773 53.338C70.7052 50.8248 71.3101 48.5293 72.9309 46.5307C74.4842 44.6156 76.5004 43.596 78.9964 43.5695C80.2471 43.5563 81.4808 43.5859 82.6956 43.9764C84.4231 44.5317 85.4324 45.7289 85.9454 47.3996C86.2342 48.3401 86.1652 49.3105 86.0527 50.2698C85.9902 50.8011 85.8582 51.3242 85.7428 51.9293H85.7426ZM76.476 49.3163C76.9962 49.4862 80.521 49.5145 81.2267 49.3656C81.3717 49.0198 81.329 48.6423 81.3137 48.2736C81.2819 47.5089 80.8528 46.9438 80.127 46.6926C79.2982 46.406 78.5498 46.6016 77.8746 47.1132C77.152 47.6607 76.7655 48.4316 76.476 49.3163Z" fill="#001E31"/>
<path d="M26.9861 43.5738C28.0069 43.5426 29.005 43.673 29.9672 44.0246C31.4337 44.5603 32.3678 45.6256 32.9412 47.0375C33.6604 48.8087 33.5003 50.5762 32.8693 52.3267C32.1405 54.3483 30.8958 55.9306 28.9089 56.8712C28.0488 57.2783 27.1439 57.5044 26.2052 57.6127C24.93 57.76 23.6566 57.7099 22.4265 57.3526C20.2621 56.7241 19.0116 55.1915 18.6757 53.0331C18.2859 50.5269 18.9429 48.2249 20.5818 46.2606C21.9638 44.6045 23.8038 43.8027 25.9268 43.5967C26.0674 43.5831 26.2088 43.5772 26.35 43.5748C26.5619 43.5712 26.7739 43.5738 26.9856 43.5738H26.9861ZM28.5761 49.4866C28.5626 49.2059 28.5657 48.9235 28.5326 48.6455C28.4355 47.8289 27.9202 47.2503 27.121 47.1084C26.1198 46.9307 25.2315 47.1827 24.6193 48.0209C23.7022 49.2758 23.2608 50.6984 23.4499 52.2537C23.554 53.1111 24.0207 53.7952 24.8805 54.0789C25.6885 54.3455 26.4072 54.0869 27.0155 53.5229C27.2733 53.2838 27.4928 53.0071 27.665 52.6959C28.2175 51.6969 28.5686 50.6425 28.5764 49.4868L28.5761 49.4866Z" fill="#001E31"/>
<path d="M45.0279 34.324H40.002C41.4784 28.0867 42.9447 21.8931 44.4108 15.7H49.4329C47.9603 21.9258 46.4989 28.1041 45.0277 34.324H45.0279Z" fill="#001E31"/>
<path d="M52.7728 15.6975H57.7993C56.3236 21.9348 54.8594 28.1245 53.3938 34.3197H48.4809C48.3855 33.8356 48.578 33.4145 48.6769 32.9949C49.6701 28.7756 50.687 24.5618 51.6913 20.3449C52.0551 18.8182 52.4033 17.2879 52.773 15.6975H52.7728Z" fill="#001E31"/>
<path d="M94.033 46.2684C94.4554 45.7729 94.8619 45.2631 95.3032 44.7853C96.1334 43.8869 97.15 43.4413 98.3955 43.5834C98.7991 43.6294 99.1785 43.7258 99.5839 43.9944C99.0527 45.3278 98.3345 46.5815 97.7518 47.8489C97.5192 47.985 97.3393 47.8873 97.1575 47.8608C96.0475 47.699 95.1194 48.0362 94.3744 48.8728C93.882 49.426 93.5588 50.074 93.3208 50.7672C92.8242 52.2134 92.5688 53.7214 92.1943 55.1987C92.0162 55.901 91.8633 56.6095 91.6928 57.3433H86.8262C86.8249 56.8101 89.5986 44.8207 89.9346 43.8954H94.4374C94.4965 44.3366 94.289 44.6975 94.2288 45.0818C94.1679 45.472 93.9601 45.835 94.0114 46.246C93.9554 46.2357 93.9171 46.2562 93.9223 46.3055C93.9249 46.3315 93.959 46.3541 93.9788 46.3783C93.9968 46.3417 94.0148 46.3053 94.0327 46.2686L94.033 46.2684Z" fill="#001E31"/>
<path d="M58.6348 45.6855C58.9437 45.3311 59.2345 44.9593 59.5645 44.6257C60.6511 43.5275 62.1888 43.2289 63.6468 43.9372C63.5491 44.4155 62.3552 46.9589 61.7667 47.9351C61.2482 47.8976 60.7295 47.7742 60.1785 47.8831C59.308 48.0554 58.6828 48.5277 58.2002 49.2287C57.536 50.1942 57.2052 51.2935 56.9469 52.4193C56.6063 53.905 56.2678 55.3909 55.923 56.8755C55.8868 57.0314 55.815 57.179 55.7522 57.3502H50.9817C50.9421 57.3172 50.9197 57.3053 50.9077 57.2868C50.8955 57.2678 50.8879 57.2421 50.8887 57.2198C50.8905 57.1504 50.8877 57.079 50.9033 57.0122C51.9246 52.6542 52.9477 48.2965 53.9789 43.9024H58.5742C58.5473 44.4862 58.2942 44.9999 58.2294 45.5504C58.082 45.8518 57.9331 46.1529 58.0213 46.5998C58.2909 46.2701 58.5122 46.0137 58.6346 45.6855H58.6348Z" fill="#001E31"/>
<path d="M70.1531 43.8931C69.087 48.4093 68.0376 52.8559 66.9801 57.3362H62.1315C62.1049 57.3079 62.0856 57.2936 62.0752 57.2746C62.0643 57.2546 62.0547 57.2289 62.057 57.2071C62.07 57.0912 62.0778 56.9738 62.1044 56.8608C63.1202 52.5472 64.1379 48.2344 65.162 43.8931H70.1531Z" fill="#001E31"/>
<path d="M79.8546 32.3578C79.3374 32.7007 78.7974 33.059 78.236 33.4316C75.2856 30.697 71.7835 29.5182 67.8356 29.5366C63.9111 29.5548 60.4431 30.7536 57.517 33.5129C57.1014 33.0577 56.6808 32.5971 56.248 32.1232C57.1725 31.0436 58.2396 30.2075 59.4429 29.5489C61.3391 28.5106 63.3601 27.8642 65.5157 27.6082C68.7816 27.2203 71.9577 27.5155 75.006 28.7884C76.7595 29.5205 78.3388 30.5297 79.6223 31.9553C79.7132 32.0561 79.8304 32.1434 79.8549 32.358L79.8546 32.3578Z" fill="#001E31"/>
<path d="M59.5243 36.5394C59.1826 36.144 58.865 35.7761 58.5215 35.378C59.2024 34.5053 60.0425 33.8383 60.9731 33.2901C63.0441 32.0708 65.2971 31.4971 67.6967 31.4469C70.0439 31.3976 72.2745 31.8595 74.3791 32.9014C75.4655 33.4392 76.9721 34.531 77.6203 35.4934C77.2427 35.874 76.7927 36.1575 76.288 36.4459C73.9442 34.2096 71.1261 33.1955 67.9099 33.2072C64.6893 33.2189 61.8791 34.2592 59.5243 36.5394Z" fill="#001E31"/>
<path d="M75.4376 38.5086C75.0717 38.8196 74.7395 39.0763 74.3752 39.28C71.0374 35.7703 64.9526 35.6329 61.5052 39.3387C61.2575 39.0251 61.0143 38.7164 60.7539 38.3867C61.1088 37.792 61.6309 37.3859 62.1554 37.0079C64.2508 35.4975 66.5988 34.9467 69.1622 35.2174C70.8829 35.3993 72.4568 35.9429 73.8663 36.9541C74.1361 37.1476 74.378 37.3675 74.6158 37.594C74.9035 37.8684 75.1902 38.1451 75.4373 38.5086H75.4376Z" fill="#001E31"/>
<path d="M70.5593 39.7878C70.6109 41.2457 69.1724 42.6409 67.8147 42.6329C66.3752 42.6243 65.6841 41.4348 65.764 40.4603C65.8773 39.0811 66.9288 37.9582 68.1438 37.7641C69.5237 37.5435 70.5632 38.3965 70.5593 39.7878Z" fill="#001E31"/>
<path d="M58.6339 45.6854C58.5115 46.0136 58.2901 46.27 58.0206 46.5997C57.9323 46.1528 58.081 45.8517 58.2287 45.5503C58.2474 45.6363 58.2662 45.7226 58.2839 45.8034C58.4167 45.7587 58.5253 45.722 58.6339 45.6854Z" fill="#001E31"/>
</g>
<defs>
<clipPath id="clip0_3441_4172">
<rect width="130" height="57.69" fill="white"/>
</clipPath>
</defs>
</svg>
