<?xml version="1.0" encoding="UTF-8"?>
<svg id="Layer_1" data-name="Layer 1" xmlns="http://www.w3.org/2000/svg" version="1.1" xmlns:xlink="http://www.w3.org/1999/xlink" viewBox="0 0 120 80">
  <defs>
    <style>
      .cls-1 {
        fill: none;
      }

      .cls-1, .cls-2 {
        stroke-width: 0px;
      }

      .cls-2 {
        fill: #001e31;
      }

      .cls-3 {
        clip-path: url(#clippath);
      }
    </style>
    <clipPath id="clippath">
      <rect class="cls-1" x="15" y="2.8" width="90" height="74.3"/>
    </clipPath>
  </defs>
  <g class="cls-3">
    <g>
      <path class="cls-2" d="M63.9,15.6c-8.6-10.5-22-12.8-32.6-7.1-10.2,5.5-15.6,17.3-12.9,28.3,3.1,12.6,13.6,19.2,23.5,19.8v-17.9c.3,0,.5,0,.7,0h16c.5,0,.8.1,1,.6,3.4,5.9,6.8,11.8,10.3,17.7.4.8.4,1.3,0,2-3,5.1-5.9,10.3-8.9,15.4-.4.7-.8,1.5-1.3,2.2-.2.3-.8.7-1.1.7-5.3,0-10.6,0-15.9,0-.7,0-.9-.2-.9-.9,0-5.3,0-10.6,0-15.9v-.9c-1.6-.3-3.2-.5-4.8-.9-9.4-2.3-16.3-7.8-20-16.9-2.9-7.2-2.9-14.6.3-21.8,4.2-9.4,11.4-15,21.6-16.6,8.7-1.4,16.5,1,23.2,6.8,1.1,1,2,2.1,3,3.2.3.3.3.6,0,1-.4.4-.9.9-1.3,1.4ZM48.5,64.1c.5-.5.9-1,1.4-1.3.5-.4,1.1-.7,1.7-1,.3-.1.7-.3.9-.2,1.6.7,3,1.7,3.7,3.3.2.5.4,1.1.3,1.5-.6,2.2,0,4.4,0,6.6,0,.5.4,1,.7,1.5.4-.4.8-.8,1.2-1.1,0,0,0-.1.1-.2,2.8-4.9,5.6-9.7,8.5-14.6.3-.6.3-1,0-1.5-3-5.1-5.9-10.2-8.9-15.3-.2-.3-.6-.6-.9-.6-4,0-8,0-12.1,0s-.6.2-.6.6c0,10.1,0,20.3,0,30.4,0,2.1,0,2.1,2.1,2.1,1.2,0,1.5-.2,1.8-1.4.3-1.1.6-2.1.8-3.2,0-.2,0-.4,0-.6-.4-1.1-.8-2.2-1.7-3.1-.4-.3-.6-.9-.7-1.4-.3-1.5-.5-3.1-.7-4.6,0-.2.1-.5.2-.6,1-.3,1.5.2,1.4,1.2-.1,1.1-.3,2.3.5,3.4ZM53.1,67.2c-.9.5-1.7.8-2.3,1.3-.3.2-.5.7-.5,1.1.1,1.4.4,2.9.6,4.3,0,.2.3.5.4.5,2.8.5,3.3.1,3.8-2.5,0-.4.1-.8,0-1.1,0-.3-.2-.8-.5-.9-.9-.6-1.7-1.2-1.7-2.6h0ZM48.9,74.4c0,0,.2.1.3.2.3-.2.8-.3,1-.5.4-.6,0-2.3-.6-3-.3,1.1-.5,2.2-.8,3.3h0ZM56.1,71.7c-.6.6-.8,2.2-.4,2.9.8-.9.3-1.9.4-2.9Z"/>
      <path class="cls-2" d="M104.9,38.7c0,.8,0,1.5,0,2.1,0,.2-.3.4-.6.5-.9,0-1.8,0-2.7,0-10.6,0-21.2,0-31.9,0h-2.6c.2.3.3.6.4.9,2.9,5,5.8,10.1,8.8,15.1.3.5.3.8,0,1.2-3.4,5.9-6.9,11.8-10.3,17.8-.4.6-.8,1-1.5.9-.6,0-1.2,0-1.9,0,.1-.3.2-.5.3-.7,3.4-5.9,6.9-11.9,10.3-17.8.3-.6.3-.9,0-1.5-3.4-5.9-6.9-11.8-10.3-17.8-.1-.2-.2-.4-.3-.7h42.2Z"/>
      <path class="cls-2" d="M68.6,77.1c.5-.9.8-1.6,1.3-2.3.2-.2.6-.4.9-.4,1.1,0,2.1,0,3.2,0,10,0,20,0,30.1,0,.8,0,1,.3.9,1,0,2.1.2,1.8-1.8,1.8h-34.6Z"/>
      <path class="cls-2" d="M73.7,68.2c.5-.9.8-1.6,1.2-2.3.1-.2.5-.3.7-.4.4,0,.9,0,1.4,0,9,0,18,0,27,0,.7,0,.9.2.9.9,0,2.3.3,1.9-1.9,1.9-8.9,0-17.8,0-26.7,0h-2.7Z"/>
      <path class="cls-2" d="M73.8,47.7h31.1c0,.8,0,1.5,0,2.3,0,.1-.3.3-.4.3-.2,0-.4,0-.6,0-9.2,0-18.4,0-27.7,0-.7,0-1.2-.2-1.5-.9-.3-.6-.6-1.1-1-1.8Z"/>
      <path class="cls-2" d="M78.9,59.2c.5-.9.8-1.7-.1-2.6.4,0,.6-.1.8-.1,7.9,0,15.8,0,23.8,0,1.1,0,1.6.6,1.6,1.7,0,1.1,0,1.1-1.2,1.1-7.8,0-15.6,0-23.4,0h-1.4,0Z"/>
      <path class="cls-2" d="M74.9,34.7c.7-1.7,1.3-3.2,2-4.7.5-1.1,1-2.3,1.4-3.4.2-.7.6-1,1.3-.9.3,0,.5,0,1,0v2.7c0,2.2,0,4.5,0,6.7,0,1.9-.1,1.5,1.4,2.3h-4.7c.4-.3,1-.5,1.2-.9.2-.4.1-1,.2-1.5,0-2.1,0-4.3,0-6.5,0-.1,0-.3,0-.5h-.2c-1.3,3.1-2.6,6.2-3.9,9.3,0,0-.2,0-.3,0-1.3-3.2-2.6-6.4-3.8-9.6h-.2c0,.2,0,.4,0,.6v7c0,.9.2,1.6,1.2,1.9h-3.4s0-.1,0-.1c.8-.3,1.2-.9,1.2-1.8v-7.3c0-1-.5-1.8-1.4-2.4,1.2,0,2.2,0,3.2,0,.2,0,.4.4.5.6,1,2.5,2,4.9,3,7.4,0,.2.2.5.4.9h0Z"/>
      <path class="cls-2" d="M84.6,25.7h6.8c.5,0,.9,0,1.4,0,.3,0,.5.3.8.4-.3.1-.5.3-.8.4-.5,0-1,0-1.5,0h-3c-.4,0-.7,0-.7.6,0,1,0,2,0,3,0,.7.2.9.9.8,1.4,0,2.9,0,4.3,0,.3,0,.5.3.8.4-.3.1-.5.3-.8.4-1.4,0-2.9,0-4.3,0-.6,0-.9.1-.8.9,0,1,0,2.1,0,3.1,0,.6.2.8.8.8,1.4,0,2.9,0,4.3,0,.3,0,.6.3.9.5-.3.2-.6.5-.8.5-2.6,0-5.2,0-7.8,0-.1,0-.3,0-.5,0,0,0,0-.2,0-.2,1.3-.5,1.2-.5,1.2-1.9,0-2.4,0-4.8,0-7.2,0-.9.1-2-1.4-2.2,0,0,.1-.1.2-.2h0Z"/>
      <path class="cls-2" d="M57.3,37.4h-3.6c2.2-1.7,2.4-4.4,3.5-6.6.8-1.7,1.5-3.6,2.2-5.5.2.4.4.6.5.8,1.3,3.1,2.5,6.2,3.8,9.3.3.7.8,1.4,1.2,2h-4.3c.3-.2.5-.3.6-.3.9-.3,1.1-.6.8-1.4-.9-2.4-1.9-4.9-2.9-7.4-.2.3-.4.5-.5.7-.8,1.9-1.6,3.9-2.4,5.8-.1.3-.2.6-.2.8-.2,1,.4,1.3,1.2,1.6,0,0,0,.1,0,.2h0Z"/>
      <path class="cls-2" d="M99.1,36.5h4.6c.2,0,.5,0,.6,0,.2.1.4.3.6.5-.2.1-.4.4-.6.4-1.4,0-2.7,0-4.1,0s-2.4,0-3.6,0c-.3,0-.5,0-.8-.2,1.6-.3,1.4-1.4,1.4-2.5,0-2.3,0-4.7,0-7,0-.9,0-1.8-1.2-2h3.1v10.8h0Z"/>
      <path class="cls-2" d="M52,34.5c0,.3,0,.6-.2.9-1.3,2.2-3.6,3-6.1,1.9-2.4-1-4-3.7-3.7-6.1.3-2.8,2.2-5,4.8-5.7,1.2-.3,2.2,0,3.3.4.7.3,1.3.6,1.7-.6v3.1h-.2c-.2-.2-.4-.4-.6-.7-1.1-2.1-4.9-2.6-6.4.2-1.2,2.2-1.3,4.5-.2,6.8.6,1.4,1.8,2.1,3.3,2.2,1.6.1,2.7-.7,3.5-1.9.2-.2.3-.5.5-.7.1,0,.2,0,.3,0h0Z"/>
    </g>
  </g>
</svg>