<svg width="150" height="22" viewBox="0 0 150 22" fill="none" xmlns="http://www.w3.org/2000/svg">
<g clip-path="url(#clip0_3441_4245)">
<path d="M17.8776 6.39184V4.16327H8.47347C5.5102 4.16327 4.77551 5.02041 4.77551 7.6898V14.0327C4.77551 16.7265 5.5102 17.5347 8.49796 17.5347H23.2653V21.649H8.25306C1.86122 21.649 0 19.6898 0 14.2286V7.42041C0 1.95918 1.86122 0 8.25306 0H23.2653V4.16327L17.8776 6.39184Z" fill="#001E31"/>
<path d="M34.507 21.6735C28.1151 21.6735 26.2539 19.7143 26.2539 14.2531V7.42041C26.2539 1.95918 28.1396 0 34.507 0H42.7355C49.1519 0 51.0376 1.95918 51.0376 7.42041V14.2286C51.0376 19.6898 49.1519 21.649 42.7355 21.649H34.507V21.6735ZM46.1886 7.66531C46.1886 4.97143 45.3559 4.16327 42.5396 4.16327H34.7274C31.6662 4.16327 31.0539 4.94694 31.0539 7.66531V14.0571C31.0539 16.8735 31.6906 17.5592 34.7274 17.5592H42.5396C45.3559 17.5592 46.1886 16.898 46.1886 14.0571V7.66531Z" fill="#001E31"/>
<path d="M62.4484 21.6735C56.0565 21.6735 54.1953 19.7143 54.1953 14.2531V0H59.0443V14.0816C59.0443 16.751 60.0239 17.5347 62.9137 17.5347H70.1872C73.0769 17.5347 74.0565 16.751 74.0565 14.0327V0H78.8565V14.2286C78.8565 19.6898 76.9953 21.649 70.579 21.649H62.4484V21.6735Z" fill="#001E31"/>
<path d="M99.9436 21.6735L87.2824 13.7878V21.6735H82.4824V0H99.4294C105.503 0 107.976 1.29796 107.976 6.51429V8.00816C107.976 13.0286 105.282 14.3265 99.3804 14.3265H95.56L108.27 21.6735H99.9436ZM103.152 6.78367C103.152 4.45714 102.295 4.0898 99.111 4.0898H87.2579V10.702H99.111C102.221 10.702 103.152 10.3102 103.152 7.95918V6.78367Z" fill="#001E31"/>
<path d="M111.404 21.6735V0H116.229V21.6735H111.404Z" fill="#001E31"/>
<path d="M142.972 21.6735L134.058 13.3714L125.168 21.6735H118.434L130.874 10.4571L119.119 0H126.074L134.327 7.6898L143.021 0H149.585L137.805 10.4082L149.976 21.649H142.948L142.972 21.6735Z" fill="#001E31"/>
</g>
<defs>
<clipPath id="clip0_3441_4245">
<rect width="150" height="21.6735" fill="white"/>
</clipPath>
</defs>
</svg>
