<svg width="150" height="22" viewBox="0 0 150 22" fill="none" xmlns="http://www.w3.org/2000/svg">
<g clip-path="url(#clip0_3441_4206)">
<path d="M26.3795 0L21.5879 6.51139H47.7075C49.0278 6.51139 49.0093 7.01409 48.3663 7.88722C47.7102 8.77357 46.6148 10.3187 45.948 11.2183C45.6094 11.676 44.9982 12.5095 47.0275 12.5095H57.7088C57.7088 12.5095 59.4312 10.1679 60.8732 8.20736C62.8364 5.54301 61.0425 0 54.0258 0H26.3795Z" fill="#001E31"/>
<path d="M19.6484 21.2116L29.274 8.1333C29.274 8.1333 39.9446 8.1333 41.2199 8.1333C42.4952 8.1333 42.5216 8.63601 41.8787 9.50913C41.2225 10.3955 40.1086 11.9248 39.4419 12.8244C39.1032 13.2821 38.4894 14.1155 40.5187 14.1155H56.5207C55.1899 15.9385 50.8719 21.2116 43.1222 21.2116H19.6484Z" fill="#001E31"/>
<path d="M74.7743 14.1155L69.5541 21.2116H55.7852C55.7852 21.2116 61.0027 14.1155 61.008 14.1155H74.7769H74.7743Z" fill="#001E31"/>
<path d="M95.8682 12.5095H62.1895L71.3996 0H85.1632L79.8848 7.17284H86.031L91.3121 0H105.076L95.8682 12.5095Z" fill="#001E31"/>
<path d="M94.6857 14.1155L89.4628 21.2116H75.6992C75.6992 21.2116 80.9168 14.1155 80.9221 14.1155H94.6883H94.6857Z" fill="#001E31"/>
<path d="M0 16.9148H20.2856L19.177 18.4229H0V16.9148Z" fill="#001E31"/>
<path d="M0 14.1155H22.3467L21.2354 15.621H0V14.1155Z" fill="#001E31"/>
<path d="M0 19.7141H18.2245L17.1212 21.2116H0V19.7141Z" fill="#001E31"/>
<path d="M149.999 18.4229H129.793L130.902 16.9148H149.999V18.4229Z" fill="#001E31"/>
<path d="M150 21.2116L127.738 21.2143L128.842 19.7141H150V21.2116Z" fill="#001E31"/>
<path d="M132.96 14.1155H149.999V15.6236H131.852L132.96 14.1155Z" fill="#001E31"/>
<path d="M124.14 0L114.932 12.5095H100.346C100.346 12.5095 109.556 0 109.561 0H124.14Z" fill="#001E31"/>
<path d="M99.1628 14.1155C99.1628 14.1155 98.1573 15.4913 97.6679 16.1528C95.9375 18.489 97.4668 21.2116 103.11 21.2116H125.216L130.439 14.1155H99.1628Z" fill="#001E31"/>
</g>
<defs>
<clipPath id="clip0_3441_4206">
<rect width="150" height="21.2143" fill="white"/>
</clipPath>
</defs>
</svg>
