<svg width="180" height="52" viewBox="0 0 180 52" fill="none" xmlns="http://www.w3.org/2000/svg">
<g clip-path="url(#clip0_3555_701)">
<path d="M52.0339 25.8763C52.1031 39.9802 40.469 51.7926 26.4652 51.84C11.8717 51.8873 0.128463 40.5099 0.0010565 26.304C-0.12635 11.8598 11.2856 0.185693 25.4915 0.00186395C40.2852 -0.189246 51.9611 11.2883 52.0339 25.8763Z" fill="#001E31"/>
<path d="M150.544 22.216C149.634 20.9073 148.416 19.9754 146.876 19.5459C144.634 18.9198 142.532 19.3584 140.61 20.6161C140.382 20.2703 140.764 19.6806 140.071 19.6806C138.325 19.686 136.582 19.6824 134.68 19.6824C135.186 20.5433 135.264 21.5316 136.192 21.8829C136.753 22.094 136.796 22.4253 136.795 22.9094C136.784 26.8063 136.796 30.7031 136.78 34.5999C136.78 35.1295 137.089 35.8812 136.076 35.9195C135.923 35.9249 135.886 36.1342 135.886 36.2908C135.885 36.804 135.885 37.3173 135.886 37.8306C135.888 38.2091 136.143 38.2583 136.442 38.2565H140.804C141.05 38.2565 141.423 38.2219 141.341 37.9416C141.134 37.2227 142.08 36.1342 140.67 35.7884C140.46 35.7356 140.517 35.4845 140.515 35.3134C140.509 34.4416 140.513 33.5697 140.513 32.5869C144.412 34.9876 148.09 33.8973 150.07 31.6495C152.265 29.1578 152.498 25.0262 150.544 22.216ZM144.497 30.7122C142.259 30.7249 140.531 28.9703 140.513 26.6679C140.497 24.3637 142.208 22.5436 144.406 22.529C146.716 22.5127 148.238 24.138 148.241 26.6224C148.245 29.0523 146.738 30.6976 144.497 30.7122Z" fill="#001E31"/>
<path d="M133.413 22.1852C132.538 20.9439 131.382 20.043 129.906 19.5971C127.629 18.9109 125.507 19.3313 123.423 20.6509C123.556 19.8209 123.239 19.6444 122.575 19.6644C120.973 19.7154 119.369 19.6808 117.557 19.6808C118.092 20.5198 118.13 21.5009 119.018 21.8467C119.593 22.0724 119.673 22.3927 119.67 22.9278C119.65 26.821 119.666 30.7142 119.65 34.6074C119.648 35.1316 119.97 35.876 118.96 35.936C118.785 35.9451 118.794 36.2309 118.794 36.4111C118.791 36.8333 118.807 37.2556 118.789 37.6779C118.769 38.1074 118.958 38.2658 119.38 38.2621C120.833 38.2494 122.285 38.2567 123.739 38.2567C123.92 38.2548 124.195 38.2639 124.213 38.0838C124.275 37.4886 124.271 36.8843 124.284 36.2837C124.293 35.8323 123.927 35.8887 123.645 35.8214C123.412 35.7668 123.428 35.5611 123.428 35.3846C123.423 34.4909 123.426 33.5954 123.426 32.6635C127.614 34.6219 130.785 34.2379 133.044 31.5478C135.195 28.9851 135.366 24.9518 133.413 22.1852ZM127.396 30.7124C125.15 30.7324 123.434 28.9906 123.423 26.6772C123.412 24.3311 125.077 22.5438 127.29 22.5292C129.591 22.5128 131.144 24.1546 131.153 26.6153C131.162 29.0306 129.64 30.6924 127.396 30.7124Z" fill="#001E31"/>
<path d="M83.4948 14.5535C87.2205 14.539 89.9051 16.2262 90.9153 19.031C91.1446 19.6662 91.1665 20.0247 90.3401 20.1121C89.532 20.1977 88.7312 20.3888 87.9431 20.5963C87.4844 20.7164 87.3607 20.5926 87.1932 20.1576C86.4106 18.1373 84.0262 17.2418 82.0715 18.1773C81.0977 18.6433 80.6372 19.3732 80.7228 20.3214C80.8174 21.3516 81.5382 21.7393 82.4227 21.9267C83.7823 22.2143 85.1492 22.4764 86.5143 22.7476C90.2091 23.4829 92.0893 26.1603 91.2593 29.5384C90.8043 31.3894 89.5757 32.5925 87.8448 33.2586C85.1238 34.3034 82.3882 34.2433 79.7217 33.0603C77.9671 32.2831 76.8077 30.9526 76.3473 29.0524C76.2308 28.5719 76.3109 28.3353 76.846 28.2825C77.2937 28.2388 77.7415 28.1296 78.1765 28.0059C79.3595 27.671 80.2441 27.4744 80.9667 29.0342C81.7857 30.8052 85.3585 31.1564 86.8856 29.8933C87.5518 29.3436 87.7993 28.6138 87.6064 27.782C87.4116 26.9338 86.7218 26.5716 85.9628 26.4024C84.6669 26.1111 83.351 25.9018 82.0496 25.6361C81.4581 25.516 80.8647 25.3867 80.295 25.1902C78.0618 24.4203 76.815 22.8313 76.7113 20.6745C76.593 18.2156 77.6905 16.3281 79.8455 15.338C81.0722 14.7738 82.3718 14.5262 83.4966 14.5535H83.4948Z" fill="#001E31"/>
<path d="M97.4539 20.8147C99.2758 19.3586 101.183 18.9855 103.233 19.4587C105.542 19.992 107.08 21.8721 107.286 24.22C107.463 26.2385 107.346 28.2607 107.383 30.281C107.39 30.6941 107.288 31.1182 107.949 31.1874C108.364 31.231 108.192 31.677 108.198 31.9482C108.236 33.5462 108.231 33.5462 106.658 33.5462C105.568 33.5462 104.478 33.5335 103.389 33.5517C102.938 33.5589 102.712 33.417 102.745 32.9292C102.774 32.5088 102.75 32.0847 102.752 31.6624C102.752 31.4458 102.758 31.1783 103.038 31.1837C103.688 31.1946 103.639 30.7742 103.637 30.341C103.63 28.8613 103.644 27.3834 103.631 25.9036C103.617 24.1709 102.714 22.9169 101.378 22.7312C99.558 22.48 98.2584 23.3009 97.7397 25.0992C97.2028 26.9629 97.5358 28.8795 97.4594 30.7724C97.4539 30.9253 97.4812 31.0745 97.6687 31.12C97.9417 31.1855 98.3294 31.0873 98.3276 31.5514C98.3239 32.1538 98.3367 32.7581 98.2693 33.3533C98.2438 33.5808 97.9272 33.5444 97.7197 33.5444C96.2964 33.548 94.8749 33.5353 93.4515 33.5535C93.0165 33.5589 92.8546 33.3933 92.8782 32.9674C92.9019 32.547 92.8782 32.1229 92.8855 31.7006C92.8873 31.5259 92.8418 31.2456 93.0384 31.2274C93.963 31.14 93.6973 30.4575 93.6991 29.9442C93.7118 25.5979 93.6991 21.2515 93.7155 16.9051C93.7173 16.3409 93.6317 15.9732 93.0293 15.7311C92.2576 15.4181 92.1247 14.5699 91.8062 13.9019C91.6515 13.578 91.9536 13.5707 92.1593 13.5689C93.7628 13.5634 95.3681 13.5761 96.9716 13.5616C97.5759 13.5561 97.4521 13.9711 97.4521 14.3115C97.4576 16.4191 97.4539 18.525 97.4539 20.8201V20.8147Z" fill="#001E31"/>
<path d="M158.374 19.6679C154.808 20.8983 152.881 24.7441 153.876 28.6428C154.79 32.2284 158.184 34.4361 161.877 33.8992C164.218 33.5607 165.989 32.4431 167.183 30.3864C167.547 29.7585 167.336 29.5729 166.735 29.4709C166.2 29.3817 165.667 29.2725 165.141 29.136C164.549 28.9831 164.151 29.0487 163.688 29.5892C161.925 31.6514 158.605 31.0217 157.587 28.5081C157.333 27.8802 157.34 27.5853 158.163 27.6144C159.642 27.669 161.128 27.6308 162.611 27.6308C164.094 27.6308 165.636 27.6254 167.15 27.6326C167.538 27.6345 167.805 27.6436 167.847 27.0939C168.253 21.8102 163.348 17.9534 158.374 19.6679ZM163.341 25.0372C162.467 24.9971 161.59 25.0263 160.714 25.0263C159.839 25.0263 158.903 25.0081 157.999 25.0335C157.464 25.0499 157.445 24.8333 157.653 24.4475C158.326 23.1971 159.362 22.5455 160.794 22.5273C162.165 22.5091 163.159 23.1079 163.801 24.3128C164.082 24.8406 163.989 25.0645 163.341 25.0372Z" fill="#001E31"/>
<path d="M70.3631 19.648C65.2942 17.9535 60.5656 21.8012 60.9277 27.3252C61.1298 30.4084 63.2648 33.0075 66.2024 33.7428C69.3657 34.5364 72.6364 33.3133 74.2345 30.7378C74.6713 30.0341 74.4947 29.5985 73.7048 29.431C73.2916 29.3436 72.8712 29.2781 72.469 29.1507C71.8338 28.9505 71.4078 29.0488 70.9364 29.6239C69.9154 30.8671 68.4811 30.9926 67.036 30.594C65.609 30.1991 64.9629 29.0724 64.6007 27.6309H65.6127C68.5212 27.6309 71.4297 27.6346 74.3382 27.6237C74.6513 27.6218 75.0499 27.8038 75.1299 27.1905C75.5467 24.0472 73.4354 20.6745 70.3631 19.648ZM70.6361 25.0337C69.7625 25.01 68.8852 25.0264 68.0097 25.0264C67.1343 25.0264 66.1969 25.01 65.2923 25.0337C64.8027 25.0464 64.7263 24.8917 64.9083 24.4585C65.3651 23.3683 66.6792 22.5438 68.0498 22.5274C69.464 22.511 70.5761 23.2081 71.1075 24.3766C71.3678 24.9463 71.164 25.0482 70.6361 25.0337Z" fill="#001E31"/>
<path d="M168.346 19.6826C170.151 19.6826 171.815 19.699 173.478 19.6735C173.992 19.6662 174.188 19.8282 174.152 20.3451C174.115 20.8438 174.145 21.3462 174.145 22.0451C175.266 20.7146 176.447 19.8264 178.014 19.5843C178.074 19.5752 178.131 19.5534 178.191 19.5424C179.912 19.2585 180.045 19.3659 179.985 21.0622C179.962 21.7229 180.109 22.5147 179.798 23.0061C179.472 23.523 178.62 23.1681 178.001 23.25C175.806 23.5394 174.374 25.263 174.185 27.9513C174.135 28.6429 174.137 29.3382 174.148 30.0316C174.157 30.5213 174.01 30.949 174.771 31.2693C175.353 31.515 174.982 32.5288 174.978 33.195C174.974 33.6919 174.489 33.5335 174.188 33.5371C172.856 33.5517 171.524 33.528 170.193 33.5517C169.687 33.5608 169.467 33.3934 169.505 32.8746C169.534 32.4851 169.507 32.0902 169.514 31.697C169.518 31.4895 169.496 31.1929 169.764 31.1874C170.604 31.171 170.415 30.5759 170.417 30.0972C170.424 27.6819 170.412 25.2666 170.426 22.8532C170.43 22.3945 170.373 22.0942 169.856 21.9013C168.926 21.5518 168.804 20.5854 168.346 19.679V19.6826Z" fill="#001E31"/>
<path d="M115.296 25.4086C115.296 27.0375 115.296 28.6684 115.296 30.2973C115.296 30.7087 115.186 31.1473 115.873 31.1692C116.388 31.1855 116.189 31.6679 116.197 31.9573C116.235 33.5444 116.226 33.5444 114.648 33.5444C113.558 33.5444 112.469 33.5316 111.379 33.5498C110.917 33.5571 110.713 33.3933 110.745 32.9165C110.775 32.496 110.749 32.0719 110.755 31.6497C110.756 31.4713 110.747 31.2074 110.96 31.2056C111.859 31.1946 111.628 30.5503 111.63 30.0571C111.639 27.6418 111.623 25.2284 111.643 22.8131C111.646 22.3435 111.564 22.0742 111.057 21.8976C110.183 21.5955 110.016 20.6963 109.688 19.9701C109.544 19.6498 109.895 19.6862 110.087 19.6844C111.63 19.6771 113.173 19.6971 114.717 19.6716C115.237 19.6625 115.305 19.9119 115.301 20.3378C115.287 22.0286 115.296 23.7177 115.296 25.4086Z" fill="#001E31"/>
<path d="M111.246 15.7783C111.259 14.5152 112.264 13.5432 113.523 13.576C114.744 13.6088 115.725 14.5825 115.731 15.771C115.736 17.0269 114.752 17.9588 113.438 17.9406C112.158 17.9224 111.235 17.0123 111.246 15.7783Z" fill="#001E31"/>
<path d="M44.737 25.6214C44.6569 36.1233 36.7813 43.8241 27.5316 44.5121C26.8272 44.5649 26.1793 44.4994 25.8498 43.755C25.4458 42.8413 25.9973 41.9676 27.1294 41.8639C29.3572 41.66 31.463 41.0831 33.4524 40.0583C40.0065 36.6802 43.4411 28.9303 41.4972 21.8829C41.1878 20.7635 40.8893 20.678 40.0721 21.477C39.9647 21.5826 39.8628 21.6954 39.7499 21.7955C38.2574 23.1205 36.7231 24.4256 37.3692 26.768C36.5101 35.6392 26.9674 40.173 19.5214 35.2333C19.0809 34.9421 18.8498 34.922 18.4894 35.3206C17.8851 35.9959 17.2281 36.6256 16.5692 37.2499C14.7928 38.9299 12.2228 38.6933 10.7868 36.7312C2.67459 25.6505 9.43806 9.52263 23.056 7.48958C23.6821 7.39676 24.3173 7.33669 24.9507 7.30575C25.7625 7.26571 26.2193 7.75532 26.3012 8.48517C26.385 9.23141 25.9809 9.7829 25.2128 9.91577C24.2318 10.0869 23.2344 10.1469 22.2588 10.3854C11.4802 13.0117 6.56049 25.443 12.6578 34.6709C13.486 35.9249 14.0229 35.9868 15.0749 34.9402C15.6974 34.3214 16.5929 33.7936 16.8513 33.0473C17.1079 32.3066 16.1469 31.6404 15.792 30.8996C13.7007 26.5296 14.5689 21.224 17.987 17.8405C21.387 14.4733 26.5961 13.5851 30.9188 15.6345C33.5143 16.8649 34.0476 19.8043 32.0145 21.8483C28.5363 25.3447 25.0454 28.8265 21.5326 32.2865C21.0193 32.7907 20.952 33.051 21.6436 33.4095C24.8142 35.0585 27.9593 35.0713 30.9152 33.0346C33.8237 31.0289 35.0759 28.164 34.5699 24.6385C34.437 23.7139 34.6027 23.0295 35.3162 22.3852C36.3937 21.4151 37.3783 20.3413 38.4158 19.3257C40.3687 17.4109 43.219 18.1426 43.998 20.7653C44.4985 22.4526 44.7279 24.1853 44.737 25.6214Z" fill="#FEFEFE"/>
<path d="M27.7393 4.2644C28.2253 4.29717 28.5693 4.51922 28.8787 4.82863C29.7742 5.72776 30.6842 6.61051 31.5688 7.51873C32.3132 8.28317 32.2986 8.93841 31.5397 9.70648C30.6496 10.6093 29.7523 11.5066 28.8441 12.3911C28.1561 13.0609 27.4226 13.1173 26.8384 12.575C26.2159 11.9962 26.2396 11.2299 26.9276 10.5073C27.4062 10.005 27.8904 9.50445 28.4055 9.04033C28.7695 8.71089 28.7313 8.47792 28.3909 8.16487C27.8376 7.65342 27.3061 7.11467 26.7892 6.565C26.3797 6.13 26.3051 5.63311 26.5472 5.06343C26.7856 4.50284 27.2716 4.38817 27.7375 4.2644H27.7393Z" fill="#001E31"/>
<path d="M25.6291 40.1822C25.6164 40.7756 25.2724 41.1086 24.9448 41.4726C24.406 42.0678 23.3631 42.5338 23.425 43.2454C23.4778 43.8533 24.3951 44.3921 24.9411 44.9527C25.9622 45.9992 25.8002 47.1295 24.5789 47.4844C24.0402 47.6409 23.627 47.4426 23.2685 47.0895C22.2984 46.1375 21.3301 45.1856 20.3836 44.2101C19.7703 43.5767 19.7703 42.8468 20.3854 42.2134C21.3319 41.2379 22.3002 40.2859 23.2703 39.334C23.718 38.8936 24.2386 38.7352 24.841 39.0246C25.3561 39.2722 25.5891 39.6981 25.631 40.1858L25.6291 40.1822Z" fill="#001E31"/>
<path d="M26.1364 17.209C27.3613 17.2436 28.5298 17.5093 29.6419 18.0189C30.6775 18.494 30.8522 19.1874 30.0587 19.9846C26.5222 23.5356 22.9621 27.063 19.4257 30.614C19.0125 31.029 18.8778 30.8087 18.6449 30.4538C15.2868 25.3321 18.7705 17.9625 24.8732 17.3036C25.2937 17.2581 25.7159 17.2399 26.1364 17.209Z" fill="#001E31"/>
</g>
<defs>
<clipPath id="clip0_3555_701">
<rect width="180" height="51.8399" fill="white"/>
</clipPath>
</defs>
</svg>
