<svg width="140" height="43" viewBox="0 0 140 43" fill="none" xmlns="http://www.w3.org/2000/svg">
<g clip-path="url(#clip0_3555_683)">
<path d="M0.0178696 0.0287736C8.18337 -0.0265632 16.3489 0.0154928 24.5166 0.00885234C24.5498 3.10329 24.552 6.19773 24.5166 9.29216C20.0498 9.31872 15.5808 9.31872 11.1118 9.29216C11.0808 11.2201 11.0919 13.148 11.1052 15.076C15.2178 15.0472 19.3282 15.0693 23.4409 15.0605C23.4586 16.7649 23.4475 18.4692 23.4386 20.1736C24.3771 18.7747 25.5326 17.5329 26.8297 16.4616C28.9745 14.8413 31.5864 13.8608 34.2515 13.5708C36.9098 13.4181 39.659 13.376 42.1823 14.3522C45.4052 15.4014 48.0835 17.834 49.6351 20.8244C50.0778 21.6478 50.4032 22.5265 50.7529 23.3942C51.8375 19.8349 54.3033 16.6652 57.628 14.9476C60.6316 13.4601 64.2086 13.1126 67.4137 14.1175C69.0207 14.6244 70.3975 15.636 71.5463 16.849C71.5618 11.2334 71.5529 5.62001 71.5485 0.00442539C74.8045 0.0177062 78.0583 -0.0243498 81.3121 0.0309871C81.2391 8.03934 81.3033 16.0499 81.2811 24.0582C81.2944 29.7801 81.259 35.5041 81.2989 41.226C78.0937 41.3278 74.8886 41.268 71.6835 41.2658C71.6658 40.3693 71.6592 39.4751 71.668 38.5808L71.5861 38.7026C70.1142 40.635 68.0446 42.1733 65.6274 42.6426C62.6038 43.1738 59.3987 42.512 56.8045 40.8784C53.1014 38.5543 50.6378 34.4439 50.1641 30.1187C44.1103 30.101 38.0564 30.1232 32.0026 30.1055C31.6639 30.1276 31.2965 30.0678 30.9866 30.2316C31.1172 31.9936 32.0734 33.7201 33.5542 34.6984C35.232 35.8605 37.5008 35.9114 39.3469 35.1345C40.1548 34.7051 40.7259 33.9569 41.3036 33.2685C44.4511 33.3106 47.6009 33.2508 50.7485 33.2884C49.4957 36.6175 47.1051 39.6168 43.8557 41.1662C40.841 42.6404 37.3525 42.9547 34.0545 42.5408C30.172 42.0272 26.4844 39.9488 24.1824 36.7569C22.3695 34.2491 21.3713 31.1414 21.4664 28.0425C21.4089 26.6812 21.6701 25.3398 21.8294 23.9941C18.2547 23.983 14.6799 23.9941 11.1052 23.9896C11.0919 29.7734 11.0941 35.5595 11.1029 41.3433C7.40866 41.4008 3.71216 41.3433 0.0156561 41.372C0.000161829 27.591 -0.0109055 13.8099 0.0178696 0.0287736ZM33.5365 20.7115C32.3944 21.4707 31.7502 22.7324 31.3319 23.9985C34.7982 24.0206 38.2601 24.0937 41.7241 23.9985C41.3833 22.9869 41.0203 21.9134 40.2013 21.1785C38.4305 19.5494 35.5109 19.3015 33.5365 20.7115ZM64.4676 21.1409C62.0328 21.7275 60.4745 24.1114 60.1535 26.4842C59.6024 29.0563 60.3195 32.0068 62.367 33.7488C64.3193 35.4421 67.5332 35.3492 69.4059 33.5762C71.1633 31.7346 71.4998 28.9943 71.1788 26.5683C70.8778 24.9193 70.3045 23.1706 68.9477 22.086C67.7059 21.0723 66.0082 20.8244 64.4676 21.1409Z" fill="#001E31"/>
<path d="M81.31 0.0310221C88.9753 0.0575838 96.6383 0.0531568 104.301 0.0310221C104.306 3.10775 104.312 6.18227 104.297 9.25899C99.8921 9.36745 95.4806 9.28334 91.0714 9.30105C91.0471 11.2312 90.901 13.1835 91.1777 15.1004C95.567 15.0694 99.9541 15.0893 104.343 15.0893C104.253 18.0421 104.343 20.9993 104.29 23.9542C99.9209 23.972 95.5537 23.9631 91.1843 23.9587C90.9032 25.5258 91.0781 27.1217 91.0316 28.7044C91.036 29.8421 90.963 30.9909 91.171 32.1197C95.5072 32.091 99.8456 32.06 104.182 32.1264C104.474 32.9963 104.233 33.9857 104.304 34.9021C104.39 36.8854 104.1 38.904 104.529 40.8585C106.099 39.3069 107.462 37.5605 109.007 35.9845C110.3 34.3354 111.792 32.8635 113.146 31.2676C114.036 30.256 115.079 29.364 115.82 28.2307C115.716 28.0115 115.577 27.8145 115.426 27.6286C113.233 25.1694 111.039 22.7125 108.839 20.2622C107.391 18.5157 105.711 16.9641 104.377 15.1291C107.254 15.0339 110.138 15.1092 113.018 15.0849C114.196 15.1114 115.378 15.0207 116.553 15.1291C118.658 17.0526 120.296 19.4543 122.478 21.3069C124.006 19.5229 125.615 17.8163 127.1 15.9968C127.476 15.5917 127.846 14.9764 128.49 15.0826C132.233 15.1114 135.978 15.0339 139.721 15.1247C139.245 15.8817 138.668 16.5612 138.046 17.1987C134.823 20.831 131.529 24.4014 128.373 28.089C129.517 29.8664 131.208 31.2255 132.525 32.879C134.363 34.8069 136.105 36.8212 137.897 38.7912C138.615 39.6345 139.418 40.4114 140 41.361C136.242 41.4186 132.479 41.3588 128.718 41.3853C128.278 41.361 127.751 41.4606 127.423 41.0887C125.591 39.0302 123.793 36.9296 121.89 34.9331C120.243 36.8145 118.51 38.6185 116.927 40.5575C116.588 40.9338 116.254 41.4717 115.668 41.3787C100.968 41.3898 86.266 41.3787 71.5641 41.3566C71.5486 40.4712 71.522 39.5836 71.584 38.7004L71.6659 38.5787C71.657 39.4729 71.6637 40.3671 71.6814 41.2636C74.8865 41.2636 78.0916 41.3256 81.2967 41.2238C81.2569 35.5019 81.2923 29.7779 81.279 24.0561C81.3011 16.0477 81.2369 8.03716 81.31 0.0288086V0.0310221Z" fill="#001E31"/>
</g>
<defs>
<clipPath id="clip0_3555_683">
<rect width="140" height="42.8219" fill="white"/>
</clipPath>
</defs>
</svg>
