<svg width="150" height="59" viewBox="0 0 150 59" fill="none" xmlns="http://www.w3.org/2000/svg">
<path d="M5.55257 21.2828C6.10055 21.0541 6.62189 20.7697 7.17682 20.5549C8.51955 20.036 9.90746 19.6819 11.3151 19.401C11.8341 19.2977 12.3601 19.2245 12.8826 19.1386C14.413 18.9506 15.9492 18.8751 17.49 18.9215C18.6926 18.9575 19.8882 19.0666 21.071 19.2988C21.1208 19.3081 21.1741 19.2988 21.2251 19.2977C21.9804 19.4764 22.7428 19.6239 23.4854 19.8549C23.5607 19.8781 23.6661 19.8642 23.6754 19.9803C22.8053 20.0766 21.9422 20.173 21.0791 20.2682C21.0386 20.2461 21.0038 20.2554 20.976 20.2914C20.3307 20.3866 19.6866 20.4818 19.0413 20.5781C19.0169 20.5805 18.9915 20.5828 18.9671 20.5839C18.8362 20.606 18.7053 20.628 18.5744 20.6501C17.8156 20.7499 17.059 20.8695 16.3118 21.0402C16.2875 21.0436 16.262 21.0471 16.2376 21.0506C16.182 21.0367 16.1287 21.0425 16.0789 21.0703C16.0372 21.0436 16.0129 21.0611 15.9978 21.1017C15.5483 21.1272 15.115 21.2503 14.6771 21.3408C14.077 21.465 13.4688 21.5568 12.8814 21.7402C12.8559 21.7437 12.8304 21.7471 12.8061 21.7518C12.6902 21.7286 12.5952 21.7936 12.4921 21.8284C11.7298 21.9549 10.9884 22.1709 10.2434 22.3694C8.82308 22.7478 7.41895 23.1855 6.03683 23.6882C5.97659 23.7102 5.92214 23.745 5.86421 23.7741C5.19574 23.9749 4.55855 24.2605 3.92368 24.5449C2.61107 25.1346 1.3367 25.7963 0.17122 26.6519C0.130672 26.6821 0.0843308 26.7042 0.0391483 26.7297C-0.0500581 26.6264 0.0356728 26.5567 0.0750626 26.4836C0.408718 25.8648 0.826945 25.303 1.27298 24.7655C2.38632 23.4235 3.72442 22.3485 5.23629 21.4883C5.34635 21.4256 5.4147 21.3037 5.55141 21.284L5.55257 21.2828Z" fill="#001E31"/>
<path d="M5.45024 20.9008C5.45024 20.9008 5.46878 20.9287 5.45719 20.9717C5.44561 21.0146 5.40506 21.0274 5.36799 21.0158C5.35061 21.01 5.33323 20.9775 5.33207 20.9554C5.33092 20.9125 5.35293 20.8823 5.45024 20.9008Z" fill="#001E31"/>
<path d="M28.2433 13.0577C28.7264 12.9788 29.2119 12.9057 29.6938 12.8186C30.623 12.6503 31.5556 12.5168 32.4951 12.4216C33.7452 12.2962 34.9987 12.1963 36.2545 12.2207C37.5892 12.2463 38.9099 12.4088 40.1866 12.8325C40.4936 12.9347 40.7936 13.0542 41.0972 13.1657C41.4656 13.3805 41.8491 13.5685 42.1966 13.8193C43.2544 14.582 43.902 15.6129 44.2264 16.8666C44.4917 17.8917 44.6121 18.9365 44.5878 19.9906C44.5542 21.4649 44.3179 22.9125 43.8243 24.3056C43.5301 25.138 43.1211 25.9251 42.7353 26.7179C41.7332 28.7774 40.6291 30.7787 39.3223 32.6629C38.8404 33.3571 38.3376 34.0362 37.7699 34.6631C37.727 34.7095 37.6992 34.7687 37.6645 34.8233C37.5729 34.9069 37.4768 34.9881 37.4189 35.1019C37.405 35.124 37.3876 35.1425 37.3667 35.1576C37.3158 35.1658 37.2903 35.1983 37.2798 35.247L37.2833 35.2435C37.2335 35.2493 37.208 35.2772 37.2069 35.3283C37.1107 35.3747 37.0736 35.4757 37.0041 35.5477C36.4434 36.1421 35.8838 36.7376 35.3208 37.3297C33.0837 39.6828 30.7967 41.986 28.4322 44.2103C27.9804 44.6363 27.5262 45.06 27.0732 45.4849C26.5948 45.8599 26.1534 46.2767 25.6981 46.6783C23.8699 48.292 21.9827 49.8313 19.9865 51.2337C19.4884 51.5842 18.9809 51.9209 18.4793 52.2645C18.3739 52.3365 18.2522 52.3887 18.1792 52.5014C17.805 52.6592 17.505 52.9332 17.1748 53.1573C15.51 54.2798 13.8533 55.414 12.1943 56.5459C12.1526 56.5738 12.1225 56.6179 12.0866 56.6539C11.9788 56.6806 11.8769 56.7166 11.856 56.8477C11.8398 56.8663 11.8201 56.8733 11.7969 56.8663C11.6579 56.8767 11.5652 56.9731 11.4586 57.0451C10.5191 57.6894 9.57951 58.3325 8.63878 58.9756C8.6075 58.9977 8.57275 59.0128 8.5322 58.9861C8.48933 58.8979 8.5658 58.8491 8.60519 58.7911C9.55633 57.4177 10.5156 56.049 11.4586 54.6699C11.9406 53.9652 12.4573 53.285 12.894 52.5489C12.9647 52.5141 12.9821 52.4421 13.0122 52.3795C13.2103 52.1635 13.3748 51.9232 13.5069 51.6609C13.5973 51.6202 13.6262 51.5262 13.6761 51.4542C14.4048 50.3978 15.1312 49.3391 15.8529 48.278C16.2167 47.7429 16.606 47.2239 16.935 46.6644C17.0462 46.6632 16.9975 46.5599 17.0335 46.51C17.3358 46.1698 17.5594 45.774 17.812 45.4002C18.1005 44.973 18.426 44.5678 18.66 44.1046C18.7226 44.0593 18.7805 44.0106 18.7898 43.9258C18.8129 43.9154 18.8222 43.8968 18.8176 43.8713C18.9439 43.8098 18.8778 43.617 18.9578 43.5857C19.1397 43.516 19.1709 43.3396 19.2822 43.2247C19.3297 43.2154 19.3505 43.1875 19.3424 43.1388C19.471 42.9472 19.6019 42.7568 19.7293 42.5641C20.6376 41.1896 21.5517 39.8174 22.4496 38.4371C23.0728 37.4806 23.7008 36.5263 24.2279 35.5094C24.2766 35.4827 24.3368 35.4629 24.3009 35.3852C24.3206 35.3445 24.3414 35.3027 24.3611 35.2621C24.4063 35.2482 24.4248 35.218 24.4144 35.1716C25.1837 33.7576 25.8996 32.3169 26.56 30.8484C26.7987 30.319 27.0698 29.8013 27.2273 29.2371C27.2864 29.2011 27.3073 29.1477 27.2968 29.0804L27.3223 29.0061C27.3327 28.9991 27.3501 28.9945 27.3536 28.984C27.9166 27.5875 28.4333 26.1746 28.6743 24.6806C28.7589 24.157 28.833 23.6242 28.7091 23.0925C28.6604 22.8847 28.6036 22.6804 28.5353 22.4157C30.6716 23.2004 32.6481 24.1292 34.058 25.9564C34.109 25.867 34.0684 25.7997 34.0429 25.7254C33.5818 24.3962 32.8763 23.2086 31.9622 22.1452C31.4189 21.5125 30.85 20.9088 30.1086 20.4956C29.4853 20.1485 28.8724 19.7839 28.2271 19.4798C28.0174 19.3811 27.824 19.2383 27.583 19.2186C27.5702 19.1954 27.554 19.1756 27.5332 19.1605C27.5193 19.1153 27.4984 19.0862 27.4474 19.1211C27.422 19.1095 27.3976 19.099 27.3721 19.0874C27.3501 19.0015 27.2852 19.0061 27.2192 19.0154C27.1972 19.0015 27.174 19.0003 27.1509 19.0119C27.0779 18.969 27.0107 18.9098 26.9168 18.9214C26.472 18.6776 25.9842 18.5441 25.5081 18.3827C24.6369 18.0856 23.7332 17.9137 22.8296 17.7512C22.4241 17.6781 22.029 17.5423 21.6143 17.5225C21.1184 17.3751 20.6052 17.3008 20.0978 17.216C19.2173 17.0709 18.3356 16.927 17.4482 16.8376C16.6419 16.7563 15.8297 16.6693 15.0246 16.7842C14.9632 16.646 15.057 16.624 15.1254 16.6031C16.0012 16.328 16.8759 16.0505 17.7541 15.7858C18.733 15.4921 19.7154 15.2112 20.6967 14.9233C20.7454 14.9094 20.7894 14.8792 20.8357 14.856C21.5934 14.6598 22.3511 14.4624 23.1088 14.2685C23.6197 14.1385 24.1317 14.0143 24.6438 13.8866C24.6913 13.918 24.7203 13.8947 24.7411 13.8506C25.8603 13.6034 26.9794 13.3561 28.0985 13.1076C28.1483 13.096 28.1958 13.0728 28.2445 13.0554L28.2433 13.0577Z" fill="#001E31"/>
<path d="M41.1021 11.4838C40.5066 11.5163 39.91 11.5801 39.3145 11.5047C36.9082 11.1994 35.0812 10.0327 34.144 7.7492C33.3817 5.89293 33.6783 4.10167 34.8739 2.48804C35.7231 1.34107 36.87 0.62016 38.2382 0.244031C38.3378 0.21617 38.4363 0.182504 38.5348 0.152321C38.6727 0.167413 38.7931 0.097759 38.9241 0.076863C38.9831 0.0884719 39.0422 0.102403 39.092 0.0513234C39.2959 0.03391 39.4998 0.0164966 39.7037 0.000244141C39.9111 0.000244141 40.1197 0.000244141 40.327 0.000244141C40.5344 0.0223011 40.7418 0.044358 40.9492 0.0675759C40.999 0.0989199 41.0523 0.0965982 41.1056 0.0838283C41.8586 0.238227 42.5862 0.464601 43.2535 0.855821C44.6947 1.69979 45.7026 2.88622 46.0988 4.53701C46.4858 6.14949 46.166 7.63891 45.2033 8.96813C44.215 10.3322 42.8596 11.1413 41.2006 11.4362C41.1658 11.442 41.1334 11.4687 41.1009 11.4861L41.1021 11.4838Z" fill="#001E31"/>
<path d="M37.207 35.3284C37.207 35.2773 37.2337 35.2495 37.2835 35.2437C37.2835 35.2947 37.2568 35.3226 37.207 35.3284Z" fill="#001E31"/>
<path d="M37.2793 35.2471C37.2897 35.1995 37.3152 35.167 37.3662 35.1577C37.3616 35.2111 37.3372 35.2448 37.2793 35.2471Z" fill="#001E31"/>
<path d="M41.3791 12.9661C41.3721 12.958 41.3663 12.951 41.3594 12.9429C41.3675 12.9359 41.3756 12.9243 41.3825 12.9243C41.3895 12.9243 41.3964 12.9382 41.4022 12.9464C41.3941 12.9533 41.386 12.9591 41.3791 12.9661Z" fill="#001E31"/>
<path d="M24.7399 13.8531C24.719 13.896 24.6912 13.9192 24.6426 13.8891C24.6646 13.8496 24.697 13.8368 24.7399 13.8531Z" fill="#001E31"/>
<path d="M16.0783 21.0692C16.0691 21.0983 16.0679 21.1447 16.0482 21.154C16.01 21.1714 16.0042 21.1308 15.9961 21.1017C16.0112 21.0611 16.0355 21.0437 16.0772 21.0704L16.0783 21.0692Z" fill="#001E31"/>
<path d="M19.0409 20.5769C19.0212 20.6326 18.9969 20.6512 18.9668 20.5827C18.9911 20.5804 19.0166 20.5781 19.0409 20.5769Z" fill="#001E31"/>
<path d="M16.3124 21.0391C16.295 21.0959 16.2742 21.1261 16.2383 21.0495C16.2626 21.046 16.2881 21.0425 16.3124 21.0391Z" fill="#001E31"/>
<path d="M12.8819 21.739C12.8646 21.7971 12.8437 21.8307 12.8066 21.7506C12.8321 21.7471 12.8576 21.7437 12.8819 21.739Z" fill="#001E31"/>
<path d="M24.2299 35.5095C24.194 35.4329 24.2519 35.412 24.3029 35.3853C24.3388 35.463 24.2786 35.4828 24.2299 35.5095Z" fill="#001E31"/>
<path d="M27.2305 29.2373C27.2339 29.1769 27.2154 29.1061 27.3 29.0806C27.3104 29.1479 27.2907 29.2013 27.2305 29.2373Z" fill="#001E31"/>
<path d="M24.3631 35.2622C24.3503 35.2134 24.3712 35.1856 24.4164 35.1716C24.4256 35.2181 24.4071 35.2482 24.3631 35.2622Z" fill="#001E31"/>
<path d="M104.9 41.6008C103.465 41.5254 102.02 41.5985 100.522 41.3524C100.784 40.8486 101.043 40.4341 101.635 40.419C102.576 40.3946 102.98 39.8026 103.15 38.9807C103.585 36.8644 104.008 34.7446 104.437 32.6236C102.847 32.3938 101.927 33.1844 101.485 35.1405C101.21 35.3912 100.857 35.5143 100.515 35.6547C100.458 35.5688 100.371 35.498 100.377 35.4365C100.542 33.7056 101.508 32.6794 103.162 32.2382C104.963 31.7588 106.792 31.9515 108.613 31.9701C108.825 31.9724 109.036 31.9991 109.248 32.0142L110.008 32.2255C110.09 32.4275 110.266 32.4623 110.454 32.4762C111.221 33.0381 111.463 33.8704 111.618 34.7469C111.623 34.9187 111.629 35.0917 111.633 35.2635C111.514 36.176 111.562 37.1047 111.138 37.9765C110.455 39.3812 109.402 40.3412 107.96 40.8915C106.973 41.2688 105.956 41.5161 104.9 41.5997V41.6008ZM102.777 40.5305C104.067 40.895 105.162 40.9588 106.268 40.9054C107.199 40.8613 108.013 40.5374 108.614 39.8107C109.879 38.2807 110.316 36.5022 110.013 34.5623C109.867 33.6278 109.312 32.944 108.379 32.6178C107.565 32.3323 106.743 32.2998 105.842 32.4565C105.532 33.9761 105.185 35.4597 104.935 36.9584C104.695 38.3944 104.208 39.6552 102.775 40.5293L102.777 40.5305Z" fill="#001E31"/>
<path d="M138.67 40.8705C137.994 41.3918 137.19 41.4904 136.384 41.5102C135.295 41.5369 134.586 40.9762 134.405 39.907C133.989 37.4482 135.896 34.9012 138.085 34.3382C138.681 34.185 139.281 34.207 139.698 34.7828C140.044 35.2588 140.026 36.2966 139.637 36.8376C138.989 37.7384 138.112 38.3108 137.028 38.5418C136.618 38.6289 136.178 38.5963 135.839 38.9098C135.788 40.4863 136.282 40.946 137.754 40.6813C137.962 40.6442 138.162 40.5675 138.366 40.5083C138.497 40.6035 138.652 40.6778 138.668 40.8694L138.67 40.8705ZM135.918 38.0751C138.044 38.1297 139.12 36.8597 138.44 35.0986C136.993 34.9651 135.96 36.1852 135.918 38.0751Z" fill="#001E31"/>
<path d="M146.537 40.3319C146.432 39.7433 146.355 39.1733 146.838 38.6729C146.947 38.5603 146.883 38.2817 146.898 38.0797C147.133 37.2474 147.363 36.4138 147.369 35.5618C146.89 35.2402 146.516 35.4364 146.14 35.6094C145.985 35.5525 145.864 35.4619 145.824 35.2913C145.852 34.9291 146.163 34.8362 146.406 34.6818C147.015 34.3684 147.674 34.0062 148.303 34.4798C148.95 34.9662 148.681 35.7382 148.59 36.3813C148.44 37.4238 148.198 38.4535 147.977 39.4856C147.888 39.9012 147.824 40.3075 147.905 40.6883C148.181 40.9529 148.407 40.8392 148.632 40.7161C148.649 40.867 148.665 41.0168 148.681 41.1677C148.33 41.2977 147.979 41.4277 147.628 41.5566C147.334 41.451 146.975 41.538 146.743 41.2524C146.503 40.9843 146.648 40.6302 146.538 40.333L146.537 40.3319Z" fill="#001E31"/>
<path d="M129.2 40.5804C128.857 40.9681 128.635 41.5474 127.948 41.4313C127.68 40.9937 127.829 40.563 127.823 40.1555C127.806 39.0921 127.739 38.0369 127.485 37.0014C127.362 36.5022 127.169 36.0425 126.813 35.6524C126.489 35.2972 126.138 35.1555 125.686 35.3784C125.51 35.3332 125.332 35.2867 125.156 35.2414C126.805 33.6824 128.078 34.0457 128.683 36.2387C128.99 37.3508 128.994 38.485 128.99 39.6227C128.839 39.9907 129.057 40.2774 129.201 40.5815L129.2 40.5804Z" fill="#001E31"/>
<path d="M123.142 41.2038C122.609 41.4662 122.074 41.7228 121.443 41.4871C121.08 41.0309 121.016 40.5212 121.148 39.9431C121.357 39.0353 121.528 38.1182 121.695 37.2011C121.785 36.7042 121.878 36.2015 121.781 35.7291C121.397 35.2879 120.959 35.7233 120.367 35.5909C121.36 34.7597 122.514 34.8491 123.479 34.2234C123.586 35.3959 123.07 36.32 122.948 37.3114C122.83 38.2737 122.582 39.221 122.378 40.1718C122.33 40.4017 122.37 40.5874 122.52 40.7569C122.622 41.0529 123.116 40.7987 123.141 41.2038H123.142Z" fill="#001E31"/>
<path d="M114.341 35.0567C114.192 35.0695 114.044 35.0834 113.895 35.0962C113.804 34.9987 113.715 34.9023 113.625 34.8048C114.16 34.4565 114.723 34.2 115.386 34.294C115.692 34.2928 115.82 34.4856 115.883 34.7502C115.9 35.4236 115.933 36.0945 115.716 36.7551C115.633 37.007 115.485 37.3321 115.862 37.5248C115.913 37.584 115.965 37.6432 116.017 37.7012C115.335 38.8041 115.051 40.0427 114.851 41.293C114.399 41.466 113.991 41.4822 113.471 41.3418C113.879 39.395 114.403 37.4807 114.612 35.5106C114.647 35.2842 114.71 35.0405 114.341 35.0567Z" fill="#001E31"/>
<path d="M144.19 38.1634C143.496 39.084 143.546 40.2391 143.204 41.2932C142.817 41.4812 142.407 41.4604 141.877 41.364C142.096 40.3401 142.347 39.3371 142.516 38.3213C142.688 37.2916 143.057 36.2886 143.016 35.2832C142.785 34.957 142.542 35.0081 142.293 35.1033C142.135 35.065 141.977 35.0279 141.818 34.9895C142.132 34.6866 142.516 34.4927 142.922 34.3661C143.387 34.2222 143.852 34.2001 144.262 34.7446C144.367 35.4191 144.361 36.169 144.042 36.8969C143.959 37.1558 143.877 37.4158 143.803 37.6503C143.95 37.8465 144.069 38.0055 144.189 38.1646L144.19 38.1634Z" fill="#001E31"/>
<path d="M130.932 37.8094C131.052 37.5865 131.177 37.3671 131.292 37.1407C131.715 36.3048 132.132 35.4678 131.443 34.4254C132.134 34.4126 132.712 33.9633 133.086 34.7562C133.099 34.8375 133.111 34.9187 133.124 34.9988C133.137 35.8498 132.695 36.5022 132.187 37.1175C131.897 37.4692 131.571 37.7919 131.262 38.1274C131.086 38.0891 130.99 37.9684 130.933 37.8082L130.932 37.8094Z" fill="#001E31"/>
<path d="M118.257 34.5123C118.808 34.3196 119.36 34.1234 119.989 34.4856C119.866 34.9546 119.544 35.2204 119.215 35.5606C118.263 35.2042 117.632 35.7521 117.062 36.4301C116.709 36.8492 116.366 37.2775 116.019 37.7013C115.966 37.6432 115.914 37.584 115.863 37.5248C115.951 36.8457 116.569 36.4429 116.754 35.8148C117.153 35.4526 117.552 35.0904 117.951 34.7282C118.117 34.748 118.208 34.6609 118.256 34.5123H118.257Z" fill="#001E31"/>
<path d="M144.189 38.1633C144.069 38.0043 143.95 37.8452 143.803 37.649C143.877 37.4145 143.959 37.1545 144.041 36.8956C144.35 36.9757 144.476 36.7714 144.636 36.5578C144.984 36.0934 145.287 35.5792 145.824 35.2913C145.865 35.4631 145.987 35.5525 146.141 35.6093C145.49 36.4603 144.838 37.3112 144.189 38.1633Z" fill="#001E31"/>
<path d="M130.933 37.8093C130.991 37.9695 131.087 38.0903 131.262 38.1286C130.685 39.0387 130.062 39.9094 129.201 40.5804C129.058 40.2774 128.84 39.9906 128.99 39.6215C129.339 39.7794 129.508 39.5321 129.696 39.3138C130.119 38.8205 130.416 38.2238 130.933 37.8093Z" fill="#001E31"/>
<path d="M124.33 31.4128C124.202 32.5157 123.22 32.6596 122.33 33.1669C122.716 32.0769 123.402 31.6032 124.361 31.4453L124.33 31.4128Z" fill="#001E31"/>
<path d="M123.142 41.2036C123.118 40.7996 122.622 41.0539 122.521 40.7567C123.39 40.7706 123.81 39.9371 124.688 39.4507C124.44 40.5292 123.838 40.9088 123.142 41.2036Z" fill="#001E31"/>
<path d="M138.67 40.8706C138.654 40.679 138.498 40.6047 138.367 40.5095C138.826 40.2205 139.284 39.9314 139.759 39.6331C139.845 40.1098 139.482 40.5227 138.67 40.8717V40.8706Z" fill="#001E31"/>
<path d="M141.818 34.9882C141.977 35.0265 142.134 35.0637 142.293 35.102C141.835 35.5002 141.48 36.0319 140.738 36.3221C140.866 35.5547 141.224 35.1774 141.818 34.9871V34.9882Z" fill="#001E31"/>
<path d="M112.845 35.2692C113.154 35.1949 113.277 34.8095 113.626 34.8037C113.717 34.9012 113.806 34.9976 113.896 35.0951C113.441 35.5153 113.035 35.9983 112.499 36.2908C112.281 36.1306 112.336 35.9518 112.331 35.787C112.563 35.6779 112.735 35.5095 112.84 35.2739L112.845 35.2692Z" fill="#001E31"/>
<path d="M125.157 35.2402C125.333 35.2855 125.51 35.3319 125.686 35.3772C125.403 35.8392 125.052 36.2351 124.596 36.5322L124.614 36.5508C124.506 35.9936 124.567 35.5072 125.157 35.239V35.2402Z" fill="#001E31"/>
<path d="M114.342 35.0568C114.713 35.0394 114.648 35.2843 114.613 35.5107C114.447 35.4051 114.375 35.2425 114.342 35.0568Z" fill="#001E31"/>
<path d="M124.596 36.5322C124.557 36.5775 124.519 36.6239 124.516 36.6274C124.52 36.6239 124.567 36.5868 124.614 36.5508L124.596 36.5322Z" fill="#001E31"/>
<path d="M124.361 31.4453C124.395 31.3954 124.429 31.3443 124.449 31.3118C124.42 31.3361 124.375 31.3745 124.33 31.4128L124.361 31.4453Z" fill="#001E31"/>
<path d="M59.9246 34.5111C60.3012 34.1651 60.7066 34.4066 61.2465 34.4089C60.9291 36.5879 60.2039 38.6439 60.1216 40.8136C60.3556 40.824 60.4807 40.8298 60.6059 40.8356C60.7449 40.9146 60.9106 40.9668 60.9198 41.1676C60.6939 41.2802 60.4796 41.437 60.2421 41.4997C59.1484 41.7887 58.692 41.3534 58.8333 40.1844C58.8831 39.7722 58.9214 39.3601 58.9747 38.8505C58.5251 38.9236 58.4672 39.2475 58.3398 39.453C57.91 40.1484 57.3736 40.7544 56.719 41.2222C56.2336 41.5693 55.6312 41.805 55.0635 41.4184C54.5514 41.069 54.5224 40.4792 54.6198 39.922C54.8016 38.8807 55.0334 37.8486 55.2234 36.8085C55.3068 36.3511 55.3531 35.8867 55.3902 35.4224C55.4099 35.1774 55.2593 35.0393 55.0113 35.0172C54.841 34.9325 54.5456 35.0973 54.5039 34.7595C55.0971 34.4252 55.7227 33.9933 56.3854 34.4693C57.0283 34.9302 56.7445 35.5988 56.6078 36.2292C56.3819 37.2682 56.2011 38.3165 56.025 39.3648C55.9706 39.6898 55.8663 40.0323 56.0957 40.4432C57.0596 40.5628 57.3713 39.749 57.8266 39.1488C57.9864 39.1129 58.0641 39.0072 58.0745 38.8482L58.0803 38.8401C58.3734 38.6706 58.5089 38.3908 58.6074 38.0855C59.2956 37.3112 59.7045 36.4242 59.6918 35.369C59.9548 35.1322 59.8621 34.8001 59.9246 34.5088V34.5111Z" fill="#001E31"/>
<path d="M49.188 41.8236C48.479 41.4544 47.6924 41.747 46.9625 41.5636C46.8559 41.4521 46.7273 41.408 46.5744 41.4428C46.345 41.3337 46.1168 41.2246 45.8086 41.0783C45.9777 40.7138 46.2535 40.4793 46.5419 40.2158C46.6427 40.2483 46.7783 40.2587 46.8686 40.3272C47.6182 40.8972 48.4628 41.1004 49.3884 41.0098C50.0812 40.9413 50.6176 40.6093 50.8598 39.9557C51.0984 39.3114 50.9779 38.6822 50.4751 38.1854C49.809 37.5271 49.1278 36.8817 48.4338 36.2525C47.9067 35.7742 47.5267 35.239 47.5406 34.4937C47.617 34.0549 47.7549 33.6231 47.6935 33.168L47.6993 33.1541C47.8372 33.0914 47.975 33.0287 48.1129 32.966C48.2739 32.9498 48.3203 32.8325 48.3469 32.6978L48.3597 32.6885C48.5195 32.6885 48.6064 32.6108 48.618 32.4494C48.7026 32.3739 48.7883 32.2985 48.8729 32.223C49.0872 32.2068 49.2703 32.1336 49.385 31.9386C50.6512 31.5335 51.8746 31.5648 53.149 32.3089C52.8188 32.7942 53.0853 33.4675 52.4168 33.9516C52.2199 33.4559 52.2987 32.901 51.8306 32.5829C51.4888 32.3496 51.1146 32.3264 50.7509 32.2613C50.0488 32.1348 49.2517 32.5423 48.9239 33.1343C48.5589 33.7949 48.6423 34.4891 49.2598 35.1078C49.8576 35.7057 50.5006 36.2629 51.1552 36.7993C52.7169 38.0786 52.3091 40.066 50.7428 40.9053C50.4068 41.0853 50.0685 41.2606 49.7256 41.4289C49.5228 41.5287 49.5726 41.704 49.5703 41.8666L49.5286 41.9025C49.4139 41.8758 49.3004 41.8503 49.1857 41.8236H49.188Z" fill="#001E31"/>
<path d="M81.3803 40.9008C80.7964 41.2607 80.1639 41.458 79.4838 41.5602C78.0531 41.775 77.2572 40.6988 77.1251 39.6494C76.8737 37.6503 78.6787 34.899 80.5937 34.3592C81.7951 34.0202 82.8887 34.6784 82.7601 35.729C82.6617 36.5335 82.3558 37.2858 81.5935 37.7513C80.6899 38.3027 79.7387 38.6939 78.6659 38.6777C78.2975 39.6145 78.6984 40.195 79.4375 40.7162C80.0666 40.8567 80.7154 40.7151 81.3444 40.4272C81.3572 40.585 81.3699 40.7441 81.3827 40.902L81.3803 40.9008ZM81.2112 35.0813C79.7735 34.9837 78.82 36.0889 78.6323 38.0694C80.8335 38.1495 81.9723 36.8296 81.2112 35.0813Z" fill="#001E31"/>
<path d="M74.7129 40.6301C73.9194 41.1363 73.0864 41.5437 72.1225 41.5693C71.1389 41.596 70.4565 41.0805 70.1252 40.1507C69.7348 39.056 70.0337 38.0065 70.5087 37.0801C70.9419 36.235 71.5432 35.4433 72.4283 34.922C73.5208 34.2777 74.6133 34.0363 75.8946 34.6237C75.8483 35.16 75.7336 35.701 75.561 36.156C75.364 36.242 75.2656 36.2141 75.2598 36.1131C75.232 35.6255 75.1439 35.1658 74.6145 34.9882C74.0642 34.8036 73.5266 34.8686 73.0319 35.189C72.2279 35.7114 71.9406 36.5682 71.6649 37.4086C71.4366 38.1029 71.4471 38.8435 71.5247 39.5633C71.6197 40.4421 72.126 40.8228 73.0169 40.7346C73.6158 40.6766 74.1708 40.463 74.6956 40.1727C74.7014 40.3248 74.7083 40.4769 74.7141 40.6301H74.7129Z" fill="#001E31"/>
<path d="M88.7171 34.4091C89.3068 34.942 88.6255 35.4052 88.6452 35.9682C88.1679 35.3553 87.7763 34.711 86.86 34.9118C86.3004 35.0349 86.1081 35.3936 85.998 35.902C86.2239 36.8424 87.0801 37.3683 87.5921 38.1356C88.0474 38.8182 88.3023 39.4555 87.9351 40.2368C86.4116 41.6798 85.2589 41.9189 83.4863 41.1446C83.6184 40.8382 83.7377 40.5305 84.1699 40.4133C84.5522 40.3982 84.8893 40.7047 85.2925 40.8126C85.7258 40.9287 86.115 40.9415 86.5124 40.729C87.0778 40.426 87.2318 40.0232 86.8681 39.4962C86.6086 39.1212 86.4128 38.701 86.0559 38.3805C85.7478 38.1031 85.4975 37.7455 85.2763 37.3903C84.7619 36.5603 84.8708 35.7755 85.5972 35.1208C86.0015 34.7574 86.4394 34.4231 86.992 34.2977C87.2481 34.271 87.5041 34.2443 87.7601 34.2188C88.0787 34.2826 88.3985 34.3453 88.7171 34.4091Z" fill="#001E31"/>
<path d="M67.5617 40.6464C66.8631 41.12 66.0718 41.3615 65.2655 41.5646C65.0755 41.4555 64.8925 41.4648 64.7152 41.5948C63.1883 41.0631 62.8627 40.5814 62.9276 38.9526C63.0087 36.9397 64.4024 35.0811 66.314 34.4461C67.1481 34.1686 67.9614 34.215 68.7341 34.5703C68.916 35.2389 68.4178 35.6638 68.5233 36.1665C68.1352 36.2466 68.112 36.0852 68.0645 35.9146C67.8166 35.0207 67.3427 34.7212 66.5016 34.9487C65.6524 35.1786 65.123 35.7892 64.8079 36.5635C64.436 37.4795 64.2831 38.4511 64.3769 39.4414C64.4823 40.5547 65.1091 40.9633 66.2387 40.7068C66.6974 40.6023 67.14 40.4653 67.5293 40.1913C67.5397 40.3422 67.549 40.4943 67.5594 40.6452L67.5617 40.6464Z" fill="#001E31"/>
<path d="M60.9194 41.1678C60.9102 40.967 60.7445 40.9136 60.6055 40.8358C61.0422 40.2739 61.6945 40.0208 62.4464 39.416C62.1753 40.4864 61.6389 40.9101 60.9194 41.169V41.1678Z" fill="#001E31"/>
<path d="M54.5025 34.7607C54.5442 35.0986 54.8408 34.9337 55.0099 35.0185C54.4098 35.3992 53.8653 35.8462 53.4019 36.4371C53.1991 35.5316 53.2547 35.4503 54.5025 34.7607Z" fill="#001E31"/>
<path d="M81.382 40.9008C81.3692 40.7429 81.3565 40.5839 81.3438 40.426C81.7539 40.0638 82.1698 39.7109 82.8962 39.6052C82.6054 40.5072 82.0134 40.7278 81.382 40.9008Z" fill="#001E31"/>
<path d="M67.5614 40.6465C67.5509 40.4956 67.5417 40.3435 67.5312 40.1926C67.7386 39.849 68.0584 39.7271 68.5287 39.6667C68.4511 40.3296 68.0711 40.5513 67.5602 40.6477L67.5614 40.6465Z" fill="#001E31"/>
<path d="M74.7119 40.6303C74.7061 40.4783 74.6992 40.3262 74.6934 40.173C74.8949 39.8421 75.1973 39.7132 75.6468 39.6726C75.6306 40.361 75.1185 40.4446 74.7119 40.6303Z" fill="#001E31"/>
<path d="M59.9239 34.5112C59.8613 34.8026 59.954 35.1346 59.691 35.3715C59.6875 35.0627 59.3956 34.6749 59.9239 34.5112Z" fill="#001E31"/>
<path d="M58.0741 38.8494C58.0637 39.0096 57.986 39.114 57.8262 39.15C57.8331 38.9875 57.9084 38.8807 58.0741 38.8494Z" fill="#001E31"/>
<path d="M48.3494 32.6978C48.3227 32.8324 48.2752 32.9485 48.1153 32.9659C48.1119 32.8057 48.1883 32.714 48.3494 32.6978Z" fill="#001E31"/>
<path d="M48.6197 32.4495C48.6081 32.6108 48.5212 32.6886 48.3613 32.6886C48.381 32.5365 48.4656 32.4553 48.6197 32.4495Z" fill="#001E31"/>
<path d="M148.681 41.1667C148.665 41.0157 148.649 40.866 148.633 40.7151C149.064 40.3378 149.494 39.9593 149.999 39.5159C149.935 40.39 149.823 40.5189 148.681 41.1655V41.1667Z" fill="#001E31"/>
<path d="M94.3667 36.2073C94.179 35.3691 93.8674 34.9094 93.1885 34.8967C92.6011 34.8862 92.0832 35.0058 91.8399 35.7638C92.1249 37.1906 93.945 37.8175 93.9971 39.5437C93.3171 41.3768 91.3453 42.1232 89.3398 41.1515C89.5623 40.8497 89.7789 40.556 90.0153 40.2356C91.0058 40.8474 92.0149 41.4522 92.9463 40.1764C92.944 39.5576 92.6416 39.1525 92.2906 38.774C92.0299 38.4919 91.7357 38.24 91.4901 37.9463C90.3918 36.6275 90.7 35.3215 92.3022 34.5554C93.1004 34.1734 93.9357 34.1479 94.8058 34.5519C94.866 35.0696 94.6969 35.5108 94.3655 36.2073H94.3667Z" fill="#001E31"/>
<path d="M106.055 29.4903C105.892 29.553 105.913 29.358 105.81 29.3185C104.777 28.9319 104.331 28.1228 104.229 27.0745C104.226 27.0164 104.223 26.9572 104.221 26.8992C104.231 25.2414 104.243 23.5837 104.255 21.9259C104.255 21.9016 104.289 21.8783 104.346 21.804C104.954 21.7785 105.604 21.7518 106.254 21.7251H107.694C108.001 21.9352 107.916 22.1651 107.918 22.3648C107.928 23.3887 107.922 24.4137 107.929 25.4376C107.933 25.8869 107.92 26.3431 108.214 26.7297C108.193 26.7413 108.172 26.7518 108.152 26.7634C108.163 26.7831 108.172 26.8156 108.187 26.8191C108.205 26.8237 108.229 26.8028 108.251 26.7924C108.656 27.0025 109.011 26.9955 109.272 26.5625C109.424 26.3187 109.36 26.0622 109.322 25.8056V21.7808H113.287V29.394H109.566C109.546 29.048 109.528 28.6939 109.506 28.341C109.505 28.3201 109.482 28.2911 109.463 28.283C109.397 28.2586 109.353 28.2899 109.337 28.3677C109.165 28.4246 109.049 28.536 109.001 28.7125C108.455 29.2988 107.74 29.4671 106.983 29.5286C106.853 29.4694 106.722 29.4566 106.589 29.5205C106.411 29.51 106.233 29.5008 106.056 29.4903H106.055Z" fill="#001E31"/>
<path d="M133.275 21.6171C133.397 21.6369 133.52 21.6554 133.641 21.6752C133.697 21.6763 133.75 21.6891 133.8 21.7135C133.926 21.7866 134.05 21.8644 134.181 21.9306C135.909 22.8059 136.597 24.012 136.503 26.0541C135.894 26.2038 135.265 26.0947 134.644 26.1156C134.016 26.1365 133.388 26.1202 132.747 26.1202C133.059 27.5075 134.995 27.7513 136.417 26.5997C136.598 26.7982 136.532 27.042 136.541 27.2625C136.549 27.4727 136.544 27.6839 136.544 27.9103C135.724 29.0143 134.553 29.4137 133.276 29.611C132.744 29.5344 132.205 29.5646 131.667 29.4589C129.214 28.9795 128.17 27.0129 128.437 24.9013C128.685 22.9452 130.115 21.6868 132.106 21.6206C132.497 21.6078 132.887 21.6183 133.278 21.6183L133.275 21.6171ZM134.144 24.6993C133.889 23.7636 133.653 23.521 133.119 23.5732C132.621 23.622 132.419 23.9238 132.39 24.6993H134.144Z" fill="#001E31"/>
<path d="M118.823 23.1552C119.113 22.7245 119.354 22.3798 119.681 22.1162C120.475 21.4754 121.693 21.5428 122.301 22.2625C122.964 23.0473 122.914 24.2941 122.174 24.9767C121.607 25.4991 120.935 25.5606 120.238 25.3075C119.904 25.1868 119.596 24.9964 119.222 24.8118C118.382 26.2722 118.965 27.8557 118.7 29.3939H114.844V21.833C115.458 21.6089 116.118 21.7657 116.762 21.7378C117.39 21.7111 118.022 21.732 118.678 21.732C118.857 22.1569 118.7 22.5899 118.824 23.1576L118.823 23.1552Z" fill="#001E31"/>
<path d="M126.552 21.8227C126.737 21.9794 126.964 21.7843 127.186 21.9144V29.4068H123.328V21.8923C123.593 21.8006 123.824 21.9724 124.065 22.0363C124.839 22.2406 125.609 22.2371 126.382 22.0409C126.505 22.0096 126.601 21.955 126.573 21.8018L126.551 21.8215L126.552 21.8227Z" fill="#001E31"/>
<path d="M92.4697 25.0708C92.5265 25.1985 92.5832 25.3262 92.64 25.4539C92.6377 25.6072 92.662 25.7465 92.8161 25.8242C93.1324 26.7889 93.7939 27.5992 94.0719 28.615C93.1949 29.2152 92.1754 29.3417 91.2 29.5948C90.3264 29.6018 89.4575 29.632 88.5875 29.4404C86.2716 28.9319 84.8234 26.7599 84.8223 24.9176C84.82 22.28 86.0109 20.5573 88.5087 19.7632C88.6813 19.7087 88.8528 19.6541 89.0254 19.6007C89.2212 19.6611 89.3973 19.567 89.5792 19.5252C89.8167 19.5647 90.0287 19.4939 90.2326 19.3801C91.1154 19.6738 92.0654 19.6692 92.9435 19.9931C93.3374 20.1382 93.7244 20.2845 94.0997 20.5561C93.7835 21.2225 93.4811 21.861 93.1776 22.4994C93.0652 22.5285 93.0177 22.5993 93.0351 22.7142C92.8091 23.0346 92.6562 23.3898 92.5218 23.7544C92.3967 23.8588 92.2832 23.9819 92.1082 24.0028C91.6506 23.7381 91.1559 23.7648 90.6578 23.8124C90.1063 23.7451 89.5699 23.723 89.2293 24.3093C89.2409 24.8758 89.5873 25.0882 90.0901 25.1428C90.455 25.3123 90.8281 25.2612 91.2023 25.1823C91.6367 25.2682 92.0283 24.8758 92.472 25.0697L92.4697 25.0708Z" fill="#001E31"/>
<path d="M74.0159 21.659C74.5187 21.06 74.9277 20.3937 75.3714 19.7087H79.7714C79.096 20.7001 78.4727 21.6126 77.8529 22.5285C77.364 23.2518 76.889 23.9831 76.3955 24.7029C76.165 25.0396 76.0711 25.3925 76.0781 25.8046C76.1001 26.9794 76.0862 28.1542 76.0862 29.3871H71.7695C71.7695 28.3957 71.7266 27.4043 71.7823 26.4187C71.8298 25.5852 71.5749 24.9002 71.1068 24.2339C70.1893 22.9279 69.3123 21.594 68.4214 20.2695C68.3241 20.1255 68.163 20.0048 68.2094 19.732H72.4345C72.789 20.23 73.1702 20.7652 73.5513 21.2992C73.6092 21.3769 73.666 21.4559 73.7228 21.5337C73.7483 21.5638 73.768 21.5963 73.7795 21.6347C73.8016 21.6799 73.8131 21.7519 73.8479 21.767C73.9383 21.8053 73.9823 21.7333 74.0136 21.659H74.0159Z" fill="#001E31"/>
<path d="M62.5463 29.4763C62.4026 29.4473 62.2578 29.4171 62.0898 29.3834V19.6343H66.3277C66.3972 20.498 66.3567 21.3036 66.3636 22.1058C66.3706 22.8906 66.3648 23.6753 66.3648 24.4613C66.3648 25.2472 66.3648 26.0795 66.3648 26.9456H70.1242C70.1323 27.8035 70.1404 28.6056 70.1485 29.4067C70.0338 29.431 69.9192 29.4554 69.8045 29.4786C67.3855 29.4229 64.9665 29.4264 62.5475 29.4775L62.5463 29.4763Z" fill="#001E31"/>
<path d="M57.475 22.3498C57.475 22.7758 57.4727 23.203 57.4715 23.6291C57.4715 24.1166 57.7658 23.9576 58.023 23.881C58.7088 23.9112 59.3947 23.9414 60.1269 23.9739V26.2968C59.2962 26.4454 58.4261 26.2887 57.5121 26.3897C57.3557 27.3637 57.5051 28.3516 57.4217 29.3859H53.1699V19.7087H61.063V22.1362C59.916 22.1547 58.7818 22.1722 57.6465 22.1896C57.5202 22.1698 57.4495 22.2093 57.4762 22.3509L57.475 22.3498Z" fill="#001E31"/>
<path d="M144.921 25.1961C144 25.498 143.658 25.686 142.259 24.8444C141.851 25.1253 141.775 25.5688 141.757 26.0157C141.725 26.8608 141.725 27.706 141.712 28.5523C141.709 28.8193 141.712 29.0863 141.712 29.3986H137.807V21.7912H141.616C141.836 22.1836 141.583 22.5795 141.824 22.8929C143.385 21.4627 143.897 21.3582 145.241 22.1929C145.942 23.3758 145.858 24.1699 144.922 25.1973L144.921 25.1961Z" fill="#001E31"/>
<path d="M97.6386 21.7228C98.2016 21.5939 98.7751 21.5962 99.3462 21.616C101.961 21.71 103.647 23.99 103.069 26.5614C102.811 27.7072 102.139 28.5755 101.203 29.0956C100.327 29.582 99.2651 29.7109 98.2248 29.5298C96.648 29.2558 95.5312 28.4083 94.9473 26.8934C94.9855 26.7959 94.9624 26.7181 94.8732 26.6612C94.8535 26.299 94.8233 25.938 94.8141 25.5758C94.7747 24.0074 95.4767 22.8616 96.8137 22.0826C96.9944 21.977 97.1879 21.8922 97.3756 21.7982C97.4636 21.7727 97.5517 21.7471 97.6386 21.7216V21.7228ZM98.9523 26.3628C99.498 26.3756 99.8525 26.0169 99.8409 25.462C99.8316 24.9965 99.4238 24.6064 98.9593 24.6192C98.4866 24.6331 98.1205 25.0174 98.1147 25.5049C98.1078 26.0111 98.4403 26.3501 98.9523 26.3628Z" fill="#001E31"/>
<path d="M126.294 21.6068C126.866 21.6068 127.329 21.1427 127.329 20.5701C127.329 19.9976 126.866 19.5334 126.294 19.5334C125.723 19.5334 125.26 19.9976 125.26 20.5701C125.26 21.1427 125.723 21.6068 126.294 21.6068Z" fill="#001E31"/>
<path d="M149.999 45.0879H45.8086V47.4306H149.999V45.0879Z" fill="#001E31"/>
<path d="M140.356 49.2534H59.6094V51.5961H140.356V49.2534Z" fill="#001E31"/>
</svg>
