<svg width="140" height="47" viewBox="0 0 140 47" fill="none" xmlns="http://www.w3.org/2000/svg">
<g clip-path="url(#clip0_3441_4221)">
<path d="M79.0953 0C82.6712 0 85.566 2.89479 85.566 6.47071C85.566 10.302 82.6712 13.1968 79.0953 13.1968C75.3207 13.1968 72.3691 10.302 72.3691 6.47071C72.3691 2.89479 75.3207 0 79.0953 0ZM84.9416 15.0983V45.9477H72.9084V15.0983H84.9416Z" fill="#001E31"/>
<path d="M104.638 45.9477H97.1744C91.1294 45.9477 88.6035 42.9961 88.6035 37.1214V2.78125H100.637V32.3251C100.637 35.2767 101.488 36.2132 104.213 36.2132H104.638V45.9477Z" fill="#001E31"/>
<path d="M123.285 37.5472C126.321 37.5472 127.797 36.8093 127.797 34.8227H139.944C138.837 41.1231 133.956 46.5437 122.689 46.5437C112.954 46.5437 106.029 40.5555 106.029 30.5089C106.029 20.4622 112.926 14.4172 122.689 14.4172C134.466 14.4172 139.944 20.5758 140.029 30.2534V32.9779H118.431C118.999 36.7525 120.844 37.5472 123.313 37.5472H123.285ZM123.285 23.4138C120.872 23.4138 118.971 24.5774 118.403 28.0398H127.769C127.343 24.5774 125.782 23.4138 123.256 23.4138H123.285Z" fill="#001E31"/>
<path d="M28.9757 2.78125H16.9141V45.9193H28.9757V24.6908L38.2844 45.9193L42.7685 32.6941L28.9757 2.78125Z" fill="#001E31"/>
<path d="M68.5953 2.78125V45.9193H56.5053V24.6908L47.1966 45.9193H38.2852L42.7692 32.6941L56.5053 2.78125H68.5953Z" fill="#001E31"/>
<path d="M6.72613 0C10.302 0 13.1968 2.89479 13.1968 6.47071C13.1968 10.302 10.302 13.1968 6.72613 13.1968C2.95155 13.1968 0 10.302 0 6.47071C0 2.89479 2.95155 0 6.72613 0Z" fill="#001E31"/>
<path d="M12.6016 21.115C12.6016 17.7921 9.90787 15.0984 6.58498 15.0984C3.26209 15.0984 0.568359 17.7921 0.568359 21.115V39.9311C0.568359 43.254 3.26209 45.9478 6.58498 45.9478C9.90787 45.9478 12.6016 43.254 12.6016 39.9311V21.115Z" fill="#001E31"/>
<path d="M12.5723 30.0263V39.931C12.5723 43.2515 9.87618 45.9476 6.55568 45.9476C3.23519 45.9476 0.539062 43.2515 0.539062 39.931V30.5371C0.539062 27.2166 1.56075 28.068 4.88125 28.068L6.55568 27.6423C9.87618 27.6423 12.5723 26.7058 12.5723 30.0263Z" fill="#001E31"/>
<path d="M6.55568 36.5538C9.87857 36.5538 12.5723 33.86 12.5723 30.5371C12.5723 27.2142 9.87857 24.5205 6.55568 24.5205C3.2328 24.5205 0.539062 27.2142 0.539062 30.5371C0.539062 33.86 3.2328 36.5538 6.55568 36.5538Z" fill="#001E31"/>
</g>
<defs>
<clipPath id="clip0_3441_4221">
<rect width="140" height="46.5721" fill="white"/>
</clipPath>
</defs>
</svg>
