<svg width="120" height="50" viewBox="0 0 120 50" fill="none" xmlns="http://www.w3.org/2000/svg">
<g clip-path="url(#clip0_3441_4056)">
<path d="M60.324 49.3629C60.3138 49.373 60.3035 49.3916 60.2932 49.3916C55.3757 49.3949 50.46 49.3949 45.5425 49.3949C45.5185 49.3949 45.4945 49.3798 45.4551 49.368V49.1171C45.4208 49.0834 45.402 49.0649 45.3763 49.0397V48.7265C45.3489 48.6945 45.3215 48.6642 45.2923 48.6288V48.3965C45.2632 48.3661 45.2358 48.3358 45.2084 48.3055V48.0631C45.1895 48.0462 45.169 48.0294 45.1518 48.0142C45.1021 47.9233 45.1399 47.829 45.1227 47.7381C45.1039 47.7196 45.0833 47.6994 45.0645 47.6809C45.025 47.6051 45.0508 47.5243 45.0422 47.4317C45.0268 47.4115 45.0045 47.3811 44.9719 47.3391C44.9274 47.2313 45.0148 47.0848 44.9171 46.9737C44.8229 46.8676 44.9531 46.6992 44.8006 46.615V46.3759C44.7715 46.3456 44.7441 46.317 44.7166 46.285V46.0442C44.6978 46.0257 44.6772 46.0089 44.6447 45.9769V45.6519C44.6104 45.6182 44.5916 45.5997 44.5727 45.5812C44.5093 45.4903 44.6104 45.3657 44.5145 45.2832C44.4134 45.1956 44.5282 45.0592 44.4528 44.9868C44.3534 44.8925 44.4031 44.7881 44.3877 44.6804C44.3654 44.6551 44.3397 44.6265 44.3088 44.5911V44.3571C44.2797 44.3268 44.2523 44.2982 44.2249 44.2679V43.9479C44.1958 43.9176 44.1683 43.889 44.1392 43.8587V43.6213C44.1169 43.5994 44.0981 43.5809 44.0793 43.5624C44.0159 43.4613 44.1084 43.3351 43.9987 43.229C43.9199 43.1549 44.0398 42.9899 43.8959 42.9006V42.7087V42.5757C43.8565 42.537 43.8377 42.5184 43.8154 42.4965V42.2574C43.7863 42.2271 43.7588 42.1985 43.7314 42.1682V41.9291C43.7023 41.8988 43.6749 41.8702 43.6475 41.8382V41.5991C43.4933 41.5149 43.6235 41.3465 43.5293 41.2405C43.4316 41.131 43.519 40.9845 43.4693 40.8616C43.4504 40.8431 43.4299 40.8229 43.4076 40.801V40.5669C43.3785 40.535 43.3528 40.5063 43.3236 40.4743V40.242C43.2945 40.2117 43.2671 40.1814 43.2397 40.1527V39.9136C43.2191 39.8934 43.2003 39.8749 43.166 39.8412V39.518C43.1317 39.4843 43.1129 39.4658 43.0752 39.4304C43.0752 39.3833 43.0666 39.3159 43.0769 39.2536C43.0906 39.1728 42.9998 39.1492 42.9947 39.0852C42.9878 39.0179 42.993 38.9505 42.993 38.8764C42.9707 38.8512 42.945 38.8209 42.9141 38.7855V38.5548C42.885 38.5245 42.8593 38.4942 42.8302 38.4622V38.1457C42.8011 38.1154 42.7736 38.0868 42.7462 38.0548V37.819C42.7171 37.7871 42.6897 37.7584 42.6657 37.7315V37.5109C42.6503 37.489 42.6263 37.4587 42.5835 37.4015C42.5835 37.3661 42.5749 37.2988 42.5852 37.2365C42.5989 37.1556 42.5063 37.1321 42.5012 37.0681C42.4961 37.0007 42.4995 36.9334 42.4995 36.8593C42.4772 36.834 42.4515 36.8037 42.4207 36.7684V36.4552C42.3915 36.4249 42.3658 36.3946 42.3367 36.3643V36.1218C42.3179 36.105 42.2973 36.0881 42.2853 36.078C42.2219 35.9821 42.2767 35.8861 42.2391 35.7867C42.2305 35.7766 42.2099 35.7581 42.1894 35.7379C42.1414 35.6638 42.1945 35.5813 42.1757 35.5005C42.1517 35.4702 42.1294 35.4399 42.0951 35.3961C42.0883 35.2951 42.0797 35.1772 42.0729 35.0594C41.9581 34.9819 42.018 34.864 42.0026 34.7563C41.9803 34.731 41.9546 34.7024 41.9238 34.667V34.4347C41.8947 34.4044 41.8672 34.3757 41.8381 34.3438V34.103C41.8193 34.0861 41.7987 34.0676 41.7833 34.0541C41.725 33.9632 41.7781 33.8656 41.7422 33.7696C41.7302 33.7578 41.7113 33.7393 41.6771 33.7056V33.3823C41.6428 33.3486 41.6239 33.3301 41.5897 33.2965C41.5897 33.2459 41.5811 33.1803 41.5914 33.1163C41.6051 33.0355 41.5109 33.0136 41.5074 32.9479C41.504 32.8806 41.5074 32.8132 41.5074 32.7408C41.4834 32.7139 41.4577 32.6852 41.4269 32.6516V32.4175C41.3978 32.3872 41.3704 32.3586 41.3429 32.3283C41.3429 32.2222 41.3429 32.1144 41.3429 32.0067C41.3241 31.9882 41.3035 31.968 41.271 31.936V31.6935C41.2367 31.6598 41.2179 31.6413 41.199 31.6228C41.1373 31.5319 41.2367 31.4073 41.1408 31.3248C41.0397 31.2389 41.1373 31.1177 41.0825 31.0251C41.0637 31.0065 41.0431 30.9863 41.0105 30.9543V30.6311C40.9763 30.5974 40.9574 30.5789 40.9352 30.557V30.3196C40.906 30.2892 40.8786 30.2606 40.8495 30.2303V29.9912C40.8204 29.9609 40.7929 29.9323 40.7655 29.9003V29.6612C40.6113 29.577 40.7415 29.4086 40.6473 29.3026C40.5496 29.1931 40.637 29.0466 40.5873 28.9237C40.5685 28.9052 40.5479 28.885 40.5257 28.8631V28.624C40.4965 28.592 40.4708 28.5634 40.4417 28.5297V28.294C40.4126 28.2637 40.3852 28.2351 40.3577 28.2047V27.964C40.3372 27.9438 40.3183 27.9252 40.2995 27.9067C40.2309 27.8158 40.3286 27.6946 40.2412 27.607C40.1847 27.7299 40.0767 27.836 40.1127 27.9875C40.1264 28.0515 40.075 28.0818 40.0339 28.1222V28.4388C40.0048 28.4691 39.9791 28.4994 39.9499 28.5314V28.8479C39.9208 28.8783 39.8934 28.9086 39.866 28.9389V29.2588C39.8454 29.279 39.8266 29.2975 39.7923 29.3312V29.6545C39.758 29.6881 39.7392 29.7067 39.7049 29.7403V30.0636C39.6707 30.0973 39.6518 30.1158 39.6261 30.1411V30.4526C39.5987 30.4846 39.573 30.5149 39.5404 30.5502V30.8634C39.5113 30.8937 39.4856 30.924 39.4565 30.9543V31.1917C39.4376 31.212 39.4188 31.2305 39.3828 31.2675C39.3503 31.3635 39.3931 31.4847 39.3657 31.606C39.352 31.6194 39.3314 31.6396 39.2989 31.6733V31.9966C39.2646 32.0303 39.2457 32.0488 39.2115 32.0825V32.4057C39.1772 32.4394 39.1584 32.4579 39.1241 32.4916V32.8149C39.0898 32.8486 39.071 32.8671 39.0573 32.8822C39.0093 33.0203 39.1172 33.1853 38.9647 33.2965V33.6214C38.9459 33.6383 38.9253 33.6568 38.8928 33.6871V34.0137C38.8585 34.0474 38.8397 34.0659 38.8105 34.0946V34.3185C38.7831 34.3539 38.7608 34.3842 38.7197 34.438V34.7495C38.6855 34.7832 38.6666 34.8017 38.6323 34.8354V35.1587C38.5981 35.1924 38.5792 35.2109 38.5569 35.2328V35.551C38.5278 35.5813 38.5004 35.6099 38.473 35.6403V35.9619C38.4541 35.9804 38.4336 35.9989 38.401 36.0309V36.3542C38.3668 36.3878 38.3479 36.4064 38.3136 36.44V36.7701C38.1354 36.8643 38.3239 37.0782 38.1389 37.1607V37.4991C38.1046 37.5328 38.0858 37.5513 38.0635 37.5732V37.8914C38.0344 37.9218 38.0069 37.9504 37.9795 37.9807V38.3023C37.9607 38.3225 37.9401 38.341 37.9059 38.3747V38.698C37.8716 38.7316 37.8527 38.7502 37.8185 38.7838V39.1071C37.7842 39.1408 37.7654 39.1593 37.7311 39.193V39.5163C37.6968 39.55 37.678 39.5685 37.654 39.592V39.9069C37.6249 39.9389 37.5992 39.9675 37.57 40.0012V40.2352C37.5495 40.2571 37.5323 40.2757 37.5135 40.2959C37.5049 40.3178 37.4878 40.3413 37.4878 40.3649C37.4844 40.4592 37.4861 40.5535 37.4861 40.6461C37.4655 40.6663 37.4467 40.6848 37.4124 40.7185V41.0418C37.3781 41.0754 37.3593 41.094 37.325 41.1276V41.4509C37.2907 41.4846 37.2719 41.5031 37.2376 41.5368V41.8601C37.2034 41.8938 37.1845 41.9123 37.1605 41.9358V42.2524C37.1314 42.2844 37.1057 42.313 37.0766 42.345V42.6616C37.0474 42.6919 37.02 42.7205 36.9926 42.7525V43.0724C36.972 43.0926 36.9532 43.1111 36.9326 43.1313C36.8812 43.2037 36.9395 43.2879 36.9189 43.3687C36.8967 43.399 36.8727 43.4293 36.8298 43.4883V43.7745C36.6979 43.9008 36.7647 44.0709 36.7459 44.2022C36.7099 44.2376 36.6911 44.2561 36.6688 44.278V44.5945C36.6396 44.6248 36.6139 44.6551 36.5848 44.6854V45.0037C36.5643 45.0239 36.5471 45.0441 36.5043 45.0862C36.4889 45.1771 36.5094 45.2966 36.4974 45.4145C36.4786 45.433 36.458 45.4532 36.4255 45.4852V45.7984C36.3912 45.8321 36.3724 45.8506 36.3467 45.8759C36.3398 45.987 36.3312 46.1032 36.3244 46.221C36.2096 46.2985 36.2696 46.4147 36.2541 46.5241C36.2336 46.5477 36.2079 46.578 36.177 46.6133V46.9265C36.1479 46.9568 36.1205 46.9871 36.0931 47.0174V47.3407C36.0742 47.3576 36.0537 47.3761 36.016 47.4098C35.9954 47.5108 36.0211 47.6303 36.0057 47.7482C35.9868 47.7667 35.9663 47.7869 35.9337 47.8189V48.1422C35.8995 48.1759 35.8806 48.1944 35.8463 48.2281V48.5514C35.8121 48.585 35.7932 48.6036 35.759 48.6372V48.9605C35.7247 48.9942 35.7058 49.0127 35.6801 49.038C35.6801 49.139 35.6801 49.2468 35.6784 49.3528C35.6784 49.3629 35.663 49.373 35.6493 49.3916H25.5197C25.4888 49.3613 25.4597 49.3326 25.4151 49.2889V49.0464C25.3809 49.0127 25.362 48.9942 25.3226 48.9555C25.3226 48.8965 25.3397 48.814 25.3192 48.7416C25.2952 48.6591 25.213 48.5918 25.2421 48.4907C25.2678 48.3998 25.177 48.3544 25.1616 48.282C25.1461 48.2062 25.1941 48.1119 25.0793 48.085V47.8307C25.0502 47.8004 25.0228 47.7718 24.9954 47.7415V47.5024C24.9662 47.4721 24.9388 47.4434 24.9114 47.4131V47.1757C24.8891 47.1538 24.8703 47.1353 24.8411 47.1067C24.836 47.0259 24.8583 46.9147 24.8137 46.8508C24.7623 46.7767 24.7812 46.6891 24.7435 46.6369C24.6647 46.5292 24.663 46.4197 24.6715 46.3018C24.6441 46.2699 24.6167 46.2412 24.5876 46.2076V45.9718C24.5584 45.9415 24.531 45.9129 24.5036 45.8826V45.6435C24.4745 45.6132 24.4471 45.5846 24.4196 45.5526V45.3152C24.3974 45.2933 24.3785 45.2748 24.3494 45.2461C24.3425 45.1653 24.3665 45.0542 24.322 44.9902C24.2689 44.9161 24.2894 44.8269 24.2517 44.7764C24.1712 44.6686 24.1729 44.5592 24.1798 44.4413C24.1506 44.411 24.1249 44.3807 24.0958 44.3487V44.113C24.0667 44.0826 24.0393 44.0523 24.0119 44.0237V43.7863C23.9827 43.7543 23.9553 43.7257 23.9313 43.6987V43.4782C23.9091 43.4462 23.8679 43.4091 23.8525 43.3637C23.8354 43.3165 23.8559 43.2542 23.8337 43.2105C23.8114 43.1667 23.7583 43.1381 23.7651 43.0758C23.7703 43.0219 23.7668 42.968 23.7668 42.9074C23.7446 42.8821 23.7189 42.8518 23.688 42.8165V42.5858C23.6589 42.5555 23.6332 42.5252 23.6041 42.4932V42.2574C23.5749 42.2271 23.5475 42.1985 23.5201 42.1665V41.9274C23.4995 41.9072 23.479 41.8887 23.4601 41.8685C23.4019 41.8062 23.4824 41.7069 23.4019 41.6496C23.3333 41.6008 23.3488 41.5267 23.359 41.4661C23.3762 41.3735 23.2939 41.328 23.2768 41.2556C23.258 41.1798 23.2665 41.099 23.2545 41.0216C23.2511 40.9997 23.2186 40.9828 23.1963 40.9609V40.7252C23.1672 40.6949 23.1397 40.6646 23.1123 40.6343V40.3918C23.0935 40.375 23.0729 40.3582 23.0558 40.343C23.0061 40.2521 23.0438 40.1578 23.0266 40.0686C23.0078 40.05 22.9872 40.0315 22.9684 40.0113C22.9119 39.949 22.9907 39.8497 22.9101 39.7924C22.8416 39.7436 22.8587 39.6695 22.869 39.6089C22.8862 39.5163 22.8022 39.4708 22.7868 39.3984C22.7696 39.3226 22.7765 39.2418 22.7628 39.1644C22.7594 39.1425 22.7268 39.1256 22.7045 39.1038V38.8663C22.6754 38.836 22.648 38.8074 22.6206 38.7754V38.5363C22.5914 38.506 22.564 38.4774 22.5366 38.4471V38.2905C22.5143 38.2686 22.4955 38.2501 22.4766 38.2316C22.4132 38.1406 22.5143 38.016 22.4184 37.9335C22.3173 37.846 22.4321 37.7096 22.3567 37.6372C22.2573 37.5429 22.307 37.4385 22.2916 37.3308C22.2693 37.3055 22.2436 37.2769 22.2128 37.2415V37.0075C22.1837 36.9772 22.1562 36.9485 22.1288 36.9182C22.1288 36.866 22.1288 36.8121 22.1288 36.7583C22.11 36.7397 22.0894 36.7195 22.0569 36.6876V36.4451C22.0226 36.4114 22.0037 36.3929 21.9849 36.3744C21.9232 36.2835 22.0226 36.1589 21.9266 36.0763C21.8256 35.9905 21.9403 35.8524 21.865 35.78C21.7656 35.6857 21.817 35.5813 21.8016 35.4736C21.7793 35.4483 21.7519 35.418 21.7227 35.386V35.1503C21.6936 35.12 21.6662 35.0913 21.6388 35.061V34.9011C21.6182 34.8809 21.5994 34.8624 21.5651 34.8287C21.5617 34.7546 21.5565 34.6637 21.5531 34.5795C21.5257 34.5441 21.476 34.5104 21.4812 34.4835C21.5154 34.2949 21.3595 34.1383 21.3903 33.9514C21.3955 33.9245 21.3475 33.8891 21.3167 33.8487V33.6231C21.2875 33.5911 21.2618 33.5625 21.2327 33.5305V33.3756C21.2036 33.3453 21.1762 33.315 21.1488 33.2864V33.0473C21.1282 33.027 21.1093 33.0085 21.0751 32.9748C21.0717 32.8991 21.0665 32.8082 21.0614 32.7189C21.0425 32.7004 21.0083 32.6836 21.0065 32.6617C20.9946 32.5842 21.0031 32.5034 20.9843 32.4276C20.9671 32.3569 20.8849 32.3098 20.902 32.2172C20.9174 32.1397 20.9037 32.0673 20.8352 32.0016C20.7975 31.9646 20.8146 31.8787 20.7992 31.8164C20.7941 31.7945 20.7632 31.7777 20.7427 31.7575V31.5184C20.7136 31.4881 20.6861 31.4595 20.6587 31.4275V31.1917C20.6296 31.1598 20.6022 31.1311 20.5782 31.1042V30.8836C20.5611 30.8634 20.5217 30.8365 20.5148 30.8028C20.496 30.7136 20.5217 30.6024 20.4754 30.5384C20.4206 30.4644 20.4137 30.397 20.4137 30.3196C20.4137 30.2657 20.4171 30.2168 20.3674 30.1764C20.2801 30.1057 20.3949 29.9508 20.2492 29.902V29.6562C20.2304 29.6393 20.2098 29.6225 20.1944 29.609C20.143 29.5164 20.179 29.4204 20.1618 29.3312C20.143 29.3127 20.1224 29.2925 20.1036 29.2739C20.0642 29.1982 20.0916 29.1173 20.0847 29.0534C20.0796 28.9725 19.9802 28.9507 20.0008 28.8715C20.0419 28.7082 19.8945 28.5853 19.898 28.4287C19.898 28.4102 19.862 28.3916 19.8397 28.3681V28.1307C19.8106 28.1004 19.7832 28.0717 19.7558 28.0397V27.799C19.7369 27.7821 19.7164 27.7636 19.6975 27.7451C19.6512 27.6575 19.6872 27.5615 19.6701 27.4723C19.6512 27.4538 19.6307 27.4336 19.6118 27.4151C19.5484 27.3241 19.653 27.1945 19.5519 27.1187C19.4611 27.0497 19.5639 26.9285 19.4679 26.8729H19.3839C19.3034 26.9537 19.36 27.0514 19.3428 27.1473C19.3206 27.1726 19.2949 27.2012 19.264 27.2349V27.5498C19.2349 27.5801 19.2075 27.6087 19.1801 27.639C19.1801 27.7451 19.1801 27.8528 19.1801 27.9606C19.1612 27.9791 19.1406 27.9993 19.1081 28.0313V28.3546C19.0738 28.3883 19.055 28.4068 19.0207 28.4405V28.7638C18.9864 28.7974 18.9676 28.816 18.9436 28.8395C18.935 28.9523 18.9265 29.0702 18.9179 29.1881C18.8014 29.2655 18.8648 29.3834 18.8494 29.4895C18.8271 29.5147 18.7997 29.545 18.7706 29.577V29.8936C18.7414 29.9239 18.714 29.9525 18.6866 29.9828V30.3078C18.666 30.328 18.6472 30.3465 18.6129 30.3802V30.7035C18.5787 30.7371 18.5598 30.7556 18.5255 30.7893V31.1126C18.4913 31.1463 18.4724 31.1648 18.4382 31.1985V31.5218C18.4039 31.5554 18.385 31.574 18.3508 31.6076V31.9309C18.3165 31.9646 18.2977 31.9831 18.2771 32.0033V32.3216C18.248 32.3519 18.2205 32.3822 18.1931 32.4108V32.6516C18.1726 32.6718 18.1537 32.6903 18.1195 32.724V33.0473C18.0852 33.0809 18.0663 33.0994 18.0372 33.1281V33.4345C18.0098 33.4682 17.9858 33.4985 17.9447 33.5507V33.8639C17.9104 33.8976 17.8916 33.9161 17.8676 33.938V34.2545C17.8385 34.2848 17.8128 34.3151 17.7836 34.3471V34.6637C17.7545 34.694 17.7271 34.7226 17.6997 34.7546V35.0745C17.6791 35.0947 17.6603 35.1132 17.6397 35.1334C17.5883 35.2058 17.6466 35.29 17.626 35.3708C17.602 35.4012 17.5797 35.4315 17.5386 35.487V35.7985C17.5043 35.8322 17.4855 35.8507 17.4512 35.8844V36.2077C17.417 36.2414 17.3981 36.2599 17.3758 36.2818V36.5983C17.3467 36.6286 17.3193 36.6589 17.2902 36.6892V37.0075C17.2713 37.0277 17.2525 37.0462 17.2114 37.0883C17.1942 37.1809 17.2165 37.3004 17.2045 37.4166C17.1857 37.4351 17.1651 37.4554 17.1325 37.4873V37.8106C17.0983 37.8443 17.0794 37.8628 17.0537 37.8881C17.0469 37.9992 17.0383 38.1154 17.0314 38.2332C16.9166 38.3107 16.9766 38.4286 16.9612 38.5363C16.9406 38.5599 16.9149 38.5902 16.8841 38.6256V38.9387C16.855 38.9691 16.8276 38.9977 16.8001 39.0297V39.3513C16.7813 39.3681 16.7607 39.3866 16.7282 39.4169V39.7436C16.6939 39.7773 16.6751 39.7958 16.6408 39.8295V40.1527C16.6065 40.1864 16.5877 40.2049 16.5534 40.2386V40.5619C16.5191 40.5956 16.5003 40.6141 16.466 40.6478V40.9711C16.4318 41.0047 16.4129 41.0233 16.3906 41.0451V41.2825C16.3615 41.3129 16.3341 41.3415 16.3067 41.3718V41.6934C16.2878 41.7119 16.2673 41.7304 16.2347 41.7624V42.0857C16.2004 42.1194 16.1816 42.1379 16.1473 42.1716V42.4949C16.1131 42.5285 16.0942 42.5471 16.0599 42.5807V42.904C16.0257 42.9377 16.0068 42.9562 15.9726 42.9899V43.3132C15.9383 43.3468 15.9194 43.3654 15.8972 43.3873V43.7055C15.868 43.7358 15.8406 43.7644 15.8132 43.7947V44.1163C15.7944 44.1348 15.7738 44.1551 15.7378 44.1904C15.7344 44.2645 15.7293 44.3537 15.7258 44.4447C15.707 44.4632 15.6864 44.4834 15.6539 44.5154V44.8387C15.6196 44.8723 15.6008 44.8909 15.5665 44.9245V45.2478C15.5322 45.2815 15.5134 45.3 15.4894 45.3236V45.6384C15.4603 45.6704 15.4346 45.6991 15.4054 45.7327V46.0493C15.3763 46.0796 15.3489 46.1082 15.3215 46.1385V46.4584C15.3009 46.4786 15.2821 46.4972 15.2478 46.5308V46.8541C15.2135 46.8878 15.1947 46.9063 15.1758 46.9248C15.1176 47.0276 15.2204 47.169 15.0884 47.2532C15.0816 47.371 15.073 47.4872 15.0662 47.5984C15.0405 47.6236 15.0216 47.6421 14.9976 47.6657V47.9823C14.9685 48.0142 14.9428 48.0429 14.9137 48.0749V48.3914C14.8846 48.4217 14.8571 48.4503 14.8297 48.4806V48.8006C14.8092 48.8208 14.7903 48.8393 14.756 48.873V49.2063C14.6447 49.2417 14.6995 49.3613 14.6258 49.405C9.77689 49.405 4.92796 49.405 0.07902 49.405C0.0121972 49.3545 0.0430385 49.2838 0.0378983 49.2198C0.0344715 49.1542 0.0378983 49.0902 0.0378983 49.0413C0.0738798 49.006 0.0927272 48.9875 0.116715 48.9639L0.116715 48.6473C0.145843 48.617 0.171544 48.5867 0.200672 48.5547L0.200672 48.2382C0.219519 48.218 0.238367 48.1978 0.279488 48.1557C0.294909 48.0648 0.276062 47.9452 0.286342 47.8273C0.305189 47.8088 0.32575 47.7886 0.344598 47.7701C0.385719 47.696 0.358305 47.6152 0.368585 47.5192C0.382293 47.5007 0.40628 47.4704 0.447402 47.4148V47.1033C0.48167 47.0696 0.500518 47.0511 0.534786 47.0174V46.6942C0.569054 46.6605 0.587901 46.642 0.610175 46.6201V46.3035C0.639303 46.2732 0.666718 46.2429 0.694132 46.2126V45.8944C0.72326 45.8641 0.750675 45.8354 0.778089 45.8051V45.5677C0.79865 45.5475 0.819211 45.5273 0.851765 45.4953V45.172C0.886034 45.1384 0.904881 45.1198 0.939149 45.0862L0.939149 44.7629C0.973417 44.7292 0.992265 44.7107 1.02653 44.677V44.3537C1.0608 44.3201 1.07965 44.3015 1.10192 44.2797V44.0422C1.13105 44.0119 1.15846 43.9833 1.18588 43.953V43.6314C1.20473 43.6129 1.22529 43.5944 1.25784 43.5641V43.2391C1.29211 43.2054 1.31096 43.1869 1.34523 43.1532V42.8299C1.37949 42.7962 1.39834 42.7777 1.42233 42.7542C1.4309 42.6413 1.43946 42.5252 1.44632 42.4073C1.56283 42.3298 1.49943 42.212 1.51485 42.1059C1.53713 42.0807 1.56283 42.052 1.59367 42.0167L1.59367 41.7018C1.6228 41.6715 1.65021 41.6429 1.67763 41.6126C1.67763 41.5065 1.67763 41.3987 1.67763 41.291C1.69647 41.2724 1.71703 41.2522 1.74959 41.2202V40.897C1.78386 40.8633 1.80271 40.8448 1.83697 40.8111V40.4811C2.01517 40.3868 1.82498 40.1713 2.01174 40.0921V39.752C2.04601 39.7183 2.06486 39.6998 2.08713 39.6796V39.3614C2.11626 39.3311 2.14367 39.3024 2.17109 39.2721V38.9505C2.32358 38.8394 2.21564 38.6744 2.26361 38.5363C2.27732 38.5229 2.29788 38.5027 2.31673 38.4841C2.3767 38.3831 2.27218 38.2383 2.40411 38.1558C2.41268 38.0379 2.41953 37.9218 2.4281 37.8106C2.4538 37.7854 2.47265 37.7668 2.49663 37.7433V37.4284C2.52576 37.3964 2.55146 37.3678 2.58059 37.3358V37.0193C2.60972 36.9889 2.63713 36.9603 2.66455 36.93V36.6101C2.68511 36.5899 2.70396 36.5714 2.73822 36.5377C2.74165 36.4619 2.74679 36.371 2.75193 36.2818C2.77078 36.2632 2.79134 36.243 2.81875 36.2161L2.81875 35.908C2.84617 35.8743 2.87016 35.844 2.91128 35.7918V35.4786C2.94555 35.4449 2.96439 35.4264 2.98838 35.4028V35.0863C3.01751 35.056 3.04321 35.0257 3.07234 34.9937V34.6771C3.10147 34.6468 3.12888 34.6182 3.15629 34.5862V34.3471C3.17686 34.3269 3.1957 34.3084 3.22997 34.2747V33.9514C3.26424 33.9178 3.28309 33.8992 3.31735 33.8656V33.5423C3.35162 33.5086 3.37047 33.4901 3.39617 33.4648V33.1516C3.42359 33.1197 3.44929 33.0893 3.48013 33.054V32.7408C3.50926 32.7105 3.53667 32.6802 3.56409 32.6499V32.4074C3.58293 32.3906 3.60349 32.3737 3.64119 32.3401C3.66004 32.239 3.63776 32.1178 3.64976 32.0016C3.6686 31.9831 3.68916 31.9629 3.72172 31.9309V31.6076C3.75599 31.574 3.77483 31.5554 3.8091 31.5218V31.1985C3.84337 31.1648 3.86222 31.1463 3.89649 31.1126V30.7893C3.93075 30.7556 3.9496 30.7371 3.97188 30.7152V30.4778C4.001 30.4475 4.02842 30.4189 4.05583 30.3869V30.0653C4.07468 30.0485 4.09524 30.0299 4.1278 29.998V29.6713C4.16206 29.6376 4.18091 29.6191 4.21518 29.5854V29.2621C4.24945 29.2285 4.26829 29.21 4.29228 29.1864C4.30085 29.0736 4.3077 28.9574 4.31627 28.8395C4.44135 28.7638 4.35054 28.6408 4.41736 28.5011C4.40879 28.5112 4.43449 28.4826 4.46534 28.4472V28.1323C4.49446 28.102 4.52188 28.0734 4.54929 28.0431C4.54929 27.937 4.54929 27.8293 4.54929 27.7215C4.56814 27.703 4.5887 27.6828 4.62126 27.6508V27.3275C4.65552 27.2938 4.67437 27.2753 4.70864 27.2416V26.9183C4.74291 26.8847 4.76175 26.8662 4.79602 26.8325V26.59C4.83029 26.5563 4.84914 26.5378 4.88341 26.5041V26.1809C4.91767 26.1472 4.93652 26.1287 4.9588 26.1068V25.7885C4.98792 25.7582 5.01534 25.7296 5.04447 25.6993V25.3777C5.06331 25.3575 5.08388 25.339 5.11814 25.3053V24.982C5.15241 24.9483 5.17126 24.9298 5.19011 24.9113C5.25008 24.8103 5.14384 24.6655 5.27749 24.583C5.28606 24.4651 5.29291 24.3489 5.30148 24.2378C5.32718 24.2142 5.34603 24.194 5.38029 24.1603L5.38029 23.8371C5.41456 23.8034 5.43341 23.7849 5.45397 23.7647V23.4464C5.4831 23.4161 5.51051 23.3875 5.53793 23.3572V23.0373C5.55849 23.0171 5.57734 22.9985 5.6116 22.9649C5.61503 22.8891 5.62017 22.7999 5.62531 22.7089C5.64416 22.6904 5.66472 22.6702 5.69213 22.6433V22.3351C5.71955 22.3015 5.74354 22.2712 5.78466 22.219V21.9058C5.81892 21.8721 5.83777 21.8536 5.86176 21.83V21.5135C5.89089 21.4815 5.91659 21.4528 5.94572 21.4209V21.1043C5.97485 21.074 6.00226 21.0454 6.02967 21.0134V20.7743C6.05023 20.7541 6.06908 20.7356 6.10335 20.7019V20.3786C6.13762 20.3449 6.15647 20.3264 6.19073 20.2927V19.9695C6.225 19.9358 6.24385 19.9173 6.27812 19.8836V19.5603C6.31239 19.5266 6.33123 19.5081 6.35351 19.4862V19.1697C6.38264 19.1394 6.40834 19.109 6.43746 19.0787V18.8413C6.45631 18.8211 6.47516 18.8026 6.51114 18.7656C6.54541 18.6696 6.50086 18.5484 6.52827 18.4271C6.54198 18.4137 6.56254 18.3934 6.5951 18.3615V18.0382C6.62937 18.0045 6.64821 17.986 6.67391 17.9607C6.68077 17.8496 6.68934 17.7317 6.69619 17.6155C6.82127 17.5398 6.73388 17.4169 6.79385 17.2822C6.78871 17.2889 6.81441 17.2586 6.84525 17.2232V16.9101C6.87438 16.8797 6.9018 16.8511 6.92921 16.8191V16.4975C6.94806 16.4807 6.96862 16.4622 7.00117 16.4319V16.1136C7.03544 16.08 7.05429 16.0614 7.08856 16.0278V15.7045C7.12283 15.6708 7.14167 15.6523 7.17594 15.6186V15.3761C7.21021 15.3425 7.22906 15.3239 7.26333 15.2903V14.9687C7.29759 14.935 7.31644 14.9165 7.33872 14.8946V14.5764C7.36784 14.546 7.39526 14.5174 7.42267 14.4871V14.1655C7.44152 14.147 7.46208 14.1285 7.49464 14.0948V13.7715C7.5289 13.7378 7.54775 13.7193 7.5666 13.7008C7.62999 13.5998 7.52034 13.455 7.65398 13.3725C7.66255 13.2546 7.67112 13.1384 7.67797 13.0256C7.70196 13.002 7.7208 12.9835 7.75507 12.9498V12.6266C7.78934 12.5929 7.80819 12.5744 7.83046 12.5525V12.2342C7.85959 12.2039 7.887 12.1753 7.91442 12.145V11.8234C7.93327 11.8049 7.95383 11.7847 7.98981 11.7493C7.99324 11.6769 7.99666 11.586 8.0018 11.4951C8.02065 11.4765 8.04121 11.4563 8.07377 11.4243V11.1011C8.10803 11.0674 8.12688 11.0489 8.16115 11.0152V10.6919C8.19542 10.6582 8.21426 10.6397 8.24853 10.606V10.2828C8.2828 10.2491 8.30165 10.2306 8.32221 10.2104V9.89212C8.35134 9.86181 8.37875 9.83319 8.40617 9.80288V9.56378C8.42673 9.54358 8.44557 9.52506 8.47984 9.49138V9.1681C8.51411 9.13443 8.53296 9.1159 8.56723 9.08223V8.75895C8.60149 8.72527 8.62034 8.70675 8.65461 8.67307V8.34979C8.68888 8.31612 8.70773 8.29759 8.73171 8.27402V7.95747C8.76084 7.92717 8.78654 7.89686 8.81567 7.86487V7.62914C8.83452 7.60893 8.85336 7.58873 8.89106 7.55C8.92361 7.45739 8.87907 7.33448 8.90648 7.21325C8.92019 7.19978 8.93903 7.18126 8.9733 7.14758V6.8243C9.00757 6.79062 9.02642 6.7721 9.0624 6.73674V6.43703C9.19776 6.31075 9.11552 6.13901 9.15835 5.99589C9.18062 5.974 9.19947 5.95548 9.22346 5.9319V5.69618C9.25259 5.66587 9.28 5.63556 9.30742 5.60525V5.28702C9.32626 5.26682 9.34511 5.2483 9.38623 5.20452C9.40165 5.11359 9.38109 4.99405 9.39309 4.87618C9.41193 4.85766 9.4325 4.83746 9.46505 4.80547V4.48218C9.49932 4.44851 9.51817 4.42999 9.54387 4.40473C9.55072 4.2936 9.55929 4.17742 9.56614 4.05956C9.68951 3.98379 9.60555 3.86087 9.66209 3.72786C9.65695 3.73291 9.68437 3.70428 9.70835 3.67566C9.75462 3.54264 9.64667 3.37763 9.79916 3.2665V2.94154C9.81801 2.9247 9.83857 2.90618 9.86941 2.87924C9.90711 2.77316 9.86256 2.65193 9.88997 2.53238C9.9054 2.51723 9.92424 2.49871 9.95851 2.46503V2.14175C9.99278 2.10807 10.0116 2.08955 10.0459 2.05588V1.81341C10.0802 1.77974 10.099 1.76122 10.1333 1.72754V1.40763C10.1675 1.37395 10.1864 1.35543 10.2087 1.33354V1.01699C10.2378 0.986686 10.2652 0.958062 10.2926 0.927755V0.604472C10.3115 0.58595 10.332 0.567429 10.3646 0.535437V0.208787C10.4434 0.146488 10.4897 0.085872 10.4623 0.00168376L24.9679 0.00168376C24.9988 0.0370428 25.0365 0.0757694 25.0793 0.124599C25.0964 0.198684 25.0587 0.303078 25.1667 0.360326V0.59942C25.1958 0.629728 25.2232 0.658352 25.2506 0.68866C25.2506 0.740857 25.2506 0.794737 25.2506 0.848617C25.2695 0.867139 25.2901 0.887344 25.3226 0.919336V1.1618C25.3569 1.19547 25.3757 1.21399 25.4049 1.24262C25.4117 1.32344 25.3877 1.43457 25.4323 1.49855C25.4837 1.57264 25.4648 1.66019 25.5025 1.71239C25.5813 1.82015 25.5848 1.92959 25.5745 2.04746C25.6019 2.07777 25.6293 2.10807 25.6584 2.14175V2.29666C25.6876 2.32696 25.715 2.35559 25.7424 2.38589V2.62499C25.7715 2.6553 25.7989 2.68392 25.8246 2.71255V2.90281C25.8212 2.98868 25.9292 3.0072 25.9069 3.08634C25.8812 3.17726 25.9669 3.22609 25.9857 3.29681C26.0028 3.35911 25.9891 3.42983 25.9891 3.5056C26.0097 3.53085 26.0354 3.56116 26.0679 3.59821V3.8272C26.0971 3.85919 26.1228 3.88781 26.1519 3.9198V4.07471C26.181 4.10502 26.2084 4.13533 26.2359 4.16395V4.40305C26.2564 4.42325 26.2753 4.44177 26.2941 4.46029C26.3541 4.52259 26.2718 4.62193 26.3524 4.67918C26.4209 4.72801 26.4123 4.80378 26.3952 4.86103C26.3626 4.97047 26.4912 5.01257 26.4843 5.11191C26.4774 5.20115 26.4569 5.29712 26.5545 5.36784C26.5751 5.383 26.5597 5.44361 26.5648 5.48234C26.5683 5.5076 26.5734 5.53285 26.5871 5.55306C26.6008 5.57495 26.6248 5.59178 26.6454 5.61199V5.85108C26.6745 5.88139 26.7019 5.91002 26.7293 5.94201V6.10028C26.7499 6.12049 26.7687 6.13901 26.7893 6.15921C26.8304 6.2333 26.803 6.31412 26.8133 6.41009C26.827 6.42861 26.851 6.45892 26.8852 6.50607C26.8904 6.57847 26.8989 6.66771 26.9058 6.75863C27.048 6.81756 26.8938 7.0112 27.0549 7.05161V7.30249C27.084 7.3328 27.1097 7.3631 27.1388 7.39341V7.63082C27.1662 7.66113 27.1937 7.68975 27.2228 7.72175V7.87834C27.2433 7.89854 27.2639 7.91875 27.2827 7.93727C27.3479 8.02819 27.2451 8.15447 27.341 8.23529C27.4301 8.31106 27.3307 8.45587 27.4558 8.51143C27.4609 8.59057 27.4661 8.66971 27.4712 8.76063C27.4884 8.78083 27.5141 8.81114 27.5449 8.84482V9.07718C27.574 9.10748 27.6014 9.13611 27.6289 9.1681V9.32637C27.658 9.35668 27.6854 9.38531 27.7128 9.41561V9.65471C27.8002 9.70522 27.7865 9.78604 27.7968 9.86518C27.8053 9.93758 27.8961 9.98136 27.879 10.074C27.8653 10.1514 27.8824 10.2205 27.9424 10.2912C27.9835 10.3417 27.9595 10.4444 27.9647 10.5353C27.9835 10.5555 28.0092 10.5858 28.0401 10.6195V10.7727C28.0692 10.803 28.0966 10.8317 28.124 10.862C28.124 10.9411 28.124 11.0219 28.124 11.1027C28.1429 11.1213 28.1634 11.1415 28.196 11.1735V11.4159C28.2303 11.4496 28.2508 11.4664 28.268 11.4866C28.3228 11.5506 28.2457 11.6483 28.3262 11.7055C28.3947 11.7544 28.3656 11.8268 28.369 11.8891C28.3725 11.9413 28.3639 11.9918 28.4136 12.0339C28.4993 12.1046 28.3965 12.2561 28.5335 12.3083V12.5491C28.5627 12.5794 28.5901 12.608 28.6175 12.6383V12.8791C28.6381 12.8993 28.6569 12.9178 28.6912 12.9515C28.6946 12.9987 28.6757 13.0862 28.71 13.1216C28.7768 13.1889 28.7888 13.2563 28.7803 13.3371C28.7734 13.4078 28.7923 13.4617 28.8471 13.5139C28.8694 13.5341 28.8625 13.588 28.8625 13.6267C28.8625 13.7058 28.8642 13.7766 28.9328 13.8439C28.9704 13.881 28.9533 13.9668 28.9687 14.0291C28.9739 14.051 29.0047 14.0679 29.027 14.0881V14.3255C29.0561 14.3558 29.0835 14.3844 29.1109 14.4147V14.5747C29.1315 14.5949 29.1504 14.6134 29.1846 14.6471C29.1881 14.7228 29.1932 14.8121 29.1983 14.8963C29.2257 14.9316 29.2652 14.9603 29.272 14.9939C29.2926 15.0933 29.2412 15.1977 29.3388 15.292C29.3954 15.3475 29.3234 15.4789 29.4314 15.5344V15.7701C29.4639 15.8055 29.4913 15.8341 29.5205 15.8661V16.021C29.5496 16.0513 29.577 16.0816 29.6044 16.1119V16.351C29.625 16.3712 29.6438 16.3898 29.6644 16.41C29.7312 16.5009 29.6284 16.6289 29.7243 16.708C29.8152 16.7838 29.7124 16.9303 29.8391 16.9858C29.8443 17.065 29.8494 17.1441 29.8563 17.2367C29.8734 17.2552 29.8991 17.2855 29.93 17.3209V17.5532C29.9591 17.5836 29.9848 17.6139 30.0156 17.6442V17.8008C30.043 17.8311 30.0705 17.8597 30.0996 17.8917V18.1291C30.1201 18.1493 30.1407 18.1678 30.1596 18.188C30.2178 18.2503 30.1373 18.3497 30.2178 18.4069C30.2863 18.4557 30.2761 18.5332 30.2589 18.5888C30.2247 18.6999 30.3566 18.7403 30.348 18.8396C30.3395 18.9289 30.324 19.0215 30.4183 19.0956C30.4457 19.1175 30.4268 19.1966 30.4303 19.2555C30.4543 19.2808 30.4817 19.3094 30.5091 19.3397V19.5788C30.5485 19.6276 30.5948 19.6344 30.6513 19.6041C30.6976 19.5182 30.6599 19.4239 30.677 19.3397C30.7061 19.306 30.7541 19.2724 30.7524 19.2454C30.7421 19.1461 30.7969 19.0771 30.8329 18.9929C30.862 18.9255 30.8449 18.8497 30.9049 18.7773C30.946 18.7268 30.922 18.6241 30.9272 18.5332C30.946 18.513 30.9717 18.4827 31.0025 18.449V18.2958C31.0317 18.2655 31.0591 18.2369 31.0865 18.2065V17.9658C31.1054 17.9472 31.1259 17.9287 31.1602 17.8951C31.1636 17.8462 31.1499 17.7721 31.179 17.7216C31.2133 17.6661 31.251 17.6223 31.2544 17.5482C31.2613 17.4354 31.3572 17.3461 31.3384 17.2182C31.3247 17.1222 31.4617 17.0481 31.4206 16.9286C31.4138 16.9084 31.4669 16.8696 31.496 16.8326V16.6002C31.5251 16.5699 31.5525 16.5413 31.58 16.511V16.351C31.6005 16.3308 31.6194 16.3123 31.6382 16.2938C31.7068 16.2332 31.6142 16.1338 31.6965 16.0749C31.7787 16.016 31.7462 15.9267 31.741 15.8526C31.7342 15.7718 31.8198 15.7466 31.825 15.6843C31.8301 15.6051 31.8353 15.5395 31.8935 15.4671C31.9346 15.4166 31.9089 15.3138 31.9124 15.2246C31.9329 15.2027 31.9586 15.1724 31.9895 15.1404V14.9855C32.0186 14.9552 32.046 14.9266 32.0734 14.8963V14.6488C32.094 14.6285 32.1128 14.61 32.1385 14.5848C32.142 14.477 32.2191 14.376 32.2276 14.2699C32.2379 14.1504 32.3613 14.0729 32.3219 13.9399C32.2876 13.8237 32.4572 13.7429 32.4058 13.6099C32.399 13.593 32.4521 13.5509 32.4829 13.5173V13.2832C32.5121 13.2529 32.5395 13.2243 32.5669 13.1923V13.034C32.5874 13.0138 32.608 12.9953 32.6269 12.9751C32.6868 12.9128 32.6046 12.8135 32.6851 12.7562C32.7536 12.7074 32.7262 12.6367 32.7297 12.5727C32.7331 12.5222 32.7194 12.4683 32.7708 12.4279C32.8582 12.3572 32.7588 12.209 32.8907 12.1534V11.9143C32.9198 11.884 32.9473 11.8537 32.9747 11.8234V11.6668C33.0038 11.6365 33.0312 11.6079 33.0586 11.5759V11.4193C33.0792 11.3991 33.0998 11.3806 33.1203 11.3587C33.158 11.2846 33.134 11.2038 33.1392 11.1263C33.1443 11.059 33.2265 11.0371 33.2248 10.9579C33.2231 10.8182 33.3568 10.7003 33.3036 10.5471C33.3585 10.473 33.4356 10.4057 33.3722 10.308C33.4099 10.2676 33.4373 10.2373 33.4664 10.207V10.0521C33.4956 10.0218 33.523 9.99314 33.5504 9.96284V9.72374C33.5709 9.70354 33.5915 9.68502 33.6104 9.66481C33.6669 9.60083 33.5881 9.50317 33.6686 9.44592C33.7371 9.39709 33.7063 9.32469 33.7132 9.26239C33.7183 9.22366 33.7097 9.16136 33.7286 9.15126C33.8537 9.08728 33.7423 8.94079 33.8417 8.87007C33.9102 8.82124 33.8622 8.74547 33.8794 8.67644C33.9016 8.65287 33.929 8.62256 33.9582 8.59394V8.35316C33.977 8.33464 33.9976 8.31611 34.0353 8.27907C34.0387 8.23361 34.0421 8.16963 34.0456 8.10733C34.0644 8.08881 34.085 8.0686 34.1227 8.03156C34.1227 7.99957 34.1209 7.94905 34.1227 7.89686C34.1244 7.84634 34.1055 7.7891 34.1604 7.75037C34.2135 7.71333 34.198 7.65776 34.2049 7.60725C34.21 7.57189 34.2238 7.5298 34.2495 7.50622C34.2974 7.46245 34.2889 7.40857 34.2837 7.35805C34.2786 7.29239 34.33 7.26713 34.366 7.22335V6.98762C34.3951 6.95732 34.4225 6.92869 34.4499 6.89839V6.74011C34.479 6.7098 34.5065 6.68118 34.5339 6.65087V6.41346C34.5561 6.39157 34.5921 6.37305 34.5921 6.35284C34.5887 6.19625 34.7343 6.07334 34.6949 5.91001C34.76 5.78878 34.7789 5.64903 34.856 5.53117C34.8577 5.5177 34.8594 5.50591 34.8594 5.49244C34.8594 5.45203 34.8594 5.41162 34.8594 5.37121C34.8868 5.34259 34.9142 5.31396 34.9417 5.28365V5.04288C34.9622 5.02267 34.9811 5.00415 35.0016 4.98394C35.0479 4.89639 34.9845 4.76842 35.1044 4.70444C35.1216 4.61688 35.0599 4.51586 35.1456 4.4384C35.2295 4.36264 35.137 4.21951 35.2621 4.16227C35.2758 4.07471 35.2467 3.972 35.3512 3.91475V3.67566C35.3803 3.64535 35.4077 3.61504 35.4351 3.58474V3.42815C35.4643 3.39615 35.4917 3.36753 35.5157 3.34059V3.1318C35.5294 3.0594 35.6356 3.02404 35.5996 2.92638C35.5705 2.84893 35.675 2.82199 35.6784 2.75801C35.6836 2.67887 35.6664 2.59468 35.759 2.54585V2.30844C35.7881 2.27813 35.8138 2.24783 35.8429 2.21752V2.06093C35.872 2.03062 35.8995 2.002 35.9269 1.97V1.73428C35.9611 1.69218 36.0211 1.66693 36.0074 1.60294C35.9868 1.5137 36.0554 1.46151 36.0862 1.39247C36.1119 1.33691 36.0657 1.26114 36.1308 1.20894C36.1496 1.19379 36.1685 1.16853 36.1702 1.14496C36.1753 1.07761 36.1616 1.00858 36.1753 0.944592C36.1856 0.89913 36.2353 0.862088 36.2524 0.814942C36.2661 0.779583 36.2541 0.735805 36.2541 0.692027C36.2798 0.665087 36.3072 0.634779 36.3364 0.604472V0.365377C36.3655 0.335069 36.3929 0.306445 36.4203 0.276137V0.119547C36.4615 0.079137 36.4991 0.0420941 36.542 0C45.3043 0 54.0718 0 62.8376 0.00168376C62.8479 0.00168376 62.8582 0.0168376 62.8702 0.0269402C62.8599 0.0437779 62.8496 0.079137 62.841 0.0774532C62.7434 0.0707181 62.6526 0.0757694 62.5874 0.159958C62.4161 0.139752 62.303 0.269402 62.1591 0.31318C62.0837 0.336753 62.0392 0.436095 61.9501 0.400736C61.8387 0.356958 61.8027 0.520283 61.6965 0.483241C61.6519 0.55901 61.5611 0.553959 61.496 0.594369C61.4206 0.639831 61.3435 0.686976 61.263 0.724019C61.1944 0.757694 61.1105 0.766113 61.0539 0.809891C60.9614 0.880609 60.8312 0.892395 60.761 0.995105C60.7267 1.04562 60.6633 1.03383 60.6239 1.0574C60.5673 1.09276 60.5159 1.1197 60.4525 1.14328C60.3943 1.16517 60.3617 1.24767 60.3035 1.27629C60.2452 1.30323 60.1733 1.30492 60.1373 1.36722C60.0705 1.47666 59.9043 1.4413 59.8511 1.5659C59.7398 1.60968 59.6438 1.67535 59.565 1.76627C59.4553 1.7629 59.3919 1.83867 59.3405 1.91107C59.2446 2.04577 59.0733 2.07945 58.9636 2.19395C58.8505 2.31181 58.7511 2.45661 58.6123 2.5307C58.3416 2.6755 58.1789 2.92302 57.9527 3.10318V3.18905C57.7882 3.35069 57.622 3.51065 57.4592 3.67061C57.4524 3.71102 57.4695 3.74974 57.4301 3.7851C57.353 3.85751 57.2502 3.92991 57.2194 4.02083C57.1851 4.12354 57.0669 4.15722 57.0583 4.23635C57.0446 4.36432 56.8955 4.39968 56.8904 4.4906C56.8835 4.63204 56.6968 4.64719 56.7173 4.78694C56.5066 5.12875 56.3661 5.5076 56.1519 5.8494C56.1125 5.9117 56.1725 6.00262 56.0936 6.06997C56.0371 6.11712 56.0457 6.20972 55.9823 6.26866C55.9549 6.29391 55.9771 6.37137 55.9771 6.41851C55.9463 6.45219 55.9206 6.48081 55.8846 6.51954C55.9669 6.6795 55.7955 6.80409 55.8126 6.96237C55.703 7.05161 55.7355 7.17621 55.7304 7.29239C55.7287 7.33111 55.7235 7.36816 55.7218 7.39846C55.6944 7.4254 55.6756 7.44392 55.6516 7.4675V7.94569C55.6225 7.97599 55.595 8.0063 55.5676 8.03661V10.702C55.5848 10.7172 55.6053 10.734 55.607 10.7374C55.631 10.766 55.6464 10.7744 55.6464 10.7845C55.6482 10.9714 55.6482 11.16 55.6482 11.3452C55.6704 11.3671 55.6893 11.3873 55.7201 11.4159C55.7493 11.5473 55.715 11.6954 55.739 11.8386C55.7578 11.8571 55.7784 11.8773 55.8041 11.9025C55.8058 11.9328 55.8109 11.9716 55.8126 12.0103C55.8195 12.1517 55.7904 12.2932 55.8897 12.4245C55.9223 12.4683 55.8949 12.5558 55.8949 12.6282C55.9172 12.6535 55.9429 12.6838 55.9737 12.7192V12.9515C56.0028 12.9818 56.0302 13.0105 56.0577 13.0424V13.2815C56.0868 13.3118 56.1142 13.3405 56.1399 13.3691C56.145 13.4482 56.1193 13.5274 56.1999 13.5897C56.265 13.6419 56.181 13.7463 56.2598 13.8069C56.3387 13.8675 56.3061 13.9567 56.301 14.0308C56.2958 14.1116 56.3901 14.1335 56.3849 14.1992C56.3781 14.2867 56.5066 14.3171 56.4689 14.408C56.4226 14.5174 56.5974 14.5511 56.5528 14.6572C56.5134 14.7498 56.6385 14.7818 56.6368 14.866C56.6368 14.9417 56.7259 14.9821 56.7242 15.0747C56.7225 15.1556 56.7619 15.2549 56.8184 15.3122C56.8869 15.3829 56.8493 15.4755 56.887 15.5277C56.9486 15.6102 56.9452 15.7314 57.0446 15.7887C57.0035 15.8947 57.1697 15.9301 57.132 16.0362C57.3513 16.3746 57.4918 16.7535 57.7008 17.0953C57.6871 17.1778 57.7505 17.2182 57.8019 17.2552C57.8653 17.299 57.8499 17.3731 57.8876 17.4236C57.9715 17.5347 57.9921 17.688 58.0932 17.7822C58.1926 17.8748 58.2028 18.0163 58.3194 18.1005C58.3879 18.1493 58.381 18.2672 58.4684 18.3194C58.5507 18.3699 58.5147 18.4995 58.6141 18.5416C58.7134 18.5837 58.662 18.7201 58.758 18.7672C58.7717 18.774 58.7666 18.8161 58.77 18.8413C58.686 18.9609 58.5729 19.0417 58.4393 19.1057C58.3725 19.1377 58.2851 19.1377 58.2371 19.2151C58.2028 19.2707 58.1497 19.3178 58.0692 19.3027C57.9801 19.3835 57.891 19.4626 57.8002 19.5435C57.6614 19.5283 57.6477 19.7371 57.4986 19.7051C57.4215 19.7809 57.3547 19.8836 57.2622 19.9223C57.1714 19.9593 57.0943 20.0031 57.0412 20.0738C56.9572 20.1833 56.8133 20.1984 56.7207 20.2978C56.6351 20.3921 56.5614 20.515 56.4089 20.5301C56.3986 20.5318 56.3901 20.5487 56.3798 20.5571C56.2341 20.7002 56.0885 20.8433 55.9446 20.9848C55.7253 21.0285 55.6293 21.2239 55.4871 21.3586C55.1016 21.7206 54.7298 22.0977 54.3511 22.4682C54.226 22.5911 54.0958 22.7123 53.9742 22.8403C53.8457 22.975 53.6812 23.081 53.5938 23.2511C53.5115 23.4111 53.3608 23.5054 53.2443 23.6333C53.1654 23.7209 53.1466 23.8404 53.0455 23.9196C52.9667 23.9819 52.8896 24.0509 52.8433 24.157C52.7971 24.2597 52.6874 24.3355 52.6069 24.4247C52.624 24.5543 52.4629 24.5847 52.4458 24.6806C52.4252 24.8035 52.3259 24.8524 52.2556 24.9248C52.1802 25.0005 52.1939 25.1251 52.086 25.1807C52.0003 25.2245 52.038 25.3575 51.9404 25.403C51.8564 25.44 51.8667 25.5343 51.829 25.6C51.7776 25.6909 51.7159 25.77 51.6559 25.8542C51.6011 25.9317 51.5565 26.0243 51.5274 26.1236C51.5051 26.2044 51.3852 26.2314 51.3664 26.3408C51.3561 26.4065 51.3098 26.4873 51.2653 26.5378C51.2036 26.6085 51.2224 26.7213 51.1265 26.7668C51.1128 26.9099 51.0117 27.016 50.9586 27.1423C50.9106 27.2568 50.8506 27.3679 50.7941 27.4774C50.7307 27.6003 50.6844 27.7383 50.597 27.8394C50.5199 27.9286 50.6159 28.065 50.4874 28.1206C50.4942 28.2283 50.3606 28.2856 50.3846 28.4034C50.3914 28.4337 50.3589 28.4725 50.3417 28.5045C50.3143 28.56 50.2955 28.6257 50.2526 28.6678C50.1841 28.7351 50.2715 28.8328 50.1961 28.8867C50.1276 28.9355 50.1601 29.0096 50.1378 29.0651C50.1002 29.1594 50.035 29.2436 50.0522 29.3531C49.9288 29.4103 50.023 29.5568 49.9357 29.6275C49.8843 29.6679 49.8945 29.7218 49.8963 29.7723C49.898 29.8532 49.8928 29.9222 49.8243 29.9879C49.7866 30.0249 49.8037 30.1108 49.7883 30.1731C49.7832 30.195 49.7523 30.2118 49.7318 30.232V30.4761C49.7129 30.493 49.6924 30.5098 49.6667 30.5334C49.617 30.6445 49.6735 30.7674 49.6375 30.8904C49.6255 30.9021 49.6067 30.9207 49.5724 30.9543V31.2776C49.5382 31.3113 49.5193 31.3298 49.485 31.3635V31.8484C49.4508 31.8821 49.4319 31.9006 49.3977 31.9343V32.5792C49.3634 32.6128 49.3445 32.6314 49.3223 32.6533V35.0762C49.3445 35.1014 49.372 35.1301 49.4011 35.1604V35.8861C49.4199 35.9029 49.4405 35.9214 49.4508 35.9315C49.4679 35.9517 49.4833 35.9619 49.4833 35.972C49.485 36.1067 49.485 36.2397 49.485 36.3693C49.509 36.3929 49.5279 36.4114 49.5621 36.4451V36.8492C49.5964 36.8829 49.6153 36.9014 49.6495 36.9351V37.2584C49.6838 37.292 49.7026 37.3105 49.7369 37.3442V37.6675C49.7712 37.7012 49.79 37.7197 49.8123 37.7416V37.979C49.8414 38.0093 49.8688 38.0379 49.8963 38.0682V38.309C49.9151 38.3275 49.9357 38.3461 49.9734 38.3831C49.9768 38.4269 49.9802 38.4909 49.9836 38.5548C50.0025 38.5734 50.023 38.5936 50.0419 38.6121C50.1053 38.703 50.0042 38.8276 50.1002 38.9101C50.1875 38.9842 50.0916 39.129 50.215 39.1863C50.179 39.3243 50.3263 39.4186 50.3075 39.5533C50.2955 39.6375 50.424 39.6678 50.3897 39.7621C50.3623 39.8412 50.4668 39.8817 50.4634 39.9305C50.4565 40.0332 50.5765 40.0702 50.5611 40.1814C50.5508 40.2571 50.597 40.3632 50.6553 40.4171C50.7273 40.4861 50.7084 40.5872 50.7907 40.6528C50.8386 40.6899 50.7735 40.7993 50.8506 40.8683C50.9037 40.9155 50.8952 41.0131 50.9637 41.062C50.9431 41.163 51.0802 41.2051 51.0579 41.3061C51.1402 41.3465 51.1128 41.4476 51.1727 41.5014C51.231 41.5536 51.207 41.6563 51.2893 41.6951C51.2584 41.7877 51.3698 41.8214 51.3766 41.9022C51.3869 42.0234 51.5668 42.0537 51.5514 42.1935C51.6474 42.2675 51.6354 42.4157 51.7536 42.4763C51.7707 42.4848 51.7741 42.5201 51.7861 42.542C51.8136 42.5976 51.853 42.6514 51.865 42.7104C51.8804 42.7861 51.9523 42.808 51.9866 42.8636C52.0192 42.9175 52.0312 42.9916 52.0774 43.0252C52.1991 43.1162 52.2025 43.2879 52.3361 43.3671C52.3636 43.5068 52.4801 43.5809 52.5675 43.6769C52.6274 43.7425 52.6326 43.8402 52.7114 43.9025C52.7799 43.958 52.8759 44.0086 52.8587 44.1231C52.9273 44.1887 52.9941 44.2561 53.0626 44.3234C53.1312 44.3891 53.198 44.4564 53.2665 44.5238C53.2665 44.5507 53.2545 44.5861 53.2682 44.6029C53.3111 44.6551 53.3625 44.6989 53.4122 44.7477C53.8388 45.167 54.2603 45.5896 54.6938 46.0005C54.8257 46.1251 54.9131 46.312 55.1221 46.3456C55.2472 46.4685 55.3569 46.6235 55.5059 46.7076C55.6362 46.7817 55.7373 46.8777 55.8452 46.9737C56.0114 46.9905 56.0731 47.1454 56.1896 47.2279C56.325 47.2043 56.3489 47.3811 56.45 47.3828C56.5922 47.3862 56.6077 47.5529 56.7516 47.5579C56.8441 47.5613 56.8784 47.7297 57.0103 47.7145C57.0874 47.7836 57.1457 47.8812 57.2673 47.8863C57.377 48.0227 57.5483 48.0631 57.6888 48.1489C57.7642 48.1944 57.867 48.1944 57.9218 48.2836C57.9784 48.3729 58.0966 48.383 58.184 48.4352C58.2594 48.4806 58.3485 48.5008 58.4256 48.5429C58.5695 48.6238 58.7203 48.6877 58.8676 48.7601C59.0047 48.8258 59.1435 48.8915 59.2703 48.9723C59.3611 49.0312 59.5033 48.9487 59.5581 49.0817C59.6712 49.1104 59.7655 49.1744 59.8683 49.2215C59.9557 49.2619 60.067 49.2552 60.1561 49.3192C60.199 49.3444 60.2846 49.2821 60.324 49.3629Z" fill="#001E31"/>
<path d="M65.3424 11.2593C65.3047 11.2223 65.2859 11.2038 65.2636 11.1819V10.9445C65.2345 10.9142 65.2071 10.8855 65.1797 10.8535V10.3703C65.1608 10.3535 65.1402 10.3349 65.1231 10.3181C65.1128 10.2912 65.0974 10.2676 65.0974 10.244C65.0957 9.85507 65.0957 9.46444 65.0957 9.07886C65.1197 9.05529 65.1385 9.03677 65.1728 9.00309V8.67981C65.2071 8.64613 65.2413 8.62929 65.2431 8.60909C65.2636 8.4003 65.3904 8.23866 65.4778 8.0585C65.5155 7.97936 65.5532 7.90022 65.5892 7.82109C65.5943 7.8093 65.5926 7.79583 65.5943 7.78236C65.7982 7.58199 66.0004 7.38331 66.206 7.18126C66.2317 7.18126 66.2745 7.19136 66.2831 7.17957C66.367 7.05161 66.5315 7.03309 66.6309 6.92701C66.7217 6.83103 66.8605 6.81756 66.9667 6.7519C67.0867 6.67781 67.2135 6.61214 67.3385 6.56163C67.4808 6.50607 67.6264 6.47071 67.76 6.3882C67.82 6.35116 67.9177 6.37305 68.0102 6.368C68.0308 6.34948 68.0616 6.32422 68.0959 6.29391H68.2518C68.2826 6.26529 68.3118 6.23835 68.3426 6.21141H68.6699C68.6887 6.19289 68.7076 6.17268 68.747 6.13396C68.9286 6.12217 69.1308 6.13732 69.3312 6.12554C69.3501 6.10702 69.3706 6.08681 69.3998 6.05819H71.228C71.2468 6.07671 71.2657 6.09523 71.2999 6.1289H71.8756C71.9099 6.16258 71.9288 6.1811 71.963 6.21478H72.4565C72.4908 6.24845 72.5096 6.26697 72.5319 6.28886H72.8557C72.8865 6.31749 72.9157 6.34443 72.9465 6.37137L73.2738 6.37137C73.2926 6.38989 73.3115 6.41009 73.3457 6.44208H73.5925C73.6267 6.47576 73.6456 6.49428 73.685 6.53301C73.745 6.53301 73.8255 6.53132 73.9043 6.53301C73.9711 6.53637 73.9951 6.61551 74.0757 6.6172C74.2179 6.61888 74.3395 6.74348 74.4937 6.69297C74.5623 6.76537 74.6479 6.78894 74.7473 6.77379C74.8073 6.91354 74.9872 6.79567 75.0591 6.91185C75.1739 6.93038 75.2802 6.99773 75.3864 7.00615C75.5081 7.01793 75.5886 7.14927 75.7205 7.09707C75.7942 7.15768 75.8867 7.16105 75.9707 7.18799C76.0546 7.21662 76.13 7.26376 76.2277 7.26208C76.274 7.26039 76.2894 7.34458 76.3579 7.33953C76.4384 7.33448 76.4727 7.44729 76.5704 7.42035C76.6715 7.39173 76.716 7.53316 76.8188 7.50959C76.8702 7.59546 76.9576 7.57021 77.0347 7.58368C77.081 7.59041 77.1221 7.63419 77.1649 7.66113C77.2626 7.72006 77.3842 7.7369 77.4665 7.82277C77.583 7.78236 77.6687 7.8615 77.7612 7.90528C78.0011 8.01977 78.2375 8.141 78.474 8.25887C78.5391 8.29086 78.599 8.29086 78.659 8.31106C78.7944 8.35821 78.9229 8.42219 79.0154 8.54174H79.2022C79.2176 8.52322 79.2279 8.51311 79.2313 8.50133C79.2347 8.48954 79.233 8.47439 79.233 8.46092V0.0404104C79.2467 0.0269402 79.2553 0.0151539 79.2673 0.00841882C79.2775 0.00168376 79.2913 0 79.305 0C87.6287 0 95.9541 0 104.261 0C104.298 0.0370428 104.317 0.0555642 104.34 0.0774532L104.91 0.0774532C104.941 0.106077 104.97 0.133017 105.001 0.159958L105.412 0.159958C105.429 0.178479 105.448 0.198684 105.481 0.230676H105.813C105.847 0.264351 105.866 0.282872 105.9 0.316548H106.229C106.264 0.350223 106.283 0.368744 106.307 0.392317C106.421 0.400736 106.54 0.407471 106.659 0.41589C106.738 0.528702 106.858 0.46977 106.968 0.48324C106.994 0.505129 107.023 0.530386 107.059 0.560694H107.297C107.328 0.589318 107.357 0.616258 107.388 0.643198H107.549C107.58 0.671822 107.609 0.698762 107.64 0.725703H107.876C107.914 0.754327 107.946 0.803156 107.975 0.799788C108.076 0.789686 108.147 0.84525 108.232 0.878925C108.301 0.905865 108.378 0.892395 108.452 0.949643C108.513 1.00016 108.64 0.939541 108.698 1.04225C108.842 0.991737 108.931 1.13991 109.074 1.13654C109.164 1.13486 109.255 1.20894 109.365 1.22241C109.457 1.23252 109.538 1.35038 109.631 1.36048C109.728 1.37227 109.802 1.41099 109.882 1.44972C109.973 1.4935 110.073 1.52549 110.153 1.58611C110.23 1.64504 110.335 1.57264 110.412 1.66524C110.462 1.72418 110.569 1.73596 110.65 1.77469C110.731 1.81341 110.806 1.85719 110.885 1.8976C110.964 1.93801 111.044 1.97674 111.123 2.01547C111.373 2.13838 111.623 2.25624 111.87 2.38589C111.937 2.42125 112.029 2.4162 112.07 2.49702C112.11 2.57784 112.207 2.56437 112.267 2.61152C112.379 2.69739 112.542 2.69907 112.634 2.81189C112.72 2.91628 112.871 2.92302 112.955 3.03583C112.996 3.08971 113.107 3.07624 113.148 3.15369C113.191 3.23283 113.289 3.21262 113.349 3.2665C113.405 3.3187 113.453 3.36921 113.54 3.39615C113.674 3.43825 113.722 3.62346 113.89 3.63862C113.996 3.74301 114.102 3.8474 114.209 3.9518C114.236 3.9518 114.264 3.9518 114.291 3.9518C114.406 4.06629 114.519 4.18584 114.641 4.29192C114.738 4.37779 114.87 4.41146 114.956 4.51922C115.04 4.6253 115.146 4.71117 115.244 4.80715C115.341 4.90312 115.437 4.99741 115.535 5.09339C115.633 5.18768 115.732 5.28029 115.824 5.37963C115.95 5.51265 116.087 5.63051 116.183 5.7972C116.267 5.94369 116.426 6.04808 116.551 6.171V6.2535C116.619 6.32085 116.681 6.39494 116.757 6.4505C116.847 6.51785 116.863 6.63067 116.933 6.70138C117.002 6.77042 117.027 6.85461 117.077 6.92701C117.127 7.00109 117.224 7.04487 117.219 7.15263C117.313 7.2284 117.349 7.353 117.43 7.4254C117.524 7.51127 117.514 7.65439 117.627 7.71164C117.723 7.76047 117.675 7.89181 117.771 7.93558C117.819 8.08207 117.886 8.21509 118 8.3279C118.05 8.37841 118.083 8.45923 118.105 8.5249C118.182 8.74884 118.365 8.93069 118.381 9.17989C118.477 9.32806 118.554 9.48465 118.614 9.64966C118.751 9.71027 118.622 9.89212 118.76 9.95442C118.77 10.0689 118.902 10.1497 118.852 10.2794C118.987 10.3434 118.878 10.5134 118.993 10.5858C119.015 10.697 119.08 10.803 119.088 10.9057C119.099 11.027 119.238 11.1044 119.181 11.2341C119.291 11.325 119.26 11.4479 119.263 11.5691C119.287 11.5944 119.313 11.6247 119.342 11.6584V11.8924C119.371 11.9227 119.399 11.9514 119.426 11.9817V12.2208C119.455 12.2511 119.483 12.2797 119.51 12.31V12.544C119.541 12.5777 119.567 12.608 119.594 12.64V13.0357C119.618 13.0593 119.639 13.0778 119.671 13.1115V13.4348C119.705 13.4684 119.724 13.487 119.758 13.5206V14.0056C119.793 14.0392 119.812 14.0578 119.834 14.0796V14.7212C119.863 14.7515 119.89 14.7801 119.918 14.8104C119.918 15.2128 119.918 15.6169 119.918 16.0193C119.937 16.0379 119.957 16.0581 119.976 16.0766C119.985 16.1002 119.998 16.1237 119.998 16.1473C120 16.671 120 17.1946 120 17.7132C119.976 17.7368 119.955 17.757 119.923 17.789V18.9188C119.889 18.9525 119.87 18.971 119.836 19.0047V19.5704C119.801 19.6041 119.782 19.6226 119.748 19.6563V20.1412C119.714 20.1749 119.695 20.1934 119.673 20.2136V20.5318C119.644 20.5621 119.616 20.5908 119.589 20.6211V20.9427C119.57 20.9629 119.549 20.9814 119.513 21.0168C119.51 21.0892 119.505 21.1801 119.501 21.271C119.483 21.2895 119.462 21.3097 119.424 21.3468C119.424 21.4074 119.441 21.4899 119.419 21.5623C119.393 21.6448 119.315 21.7138 119.342 21.8132C119.368 21.9041 119.27 21.9496 119.262 22.022C119.253 22.1011 119.265 22.1836 119.179 22.2324V22.4715C119.15 22.5018 119.123 22.5305 119.095 22.5608V22.719C119.066 22.7493 119.039 22.7797 119.017 22.8032C119.013 22.8622 119.032 22.9396 119.005 22.9632C118.936 23.0187 118.955 23.113 118.891 23.1619C118.811 23.2225 118.878 23.3134 118.835 23.3824C118.766 23.4885 118.701 23.5912 118.677 23.7242C118.658 23.8286 118.578 23.9246 118.527 24.0256C118.47 24.1368 118.419 24.2496 118.359 24.3607C118.287 24.492 118.239 24.6352 118.163 24.7648C118.093 24.8844 118.059 25.0224 117.963 25.1268C117.982 25.2784 117.769 25.3087 117.781 25.4568C117.684 25.5292 117.682 25.6589 117.591 25.7464C117.512 25.8222 117.437 25.9266 117.391 26.0243C117.343 26.1253 117.274 26.1943 117.205 26.2718C117.24 26.4183 117.032 26.4351 117.038 26.5681C117.039 26.59 117.017 26.6153 117.002 26.6321C116.914 26.7281 116.823 26.814 116.762 26.9369C116.703 27.0514 116.578 27.1339 116.479 27.2248C116.371 27.3225 116.344 27.474 116.22 27.5666C116.102 27.6558 116.004 27.772 115.898 27.8764C115.792 27.9808 115.686 28.0852 115.578 28.1896C115.472 28.294 115.365 28.3984 115.259 28.5028C115.153 28.6072 115.047 28.7116 114.94 28.816C114.863 28.8917 114.798 29.0045 114.704 29.0348C114.591 29.0719 114.529 29.1493 114.45 29.215C114.37 29.2807 114.317 29.3766 114.195 29.3918C114.152 29.3968 114.116 29.4625 114.079 29.5012C114.031 29.5484 113.971 29.5888 113.936 29.646C113.893 29.7151 113.801 29.6713 113.765 29.7302C113.693 29.8531 113.527 29.8447 113.448 29.9575C113.378 30.0586 113.26 30.0939 113.164 30.1596C113.1 30.2034 113.059 30.2825 112.963 30.2724C112.92 30.3701 112.78 30.3196 112.735 30.4155C112.691 30.5115 112.562 30.4812 112.509 30.5586C112.452 30.6412 112.36 30.658 112.281 30.7001C112.202 30.7422 112.13 30.7977 112.046 30.8264C111.949 30.86 111.853 30.9038 111.777 30.9611C111.704 31.0183 111.627 31.057 111.546 31.0991C111.322 31.2153 111.085 31.313 110.871 31.4443C110.787 31.4965 110.695 31.4426 110.611 31.5184C110.544 31.579 110.444 31.6379 110.336 31.6396C110.294 31.739 110.155 31.6885 110.109 31.7827C109.971 31.7726 109.869 31.8636 109.745 31.8972C109.677 32.0168 109.493 31.8972 109.435 32.0404C109.302 31.9797 109.223 32.1296 109.099 32.1245C108.983 32.1195 108.895 32.2407 108.769 32.2121C108.707 32.3451 108.52 32.2205 108.459 32.3552C108.349 32.3451 108.258 32.3923 108.166 32.4428C108.135 32.4596 108.085 32.4461 108.042 32.4461C108.013 32.4714 107.984 32.5 107.953 32.527H107.708C107.689 32.5455 107.669 32.5657 107.633 32.6011C107.557 32.6044 107.465 32.6095 107.379 32.6128C107.343 32.6398 107.309 32.6886 107.281 32.6852C107.09 32.6516 106.93 32.8031 106.738 32.7728C106.711 32.7694 106.675 32.8149 106.634 32.8452H106.322C106.289 32.8738 106.26 32.8991 106.228 32.9277H105.741C105.71 32.9563 105.679 32.9833 105.65 33.0102H105.078C105.057 33.0304 105.039 33.0489 105.02 33.0675C105.009 33.0742 104.999 33.0893 104.989 33.0893C101.401 33.091 97.8132 33.091 94.2304 33.091C94.2167 33.1062 94.203 33.1129 94.1979 33.1247C94.1927 33.1348 94.191 33.15 94.191 33.1617C94.191 38.5548 94.191 43.9479 94.1893 49.3427C94.1893 49.3528 94.1773 49.3646 94.1705 49.3747C93.7592 49.4033 91.0641 49.4118 90.0309 49.3882C89.976 49.299 89.8441 49.2686 89.8338 49.1457C89.8236 49.0312 89.6642 49.0211 89.6625 48.8898C89.6625 48.8393 89.5768 48.7938 89.5391 48.7399C89.5117 48.6995 89.5066 48.644 89.4774 48.6052C89.426 48.5328 89.3524 48.4857 89.3232 48.383C89.2993 48.2954 89.1827 48.2432 89.1519 48.1304C89.1313 48.0513 88.996 48.0227 89.0097 47.9065C88.8949 47.8307 88.8743 47.6825 88.7784 47.6C88.6739 47.5108 88.6653 47.3677 88.5522 47.2818C88.4871 47.233 88.4905 47.1151 88.4031 47.0629C88.3278 47.0191 88.3706 46.908 88.2866 46.8676C88.1924 46.8221 88.2044 46.711 88.1427 46.6437C88.0913 46.5881 88.033 46.546 88.0142 46.4517C87.9971 46.3625 87.8651 46.3204 87.8446 46.1991C87.8309 46.1183 87.7024 46.0931 87.6904 45.9802C87.6801 45.8809 87.5087 45.8573 87.531 45.7243C87.4642 45.657 87.3991 45.5879 87.3271 45.5256C87.2672 45.4718 87.2929 45.3724 87.2123 45.3286C87.1352 45.2882 87.1318 45.2007 87.0941 45.135C87.0564 45.0676 86.9587 45.0441 86.9536 44.9498C86.9502 44.8723 86.8679 44.8521 86.8337 44.7966C86.8011 44.7427 86.7891 44.6686 86.7429 44.6349C86.6229 44.5423 86.6161 44.3723 86.4841 44.2948C86.4584 44.1348 86.2871 44.0591 86.2511 43.9059C86.1243 43.8233 86.1226 43.6465 85.989 43.5674C85.9684 43.4748 85.917 43.4058 85.845 43.3418C85.7782 43.2812 85.7902 43.1667 85.6977 43.1212C85.6154 43.0791 85.6617 42.968 85.5812 42.9259C85.4921 42.8788 85.4904 42.7727 85.4338 42.7036C85.3756 42.6346 85.2933 42.5824 85.2899 42.478C85.1871 42.409 85.1511 42.2945 85.086 42.1985C85.0209 42.1025 84.9609 42.0015 84.8804 41.9207C84.7964 41.8348 84.8016 41.69 84.6799 41.6395C84.5634 41.5907 84.5925 41.4526 84.5069 41.3853C84.4435 41.3364 84.4126 41.2708 84.3852 41.1933C84.3612 41.1243 84.2618 41.094 84.2516 41.0586C84.2276 40.9626 84.2636 40.9374 84.291 40.9104C84.4075 40.7959 84.524 40.6814 84.6388 40.5669C84.6645 40.3901 84.829 40.3211 84.9318 40.2033C84.9918 40.1342 84.9866 40.0332 85.074 39.9759C85.1614 39.917 85.2094 39.8244 85.2556 39.7301C85.295 39.6493 85.3858 39.5937 85.4527 39.5281C85.4578 39.3732 85.6497 39.321 85.6566 39.1677C85.7816 39.0802 85.8228 38.9421 85.8793 38.8141C85.9273 38.7081 86.0643 38.6609 86.0626 38.5262C86.15 38.4471 86.15 38.3056 86.2665 38.245C86.3351 38.0985 86.3882 37.942 86.4721 37.8056C86.6366 37.5378 86.7446 37.2415 86.9108 36.9755C86.9605 36.898 86.9091 36.8054 86.9673 36.7583C87.0341 36.701 87.017 36.6135 87.0787 36.5579C87.1352 36.5074 87.1129 36.4047 87.1969 36.3643C87.1918 36.2717 87.1866 36.1774 87.2809 36.1151C87.2586 36.0056 87.4265 35.9467 87.3631 35.8255C87.4042 35.7463 87.4419 35.6739 87.4539 35.5779C87.4642 35.4988 87.5122 35.4163 87.5379 35.3304C87.5619 35.2479 87.627 35.1755 87.6098 35.0796C87.6989 35.0156 87.7024 34.9246 87.6921 34.8304C87.7932 34.7731 87.7726 34.6738 87.7795 34.5828C87.9063 34.5273 87.8137 34.3808 87.896 34.3084C87.9816 34.2309 87.896 34.1097 87.9457 34.0474C88.0331 33.9396 88.0176 33.8285 88.0228 33.7073C88.0467 33.6803 88.0725 33.6517 88.1033 33.618V33.384C88.1324 33.3537 88.1598 33.3251 88.1873 33.2948V33.0557C88.2164 33.0254 88.2438 32.9967 88.2712 32.9664V32.729C88.2935 32.7071 88.3123 32.6886 88.3466 32.6549V32.3316C88.3809 32.298 88.3997 32.2795 88.434 32.2458V31.9225C88.4683 31.8888 88.4871 31.8703 88.5111 31.8467V31.451C88.5385 31.419 88.5659 31.3904 88.595 31.3568V30.9594C88.6242 30.9291 88.6516 30.9004 88.679 30.8701V30.3886C88.6978 30.3684 88.7184 30.3499 88.7578 30.3111C88.7715 30.1343 88.7527 29.934 88.7664 29.737C88.7852 29.7184 88.8058 29.6982 88.8383 29.6663V28.8597C88.8726 28.8261 88.8915 28.8075 88.9257 28.7739V27.5632C88.96 27.5296 88.9788 27.511 88.9977 27.4925V24.8894C88.9686 24.8608 88.9497 24.8423 88.9154 24.8086V24.4634H80.9927C80.8916 24.5628 81.0064 24.6032 81.0441 24.6672V25.0628C81.0663 25.0847 81.0852 25.1032 81.1195 25.1369V25.6218C81.1537 25.6555 81.1726 25.674 81.2068 25.7077V26.4334C81.2411 26.4671 81.26 26.4856 81.2788 26.5041C81.2788 27.4285 81.2788 28.3529 81.2788 29.2672C81.2497 29.2958 81.2308 29.3143 81.2086 29.3362V29.9777C81.1794 30.0081 81.152 30.0367 81.1246 30.067V30.5502C81.1058 30.5688 81.0852 30.5873 81.0526 30.6209V30.9442C81.0184 30.9779 80.9995 30.9964 80.9704 31.025C80.9653 31.1059 80.9584 31.1951 80.9515 31.286C80.835 31.3618 80.9104 31.4864 80.8727 31.5773C80.8402 31.6598 80.7733 31.7305 80.7956 31.8282C80.8213 31.9393 80.6843 31.9999 80.7082 32.1178C80.7254 32.2037 80.6209 32.2609 80.6209 32.3653C80.6209 32.4562 80.5181 32.5404 80.5438 32.6532C80.4392 32.7105 80.5043 32.8418 80.4512 32.894C80.3776 32.9631 80.4118 33.0809 80.3124 33.123C80.3244 33.2308 80.2747 33.32 80.2233 33.4093C80.1788 33.485 80.148 33.5659 80.1103 33.645C80.0657 33.7342 80.0195 33.8235 79.9766 33.9144C79.9406 33.9935 79.8481 34.0424 79.8875 34.1619C79.7025 34.1164 79.61 34.0205 79.5688 33.8942C79.5311 33.7797 79.3718 33.7443 79.3889 33.6046C79.3032 33.5389 79.3015 33.4227 79.2176 33.3503C79.1302 33.2746 79.1199 33.1382 79.012 33.0725C78.9948 32.9597 78.88 32.9058 78.8458 32.8166C78.8098 32.724 78.7361 32.6718 78.6967 32.5943C78.6487 32.5 78.5785 32.4259 78.5254 32.3401C78.4774 32.2643 78.4277 32.1919 78.378 32.1178C78.3215 32.0319 78.2735 31.9444 78.2015 31.8652C78.145 31.8029 78.1124 31.7137 78.0884 31.6312C78.0679 31.5588 77.9993 31.5335 77.9651 31.4797C77.9325 31.4258 77.9205 31.3517 77.8743 31.3163C77.7543 31.2254 77.7475 31.0537 77.6155 30.9762C77.5847 30.8196 77.4236 30.7388 77.3825 30.5873C77.2557 30.5048 77.2523 30.328 77.1204 30.2505C77.0947 30.0906 76.9336 30.0114 76.8822 29.8633C76.8599 29.7959 76.8514 29.7117 76.7726 29.6646C76.716 29.6309 76.6663 29.5787 76.6835 29.4996C76.5635 29.4272 76.5515 29.2739 76.4487 29.1931C76.3408 29.1072 76.3459 28.949 76.2174 28.8816C76.1917 28.7755 76.0889 28.7132 76.0529 28.6257C76.0084 28.523 75.9021 28.4624 75.8799 28.3748C75.849 28.2569 75.7411 28.2132 75.7034 28.1222C75.6606 28.0162 75.6211 27.9135 75.5509 27.8208C75.4806 27.7282 75.4155 27.6339 75.347 27.5413C75.2785 27.4487 75.251 27.3275 75.1448 27.2602C75.1363 27.1069 74.9478 27.053 74.9409 26.8981C74.809 26.819 74.7884 26.6607 74.6839 26.5563C74.6171 26.489 74.5982 26.3779 74.5468 26.292C74.5006 26.2145 74.4115 26.1539 74.3909 26.0731C74.3635 25.9603 74.223 25.9367 74.2196 25.8188C74.2179 25.7414 74.1339 25.7212 74.0996 25.6656C74.0671 25.6117 74.0551 25.5343 74.0088 25.504C73.8975 25.4333 73.9077 25.2868 73.8067 25.2211C73.709 25.1571 73.733 25.0275 73.6353 24.9652C73.5342 24.8995 73.5496 24.7463 73.4314 24.6857C73.4126 24.6773 73.4091 24.6419 73.3971 24.62C73.3697 24.5644 73.3286 24.5106 73.3183 24.4516C73.3046 24.3742 73.2309 24.354 73.1984 24.2984C73.1658 24.2445 73.1538 24.1671 73.1076 24.1368C72.9962 24.0661 73.0065 23.9196 72.9054 23.8539C72.8077 23.7916 72.8334 23.6603 72.7341 23.598C72.633 23.534 72.6484 23.3774 72.5284 23.3201C72.4976 23.2174 72.4068 23.1501 72.3605 23.0642C72.2766 22.9076 72.2012 22.7493 72.0813 22.613C72.0864 22.517 71.9973 22.4833 71.9459 22.4277C71.8996 22.3772 71.9322 22.2998 71.8619 22.2577C71.7968 22.2173 71.7591 22.1516 71.7369 22.0674C71.7163 21.9866 71.5964 21.9597 71.5792 21.8485C71.5689 21.7829 71.4781 21.7307 71.4233 21.6717C71.4679 21.564 71.2948 21.5303 71.3359 21.4242C71.2845 21.3501 71.1834 21.3198 71.1714 21.207C71.1629 21.1127 71.0224 21.0925 71.0121 20.9915C71.0018 20.8854 70.863 20.8585 70.8545 20.776C70.8425 20.6632 70.7225 20.6345 70.7037 20.5537C70.6745 20.4392 70.5546 20.3887 70.5323 20.3012C70.5066 20.1968 70.4227 20.1547 70.3798 20.0789C70.3302 19.993 70.3182 19.8819 70.2565 19.8078C70.1828 19.7169 70.1297 19.6058 70.0509 19.5317C69.9669 19.4525 69.9703 19.3347 69.883 19.2741C69.7904 19.2101 69.7853 19.0956 69.7116 19.0181C69.6328 18.9356 69.5728 18.8346 69.506 18.7403C69.4477 18.6578 69.4203 18.5601 69.3672 18.4743C69.333 18.4204 69.2816 18.3749 69.2456 18.321C69.2113 18.2688 69.201 18.188 69.1548 18.1594C69.04 18.0904 69.0571 17.9422 68.9543 17.8748C68.8583 17.8142 68.8738 17.6879 68.7829 17.6189C68.6904 17.5482 68.6716 17.4253 68.6253 17.3226C68.5996 17.2653 68.5311 17.2283 68.4917 17.1744C68.4625 17.1357 68.4643 17.0633 68.43 17.0414C68.3083 16.9656 68.31 16.8124 68.2021 16.7265C68.1113 16.6541 68.1096 16.511 67.9965 16.4487C67.9382 16.2786 67.8423 16.1305 67.7258 15.9941C67.7343 15.8695 67.563 15.856 67.5613 15.7381C67.5596 15.6203 67.4174 15.6001 67.3882 15.4839C67.3625 15.3829 67.3128 15.265 67.2135 15.1926C67.1261 15.1286 67.1569 14.9872 67.0404 14.94C66.9839 14.9165 67.0044 14.8255 66.9787 14.8087C66.8879 14.7531 66.9325 14.6235 66.8365 14.5797C66.7406 14.5359 66.7526 14.4248 66.6943 14.3541C66.6378 14.2867 66.6326 14.184 66.547 14.1335C66.535 14.1268 66.5247 14.1167 66.5178 14.1049C66.4596 13.9938 66.439 13.8641 66.3431 13.7732C66.3619 13.6233 66.146 13.593 66.1666 13.4415C66.0741 13.3943 66.0963 13.2799 66.0261 13.2142C65.9593 13.1519 66.0398 13.0391 65.9421 12.9633C65.8822 12.9162 65.8924 12.7865 65.8342 12.7326C65.7399 12.6484 65.7913 12.5255 65.7297 12.4514C65.6714 12.3807 65.6834 12.2713 65.5926 12.2224C65.6543 12.0911 65.4949 12.0137 65.5103 11.8924C65.5223 11.7864 65.3716 11.7224 65.4298 11.6028C65.3167 11.5136 65.3476 11.3907 65.3424 11.2593ZM94.143 11.8722C94.1276 11.8891 94.1105 11.8992 94.1105 11.9093C94.1088 15.0697 94.1088 18.2301 94.1088 21.3889C94.1088 21.4023 94.1054 21.4175 94.1105 21.4293C94.1156 21.4411 94.1293 21.4478 94.1448 21.4629L99.4186 21.4629C99.446 21.436 99.4649 21.4175 99.4991 21.3838H99.8281C99.8624 21.3501 99.8812 21.3316 99.9155 21.2979H100.248C100.279 21.2659 100.298 21.2457 100.316 21.2272H100.481C100.512 21.1986 100.541 21.1717 100.57 21.1464C100.692 21.1952 100.77 21.0605 100.865 21.074C100.988 21.0925 101.041 20.973 101.161 20.9763C101.25 20.9797 101.343 20.8989 101.435 20.8568C101.538 20.808 101.643 20.7625 101.744 20.7137C101.835 20.6699 101.924 20.6177 102.018 20.584C102.121 20.5487 102.146 20.4241 102.277 20.4123C102.373 20.4039 102.405 20.2405 102.537 20.2557C102.643 20.1513 102.749 20.0469 102.856 19.9425C102.972 19.828 103.078 19.7017 103.207 19.6041C103.339 19.503 103.37 19.3313 103.497 19.237C103.568 19.1831 103.538 19.0838 103.611 19.04C103.699 18.9878 103.709 18.8902 103.759 18.8178C103.837 18.7016 103.865 18.5635 103.956 18.4524C104.009 18.3867 103.942 18.2705 104.043 18.2032C104.071 18.1847 104.043 18.1005 104.059 18.0516C104.069 18.0163 104.106 17.991 104.136 17.9574C104.149 17.8462 104.124 17.7267 104.144 17.6257C104.182 17.592 104.202 17.5735 104.221 17.5566V16.9926C104.25 16.9622 104.278 16.9319 104.3 16.9084V16.4234C104.278 16.4016 104.259 16.383 104.225 16.3494V15.7045C104.19 15.6708 104.172 15.6523 104.139 15.6203C104.139 15.5546 104.122 15.4704 104.142 15.398C104.175 15.2869 104.024 15.2448 104.059 15.1488C104.098 15.0377 103.933 15.0007 103.975 14.8996C104.021 14.7885 103.843 14.7582 103.891 14.6504C103.791 14.5915 103.812 14.4938 103.803 14.4046C103.755 14.3558 103.675 14.3154 103.664 14.2598C103.649 14.1773 103.574 14.1318 103.565 14.0578C103.553 13.9483 103.461 13.9045 103.392 13.8473C103.325 13.79 103.332 13.7042 103.279 13.6486C103.193 13.561 103.106 13.4769 103.018 13.391C102.921 13.295 102.815 13.2091 102.731 13.1031C102.652 13.0037 102.503 13.0155 102.443 12.9044C102.391 12.8118 102.258 12.8606 102.213 12.7629C102.17 12.6653 102.057 12.672 101.982 12.6266C101.865 12.5558 101.739 12.4902 101.612 12.438C101.449 12.3706 101.305 12.2528 101.117 12.2477C101.096 12.2477 101.077 12.2123 101.057 12.1921H100.897C100.866 12.1635 100.837 12.1366 100.806 12.1096H100.647C100.616 12.081 100.585 12.0541 100.555 12.0271H100.313C100.291 12.0052 100.272 11.9867 100.238 11.953H99.9086C99.8744 11.9194 99.8555 11.9008 99.8298 11.8756H94.143V11.8722Z" fill="#001E31"/>
<path d="M73.2546 40.2453C73.2015 40.2874 73.1484 40.3278 73.097 40.3699C73.0764 40.3867 73.0593 40.4238 73.0387 40.4238C72.9119 40.4271 72.8622 40.5315 72.7817 40.5972C72.6858 40.5602 72.6446 40.6595 72.571 40.6848C72.4287 40.7319 72.2934 40.8094 72.1632 40.8851C72.0415 40.9558 71.8942 40.9744 71.7948 41.0821C71.6371 41.0973 71.5275 41.2269 71.375 41.2539C71.3133 41.3869 71.1266 41.2623 71.0649 41.397C70.9501 41.4105 70.8644 41.5351 70.7325 41.4862C70.6828 41.53 70.6417 41.5738 70.5611 41.5738C70.52 41.5738 70.496 41.6647 70.4309 41.6462C70.3007 41.6108 70.2304 41.7657 70.0934 41.7321C69.9649 41.7018 69.8603 41.8398 69.725 41.8247C69.6462 41.9459 69.5211 41.855 69.3823 41.9206C69.3909 41.9122 69.3617 41.9392 69.3292 41.9678H69.0071C68.9762 41.9964 68.9454 42.0234 68.9145 42.0503H68.5068C68.4862 42.0705 68.4674 42.089 68.4468 42.1092C68.4365 42.116 68.4262 42.1294 68.4142 42.1294C68.087 42.1311 67.758 42.1311 67.4376 42.1311C67.4119 42.1564 67.3913 42.1766 67.3708 42.1968C67.28 42.2254 67.1874 42.2187 67.0966 42.2018C67.0761 42.1833 67.0572 42.1631 67.023 42.1294H66.036C66.0018 42.0958 65.9829 42.0772 65.9606 42.0553H65.6385C65.6077 42.0267 65.5768 42.0015 65.5443 41.9728H65.3027C65.2718 41.9442 65.2427 41.9173 65.2102 41.8903H64.972C64.9377 41.8617 64.8966 41.8078 64.8778 41.8146C64.7407 41.8651 64.6602 41.7354 64.5419 41.722C64.434 41.7085 64.3261 41.6563 64.2335 41.5788C64.1787 41.5334 64.0793 41.5974 64.0108 41.5199C63.9628 41.466 63.8583 41.4812 63.8137 41.4071C63.7195 41.4408 63.6887 41.3246 63.6013 41.3229C63.5276 41.3195 63.4813 41.2253 63.394 41.2337C63.3477 41.1394 63.2106 41.1899 63.1661 41.0905C63.1284 41.0097 63.017 41.0282 62.9725 40.9727C62.8697 40.8447 62.6863 40.8279 62.5955 40.6898C62.4156 40.6646 62.3573 40.481 62.2203 40.4086C61.9273 40.2537 61.7371 39.9911 61.5024 39.7755C61.2625 39.555 61.038 39.3192 60.8016 39.0936C60.7245 39.0195 60.7142 38.9101 60.6319 38.8377C60.5446 38.7602 60.4315 38.6979 60.4058 38.5683C60.3852 38.4622 60.2224 38.4437 60.2413 38.3123C60.243 38.3022 60.231 38.2888 60.2224 38.2803C60.0083 38.1137 59.9295 37.8661 59.8112 37.6405C59.7358 37.4974 59.657 37.3526 59.5902 37.2044C59.5611 37.1371 59.4754 37.0933 59.5011 36.9973C59.5302 36.898 59.3846 36.8559 59.4086 36.7532C59.3212 36.7027 59.3675 36.5999 59.3315 36.5444C59.2749 36.4585 59.2801 36.339 59.1756 36.2918V36.1251C59.1464 36.0948 59.119 36.0662 59.0916 36.0342V35.8793C59.0625 35.8473 59.0351 35.817 59.0008 35.7783C59.083 35.6183 58.91 35.4937 58.9288 35.3354C58.8192 35.2445 58.8517 35.1216 58.8466 35.0054C58.8449 34.9667 58.8397 34.9297 58.838 34.8993C58.8106 34.8724 58.7918 34.8539 58.7678 34.8303V34.5138C58.7386 34.4835 58.7129 34.4531 58.6838 34.4228V34.0187C58.665 34.0019 58.6444 33.9851 58.629 33.9699C58.6187 33.9413 58.6033 33.9177 58.6033 33.8941C58.6016 33.2088 58.6016 32.5236 58.6016 31.8416C58.6238 31.8197 58.6427 31.8012 58.6821 31.7625C58.6855 31.6379 58.6804 31.4931 58.6838 31.3567C58.7112 31.3298 58.7301 31.3112 58.7661 31.2759C58.7661 31.2405 58.7712 31.1883 58.7643 31.1361C58.7523 31.0284 58.7935 30.9408 58.8414 30.8432C58.8843 30.7573 58.8055 30.6276 58.9237 30.5552C58.8757 30.4155 59.0419 30.3262 59.0145 30.1865C58.9991 30.1074 59.1293 30.0737 59.095 29.9777C59.0676 29.8986 59.167 29.8666 59.1721 29.8093C59.1824 29.7049 59.3143 29.6393 59.2595 29.5197C59.3126 29.4338 59.4052 29.3497 59.4086 29.2621C59.412 29.1577 59.5491 29.1223 59.5062 29.0163C59.6056 28.959 59.5851 28.826 59.6707 28.7603C59.6485 28.6206 59.8575 28.6037 59.8352 28.464C59.9243 28.3849 59.9243 28.2485 60.0288 28.1794C60.1076 28.1256 60.0871 28.0144 60.171 27.9521C60.2396 27.9016 60.315 27.8494 60.3372 27.7383C60.3527 27.6608 60.4795 27.6103 60.5189 27.5312C60.6405 27.2837 60.8633 27.1288 61.05 26.9419C61.1186 26.8728 61.1323 26.7819 61.1922 26.7162C61.2573 26.6472 61.3224 26.5782 61.3961 26.5176C61.4784 26.4502 61.5246 26.3441 61.6377 26.3121C61.7628 26.2768 61.8228 26.1657 61.9119 26.0865C61.9941 26.0141 62.0541 25.9064 62.1483 25.8659C62.3145 25.7919 62.4173 25.6555 62.5492 25.5477C62.5955 25.509 62.6623 25.4922 62.7172 25.4602C62.7737 25.4282 62.796 25.3558 62.8731 25.3406C62.9331 25.3288 62.9862 25.2867 63.0376 25.2615C63.1232 25.2682 63.1472 25.344 63.2003 25.381C63.1832 25.4787 63.2569 25.5292 63.3186 25.573C63.3837 25.6184 63.3426 25.706 63.4042 25.7413C63.5293 25.8121 63.5327 25.9636 63.6321 26.0545C63.7264 26.1404 63.7521 26.2818 63.8617 26.3627C63.848 26.5125 64.0451 26.5411 64.0502 26.6927C64.0519 26.7567 64.1804 26.7853 64.1907 26.8745C64.2027 26.9789 64.3398 27.0059 64.3483 27.0917C64.3586 27.1894 64.4306 27.2231 64.4785 27.2837C64.5351 27.3544 64.5351 27.4554 64.6225 27.5076C64.7047 27.5581 64.6722 27.6844 64.7681 27.7299C64.8521 27.7686 64.8298 27.8696 64.8846 27.9235C64.9497 27.9875 65.0251 28.0447 65.0303 28.1474C65.1331 28.2165 65.169 28.3327 65.2342 28.427C65.2993 28.5212 65.3558 28.629 65.4415 28.7031C65.5186 28.7688 65.4826 28.8883 65.582 28.9304C65.6814 28.9725 65.6505 29.0954 65.7259 29.1543C65.7876 29.2032 65.827 29.2621 65.8493 29.3463C65.8698 29.4271 65.9949 29.4507 66.0052 29.5669C66.0086 29.6191 66.0943 29.6612 66.132 29.715C66.1611 29.7554 66.1645 29.8127 66.1937 29.8497C66.2485 29.9205 66.3119 29.9777 66.3462 30.072C66.3787 30.1612 66.4815 30.2185 66.5175 30.3246C66.5432 30.4037 66.6734 30.434 66.6563 30.5502C66.7762 30.6226 66.7899 30.7758 66.891 30.8566C66.999 30.9425 67.0075 31.0856 67.1172 31.1749C67.1789 31.2254 67.184 31.3382 67.268 31.3921C67.3365 31.4375 67.3022 31.547 67.3845 31.5857C67.4804 31.6312 67.4599 31.7473 67.5284 31.8113C67.5849 31.8635 67.6672 31.9056 67.6466 32.005C67.7666 32.0774 67.7786 32.2306 67.8797 32.3131C67.9859 32.399 67.9996 32.5387 68.1058 32.6296C68.1658 32.6818 68.1795 32.7862 68.2549 32.8485C68.3251 32.9058 68.308 33.0236 68.4022 33.0708C68.4845 33.1112 68.4416 33.2223 68.5187 33.2661C68.6061 33.3149 68.613 33.4176 68.6661 33.4884C68.7192 33.5608 68.7946 33.6096 68.8152 33.7123C68.8289 33.7813 68.9471 33.8066 68.9574 33.8941C68.9694 34.0002 69.1065 34.0272 69.1167 34.1097C69.127 34.2073 69.1955 34.2427 69.2452 34.3016C69.3035 34.3706 69.3001 34.4767 69.3892 34.5256C69.4765 34.5744 69.4371 34.704 69.5348 34.7478C69.6188 34.7865 69.5999 34.8859 69.6513 34.9414C69.713 35.0088 69.7798 35.0644 69.8021 35.1637C69.8175 35.2327 69.934 35.2563 69.9443 35.3472C69.9563 35.4516 70.0934 35.4786 70.1019 35.5628C70.1122 35.6604 70.1842 35.6941 70.2322 35.7547C70.2887 35.8237 70.2887 35.9264 70.3761 35.9786C70.46 36.0292 70.4258 36.1554 70.5217 36.2009C70.6057 36.2396 70.5834 36.3406 70.6382 36.3945C70.7033 36.4602 70.765 36.5191 70.789 36.6168C70.8061 36.6875 70.9209 36.7094 70.9312 36.8003C70.9432 36.903 71.0803 36.93 71.0889 37.0175C71.0991 37.1152 71.1728 37.1472 71.2191 37.2078C71.2739 37.2785 71.2773 37.3795 71.363 37.4317C71.4452 37.4822 71.4127 37.6102 71.5086 37.654C71.5926 37.6927 71.5686 37.7954 71.6252 37.8476C71.692 37.9116 71.7622 37.9722 71.7708 38.0716C71.8753 38.1389 71.9079 38.2585 71.9747 38.3511C72.0415 38.4454 72.0963 38.5531 72.182 38.6272C72.2574 38.6929 72.2231 38.8124 72.3225 38.8562C72.4202 38.8983 72.391 39.0212 72.4664 39.0801C72.5298 39.129 72.5658 39.1913 72.5898 39.2721C72.6138 39.3529 72.7372 39.3765 72.744 39.4927C72.7474 39.5449 72.8331 39.5869 72.8725 39.6408C72.9016 39.6812 72.9051 39.7385 72.9342 39.7755C72.989 39.8462 73.0627 39.8968 73.085 39.9995C73.1021 40.0719 73.2083 40.1039 73.2546 40.2453Z" fill="#001E31"/>
<path d="M71.275 49.3715C71.275 49.3613 71.2715 49.3462 71.275 49.3428C71.3589 49.2839 71.4994 49.3613 71.5577 49.2351C71.6776 49.2839 71.7564 49.1441 71.8507 49.161C71.9757 49.1829 72.0271 49.0246 72.1454 49.0734C72.2362 49.0296 72.3356 48.996 72.4161 48.9404C72.5035 48.8798 72.6474 48.969 72.6988 48.831C72.8102 48.8512 72.8701 48.7047 72.9952 48.7451C73.0261 48.7552 73.0775 48.6912 73.1237 48.671C73.2043 48.634 73.3053 48.6239 73.3653 48.5683C73.4373 48.5009 73.5332 48.5414 73.5829 48.5026C73.6566 48.4454 73.7525 48.442 73.8211 48.378C73.8742 48.3292 73.9701 48.3343 74.0181 48.2669C74.1209 48.2871 74.1638 48.1524 74.2666 48.176C74.3077 48.0952 74.4054 48.1137 74.467 48.0648C74.5356 48.011 74.6212 47.9823 74.7018 47.9453C75.1164 47.7567 75.5156 47.5395 75.9251 47.3442C76.0022 47.3072 76.1102 47.3038 76.1547 47.2078C76.1993 47.1118 76.3381 47.1623 76.3826 47.0647C76.4871 47.0916 76.5283 46.9485 76.6328 46.9755C76.7767 46.7785 77.0611 46.7768 77.2051 46.5798C77.2753 46.5781 77.3336 46.5528 77.373 46.4939C77.4706 46.5511 77.4843 46.6741 77.5546 46.7313C77.654 46.8138 77.6557 46.9418 77.7499 47.0209C77.8287 47.0866 77.887 47.1674 77.9367 47.2651C77.9864 47.361 78.0738 47.4469 78.132 47.5496C78.1834 47.6405 78.3016 47.6742 78.3273 47.7938C78.353 47.9066 78.5107 47.947 78.5072 48.0834C78.5895 48.1507 78.6392 48.2383 78.6854 48.3326C78.7368 48.4353 78.8739 48.4774 78.9013 48.6087C78.9219 48.7114 79.0812 48.7333 79.0641 48.8646C79.1463 48.9522 79.2286 49.0397 79.3108 49.1273C79.2903 49.2502 79.4479 49.2704 79.4565 49.3748C78.9767 49.4135 75.1027 49.4236 71.3812 49.3967C71.3486 49.3967 71.3041 49.4135 71.275 49.3715Z" fill="#001E31"/>
</g>
<defs>
<clipPath id="clip0_3441_4056">
<rect width="120" height="49.4118" fill="white"/>
</clipPath>
</defs>
</svg>
