<svg width="140" height="49" viewBox="0 0 140 49" fill="none" xmlns="http://www.w3.org/2000/svg">
<g clip-path="url(#clip0_3555_686)">
<path d="M130.394 47.2545C125.403 46.5164 120.456 45.5949 115.589 44.2185C111.628 43.0975 107.75 41.785 104.183 39.7225C99.4679 37.0017 94.9559 33.9698 90.6434 30.6506C89.5822 29.8288 88.3255 29.1306 87.6832 27.9538C87.7311 27.6905 87.7231 27.5469 87.787 27.4471C87.9545 27.1838 88.146 26.9325 88.3375 26.6851C91.3615 22.7795 92.4546 18.4351 91.6646 13.5241C90.2763 4.85514 81.4438 -1.37231 72.6631 0.263345C63.8944 1.89501 57.3119 10.552 59.5739 20.2223C61.8838 30.12 72.3799 35.4499 81.7909 31.5642C82.3813 31.3208 82.9358 31.0017 83.7537 31.2929C85.9837 33.515 88.5569 35.5576 91.2019 37.5164C95.7977 40.9113 100.681 43.7877 106.146 45.559C110.435 46.9513 114.883 47.5337 119.351 47.8768C123.141 48.1681 126.955 48.1282 130.757 47.8888C130.888 47.5337 130.689 47.3662 130.394 47.2545ZM75.4278 26.1585C70.0062 26.1067 65.7256 22.0175 65.8094 16.3287C65.9011 10.0653 71.223 6.77404 75.3839 6.80197C80.8614 6.84585 85.13 11.0108 85.146 16.4763C85.2337 21.846 80.9611 26.2144 75.4278 26.1585Z" fill="#001E31"/>
<path d="M6.74159 32.7289H0.0234375V2.01054C1.36787 1.67942 2.81602 1.92277 4.24023 1.87889C5.69237 1.83501 7.1525 1.87091 8.61262 1.87091C13.0209 8.4614 17.1938 15.1397 21.8375 22.0254V2.06639C22.9665 1.67942 24.1035 1.92676 25.2165 1.88288C26.2896 1.839 27.3628 1.8749 28.5437 1.8749V32.701C27.1713 32.9284 25.7311 32.7648 24.3029 32.7927C22.8468 32.8207 21.3907 32.8007 19.8627 32.8007C15.5701 26.2182 11.2935 19.6596 7.01686 13.1011C6.92111 13.117 6.82935 13.137 6.73361 13.1529V32.7289H6.74159Z" fill="#001E31"/>
<path d="M102.544 14.4934H115.581C115.733 16.4083 115.653 18.2035 115.641 20.1144H102.7V26.5453H116.563V32.7329H95.1797V2.11825C96.56 1.81107 114.225 1.73926 116.603 2.04245V8.02655H102.692C102.432 10.2566 102.644 12.3072 102.544 14.4934Z" fill="#001E31"/>
<path d="M49.8082 1.95093H41.7656C37.7722 12.2077 33.8027 22.4006 29.7734 32.7491H36.3639C37.2974 30.4352 38.231 28.1174 39.1206 25.9152H52.5808C53.5383 28.253 54.4598 30.515 55.3774 32.7611H62.1394C57.9585 22.3088 53.8654 12.08 49.8082 1.95093ZM45.7949 19.4843C44.4784 19.5242 43.1619 19.4923 41.598 19.4923C42.9784 15.9457 44.2709 12.6226 45.7111 8.92041C47.1991 12.5587 48.5595 15.8899 49.9638 19.3208C48.5356 19.6679 47.1553 19.4444 45.7949 19.4843Z" fill="#001E31"/>
<path d="M140 26.5895V32.6813H119.674C119.347 31.4086 119.239 5.11053 119.57 1.96289H126.867V26.5895H140Z" fill="#001E31"/>
<path d="M10.8193 47.1985H0V35.7769H13.0374C12.2874 39.6346 11.5613 43.3846 10.8232 47.1985H10.8193Z" fill="#001E31"/>
<path d="M50.2383 38.1068C50.0707 36.6546 49.0096 36.0761 47.6731 35.7131C45.9537 35.2384 44.326 35.5535 42.5826 35.8966C42.0121 39.6786 41.0148 43.3488 40.4922 47.2584C41.4018 47.1906 42.08 47.3861 42.826 47.1188C43.5122 45.7943 43.3326 44.2065 43.8672 42.8462C45.5667 42.6467 46.0135 42.9619 46.225 44.4379C46.3526 45.3435 46.0534 46.3369 46.7994 47.2784C47.4736 47.1028 48.2236 47.4539 48.9776 47.035C48.8619 45.1959 49.0175 43.3488 47.7768 41.781C48.1319 41.5815 48.3992 41.4299 48.6625 41.2743C49.8792 40.5642 50.3859 39.4392 50.2383 38.1068ZM44.4577 40.6679C44.0787 39.6507 44.7569 38.753 44.7648 37.8195C46.3805 37.3288 46.6877 37.4246 47.6691 38.6653C47.0627 40.648 46.8393 40.7876 44.4577 40.6679Z" fill="#001E31"/>
<path d="M20.7259 46.4327C20.7937 46.5324 20.8655 46.6321 21.0211 46.8516C22.3895 45.0204 23.7299 43.2252 25.1262 41.3621C24.4879 39.515 23.8576 37.6919 23.1913 35.765H25.6328C26.3828 36.8102 26.5105 38.1626 27.0331 39.4791C28.1781 38.4459 28.5291 36.894 29.6382 35.773C30.4959 35.6174 31.4254 35.6653 32.5106 35.757C31.0744 37.6759 29.722 39.4831 28.3376 41.3302C29.0557 43.2411 29.7619 45.1281 30.4999 47.0949C29.6422 47.3941 28.7805 47.2266 27.9148 47.1946C27.2086 45.9739 27.1807 44.5018 26.315 43.2691C25.4573 44.6175 24.6475 45.8821 23.8416 47.1468C22.6448 47.3542 21.5158 47.2266 20.3828 47.1547C20.1195 46.7319 20.1753 46.4646 20.7259 46.4287V46.4327Z" fill="#001E31"/>
<path d="M40.8714 38.1507C40.5403 36.6746 39.4991 36.0443 38.0789 35.6852C36.4751 35.2783 34.9711 35.5177 33.3355 35.9086C32.5974 39.6347 31.8634 43.3608 31.1094 47.1587H33.4791C34.0974 45.8302 33.902 44.3542 34.624 43.0895C34.9153 43.0895 35.1626 43.0736 35.4099 43.0895C36.7743 43.1773 38.0509 42.898 39.2039 42.1401C40.3847 41.3621 41.1786 39.5071 40.8714 38.1507ZM37.8156 40.3049C37.0416 41.1347 36.1201 41.2783 34.8833 40.9991C35.0669 39.9339 35.2504 38.8727 35.4698 37.6201H36.8262C37.4286 37.6201 38.007 37.7717 38.2105 38.382C38.4339 39.0562 38.3581 39.7265 37.8156 40.3049Z" fill="#001E31"/>
<path d="M52.221 35.7689H59.0708C59.3541 36.5149 58.9751 37.0455 58.6799 37.7436H54.5349C54.2995 38.5694 54.096 39.2756 53.8327 40.1931C55.241 40.4046 56.5495 40.2011 57.9259 40.3367C58.1892 41.0149 58.0974 41.6293 57.5628 42.2556H53.7689C53.3021 43.1413 53.0588 44.019 53.1426 45.0761C54.5907 45.491 56.1187 45.0203 57.5509 45.3315C57.8501 46.0775 57.3274 46.5642 57.2716 47.1706H50.0508C50.7848 43.3288 51.4949 39.5907 52.225 35.7649L52.221 35.7689Z" fill="#001E31"/>
<path d="M20.7252 46.4325C20.3183 46.5363 20.3941 46.8674 20.3821 47.1586C18.1241 47.3302 15.8661 47.2703 13.3887 47.1905C14.1307 43.3009 14.8448 39.5628 15.5669 35.7649H22.6002C22.4566 36.4271 22.3329 37.0016 22.1853 37.6718H17.9326C17.6613 38.5056 17.2584 39.2157 17.4259 40.1692C18.6786 40.4724 20.0151 40.1333 21.3595 40.3806C21.6308 41.0668 20.9406 41.5415 21.1879 42.2716H17.1068C16.4007 43.1971 16.5722 44.1347 16.5363 45.2118H21.0483C20.9087 45.7384 20.8129 46.0855 20.7212 46.4365L20.7252 46.4325Z" fill="#001E31"/>
<path d="M58.0703 46.616C58.3855 45.9259 58.6687 45.3035 58.952 44.6852C61.8443 45.7703 62.8217 45.5987 63.6515 43.9112C63.3563 42.9617 62.5265 42.5907 61.7446 42.1918C60.3203 41.4697 59.3988 40.4245 59.6342 38.737C59.8616 37.1133 60.9347 36.2236 62.4347 35.7329C63.9467 35.2383 65.3988 35.2861 66.8191 35.9763C67.0146 36.7822 66.5637 37.3407 66.2446 37.975C64.8922 37.7077 63.5238 37.1811 62.3629 38.3061C62.1275 39.096 62.4188 39.5907 63.0491 39.9418C63.5478 40.217 64.0265 40.5282 64.5252 40.7995C65.7459 41.4657 66.468 42.479 66.3363 43.8673C66.1967 45.3554 65.3669 46.5083 63.9587 47.0429C61.9879 47.7889 60.0211 47.737 58.0743 46.612L58.0703 46.616Z" fill="#001E31"/>
<path d="M75.1997 35.9923C75.2436 36.7742 74.8047 37.2848 74.6771 37.979C73.3207 37.7915 71.9363 37.1292 70.7515 38.2702C70.4403 39.0083 70.7156 39.5269 71.318 39.9059C71.8526 40.245 72.4151 40.5362 72.9497 40.8673C74.1106 41.5854 74.7249 42.5668 74.5813 44.003C74.4217 45.5948 73.4443 46.5921 72.1159 47.0988C70.2209 47.8248 68.286 47.7371 66.4629 46.632C66.6464 45.9139 66.9576 45.3035 67.3924 44.6652C68.3977 45.2756 69.5028 45.3993 70.6478 45.2876C71.1943 45.2357 71.6212 44.9963 71.7847 44.4378C71.9403 43.9032 71.8007 43.4604 71.3898 43.0615C70.923 42.6107 70.3645 42.3274 69.81 42.0282C68.5334 41.3341 67.8073 40.3367 67.935 38.8088C68.0547 37.3527 68.9722 36.5388 70.1651 35.9803C71.7887 35.2183 73.4483 35.1744 75.2037 35.9923H75.1997Z" fill="#001E31"/>
<path d="M130.756 47.8888C130.636 47.6774 130.512 47.4659 130.393 47.2545C131.206 47.0909 131.948 47.1986 132.595 47.817C131.968 48.0005 131.366 47.9885 130.756 47.8888Z" fill="#001E31"/>
</g>
<defs>
<clipPath id="clip0_3555_686">
<rect width="140" height="48.0802" fill="white"/>
</clipPath>
</defs>
</svg>
