<svg width="140" height="32" viewBox="0 0 140 32" fill="none" xmlns="http://www.w3.org/2000/svg">
<path d="M88.3862 30.6745C88.361 30.1834 88.3106 29.7805 88.3106 29.3775C88.3106 20.1978 88.3358 11.0181 88.2854 1.83839C88.2728 0.491028 88.7261 0.151039 89.9979 0.151039C95.6015 0.151039 101.205 0.0628939 106.809 -6.70764e-05C107.828 -0.0126593 108.534 0.251777 108.471 1.511C108.408 2.75762 108.458 4.00425 108.458 5.47754C103.799 5.47754 99.3162 5.47754 94.7452 5.47754C94.7452 7.94561 94.7452 10.1744 94.7452 12.5669C95.0978 12.5921 95.4881 12.6551 95.8785 12.6677C98.611 12.6929 101.331 12.718 104.063 12.7055C105.159 12.7055 105.612 13.0832 105.625 14.2795C105.625 17.8305 105.688 17.8305 102.149 17.8305C100.047 17.8305 97.9562 17.8683 95.8533 17.8557C95.0096 17.8431 94.6319 18.1201 94.6571 19.0393C94.72 21.0289 94.6822 23.0185 94.6822 25.3102C99.2406 25.3102 103.761 25.3102 108.37 25.3102C108.37 27.262 108.37 28.9242 108.37 30.6745C101.746 30.6745 95.1608 30.6745 88.3862 30.6745Z" fill="#001E31"/>
<path d="M11.8626 0.201353C8.50046 0.23913 5.15094 0.30209 1.80142 0.226537C0.491829 0.201353 0.0385098 0.566527 0.0636942 1.87611C0.114063 6.43449 0.0762864 10.9929 0.0762864 15.5638H0.0133255C0.0133255 19.1778 0.0385098 22.7917 0.0133255 26.4057C-0.0370433 31.0144 -0.0496358 30.9893 4.54651 30.7878C5.55389 30.75 5.93166 30.4226 5.90647 29.3901C5.84351 27.2872 5.94425 25.1969 5.93166 23.094C5.93166 22.1873 6.20868 21.7592 7.20347 21.8221C8.56342 21.8977 9.93597 21.8977 11.2959 21.8473C17.4409 21.6459 20.9164 18.6993 21.7726 12.9321C21.9111 11.9499 21.9111 10.9425 21.8986 9.94771C21.7978 3.75235 18.0453 0.1258 11.8626 0.201353ZM14.9351 14.569C14.5195 15.3246 13.5247 16.1179 12.6937 16.2312C10.7419 16.5208 8.72712 16.4705 6.73756 16.4327C6.44794 16.4327 5.95684 15.7401 5.93166 15.3372C5.83092 13.9268 5.89388 12.5039 5.89388 11.0936H5.90647C5.90647 9.62031 5.94425 8.15962 5.89388 6.68633C5.8687 5.66636 6.15832 5.1249 7.3168 5.18786C8.82786 5.27601 10.3641 5.21305 11.8752 5.25082C13.6633 5.30119 14.7966 6.19524 15.3884 7.88259C16.2069 10.187 16.0684 12.4661 14.9351 14.569Z" fill="#001E31"/>
<path d="M45.0174 15.4883C44.3752 11.0684 41.6427 8.26034 38.0287 7.8322C36.4295 7.64332 34.78 7.63073 33.1807 7.79442C29.252 8.22256 26.2676 10.7284 25.4617 14.569C24.9832 16.7978 24.7817 19.1652 24.9706 21.4192C25.5121 28.2064 28.6979 31.0396 35.4347 31.1026C40.6731 31.1529 44.0982 28.5841 44.9544 23.4465C45.3826 20.8525 45.3952 18.0948 45.0174 15.4883ZM38.8472 23.6354C38.3435 25.5242 37.1347 26.2294 35.0696 26.2546C33.0422 26.2672 32.0349 25.6376 31.3675 23.7613C30.3853 20.9659 30.486 18.1074 31.2541 15.2868C31.7578 13.4357 33.4326 12.4032 35.3214 12.5417C37.3739 12.6928 38.9102 14.0402 39.162 16.0171C39.288 17.0497 39.3005 18.0948 39.3509 19.14C39.3887 19.1526 39.4265 19.1526 39.4642 19.1652C39.2754 20.6511 39.225 22.1873 38.8472 23.6354Z" fill="#001E31"/>
<path d="M66.2857 13.4737C62.8228 13.3478 59.7126 13.247 56.5897 13.1337C55.7334 13.1085 54.8142 13.2848 54.9149 14.2796C54.9905 14.947 55.5697 15.9166 56.149 16.118C57.7104 16.6721 59.3978 16.8988 61.0347 17.2387C66.2983 18.3343 68.376 22.326 66.2101 27.2621C64.9635 30.108 62.4451 31.0272 59.6748 31.0398C56.6527 31.0524 53.6179 30.6998 50.5958 30.3472C50.1047 30.2968 49.4247 29.5035 49.324 28.9621C49.1225 27.9043 49.261 26.7836 49.261 25.3985C51.1121 25.5622 52.8498 25.7888 54.5875 25.8392C56.2497 25.9022 57.9371 25.8896 59.574 25.6755C60.0903 25.6125 60.9088 24.7689 60.8962 24.3156C60.871 23.7237 60.254 22.8171 59.7 22.6408C58.063 22.1245 56.3253 21.9356 54.6379 21.5579C49.4247 20.412 47.2967 15.7025 49.9284 11.1441C51.2128 8.9153 53.4416 7.93311 55.7208 7.90793C58.9822 7.85756 62.2688 8.42421 65.5302 8.77679C65.8198 8.81457 66.2353 9.21752 66.2479 9.46936C66.3235 10.8545 66.2857 12.2396 66.2857 13.4737Z" fill="#001E31"/>
<path d="M130.82 30.6492L130.896 30.7751H125.166L124.814 30.1455L124.801 30.1329L120.973 23.4591L118.316 28.8611L118.19 29.113L117.372 30.7751H116.075C115.634 30.8759 115.143 30.8759 114.576 30.8003C114.476 30.7877 114.387 30.7751 114.287 30.7751H111.139C111.453 30.0448 111.642 29.4907 111.919 28.987C113.481 26.1412 115.118 23.3331 116.616 20.4621C116.893 19.9333 116.881 19.014 116.604 18.4726C115.143 15.5764 113.556 12.7431 112.033 9.88468C111.768 9.39359 111.567 8.87731 111.239 8.12178C113.179 8.12178 114.891 8.07141 116.591 8.15955C116.918 8.17215 117.321 8.65065 117.523 9.01582C118.644 11.0432 119.727 13.1083 120.961 15.4127C122.169 13.1335 123.177 11.1313 124.298 9.2173C124.587 8.7262 125.255 8.20992 125.796 8.15955C127.345 8.02104 128.919 8.10919 130.707 8.10919C130.48 8.63806 130.354 9.01582 130.165 9.35581C128.528 12.2142 126.904 15.0853 125.229 17.9311C124.663 18.9007 124.7 19.757 125.255 20.714C127.143 23.9628 128.969 27.2367 130.896 30.6366C130.871 30.6366 130.845 30.6492 130.82 30.6492Z" fill="#001E31"/>
<path d="M72.3438 13.2596C71.3364 13.2093 70.6187 13.1589 69.7246 13.1085C69.7246 11.4967 69.7246 9.89751 69.7246 8.15979C70.4298 8.15979 71.2483 8.15979 72.306 8.15979C72.306 6.01912 72.306 4.01696 72.306 1.91406C74.3837 1.91406 76.2348 1.91406 78.2243 1.91406C78.2243 3.91622 78.2243 5.8932 78.2243 8.10942C79.7354 8.10942 81.1331 8.15979 82.5183 8.09683C83.5634 8.04646 83.9286 8.44941 83.8782 9.45679C83.8279 10.653 83.8656 11.8493 83.8656 13.1589C82.0272 13.1589 80.3272 13.1589 78.4258 13.1589C78.388 13.8766 78.3377 14.4811 78.3377 15.0855C78.3377 17.7047 78.2873 20.3238 78.388 22.943C78.4888 25.5748 79.0051 25.9777 81.6368 25.9526C83.7397 25.9274 83.7397 25.9274 83.853 27.9421C84.0167 30.8509 83.8656 31.0146 80.9065 31.0902C80.0628 31.1154 79.2317 31.1028 78.388 31.0776C74.6733 30.9643 72.7845 29.2265 72.583 25.4866C72.4067 22.0868 72.4067 18.6743 72.3438 15.2744C72.3312 14.6574 72.3438 14.0403 72.3438 13.2596Z" fill="#001E31"/>
<path d="M136.639 30.662C138.496 30.662 140.002 29.1567 140.002 27.2999C140.002 25.443 138.496 23.9377 136.639 23.9377C134.783 23.9377 133.277 25.443 133.277 27.2999C133.277 29.1567 134.783 30.662 136.639 30.662Z" fill="#001E31"/>
</svg>
