<svg width="120" height="52" viewBox="0 0 120 52" fill="none" xmlns="http://www.w3.org/2000/svg">
<g clip-path="url(#clip0_3441_4166)">
<path d="M0 29.6112C0 21.6143 5.89935 14.8846 15.532 14.6185C15.8507 14.6075 16.1177 14.8601 16.1285 15.1827C16.1285 15.1883 16.1288 15.1939 16.1288 15.1996V22.0608C16.1255 22.3746 15.8776 22.6297 15.5678 22.6385C11.5558 22.8551 8.75714 25.5011 8.75714 30.7076V48.2378C8.75547 48.5592 8.49731 48.8188 8.17975 48.8188H0.577388C0.259824 48.8188 0.00194313 48.5592 0 48.2378L0 29.6109L0 29.6112Z" fill="#001E31"/>
<path d="M103.871 29.6112C103.871 21.6143 109.77 14.8846 119.403 14.6185C119.722 14.6075 119.989 14.8601 120 15.1827C120 15.1906 120 15.1982 120 15.206V22.0605C119.999 22.3707 119.758 22.6258 119.452 22.6415C115.44 22.8582 112.641 25.5041 112.641 30.7107V48.2409C112.639 48.5623 112.381 48.8219 112.064 48.8219H104.448C104.131 48.8219 103.873 48.5623 103.871 48.2409V29.6109V29.6112Z" fill="#001E31"/>
<path d="M19.929 14.615H27.609C27.9266 14.6167 28.1831 14.878 28.1831 15.1994V48.2376C28.1831 48.5585 27.926 48.8187 27.609 48.8187H19.929C19.6114 48.8187 19.3535 48.559 19.3516 48.2376L19.3516 15.1994C19.3516 14.8766 19.61 14.615 19.929 14.615ZM19.5073 6.99878C19.4412 4.53039 21.3646 2.47504 23.8033 2.40817C26.2419 2.34129 28.2725 4.28819 28.3385 6.75658C28.3408 6.83722 28.3408 6.91814 28.3385 6.99878C28.2725 9.46717 26.2419 11.4141 23.8033 11.3472C21.4576 11.2828 19.5709 9.37304 19.5073 6.99878Z" fill="#001E31"/>
<path d="M57.5957 14.6151V0.584434C57.5957 0.26159 57.8542 0 58.1731 0L65.9309 0C66.2485 0.00168587 66.505 0.262995 66.505 0.584434V32.5656C66.505 42.1284 59.5158 49.5903 48.7645 49.5903C38.0131 49.5903 31.1797 41.8955 31.1797 32.3324C31.1797 22.7693 37.783 14.533 48.5343 14.6052L57.596 14.6151H57.5957ZM57.5957 23.0126H49.225C42.9298 23.0126 40.0856 27.753 40.0856 32.1059C40.0856 36.4588 42.3916 41.2026 48.6898 41.2026C54.988 41.2026 57.5957 36.692 57.5957 32.3389V23.0124V23.0126Z" fill="#001E31"/>
<path fill-rule="evenodd" clip-rule="evenodd" d="M91.4591 25.4223C90.0917 22.1433 86.3573 20.6072 83.1181 21.9913C81.5897 22.6443 80.3736 23.8752 79.7284 25.4223H91.4591ZM85.5856 16.4799C91.8386 16.4836 96.9049 21.6176 96.901 27.9469C96.9004 28.785 96.8091 29.6204 96.6287 30.4383H79.7184C81.0867 33.7168 84.8217 35.2517 88.0606 33.8671C88.6088 33.6327 89.1215 33.3217 89.5846 32.9432H95.7468C93.0133 38.6319 86.2415 41.0005 80.6217 38.2338C75.0016 35.467 72.6616 28.6125 75.395 22.9241C77.2915 18.9772 81.2496 16.4743 85.5859 16.4799H85.5856ZM73.6959 15.8988C80.353 9.34391 90.9994 9.49226 97.4753 16.2307C103.825 22.8379 103.825 33.3613 97.4753 39.9685L85.5856 52L73.6959 39.9618C67.4209 33.3703 67.6527 22.7097 73.6959 15.8921V15.8986V15.8988Z" fill="#001E31"/>
</g>
<defs>
<clipPath id="clip0_3441_4166">
<rect width="120" height="52" fill="white"/>
</clipPath>
</defs>
</svg>
