<svg width="150" height="47" viewBox="0 0 150 47" fill="none" xmlns="http://www.w3.org/2000/svg">
<g clip-path="url(#clip0_3441_4258)">
<path d="M132.045 44.0938C129.868 44.9715 128.034 45.7065 125.915 46.5628C123.103 41.8316 121.897 36.3511 119.107 31.5343H109.381C108.31 33.04 107.24 34.7241 106.926 36.972H101.467C104.892 28.0376 108.838 19.3816 112.699 10.7969H116.153C120.135 20.5019 124.095 30.1499 128.184 40.1333C128.562 39.3768 128.905 38.7703 129.183 38.1423C130.147 35.9301 131.074 33.6965 132.045 31.4843C132.972 29.3721 134.2 27.3526 134.821 25.1547C135.42 23.0138 136.662 21.1727 137.14 18.9534C137.568 16.9696 138.967 15.2141 139.787 13.2945C141.129 10.1689 142.77 7.16465 143.62 3.82497C143.855 2.89729 144.554 2.09091 145.211 0.927732C146.345 0.178446 147.901 -0.342486 149.992 0.249807C149.771 0.956277 149.564 1.64847 149.335 2.34067C147.687 7.36446 145.304 12.0885 143.177 16.8982C140.779 22.3288 138.917 27.9805 136.234 33.2755C134.699 36.3155 133.736 39.6195 132.066 42.6023C131.866 42.952 132.038 43.5157 132.038 44.0795L132.045 44.0938ZM118.208 27.7879C116.481 24.7764 116.067 21.6223 113.948 18.7822C113.17 22.2075 111.15 24.6551 110.622 27.7879H118.215H118.208Z" fill="#001E31"/>
<path d="M48.4319 37.0576H43.6436V25.8683H32.1831V36.9934H27.509C27.0023 34.3173 26.8596 20.6803 27.2806 11.5533H32.0618V21.3369H43.5223V11.5105H48.4319V37.0576Z" fill="#001E31"/>
<path d="M80.4305 11.4392C84.2198 11.7175 88.3088 10.747 93.0043 12.5667C93.8606 13.7727 95.1522 15.5995 96.3868 17.3407C96.2869 19.6528 96.765 21.8721 95.4305 23.8845C92.7688 27.5667 88.8083 28.1947 84.284 27.7594V37.0505C82.7783 37.0505 81.5081 37.0505 80.2379 37.0505C79.9881 36.8007 79.7312 36.551 79.246 36.0586V26.4463C79.246 22.3003 79.2674 18.1542 79.2317 14.0082C79.2245 13.0305 79.2103 12.1171 80.4377 11.4392H80.4305ZM90.7707 16.9696C88.4301 15.2213 86.3677 15.8707 84.2912 15.6923V22.5643C84.598 22.8712 84.8478 23.1209 85.2046 23.4777H88.323C89.2935 22.7641 90.3853 21.9649 91.5985 21.08C91.2916 19.5458 91.0062 18.1257 90.7707 16.9768V16.9696Z" fill="#001E31"/>
<path d="M0.0849321 34.0462C-0.307551 31.9981 0.662953 30.6066 1.76904 29.1794C2.868 32.2836 5.87228 32.3906 7.87751 33.5823C10.7676 33.354 11.524 31.3987 12.1449 29.0652C10.7676 26.9458 8.52689 25.804 6.015 24.9691C4.66628 24.5195 3.39606 23.8345 2.31852 23.3563C0.120612 21.1799 0.919851 18.6251 0.734314 16.5771C1.88322 12.8235 4.84468 11.2679 7.90605 10.8825C10.5821 10.5471 13.5578 11.2893 15.6415 13.8725C15.1277 14.7217 14.5925 15.628 13.9574 16.6841C11.1886 14.9144 8.49835 14.001 5.82232 16.7055V19.0319C6.30044 19.4387 6.99978 20.0381 7.55639 20.5091C10.1182 21.5723 12.7443 22.079 14.8994 23.7774C17.6254 25.9253 17.8894 31.6556 15.1991 34.5243C12.9727 36.9077 10.4893 37.9639 7.27808 37.8711C5.10158 37.8069 3.43174 36.8007 1.78331 35.6304C1.11252 35.1523 0.57732 34.5029 0.0849321 34.0319V34.0462Z" fill="#001E31"/>
<path d="M66.2793 37.0717H61.5195V11.5889C62.961 11.2392 64.5666 11.5532 66.2793 11.4033V37.0717Z" fill="#001E31"/>
<path d="M89.1445 11.6033C89.1445 11.6033 96.8586 11.0538 96.3876 18.404L93.9043 23.0139L90.85 15.1999L89.1445 11.6104V11.6033Z" fill="#001E31"/>
</g>
<defs>
<clipPath id="clip0_3441_4258">
<rect width="150" height="46.5628" fill="white"/>
</clipPath>
</defs>
</svg>
