<svg width="150" height="30" viewBox="0 0 150 30" fill="none" xmlns="http://www.w3.org/2000/svg">
<g clip-path="url(#clip0_3441_4252)">
<path d="M85.7797 14.9368L80.0156 28.7891H88.9404L91.0785 24.5119L93.2166 29.0673H103.536L109.022 14.9368H99.9111L97.679 19.6783L95.6339 14.9368H85.7797Z" fill="#001E31"/>
<path d="M110.694 15.03H129.846L128.358 18.655H120.084L119.712 19.7715H127.707L126.498 23.2113H118.039L117.76 24.0478H126.034L124.639 28.6962H105.488L110.694 15.03Z" fill="#001E31"/>
<path d="M131.706 14.8438H150.001L148.069 19.7713H144.164L140.631 28.8821H130.405L134.031 19.6783H129.939L131.706 14.8438Z" fill="#001E31"/>
<path d="M34.5529 0.712451L27.209 19.1202H39.9457L42.1769 13.9144L46.3601 19.3062H61.7002L56.2153 10.2885L65.233 3.68797L69.5093 14.1926L67.7433 19.3062H80.387L81.7808 15.4012L99.0729 0.712451H85.3137L79.8288 6.10432L78.341 0.526367H54.0762L45.3376 6.38345L47.4757 0.712451H34.5529Z" fill="#001E31"/>
<path d="M29.6877 8.38283L31.8568 3.23816C30.8671 2.68903 29.799 2.2676 28.7326 1.89452C25.8629 0.89113 22.8409 0.321932 19.8097 0.128551C16.0178 -0.114088 11.1176 -0.224461 7.78177 1.81425C6.95716 2.31869 6.17178 2.9116 5.51866 3.62857C4.41219 4.84359 3.85759 6.45814 4.18962 8.08911C4.77706 10.9725 8.32908 11.3273 10.7263 11.7068C11.2772 11.7944 13.2256 11.6284 13.0368 12.5205C12.9502 12.9318 12.4384 13.0814 12.0854 13.1553C12.0854 13.1553 7.25088 14.2709 2.35433 10.9242L0 16.7502C0 16.7502 2.41727 19.6628 13.5732 19.7248C17.5904 19.7476 21.9825 19.5834 25.2253 16.8524C27.0068 15.3509 28.0175 13.2712 26.9283 11.1121C25.6951 8.66652 22.6192 7.98147 20.129 7.8036C19.2214 7.73883 19.3965 7.35116 19.8982 6.87591C20.5249 6.283 21.5638 6.21094 22.3629 6.24287C24.9152 6.34503 27.3498 7.45515 29.6868 8.38192L29.6877 8.38283Z" fill="#001E31"/>
</g>
<defs>
<clipPath id="clip0_3441_4252">
<rect width="150" height="29.0674" fill="white"/>
</clipPath>
</defs>
</svg>
