<svg width="150" height="59" viewBox="0 0 150 59" fill="none" xmlns="http://www.w3.org/2000/svg">
<g clip-path="url(#clip0_3441_4079)">
<path fill-rule="evenodd" clip-rule="evenodd" d="M7.31399 0.00395792L29.8473 0.00395792C29.8473 0.00395792 31.6071 -0.299002 34.0367 4.39629L45.5717 24.8573C45.5717 24.8573 47.0526 27.5143 49.1469 27.7227H55.2215L47.9832 37.3811L44.0218 37.3835C44.0218 37.3835 40.8063 37.4166 38.3286 32.4841L26.6711 11.4617C26.6711 11.4617 25.8611 9.66362 23.3835 9.77394L0 9.77394L7.31399 0.00395792Z" fill="#001E31"/>
<path fill-rule="evenodd" clip-rule="evenodd" d="M13.0098 11.5759L24.5636 11.5759L38.2102 35.7592C38.2102 35.7592 39.3878 38.5351 42.6104 39.1697L46.6423 39.1713L40.0851 47.9351H35.8638C35.8638 47.9351 33.1151 48.0553 31.2949 44.5025L13.0098 11.5759Z" fill="#001E31"/>
<path fill-rule="evenodd" clip-rule="evenodd" d="M0 11.5195L11.1402 11.5195L31.0753 47.3153C31.0753 47.3153 31.9724 49.3651 34.1908 49.5759H38.8581L31.8668 58.9259H27.9027C27.9027 58.9259 26.0357 58.9275 24.3932 55.7135L0 11.5195Z" fill="#001E31"/>
<path fill-rule="evenodd" clip-rule="evenodd" d="M118.974 27.7227L94.6987 27.7227C94.6987 27.7227 91.9673 27.595 89.9908 30.2425L71.0335 55.5978C71.0335 55.5978 68.1777 58.9256 73.2634 58.9256H95.6627L102.855 49.3621L92.5429 49.3613C92.5429 49.3613 90.386 49.5815 91.7432 47.7693L98.9748 38.056C98.9748 38.056 99.6142 37.3839 101.813 37.3839L111.774 37.3839L118.974 27.7227Z" fill="#001E31"/>
<path fill-rule="evenodd" clip-rule="evenodd" d="M129.604 37.4243L130.173 36.6415L127.214 36.6439C127.214 36.6439 126.75 36.5454 126.097 37.4409C126.097 37.4409 124.892 38.9837 126.1 38.986L135.933 38.9868C135.933 38.9868 138.93 38.8789 137.237 41.1355L125.451 56.8922C125.451 56.8922 124.286 59.0082 120.654 59.0082H102.272C102.272 59.0082 98.7349 58.7151 100.107 56.6204L105.533 49.3607H117.113L116.304 50.5564H119.417C119.417 50.5564 119.708 50.6372 120.357 49.7346C120.357 49.7346 121.996 47.7916 120.885 47.7408H109.894C109.894 47.7408 107.364 47.3208 108.489 45.2225L120.665 29.1617C120.665 29.1617 121.508 27.6847 123.489 27.6847L143.478 27.6847C143.478 27.6847 147.353 27.5913 145.324 30.3432L140.013 37.4216L129.604 37.4243Z" fill="#001E31"/>
<path fill-rule="evenodd" clip-rule="evenodd" d="M57.8883 27.7227L50.6453 37.3835H59.5182L43.4219 58.9055H57.0452L73.1411 37.3835H82.0483L89.2689 27.7258L57.8883 27.7227Z" fill="#001E31"/>
</g>
<defs>
<clipPath id="clip0_3441_4079">
<rect width="150" height="59.0079" fill="white"/>
</clipPath>
</defs>
</svg>
