<svg width="160" height="36" viewBox="0 0 160 36" fill="none" xmlns="http://www.w3.org/2000/svg">
<g clip-path="url(#clip0_3441_4061)">
<path d="M72.3477 10.8984V13.2405H78.794V24.8115H81.3911V13.2405H87.8839V10.8984H72.3477Z" fill="#001E31"/>
<path d="M110.749 15.6753C110.749 13.0782 108.43 10.968 105.554 10.968H94.2617V13.5651V20.4057V24.9274H96.8356V20.4057H105.114L108.546 24.9274H111.676L107.873 19.9187C109.589 19.1071 110.749 17.5071 110.749 15.6753ZM96.8356 13.5419V13.31H105.554C106.969 13.31 108.152 14.3767 108.152 15.6753C108.152 16.9738 106.992 18.0405 105.554 18.0405H96.8356V13.5419Z" fill="#001E31"/>
<path d="M128.44 10.8984L128.417 10.9216H125.518V10.8984L125.495 10.9216L117.402 24.9274H120.324L126.956 13.426L133.611 24.9274H136.533L128.417 10.9216V10.8984H128.44Z" fill="#001E31"/>
<path d="M151.814 17.7854L159.698 10.9216H155.964L149.959 16.1622L143.953 10.9216H140.219L148.08 17.7854L139.918 24.9274H143.651L149.959 19.4318L156.266 24.9274H159.999L151.814 17.7854Z" fill="#001E31"/>
<path d="M29.6816 14.145V28.7537L33.1599 26.4812V11.8262L29.6816 14.145Z" fill="#001E31"/>
<path d="M5.05507 0L0 1.6L29.7043 14.1449L33.1594 11.8493L5.05507 0Z" fill="#001E31"/>
<path d="M9.48451 7.6521L4.40625 9.27529L24.1396 17.6231L27.5947 15.3275L9.48451 7.6521Z" fill="#001E31"/>
<path d="M24.1152 17.5769V32.232L27.5935 29.9827V15.3044L24.1152 17.5769Z" fill="#001E31"/>
<path d="M18.7832 21.2869V35.7101L22.2615 33.4608V19.0144L18.7832 21.2869Z" fill="#001E31"/>
<path d="M13.6583 15.5361L8.58008 17.1129L18.8062 21.3332L22.2612 19.084L13.6583 15.5361Z" fill="#001E31"/>
<path d="M38.9568 14.145V28.7537L35.4785 26.4812V11.8262L38.9568 14.145Z" fill="#001E31"/>
<path d="M63.5829 0L35.4785 11.8493L38.9336 14.1449L68.6379 1.6L63.5829 0Z" fill="#001E31"/>
<path d="M59.1763 7.6521L64.2314 9.27529L44.5212 17.6231L41.043 15.3275L59.1763 7.6521Z" fill="#001E31"/>
<path d="M44.5212 17.5769V32.232L41.043 29.9827V15.3044L44.5212 17.5769Z" fill="#001E31"/>
<path d="M49.8552 21.2869V35.7101L46.377 33.4608V19.0144L49.8552 21.2869Z" fill="#001E31"/>
<path d="M54.8175 15.5361L59.8262 17.1129L49.8088 21.3332L46.377 19.084L54.8175 15.5361Z" fill="#001E31"/>
</g>
<defs>
<clipPath id="clip0_3441_4061">
<rect width="160" height="35.7101" fill="white"/>
</clipPath>
</defs>
</svg>
