<?xml version="1.0" encoding="UTF-8"?>
<svg id="Layer_1" data-name="Layer 1" xmlns="http://www.w3.org/2000/svg" version="1.1" xmlns:xlink="http://www.w3.org/1999/xlink" viewBox="0 0 120 80">
  <defs>
    <style>
      .cls-1 {
        fill: none;
      }

      .cls-1, .cls-2, .cls-3 {
        stroke-width: 0px;
      }

      .cls-2 {
        fill: #001e31;
      }

      .cls-4 {
        clip-path: url(#clippath);
      }

      .cls-3 {
        fill: #fff;
      }
    </style>
    <clipPath id="clippath">
      <rect class="cls-1" x="27.1" y="1.7" width="65.7" height="77.8"/>
    </clipPath>
  </defs>
  <g class="cls-4">
    <g>
      <path class="cls-2" d="M60,79.5c-3.3-1.4-18.8-8.3-23.9-12.5-5.8-4.8-9-11.7-9-19.8V9.1C36.5,4.1,47.3,1.7,60,1.7s23.5,2.4,32.8,7.4v38c0,8.2-3,15.1-9,19.8-5,4.2-20.5,11.1-23.9,12.6Z"/>
      <path class="cls-3" d="M88.9,10.6c-3.9-.4-8-.6-12.2-.6-15.3,0-31.8,3.3-45.5,15.8v21.3c0,7,2.6,12.7,7.4,16.8,4.3,3.5,17.6,9.5,21.3,11.2,3.7-1.6,17-7.5,21.3-11.2,4.9-4,7.4-9.7,7.4-16.8V10.6M34.1,45v-17.4h5.6v17.6c0,1.5.4,3.9,2.9,3.9s2-.3,2.6-.7v-20.7h5.5v23.9c-2.2,1.4-4.9,2.2-8.3,2.2-5.5,0-8.2-3-8.2-8.8ZM58.9,65h-5.6V29c2-1.3,4.4-2,7.4-2,6.6,0,10.2,5,10.2,13s-3.5,13.5-9.7,13.5-2-.2-2.5-.3v11.7ZM58.9,48.8c.4.2,1.1.4,1.8.4,3.1,0,4.7-3,4.7-9s-1.3-8.7-4.6-8.7-1.5.2-2,.4v17ZM72.3,34.2c0-4.5,3.8-7.1,7.4-7.2,3,0,5.1,1.1,6.1,1.8v4.8c-1.2-1.2-3-2.2-4.9-2.2s-3.2.7-3.2,2.6c0,2,1.6,2.8,3.6,4,4.6,2.7,5.5,5.1,5.4,8.3,0,3.5-2.5,7.4-8,7.4s-4.3-.7-6.1-1.7v-5.1c1.4,1.3,3.5,2.2,5.3,2.2s3.3-1.2,3.3-3-1-2.7-3.4-4.1c-4.6-2.7-5.4-4.8-5.5-7.8ZM36.9,66.1c-5.6-4.6-8.5-11.1-8.5-19V9.8c8.8-4.7,19.5-7.1,31.7-7.1s23,2.3,31.7,7.1v37.4c0,7.9-3,14.4-8.5,19-5.1,4.2-21.3,11.3-23.2,12.1-1.9-.9-18.1-8-23.2-12.2ZM80.3,74v3.2h.6v-1.3h0c0,0,.9,1.3.9,1.3h.7s-.9-1.3-1-1.4c.4,0,.7-.4.7-.9s-.3-1-1.1-1h-1ZM81.2,74.5c.5,0,.5.3.5.4,0,.3,0,.5-.7.5h0v-1h.3ZM83.4,75.6c0,1.2-1,2.2-2.2,2.2s-2.2-1-2.2-2.2,1-2.2,2.2-2.2,2.2,1,2.2,2.2ZM81.3,73c-1.4,0-2.7,1.2-2.7,2.7s1.2,2.7,2.7,2.7,2.7-1.2,2.7-2.7c0-1.5-1.3-2.7-2.7-2.7Z"/>
    </g>
  </g>
</svg>