<svg width="22" height="22" viewBox="0 0 22 22" fill="none" xmlns="http://www.w3.org/2000/svg">
<path d="M9.71108 21.5655L0.388443 12.0056C0.247191 11.8607 0.146902 11.7038 0.087576 11.5348C0.0291918 11.3658 0 11.1848 0 10.9916C0 10.7985 0.0291918 10.6175 0.087576 10.4485C0.146902 10.2795 0.247191 10.1226 0.388443 9.97772L9.71108 0.417827C9.97004 0.152274 10.2935 0.0132219 10.6815 0.000668526C11.0704 -0.0109192 11.4061 0.128133 11.6886 0.417827C11.9711 0.683379 12.1185 1.01508 12.1307 1.41292C12.142 1.81174 12.0064 2.15599 11.7239 2.44568L4.80257 9.54318H20.5875C20.9877 9.54318 21.3234 9.68174 21.5946 9.95889C21.8649 10.237 22 10.5812 22 10.9916C22 11.402 21.8649 11.7458 21.5946 12.023C21.3234 12.3011 20.9877 12.4401 20.5875 12.4401H4.80257L11.7239 19.5376C11.9829 19.8032 12.1185 20.1411 12.1307 20.5515C12.142 20.9619 12.0064 21.2999 11.7239 21.5655C11.465 21.8552 11.1354 22 10.7352 22C10.3349 22 9.99358 21.8552 9.71108 21.5655V21.5655Z" fill="#0074FC"/>
</svg>
