<svg width="65" height="65" viewBox="0 0 65 65" fill="none" xmlns="http://www.w3.org/2000/svg">
<path d="M47.5605 12.4189C42.5401 12.4189 37.7839 12.4189 32.7635 12.4189C32.2351 12.4189 31.9708 12.4189 31.7066 13.2116C30.3854 17.4393 26.422 20.0816 22.1943 20.0816C17.9666 20.0816 14.2673 17.4393 12.9462 13.2116C12.9462 12.4189 12.6819 12.4189 12.1535 12.4189C8.9827 12.4189 5.81193 12.4189 2.64115 12.4189C0.791532 12.4189 -0.529629 10.5693 0.263065 8.98387C0.791528 7.92694 1.58423 7.66271 2.64115 7.66271C5.81193 7.66271 8.9827 7.66271 12.1535 7.66271C12.6819 7.66271 12.9462 7.39848 13.2104 6.87001C14.5316 2.90654 18.2308 0 22.4585 0C26.6862 0 30.3854 2.64231 31.7066 6.87001C31.9708 7.39848 32.2351 7.66271 32.7635 7.66271C42.5401 7.66271 52.0524 7.66271 61.5647 7.66271C61.829 7.66271 62.3574 7.66271 62.6217 7.66271C63.9428 7.92694 64.7355 8.98386 64.4713 10.305C64.4713 11.6262 63.4144 12.4189 62.0932 12.4189C58.6582 12.4189 55.2232 12.4189 51.7882 12.4189C50.467 12.4189 49.1459 12.4189 47.5605 12.4189ZM22.4585 14.797C25.1008 14.797 27.4789 12.4189 27.4789 9.77656C27.4789 7.13425 25.1008 4.75616 22.4585 4.75616C19.8162 4.75616 17.4381 6.87001 17.4381 9.77656C17.4381 12.6831 19.8162 14.797 22.4585 14.797Z" fill="#001E31"/>
<path d="M17.4384 34.6143C12.6822 34.6143 7.66181 34.6143 2.90564 34.6143C1.05602 34.6143 -0.265133 33.0289 0.527561 31.1792C0.791793 30.1223 1.58449 29.5939 2.64142 29.5939C2.90565 29.5939 3.16988 29.5939 3.43411 29.5939C12.9464 29.5939 22.723 29.5939 32.2353 29.5939C32.7638 29.5939 33.028 29.3296 33.2922 28.8012C34.6134 24.8377 38.3126 21.9312 42.5403 21.9312C46.768 21.9312 50.4673 24.5735 51.7884 28.5369C52.0527 29.0654 52.3169 29.3296 52.8454 29.3296C56.0161 29.3296 58.9227 29.3296 62.0935 29.3296C63.6789 29.3296 65 30.3866 65 31.7077C65 33.2931 63.9431 34.35 62.0935 34.35C58.9227 34.35 56.0161 34.35 52.8454 34.35C52.3169 34.35 52.0527 34.6143 51.7884 34.8785C50.4673 39.1062 46.7681 41.7485 42.2761 41.7485C38.0484 41.7485 34.3492 39.1062 32.7638 34.8785C32.4995 34.35 32.4996 34.35 31.9711 34.35C27.2149 34.6143 22.4588 34.6143 17.4384 34.6143ZM47.5607 32.2362C47.5607 29.5939 45.1827 27.2158 42.5403 27.2158C39.898 27.2158 37.52 29.3296 37.52 32.2362C37.52 34.8785 39.6338 37.2566 42.5403 37.2566C45.1827 37.2566 47.5607 34.8785 47.5607 32.2362Z" fill="#001E31"/>
<path d="M47.5606 57.074C42.8044 57.074 37.784 57.074 33.0279 57.074C32.4994 57.074 32.2352 57.3383 31.971 57.8667C30.6498 62.0944 26.9506 64.7367 22.7229 64.7367C18.4952 64.7367 14.7959 62.0944 13.2105 57.8667C12.9463 57.3383 12.6821 57.3383 12.1536 57.3383C8.98282 57.3383 5.81205 57.3383 2.64127 57.3383C0.527422 57.3383 -0.529508 55.2244 0.263186 53.639C0.791649 52.8463 1.58435 52.3179 2.64127 52.3179C5.81205 52.3179 8.98282 52.3179 12.1536 52.3179C12.6821 52.3179 12.9463 52.0536 13.2105 51.5252C14.5317 47.5617 18.2309 44.6552 22.4586 44.6552C26.6863 44.6552 30.3856 47.2975 31.7067 51.5252C32.2352 52.0536 32.4994 52.0536 33.0279 52.0536C42.8044 52.0536 52.3168 52.0536 61.8291 52.0536C62.0933 52.0536 62.6218 52.0536 62.886 52.0536C64.2072 52.3179 64.9999 53.3748 64.7356 54.6959C64.7356 56.0171 63.6787 56.8098 62.3576 57.074C62.0933 57.074 61.8291 57.074 61.5649 57.074C57.0729 57.074 52.3168 57.074 47.5606 57.074ZM27.479 54.6959C27.479 52.0536 25.1009 49.6755 22.4586 49.6755C19.8163 49.6755 17.4382 51.7894 17.4382 54.6959C17.4382 57.3383 19.5521 59.7163 22.4586 59.7163C25.3652 59.7163 27.479 57.3383 27.479 54.6959Z" fill="#001E31"/>
</svg>
