<svg width="22" height="22" viewBox="0 0 22 22" fill="none" xmlns="http://www.w3.org/2000/svg">
<g clip-path="url(#clip0_677_683)">
<path d="M5.32785 9.48514C5.42095 9.48514 5.52479 9.49946 5.63938 9.52811C5.75396 9.55675 5.86854 9.59614 5.98313 9.64627C6.09771 9.6964 6.21229 9.74295 6.32688 9.78592C6.44146 9.82889 6.5453 9.87186 6.6384 9.91483L6.46652 9.93631C6.40923 9.94347 6.34836 9.94705 6.28391 9.94705C6.16216 9.94705 6.05116 9.92915 5.9509 9.89334C5.85064 9.85754 5.75754 9.81099 5.6716 9.75369C5.58566 9.6964 5.49973 9.65343 5.41379 9.62479C5.32785 9.59614 5.24908 9.57466 5.17746 9.56034C5.10585 9.56034 5.04139 9.57466 4.9841 9.6033C4.92681 9.63195 4.86952 9.66418 4.81223 9.69998C4.81223 9.67134 4.78716 9.65701 4.73703 9.65701C4.78716 9.60688 4.88026 9.5675 5.01633 9.53885C5.1524 9.5102 5.25624 9.4923 5.32785 9.48514ZM6.77805 9.96854C7.07167 9.96854 7.34022 10.0187 7.58371 10.1189C7.48345 10.1547 7.38319 10.1834 7.28293 10.2049C7.18267 10.2264 7.07883 10.2407 6.97141 10.2478C6.82818 10.2478 6.69927 10.2335 6.58469 10.2049C6.62049 10.1476 6.6563 10.1118 6.69211 10.0974C6.72792 10.0831 6.75656 10.0402 6.77805 9.96854ZM10.9997 -0.000212841C12.0095 -0.000212841 12.9799 0.132274 13.9109 0.397248C14.8418 0.662222 15.7155 1.03104 16.532 1.50369C17.3484 1.97635 18.0932 2.55285 18.7663 3.23319C19.4395 3.91352 20.0124 4.65474 20.4851 5.45682C20.9577 6.2589 21.3301 7.1326 21.6023 8.07791C21.8744 9.02323 22.0069 9.99718 21.9997 10.9998C21.9997 12.0096 21.8672 12.9799 21.6023 13.9109C21.3373 14.8419 20.9685 15.7156 20.4958 16.532C20.0232 17.3484 19.4467 18.0932 18.7663 18.7664C18.086 19.4396 17.3448 20.0125 16.5427 20.4851C15.7406 20.9578 14.8669 21.3302 13.9216 21.6023C12.9763 21.8745 12.0023 22.007 10.9997 21.9998C9.98996 21.9998 9.01958 21.8673 8.08859 21.6023C7.1576 21.3374 6.28391 20.9685 5.4675 20.4959C4.65109 20.0232 3.9063 19.4467 3.23312 18.7664C2.55995 18.0861 1.98703 17.3448 1.51437 16.5428C1.04172 15.7407 0.669323 14.867 0.397187 13.9217C0.125052 12.9764 -0.00743533 12.0024 -0.000273876 10.9998C-0.000273876 9.99002 0.132213 9.01964 0.397187 8.08865C0.662161 7.15767 1.03098 6.28397 1.50363 5.46756C1.97629 4.65115 2.55279 3.90636 3.23312 3.23319C3.91346 2.56001 4.65467 1.98709 5.45676 1.51444C6.25884 1.04178 7.13254 0.669384 8.07785 0.397248C9.02316 0.125113 9.99712 -0.0073743 10.9997 -0.000212841ZM19.1853 5.9617C19.085 5.80415 18.9848 5.65376 18.8845 5.51053C18.7842 5.3673 18.6804 5.22049 18.573 5.0701C18.5586 5.13455 18.5407 5.1811 18.5193 5.20975C18.4978 5.23839 18.4835 5.30285 18.4763 5.40311C18.4763 5.46756 18.5014 5.52843 18.5515 5.58573C18.6016 5.64302 18.6661 5.70031 18.7448 5.7576C18.8236 5.81489 18.9024 5.85786 18.9812 5.88651C19.0599 5.91515 19.128 5.94022 19.1853 5.9617ZM18.4441 4.90897C18.4441 4.96626 18.4333 5.00565 18.4118 5.02713H18.4763C18.5049 5.02713 18.5264 5.03071 18.5407 5.03787L18.4441 4.90897ZM10.9997 20.6248C11.8161 20.6248 12.6146 20.5209 13.3952 20.3133C14.1758 20.1056 14.9135 19.812 15.6081 19.4324C16.3028 19.0528 16.9473 18.5874 17.5417 18.0359C18.1361 17.4845 18.6553 16.8686 19.0993 16.1883C19.0062 15.9734 18.9167 15.755 18.8308 15.533C18.7448 15.311 18.7019 15.0818 18.7019 14.8455C18.7019 14.5877 18.7126 14.38 18.7341 14.2224C18.7556 14.0649 18.7807 13.9252 18.8093 13.8035C18.8379 13.6818 18.8523 13.5779 18.8523 13.492C18.8523 13.406 18.8415 13.295 18.82 13.159C18.7986 13.0229 18.7377 12.8761 18.6374 12.7185C18.5372 12.561 18.4047 12.339 18.24 12.0525C18.2471 12.0024 18.2579 11.9344 18.2722 11.8484C18.2865 11.7625 18.3008 11.673 18.3152 11.5799C18.3295 11.4868 18.3331 11.4008 18.3259 11.3221C18.3187 11.2433 18.3008 11.1752 18.2722 11.118C18.086 11.0965 17.8926 11.0571 17.6921 10.9998C17.4916 10.9425 17.3126 10.8566 17.155 10.742L17.2195 10.6883C17.1264 10.7097 17.0333 10.7384 16.9402 10.7742C16.8471 10.81 16.7575 10.8494 16.6716 10.8924C16.5857 10.9353 16.4926 10.964 16.3923 10.9783C16.292 10.9926 16.1954 11.0069 16.1023 11.0213L15.9304 10.9998L15.9626 10.9246C15.8624 10.9532 15.7549 10.989 15.6404 11.032C15.5258 11.075 15.4148 11.0965 15.3073 11.0965C15.2357 11.0965 15.1319 11.0714 14.9958 11.0213C14.8598 10.9711 14.7237 10.9103 14.5876 10.8387C14.4516 10.767 14.3298 10.6883 14.2224 10.6023C14.115 10.5164 14.0613 10.434 14.0613 10.3553L14.0827 10.323C14.0469 10.2801 14.0004 10.2407 13.9431 10.2049C13.8858 10.1691 13.8321 10.1333 13.782 10.0974C13.7318 10.0616 13.6853 10.0222 13.6423 9.97928C13.5993 9.93631 13.5814 9.88618 13.5886 9.82889L13.7068 9.73221L13.4597 9.69998L13.3738 9.37772C13.3881 9.41352 13.4203 9.42785 13.4704 9.42069C13.5206 9.41352 13.5599 9.3992 13.5886 9.37772L13.2019 9.17362L13.4704 8.48612C13.3702 8.11372 13.3451 7.82726 13.3952 7.62674C13.4454 7.42622 13.542 7.26151 13.6853 7.1326C13.8285 7.00369 13.9861 6.87479 14.1579 6.74588C14.3298 6.61698 14.5053 6.44152 14.6843 6.21951L14.6521 6.09061L15.3611 5.23123L15.5222 5.20975C15.7227 5.20975 15.9483 5.20259 16.1989 5.18826C16.4496 5.17394 16.7038 5.14888 16.9616 5.11307C17.2195 5.07726 17.4737 5.04145 17.7243 5.00565C17.975 4.96984 18.2042 4.92329 18.4118 4.866C18.1827 4.59386 17.9428 4.33605 17.6921 4.09256C17.4415 3.84907 17.1729 3.61632 16.8864 3.39432C16.8077 3.42296 16.711 3.46235 16.5964 3.51248C16.4818 3.56261 16.3672 3.62707 16.2527 3.70584C16.1381 3.78462 16.0486 3.87056 15.9841 3.96365C15.9196 4.05675 15.8803 4.15343 15.8659 4.25369L15.9304 4.4578C15.8015 4.66548 15.6583 4.79438 15.5007 4.84451C15.3432 4.89464 15.182 4.92329 15.0173 4.93045C14.8526 4.93761 14.6807 4.93761 14.5017 4.93045C14.3226 4.92329 14.1508 4.95552 13.9861 5.02713L13.8142 4.6619L13.9753 4.03885L13.7927 3.7703L15.6511 3.19022C15.5723 2.9897 15.4434 2.83931 15.2644 2.73905C15.0853 2.63878 14.8884 2.58865 14.6736 2.58865V2.48123L15.2751 2.38455C14.6091 2.05513 13.918 1.80447 13.2019 1.6326C12.4857 1.46072 11.7517 1.37479 10.9997 1.37479C10.3767 1.37479 9.76079 1.43566 9.15207 1.5574C8.54335 1.67915 7.95611 1.8546 7.39035 2.08377C6.8246 2.31294 6.27674 2.5994 5.7468 2.94315C5.21685 3.2869 4.73345 3.67362 4.2966 4.1033C4.4828 4.1033 4.62603 4.14985 4.72629 4.24295C4.82655 4.33605 4.91965 4.43989 5.00559 4.55447C5.09152 4.66906 5.18104 4.7729 5.27414 4.866C5.36724 4.9591 5.49257 5.00923 5.65012 5.01639L5.82199 4.88748L5.80051 4.65115L6.155 4.14627L5.8757 3.35135C5.91151 3.32987 5.96522 3.29406 6.03684 3.24393C6.10845 3.1938 6.16932 3.16873 6.21945 3.16873C6.4343 3.16873 6.59901 3.17947 6.71359 3.20096C6.82818 3.22244 6.92844 3.26183 7.01438 3.31912C7.10031 3.37642 7.17551 3.45877 7.23996 3.56619C7.30441 3.67362 7.40467 3.80968 7.54074 3.9744L7.92746 3.67362C7.99908 3.70226 8.11366 3.74881 8.27121 3.81326C8.42876 3.87772 8.5899 3.95649 8.75461 4.04959C8.91932 4.14269 9.05897 4.23937 9.17356 4.33963C9.28814 4.43989 9.34901 4.53299 9.35617 4.61893C9.35617 4.72635 9.31678 4.81229 9.23801 4.87674C9.15923 4.94119 9.05539 4.9949 8.92649 5.03787C8.79758 5.08084 8.66509 5.11307 8.52902 5.13455C8.39296 5.15604 8.25689 5.18468 8.12082 5.22049C7.98475 5.2563 7.88091 5.29211 7.8093 5.32791C7.73768 5.36372 7.69471 5.42459 7.68039 5.51053L8.30344 5.71463C8.16021 5.83638 8.00624 5.94738 7.84152 6.04764C7.67681 6.1479 7.50494 6.241 7.3259 6.32694L7.36887 6.50955L6.38059 6.89627V7.19705L6.30539 7.22928L6.3591 6.8533L6.31613 6.84256C6.266 6.84256 6.23736 6.8533 6.2302 6.87479C6.22303 6.89627 6.21945 6.92134 6.21945 6.94998C6.21945 6.97863 6.22661 7.00727 6.24094 7.03592C6.25526 7.06457 6.25884 7.08605 6.25168 7.10037L6.11203 7.02518L6.13352 7.06815C6.13352 7.08963 6.14426 7.12186 6.16574 7.16483C6.18723 7.2078 6.21587 7.24718 6.25168 7.28299C6.28749 7.3188 6.31613 7.35461 6.33762 7.39041C6.3591 7.42622 6.37342 7.44412 6.38059 7.44412C6.38059 7.46561 6.36626 7.48709 6.33762 7.50858C6.30897 7.53006 6.27316 7.54438 6.2302 7.55155C6.18723 7.55871 6.15858 7.56945 6.14426 7.58377C6.12993 7.59809 6.12993 7.60168 6.14426 7.59451C6.24452 7.59451 6.266 7.60168 6.20871 7.616C6.15142 7.63032 6.0619 7.66613 5.94016 7.72342C5.81841 7.78071 5.70741 7.86307 5.60715 7.97049C5.50689 8.07791 5.4496 8.23547 5.43527 8.44315C5.43527 8.56489 5.43885 8.68306 5.44602 8.79764C5.45318 8.91222 5.4496 9.03039 5.43527 9.15213C5.33501 8.88 5.18462 8.67231 4.9841 8.52909C4.78358 8.38586 4.54009 8.31424 4.25363 8.31424L3.79172 8.35721L4.0173 8.5076C3.89556 8.49328 3.77023 8.47895 3.64133 8.46463C3.51242 8.45031 3.37993 8.44673 3.24387 8.45389C3.1078 8.46105 2.98605 8.4897 2.87863 8.53983C2.77121 8.58996 2.66379 8.66515 2.55637 8.76541L2.49191 9.24881C2.49191 9.47798 2.54204 9.66418 2.6423 9.80741C2.74256 9.95063 2.91802 10.0258 3.16867 10.033C3.38352 10.033 3.59478 10.0008 3.80246 9.93631C4.01014 9.87186 4.21424 9.79666 4.41477 9.71073C4.35031 9.86828 4.2787 10.0187 4.19992 10.1619C4.12115 10.3051 4.06385 10.4627 4.02805 10.6346L4.1677 10.699C4.33957 10.5844 4.49712 10.5665 4.64035 10.6453C4.78358 10.7241 4.92323 10.8387 5.0593 10.989C5.19536 11.1394 5.33501 11.2934 5.47824 11.451C5.62147 11.6085 5.77544 11.7231 5.94016 11.7947L5.57492 11.9881L4.71555 11.5047C4.72271 11.519 4.72987 11.5512 4.73703 11.6014C4.74419 11.6515 4.74061 11.6622 4.72629 11.6336L4.33957 10.9783C4.1104 10.9711 3.86691 10.9353 3.6091 10.8709C3.35129 10.8064 3.0899 10.7205 2.82492 10.6131C2.55995 10.5056 2.31288 10.3875 2.08371 10.2586C1.85454 10.1297 1.64328 9.9936 1.44992 9.85037L1.37473 10.9998C1.37473 11.8735 1.49289 12.7257 1.72922 13.5564C1.96555 14.3872 2.29855 15.1678 2.72824 15.8982C3.15793 16.6287 3.6843 17.2947 4.30734 17.8963C4.93039 18.4978 5.62147 19.0099 6.38059 19.4324C6.34478 19.282 6.3412 19.1316 6.36984 18.9812C6.39849 18.8308 6.4343 18.6805 6.47727 18.5301C6.52023 18.3797 6.56678 18.2293 6.61691 18.0789C6.66704 17.9285 6.69211 17.7745 6.69211 17.617C6.69211 17.3878 6.6563 17.1479 6.58469 16.8972C6.51307 16.6466 6.42714 16.3924 6.32688 16.1346C6.22661 15.8767 6.11561 15.6225 5.99387 15.3719C5.87212 15.1212 5.77544 14.8849 5.70383 14.6629C5.63221 14.4409 5.57492 14.2332 5.53195 14.0398C5.48898 13.8465 5.51047 13.6782 5.59641 13.5349L5.43527 13.4597C5.47824 13.3595 5.53553 13.2628 5.60715 13.1697C5.67876 13.0766 5.75396 12.9835 5.83273 12.8904C5.91151 12.7973 5.97238 12.6971 6.01535 12.5896C6.05832 12.4822 6.08339 12.3748 6.09055 12.2674C6.09055 12.1958 6.07622 12.1206 6.04758 12.0418C6.01893 11.963 5.99387 11.8878 5.97238 11.8162L6.19797 11.8699C6.31971 11.5906 6.48443 11.4008 6.69211 11.3006C6.89979 11.2003 7.16118 11.1466 7.47629 11.1394C7.5121 11.1394 7.58729 11.1538 7.70188 11.1824C7.81646 11.2111 7.9382 11.2504 8.06711 11.3006C8.19602 11.3507 8.31776 11.3901 8.43234 11.4187C8.54693 11.4474 8.63286 11.476 8.69016 11.5047C8.69016 11.5548 8.7188 11.587 8.77609 11.6014C8.83339 11.6157 8.86561 11.6407 8.87277 11.6765L8.85129 11.7625C8.87277 11.7696 8.9229 11.7947 9.00168 11.8377C9.08046 11.8806 9.16639 11.9344 9.25949 11.9988C9.35259 12.0633 9.43495 12.1206 9.50656 12.1707C9.57818 12.2208 9.62831 12.2602 9.65695 12.2889C9.78586 12.2889 9.96132 12.3318 10.1833 12.4178C10.4053 12.5037 10.6488 12.6111 10.9138 12.74C11.1788 12.8689 11.4402 13.0229 11.698 13.2019C11.9558 13.381 12.1993 13.56 12.4284 13.739C12.6576 13.9181 12.8331 14.0971 12.9548 14.2762C13.0766 14.4552 13.1482 14.6127 13.1696 14.7488L12.8044 15.1355C12.8331 15.5008 12.808 15.7801 12.7292 15.9734C12.6504 16.1668 12.5287 16.3279 12.364 16.4568C12.1993 16.5857 12.0095 16.6931 11.7946 16.7791C11.5798 16.865 11.3471 16.9868 11.0964 17.1443C11.0964 17.2875 11.0606 17.4415 10.989 17.6062C10.9174 17.7709 10.8279 17.9285 10.7204 18.0789C10.613 18.2293 10.4841 18.3546 10.3337 18.4549C10.1833 18.5551 10.0329 18.6053 9.88254 18.6053L9.43137 18.2615C9.44569 18.2758 9.44569 18.3009 9.43137 18.3367C9.41704 18.3725 9.39914 18.3797 9.37766 18.3582C9.44927 18.4943 9.46717 18.6518 9.43137 18.8308C9.39556 19.0099 9.33469 19.1925 9.24875 19.3787C9.16281 19.5649 9.06613 19.7403 8.95871 19.9051C8.85129 20.0698 8.75461 20.2094 8.66867 20.324C9.05539 20.4243 9.44211 20.4995 9.82883 20.5496C10.2155 20.5997 10.6058 20.6248 10.9997 20.6248Z" fill="#393838"/>
</g>
<defs>
<clipPath id="clip0_677_683">
<rect width="22" height="22" fill="white"/>
</clipPath>
</defs>
</svg>
