<svg width="53" height="54" viewBox="0 0 53 54" fill="none" xmlns="http://www.w3.org/2000/svg">
<path fill-rule="evenodd" clip-rule="evenodd" d="M2.91425 14.8934C4.0169 12.4713 5.57572 10.3567 7.40476 8.44377C11.5423 4.11599 16.55 1.34442 22.4787 0.398806C30.7769 -0.923891 38.2035 1.02825 44.6219 6.54529C45.0272 6.89337 45.1274 7.09786 44.6872 7.52861C42.4224 9.74326 40.1924 11.9942 37.9493 14.232C37.7197 14.4612 37.5643 14.7411 37.1561 14.3683C31.5062 9.19939 22.2826 9.25885 16.2783 14.8339C14.2168 16.7483 12.751 19.0413 11.7921 21.6707C11.6527 21.5794 11.5045 21.4982 11.3723 21.3966C8.551 19.2284 5.73407 17.0616 2.91425 14.8934Z" fill="#D7282A"/>
<path fill-rule="evenodd" clip-rule="evenodd" d="M11.7238 32.2249C12.5345 34.2785 13.5398 36.2205 15.0362 37.8695C18.8395 42.0639 23.5552 43.8724 29.2036 43.2865C31.8287 43.0138 34.22 42.1262 36.4544 40.7629C36.6694 40.9544 36.8728 41.1589 37.0994 41.3358C39.7144 43.3735 42.3337 45.4083 44.9502 47.4431C42.0635 50.1799 38.6553 52.0015 34.8214 52.9689C25.7823 55.2502 17.4507 53.8086 10.0517 47.9798C6.99362 45.5693 4.58638 42.5932 2.89099 39.0704C5.83721 36.789 8.78052 34.5077 11.7238 32.2249Z" fill="#45AC43"/>
<path fill-rule="evenodd" clip-rule="evenodd" d="M44.9516 47.4445C42.3337 45.4097 39.7159 43.3749 37.1009 41.3372C36.8742 41.1603 36.6708 40.9558 36.4558 40.7643C38.2282 39.4141 39.7071 37.8173 40.6776 35.7883C41.0655 34.979 41.3371 34.132 41.5943 33.2763C41.7715 32.686 41.7163 32.4569 40.9856 32.4627C36.6287 32.4989 32.2719 32.4815 27.915 32.4815C26.9925 32.4815 26.991 32.4815 26.991 31.5286C26.991 28.5801 27.0056 25.6331 26.978 22.6846C26.9721 22.116 27.0724 21.897 27.7145 21.8999C35.7498 21.9231 43.7865 21.9188 51.8218 21.9072C52.2562 21.9072 52.5278 21.9391 52.6034 22.4656C53.6029 29.4822 52.8024 36.1856 49.1225 42.3785C47.9981 44.2727 46.6456 46.0029 44.9516 47.4445Z" fill="#5D7FBE"/>
<path fill-rule="evenodd" clip-rule="evenodd" d="M11.7238 32.2247C8.78052 34.5061 5.83576 36.7874 2.89244 39.0703C1.4542 36.4017 0.626119 33.5358 0.238229 30.5496C-0.431499 25.3763 0.305056 20.3987 2.5031 15.6533C2.62368 15.3922 2.77622 15.1471 2.91423 14.8933C5.73261 17.0601 8.55098 19.2283 11.3708 21.3937C11.503 21.4952 11.6497 21.5764 11.7907 21.6678C10.6096 25.1805 10.6691 28.7004 11.7238 32.2247Z" fill="#F4C300"/>
</svg>
