<svg width="80" height="75" viewBox="0 0 80 75" fill="none" xmlns="http://www.w3.org/2000/svg">
<g clip-path="url(#clip0_305_8049)">
<path d="M15.222 47.3022H8.7697C3.9835 47.3022 0.103516 51.1822 0.103516 55.9684V65.8177C0.103516 70.6039 3.9835 74.4839 8.7697 74.4839H15.222C20.0082 74.4839 23.8882 70.6039 23.8882 65.8177V55.9684C23.8882 51.1822 20.0082 47.3022 15.222 47.3022Z" fill="url(#paint0_linear_305_8049)"/>
<path d="M43.2796 24.0546H36.8273C32.0411 24.0546 28.1611 27.9346 28.1611 32.7208V65.8177C28.1611 70.6039 32.0411 74.4839 36.8273 74.4839H43.2796C48.0658 74.4839 51.9458 70.6039 51.9458 65.8177V32.7208C51.9458 27.9346 48.0658 24.0546 43.2796 24.0546Z" fill="url(#paint1_linear_305_8049)"/>
<path d="M71.3338 8.03442H64.8815C60.0953 8.03442 56.2153 11.9144 56.2153 16.7006V65.8176C56.2153 70.6038 60.0953 74.4838 64.8815 74.4838H71.3338C76.12 74.4838 80 70.6038 80 65.8176V16.7006C80 11.9144 76.12 8.03442 71.3338 8.03442Z" fill="url(#paint2_linear_305_8049)"/>
<path d="M32.7553 32.7553C40.2249 25.2858 40.2249 13.1752 32.7553 5.70559C25.2857 -1.76399 13.1751 -1.76399 5.70554 5.70559C-1.76404 13.1752 -1.76404 25.2858 5.70554 32.7553C13.1751 40.2249 25.2857 40.2249 32.7553 32.7553Z" fill="url(#paint3_linear_305_8049)"/>
<path d="M19.2304 38.4609C8.62599 38.4609 0 29.8349 0 19.2304C0 8.62599 8.62599 0 19.2304 0C29.8349 0 38.4609 8.62599 38.4609 19.2304C38.4609 29.8349 29.8349 38.4609 19.2304 38.4609ZM19.2304 0.203877C8.74085 0.203877 0.203877 8.74085 0.203877 19.2304C0.203877 29.72 8.73798 38.257 19.2304 38.257C29.7229 38.257 38.257 29.7229 38.257 19.2304C38.257 8.73798 29.7229 0.203877 19.2304 0.203877Z" fill="url(#paint4_linear_305_8049)"/>
<path d="M26.1336 23.8219C25.4071 23.8219 24.8185 23.2333 24.8185 22.5068V13.1457H16.0661C15.3396 13.1457 14.751 12.557 14.751 11.8305C14.751 11.104 15.3396 10.5154 16.0661 10.5154H26.1365C26.863 10.5154 27.4516 11.104 27.4516 11.8305V22.5096C27.4516 23.2361 26.863 23.8248 26.1365 23.8248L26.1336 23.8219Z" fill="white"/>
<path d="M12.3276 26.952C11.9916 26.952 11.6528 26.8227 11.3972 26.5672C10.8832 26.0532 10.8832 25.2204 11.3972 24.7064L25.2034 10.9003C25.7174 10.3863 26.5501 10.3863 27.0641 10.9003C27.5781 11.4143 27.5781 12.247 27.0641 12.761L13.2579 26.5672C12.9995 26.8256 12.6635 26.952 12.3276 26.952Z" fill="white"/>
</g>
<defs>
<linearGradient id="paint0_linear_305_8049" x1="-5.78306" y1="74.3317" x2="84.9363" y2="5.75452" gradientUnits="userSpaceOnUse">
<stop stop-color="#18B7F1"/>
<stop offset="1" stop-color="#185EF1"/>
</linearGradient>
<linearGradient id="paint1_linear_305_8049" x1="-1.17411" y1="80.4307" x2="89.5481" y2="11.8536" gradientUnits="userSpaceOnUse">
<stop stop-color="#18B7F1"/>
<stop offset="1" stop-color="#185EF1"/>
</linearGradient>
<linearGradient id="paint2_linear_305_8049" x1="5.17728" y1="88.8298" x2="95.8966" y2="20.2527" gradientUnits="userSpaceOnUse">
<stop stop-color="#18B7F1"/>
<stop offset="1" stop-color="#185EF1"/>
</linearGradient>
<linearGradient id="paint3_linear_305_8049" x1="0.103329" y1="19.2304" x2="38.3603" y2="19.2304" gradientUnits="userSpaceOnUse">
<stop stop-color="#D3FFFF"/>
<stop offset="1" stop-color="#B0DBDB"/>
</linearGradient>
<linearGradient id="paint4_linear_305_8049" x1="0" y1="19.2304" x2="38.4609" y2="19.2304" gradientUnits="userSpaceOnUse">
<stop stop-color="#C5FFFF"/>
<stop offset="1" stop-color="#D5FFFF"/>
</linearGradient>
<clipPath id="clip0_305_8049">
<rect width="80" height="74.4838" fill="white"/>
</clipPath>
</defs>
</svg>
