<svg width="80" height="85" viewBox="0 0 80 85" fill="none" xmlns="http://www.w3.org/2000/svg">
<g clip-path="url(#clip0_269_7476)">
<path d="M24.3461 80.1074C25.0729 77.028 23.1658 73.9425 20.0864 73.2157C17.007 72.4889 13.9215 74.396 13.1947 77.4754C12.4679 80.5548 14.375 83.6403 17.4544 84.3671C20.5338 85.0939 23.6193 83.1868 24.3461 80.1074Z" fill="url(#paint0_linear_269_7476)"/>
<path d="M53.8824 82.8458C56.1197 80.6086 56.1197 76.9812 53.8824 74.7439C51.6451 72.5066 48.0177 72.5066 45.7805 74.7439C43.5432 76.9812 43.5432 80.6086 45.7805 82.8458C48.0177 85.0831 51.6451 85.0831 53.8824 82.8458Z" fill="url(#paint1_linear_269_7476)"/>
<path d="M79.9999 3.05543V5.91213C79.9999 7.59821 78.466 9.33086 76.7768 9.33086L70.8337 9.16318L63.7323 39.7081L58.4474 65.7444C58.0251 67.8404 56.1776 69.3464 54.0412 69.3464H15.2119C13.0725 69.3464 11.228 67.8404 10.8026 65.7444L4.285 33.6159C3.71987 30.8275 5.84687 28.2223 8.69425 28.2223H14.7399C14.9945 38.5965 23.4808 46.9275 33.917 46.9275C44.3533 46.9275 52.8365 38.5934 53.0911 28.2223H56.544L61.2575 4.64835C61.7978 1.94381 64.1732 -0.00309753 66.9336 -0.00309753H76.9445C78.6306 -0.00309753 79.9999 1.36315 79.9999 3.05233V3.05543Z" fill="url(#paint2_linear_269_7476)"/>
<path opacity="0.9" d="M14.6841 55.3579C18.023 55.3579 20.7297 52.6511 20.7297 49.3122C20.7297 45.9733 18.023 43.2666 14.6841 43.2666C11.3452 43.2666 8.63843 45.9733 8.63843 49.3122C8.63843 52.6511 11.3452 55.3579 14.6841 55.3579Z" fill="url(#paint3_linear_269_7476)"/>
<path opacity="0.9" d="M47.4647 55.3579C50.8036 55.3579 53.5104 52.6511 53.5104 49.3122C53.5104 45.9733 50.8036 43.2666 47.4647 43.2666C44.1258 43.2666 41.4191 45.9733 41.4191 49.3122C41.4191 52.6511 44.1258 55.3579 47.4647 55.3579Z" fill="url(#paint4_linear_269_7476)"/>
<path d="M47.4801 41.3119C54.9704 33.8215 54.9704 21.6772 47.4801 14.1869C39.9897 6.69654 27.8454 6.69654 20.3551 14.1869C12.8647 21.6772 12.8647 33.8215 20.3551 41.3119C27.8454 48.8022 39.9897 48.8022 47.4801 41.3119Z" fill="url(#paint5_linear_269_7476)"/>
<path d="M33.9171 47.0238C23.2883 47.0238 14.6437 38.376 14.6437 27.7503C14.6437 17.1247 23.2914 8.47694 33.9171 8.47694C44.5428 8.47694 53.1905 17.1247 53.1905 27.7503C53.1905 38.376 44.5428 47.0238 33.9171 47.0238ZM33.9171 8.66015C23.3908 8.66015 14.83 17.224 14.83 27.7472C14.83 38.2705 23.3939 46.8343 33.9171 46.8343C44.4403 46.8343 53.0042 38.2705 53.0042 27.7472C53.0042 17.224 44.4403 8.66015 33.9171 8.66015Z" fill="url(#paint6_linear_269_7476)"/>
<path d="M33.206 35.5442C32.8085 35.5442 32.4297 35.3734 32.1627 35.0753L24.3316 26.2941C23.8161 25.7165 23.8689 24.8316 24.4434 24.3192C25.0209 23.8038 25.9059 23.8565 26.4182 24.431L33.0849 31.9081L40.5185 21.5091C40.9688 20.8819 41.8413 20.7359 42.4685 21.1831C43.0958 21.6333 43.2417 22.5058 42.7946 23.1331L34.3456 34.9542C34.0971 35.2989 33.7059 35.5131 33.2836 35.538C33.2588 35.538 33.2339 35.538 33.2091 35.538L33.206 35.5442Z" fill="white"/>
</g>
<defs>
<linearGradient id="paint0_linear_269_7476" x1="81.0008" y1="59.3424" x2="-36.543" y2="96.0758" gradientUnits="userSpaceOnUse">
<stop stop-color="#18B7F1"/>
<stop offset="1" stop-color="#185EF1"/>
</linearGradient>
<linearGradient id="paint1_linear_269_7476" x1="83.7709" y1="68.188" x2="-33.776" y2="104.921" gradientUnits="userSpaceOnUse">
<stop stop-color="#18B7F1"/>
<stop offset="1" stop-color="#185EF1"/>
</linearGradient>
<linearGradient id="paint2_linear_269_7476" x1="4.19495" y1="34.6716" x2="79.9999" y2="34.6716" gradientUnits="userSpaceOnUse">
<stop stop-color="#18B7F1"/>
<stop offset="1" stop-color="#185EF1"/>
</linearGradient>
<linearGradient id="paint3_linear_269_7476" x1="8.63843" y1="49.3122" x2="20.7297" y2="49.3122" gradientUnits="userSpaceOnUse">
<stop stop-color="#F6FCFF"/>
<stop offset="1" stop-color="white"/>
</linearGradient>
<linearGradient id="paint4_linear_269_7476" x1="41.4191" y1="-1.57732e-06" x2="53.5104" y2="-1.57732e-06" gradientUnits="userSpaceOnUse">
<stop stop-color="#F6FCFF"/>
<stop offset="1" stop-color="white"/>
</linearGradient>
<linearGradient id="paint5_linear_269_7476" x1="14.7361" y1="27.7512" x2="53.0966" y2="27.7512" gradientUnits="userSpaceOnUse">
<stop stop-color="#D3FFFF"/>
<stop offset="1" stop-color="#B0DBDB"/>
</linearGradient>
<linearGradient id="paint6_linear_269_7476" x1="14.6437" y1="27.7503" x2="53.1905" y2="27.7503" gradientUnits="userSpaceOnUse">
<stop stop-color="#C5FFFF"/>
<stop offset="1" stop-color="#B3D6D6"/>
</linearGradient>
<clipPath id="clip0_269_7476">
<rect width="80" height="84.521" fill="white"/>
</clipPath>
</defs>
</svg>
