<svg width="82" height="68" viewBox="0 0 82 68" fill="none" xmlns="http://www.w3.org/2000/svg">
<path d="M75.2343 34.8246L42.884 67.1749L42.7811 67.072L42.7361 67.117L30.7783 55.1592L40.3992 45.5384C44.8802 41.0574 44.8802 33.7895 40.3992 29.3053C35.9151 24.8244 28.6472 24.8244 24.163 29.3053L21.945 31.5233L19.6949 29.2732C15.9115 25.4865 10.1351 24.8983 5.73126 27.5052C3.08898 20.3531 4.64156 12.0051 10.3858 6.26085C18.258 -1.61136 31.0194 -1.61136 38.8884 6.26085L42.8422 10.2114L46.7381 6.3155C54.6071 -1.55672 67.3685 -1.55672 75.2375 6.3155C83.1098 14.1877 83.1098 26.9491 75.2375 34.8181L75.2343 34.8246Z" fill="url(#paint0_linear_237_469)"/>
<path d="M40.3959 29.3084C35.9117 24.8242 28.6439 24.8242 24.1629 29.3084L21.9449 31.5264L19.6948 29.2762C15.2106 24.7953 7.94594 24.7953 3.46176 29.2762C-1.02241 33.7572 -1.02241 41.0251 3.46176 45.5093L21.8871 63.9346L21.916 63.9056L21.9738 63.9635L40.3991 45.5382C44.8801 41.054 44.8801 33.7893 40.3991 29.3052L40.3959 29.3084Z" fill="url(#paint1_linear_237_469)"/>
<path d="M21.9708 64.105L21.913 64.0472L21.8841 64.0761L3.39126 45.5801C1.20542 43.3943 0 40.4884 0 37.3961C0 34.3038 1.20542 31.3979 3.39126 29.2121C5.57709 27.0262 8.48296 25.8208 11.5753 25.8208C14.6676 25.8208 17.5735 27.0262 19.7593 29.2121L21.9419 31.3947L24.0924 29.2442C26.2782 27.0584 29.1841 25.8529 32.2764 25.8529C35.3687 25.8529 38.2746 27.0584 40.4604 29.2442C44.9735 33.7573 44.9735 41.0991 40.4604 45.6122L21.9676 64.105H21.9708ZM21.9098 63.7739L21.9676 63.8318L40.3254 45.474C44.7646 41.0348 44.7646 33.8152 40.3254 29.376C38.1749 27.2255 35.3173 26.0426 32.2764 26.0426C29.2355 26.0426 26.3779 27.2255 24.2274 29.376L21.9387 31.6647L19.6179 29.3439C17.4674 27.1934 14.6097 26.0105 11.5688 26.0105C8.52797 26.0105 5.67031 27.1934 3.51984 29.3439C1.36936 31.4943 0.186439 34.352 0.186439 37.3929C0.186439 40.4337 1.36936 43.2914 3.51984 45.4419L21.8776 63.7997L21.9033 63.7739H21.9098Z" fill="url(#paint2_linear_237_469)"/>
<defs>
<linearGradient id="paint0_linear_237_469" x1="4.48084" y1="33.7702" x2="81.1361" y2="33.7702" gradientUnits="userSpaceOnUse">
<stop stop-color="#18B7F1"/>
<stop offset="1" stop-color="#185EF1"/>
</linearGradient>
<linearGradient id="paint1_linear_237_469" x1="0.096222" y1="44.9435" x2="43.7583" y2="44.9435" gradientUnits="userSpaceOnUse">
<stop stop-color="#D3FFFF"/>
<stop offset="1" stop-color="#B0DBDB"/>
</linearGradient>
<linearGradient id="paint2_linear_237_469" x1="0" y1="44.9629" x2="43.8485" y2="44.9629" gradientUnits="userSpaceOnUse">
<stop stop-color="#C5FFFF"/>
<stop offset="1" stop-color="#B3D6D6"/>
</linearGradient>
</defs>
</svg>
