<svg width="80" height="67" viewBox="0 0 80 67" fill="none" xmlns="http://www.w3.org/2000/svg">
<path d="M-8.5752e-05 60.9868C-8.5752e-05 52.7064 -8.5752e-05 44.424 -8.5752e-05 36.1437C0.874494 34.764 1.62383 34.6054 3.01815 35.5342C4.25383 36.3566 5.61058 36.6614 7.08421 36.6593C15.4919 36.6426 23.8995 36.6509 32.3072 36.6509C32.6119 36.6509 32.9187 36.6509 33.2799 36.6509C33.2945 36.9912 33.3174 37.2437 33.3174 37.4963C33.3216 38.8238 33.3007 40.1513 33.3258 41.4789C33.3487 42.6728 34 43.3219 35.173 43.3261C38.4 43.3366 41.6291 43.3386 44.856 43.3261C45.956 43.3219 46.6073 42.6957 46.6657 41.5999C46.7012 40.9257 46.6761 40.2473 46.6761 39.569C46.6761 38.6172 46.6761 37.6674 46.6761 36.6509H47.7219C56.1045 36.6509 64.485 36.6405 72.8676 36.6614C74.456 36.6655 75.9067 36.319 77.1967 35.3798C77.7915 34.9477 78.4198 34.8058 79.094 35.1585C79.8037 35.53 79.9999 36.1625 79.9978 36.9223C79.9895 44.5743 80.0041 52.2285 79.9749 59.8805C79.9728 60.6716 79.8267 61.4961 79.5699 62.2454C78.6098 65.0487 76.1488 66.6475 72.901 66.6475C50.9572 66.6496 29.0134 66.6475 7.0696 66.6475C6.83583 66.6475 6.60205 66.6413 6.36618 66.6329C3.54207 66.516 1.11871 64.6416 0.292136 61.9386C0.194033 61.6213 0.0938428 61.304 -0.00634766 60.9847L-8.5752e-05 60.9868Z" fill="url(#paint0_linear_849_2106)"/>
<path d="M0 27.7067C0 23.697 0 19.6873 0 15.6755C0.0313095 15.6359 0.0793175 15.6004 0.0918413 15.5545C1.10836 11.7535 3.37308 10.0127 7.30764 10.0127C12.3067 10.0127 17.3037 10.0127 22.3028 10.0127C22.6096 10.0127 22.9144 10.0127 23.3214 10.0127C23.3214 8.87091 23.3005 7.81056 23.3256 6.7523C23.4112 2.99725 26.1226 0.0791984 29.7524 0.0437143C36.5987 -0.0209921 43.4451 -0.00846826 50.2914 0.0437143C53.2137 0.0666746 55.7268 2.10388 56.3926 4.95513C56.6598 6.10106 56.6014 7.32631 56.6723 8.51607C56.7015 8.99615 56.6765 9.47832 56.6765 10.0127C57.1232 10.0127 57.4321 10.0127 57.7389 10.0127C62.8424 10.0127 67.9437 10.0001 73.0472 10.0168C77.1842 10.0294 79.9875 12.8597 79.9937 17.003C80 20.1006 79.9979 23.1981 79.9937 26.2978C79.9875 30.5079 77.1508 33.3299 72.922 33.332C64.4621 33.3362 56.0002 33.332 47.5404 33.332H46.6762C46.6762 32.7768 46.6867 32.3343 46.6762 31.8938C46.6387 30.6436 46.0313 30.0215 44.7851 30.0174C41.5832 30.0048 38.3813 30.0048 35.1794 30.0174C33.975 30.0215 33.3676 30.6415 33.3259 31.85C33.3092 32.3301 33.3238 32.8123 33.3238 33.2589C33.1484 33.3007 33.0983 33.3236 33.0503 33.3236C24.148 33.3236 15.2436 33.3508 6.34122 33.3049C3.59016 33.2902 1.14384 31.3052 0.313095 28.6523C0.20873 28.335 0.102278 28.0219 0 27.7067ZM30.0384 9.96048H49.9575V6.70638H30.0384V9.96048Z" fill="url(#paint1_linear_849_2106)"/>
<defs>
<linearGradient id="paint0_linear_849_2106" x1="-8.57516e-05" y1="50.8007" x2="79.9999" y2="50.8007" gradientUnits="userSpaceOnUse">
<stop stop-color="#18B7F1"/>
<stop offset="1" stop-color="#185EF1"/>
</linearGradient>
<linearGradient id="paint1_linear_849_2106" x1="0" y1="16.667" x2="80" y2="16.667" gradientUnits="userSpaceOnUse">
<stop stop-color="#18B7F1"/>
<stop offset="1" stop-color="#185EF1"/>
</linearGradient>
</defs>
</svg>
