<svg width="80" height="90" viewBox="0 0 80 90" fill="none" xmlns="http://www.w3.org/2000/svg">
<g clip-path="url(#clip0_269_7488)">
<path d="M67.288 53.5439C65.5102 52.9643 63.6118 52.6517 61.6386 52.6517C51.5544 52.6517 43.3782 60.8279 43.3782 70.9154C43.3782 75.4512 45.0291 79.593 47.7642 82.784H12.2951C10.4066 82.784 8.87292 81.3611 8.87292 79.6093V64.8525C8.87292 54.2375 14.5744 45.6315 29.608 45.6315H49.2816C58.7732 45.6315 64.351 48.7476 67.2847 53.5472L67.288 53.5439Z" fill="url(#paint0_linear_269_7488)"/>
<path d="M41.8968 39.3422C52.6911 37.59 60.0212 27.4191 58.269 16.6248C56.5169 5.83058 46.346 -1.4995 35.5517 0.252657C24.7574 2.00481 17.4274 12.1757 19.1795 22.97C20.9317 33.7642 31.1026 41.0943 41.8968 39.3422Z" fill="url(#paint1_linear_269_7488)"/>
<path d="M79.414 75.1077C81.731 65.2906 75.6511 55.4541 65.8341 53.137C56.017 50.82 46.1805 56.9 43.8634 66.717C41.5464 76.534 47.6264 86.3706 57.4434 88.6876C67.2604 91.0046 77.097 84.9247 79.414 75.1077Z" fill="url(#paint2_linear_269_7488)"/>
<path d="M61.6387 89.2767C51.5154 89.2767 43.2773 81.042 43.2773 70.9154C43.2773 60.7888 51.5121 52.554 61.6387 52.554C71.7653 52.554 80 60.7888 80 70.9154C80 81.042 71.7653 89.2767 61.6387 89.2767ZM61.6387 52.7527C51.6228 52.7527 43.4727 60.9028 43.4727 70.9186C43.4727 80.9345 51.6228 89.0846 61.6387 89.0846C71.6546 89.0846 79.8047 80.9345 79.8047 70.9186C79.8047 60.9028 71.6546 52.7527 61.6387 52.7527Z" fill="url(#paint3_linear_269_7488)"/>
<path d="M61.1405 78.0919C60.7237 78.0919 60.3265 77.9128 60.0464 77.6002L51.8345 68.3919C51.2939 67.7862 51.3493 66.8582 51.9517 66.321C52.5573 65.7805 53.4853 65.8358 54.0226 66.4382L61.0135 74.279L68.8087 63.3742C69.2808 62.7164 70.1958 62.5634 70.8535 63.0323C71.5113 63.5044 71.6643 64.4194 71.1954 65.0771L62.3355 77.4732C62.075 77.8347 61.6647 78.0626 61.2219 78.0854C61.1958 78.0854 61.1698 78.0854 61.1437 78.0854L61.1405 78.0919Z" fill="white"/>
</g>
<defs>
<linearGradient id="paint0_linear_269_7488" x1="1.23077" y1="20.3704" x2="45.9571" y2="76.9816" gradientUnits="userSpaceOnUse">
<stop stop-color="#18B7F1"/>
<stop offset="1" stop-color="#185EF1"/>
</linearGradient>
<linearGradient id="paint1_linear_269_7488" x1="19.2694" y1="-4.82281" x2="76.0922" y2="67.0922" gradientUnits="userSpaceOnUse">
<stop stop-color="#18B7F1"/>
<stop offset="1" stop-color="#185EF1"/>
</linearGradient>
<linearGradient id="paint2_linear_269_7488" x1="43.3731" y1="70.9151" x2="79.8972" y2="70.9151" gradientUnits="userSpaceOnUse">
<stop stop-color="#D3FFFF"/>
<stop offset="1" stop-color="#B0DBDB"/>
</linearGradient>
<linearGradient id="paint3_linear_269_7488" x1="43.2806" y1="70.9154" x2="80" y2="70.9154" gradientUnits="userSpaceOnUse">
<stop stop-color="#C5FFFF"/>
<stop offset="1" stop-color="#B3D6D6"/>
</linearGradient>
<clipPath id="clip0_269_7488">
<rect width="80" height="89.2767" fill="white"/>
</clipPath>
</defs>
</svg>
