<svg width="80" height="90" viewBox="0 0 80 90" fill="none" xmlns="http://www.w3.org/2000/svg">
<g clip-path="url(#clip0_337_17413)">
<path d="M67.2881 53.544C65.5103 52.9644 63.6119 52.6518 61.6387 52.6518C51.5545 52.6518 43.3783 60.828 43.3783 70.9155C43.3783 75.4513 45.0292 79.5931 47.7643 82.7841H12.2952C10.4067 82.7841 8.87305 81.3612 8.87305 79.6094V64.8526C8.87305 54.2376 14.5745 45.6316 29.6081 45.6316H49.2817C58.7733 45.6316 64.3511 48.7477 67.2849 53.5473L67.2881 53.544Z" fill="url(#paint0_linear_337_17413)"/>
<path d="M41.8967 39.3422C52.691 37.5901 60.021 27.4192 58.2689 16.6249C56.5167 5.83066 46.3458 -1.49942 35.5516 0.252733C24.7573 2.00489 17.4272 12.1758 19.1794 22.97C20.9316 33.7643 31.1024 41.0944 41.8967 39.3422Z" fill="url(#paint1_linear_337_17413)"/>
<path d="M79.4139 75.1076C81.7309 65.2906 75.651 55.454 65.8339 53.137C56.0169 50.82 46.1803 56.8999 43.8633 66.7169C41.5463 76.5339 47.6262 86.3705 57.4432 88.6875C67.2603 91.0046 77.0968 84.9246 79.4139 75.1076Z" fill="url(#paint2_linear_337_17413)"/>
<path d="M61.6387 89.2767C51.5154 89.2767 43.2773 81.0419 43.2773 70.9153C43.2773 60.7887 51.5121 52.554 61.6387 52.554C71.7653 52.554 80 60.7887 80 70.9153C80 81.0419 71.7653 89.2767 61.6387 89.2767ZM61.6387 52.7526C51.6228 52.7526 43.4727 60.9027 43.4727 70.9186C43.4727 80.9344 51.6228 89.0845 61.6387 89.0845C71.6546 89.0845 79.8047 80.9344 79.8047 70.9186C79.8047 60.9027 71.6546 52.7526 61.6387 52.7526Z" fill="url(#paint3_linear_337_17413)"/>
<path d="M61.1404 78.0919C60.7236 78.0919 60.3263 77.9128 60.0463 77.6002L51.8343 68.3919C51.2938 67.7862 51.3492 66.8582 51.9516 66.321C52.5572 65.7804 53.4852 65.8358 54.0225 66.4382L61.0134 74.279L68.8086 63.3742C69.2807 62.7164 70.1957 62.5634 70.8534 63.0323C71.5112 63.5044 71.6642 64.4194 71.1953 65.0771L62.3354 77.4732C62.0749 77.8347 61.6646 78.0626 61.2218 78.0854C61.1957 78.0854 61.1697 78.0854 61.1436 78.0854L61.1404 78.0919Z" fill="white"/>
</g>
<defs>
<linearGradient id="paint0_linear_337_17413" x1="1.2309" y1="20.3705" x2="45.9572" y2="76.9817" gradientUnits="userSpaceOnUse">
<stop stop-color="#18B7F1"/>
<stop offset="1" stop-color="#185EF1"/>
</linearGradient>
<linearGradient id="paint1_linear_337_17413" x1="19.2693" y1="-4.82273" x2="76.0921" y2="67.0923" gradientUnits="userSpaceOnUse">
<stop stop-color="#18B7F1"/>
<stop offset="1" stop-color="#185EF1"/>
</linearGradient>
<linearGradient id="paint2_linear_337_17413" x1="43.373" y1="70.915" x2="79.8971" y2="70.915" gradientUnits="userSpaceOnUse">
<stop stop-color="#D3FFFF"/>
<stop offset="1" stop-color="#B0DBDB"/>
</linearGradient>
<linearGradient id="paint3_linear_337_17413" x1="43.2806" y1="70.9153" x2="80" y2="70.9153" gradientUnits="userSpaceOnUse">
<stop stop-color="#C5FFFF"/>
<stop offset="1" stop-color="#B3D6D6"/>
</linearGradient>
<clipPath id="clip0_337_17413">
<rect width="80" height="89.2767" fill="white"/>
</clipPath>
</defs>
</svg>
