<svg width="70" height="79" viewBox="0 0 70 79" fill="none" xmlns="http://www.w3.org/2000/svg">
<g clip-path="url(#clip0_325_8536)">
<path d="M70 15.7491V68.1847C70 73.7885 65.4552 78.3365 59.8515 78.3365H10.1485C4.54479 78.3365 0 73.7917 0 68.1847V15.7491C0 10.5574 3.89783 6.27651 8.92542 5.6714V53.7747C8.92542 55.4709 11.0852 56.5331 12.8265 55.6962L23.4578 50.5817C24.256 50.1955 25.2377 50.1955 26.036 50.5817L36.6673 55.6962C38.4086 56.5331 40.5683 55.4709 40.5683 53.7747V5.60059H59.8547C65.4584 5.60059 70.0032 10.1454 70.0032 15.7523L70 15.7491Z" fill="url(#paint0_linear_325_8536)"/>
<path d="M40.5619 2.44619C40.5619 1.21343 39.371 0.218855 37.9162 0.234949C35.2929 0.263917 31.1891 0.234949 27.7677 0.189887V0.106201C27.7677 0.106201 26.5542 0.128732 24.7421 0.154481C22.93 0.128732 21.7133 0.106201 21.7133 0.106201V0.193106C18.2951 0.234949 14.1912 0.267136 11.568 0.238167C10.1132 0.222074 8.92224 1.21665 8.92224 2.4494V53.7746C8.92224 55.4708 11.082 56.533 12.8201 55.6961L23.4482 50.5816C24.2464 50.1954 25.2281 50.1954 26.0263 50.5816L36.6544 55.6961C38.3958 56.533 40.5523 55.4676 40.5523 53.7746V2.44619H40.5619Z" fill="url(#paint1_linear_325_8536)"/>
<path d="M37.9548 56.0921C37.4977 56.0921 37.0406 55.9923 36.619 55.7895L25.9909 50.675C25.2216 50.3049 24.2689 50.3049 23.5028 50.675L12.8747 55.7895C11.9317 56.2433 10.8019 56.1854 9.92643 55.635C9.22797 55.1973 8.82886 54.5181 8.82886 53.7746V2.4462C8.82886 1.89259 9.06382 1.35507 9.48547 0.936638C10.0101 0.418429 10.7697 0.12231 11.5776 0.135185C14.2523 0.167372 18.4914 0.128747 21.6167 0.0933419V0.00321869H21.7229C21.7229 0.00321869 22.9396 0.0257495 24.7517 0.051499C26.5542 0.0225308 27.7708 0 27.7708 0H27.8803L27.877 0.0869045C31.0024 0.12231 35.2414 0.160934 37.9161 0.128747C38.7208 0.119091 39.4836 0.411992 40.0083 0.930201C40.4331 1.34863 40.6649 1.88615 40.6649 2.43976V53.7746C40.6649 54.5181 40.2658 55.194 39.5673 55.635C39.0845 55.9376 38.5212 56.0921 37.9548 56.0921ZM24.7453 50.1922C25.2055 50.1922 25.669 50.292 26.0778 50.4883L36.7059 55.6028C37.5878 56.0277 38.6403 55.973 39.4547 55.458C40.092 55.0589 40.4557 54.4441 40.4557 53.7714V2.4462C40.4557 1.94731 40.2432 1.46128 39.8602 1.08148C39.3742 0.601894 38.6693 0.331525 37.9161 0.337962C35.2092 0.370149 30.9026 0.331525 27.7644 0.292901H27.6582L27.6614 0.209215C27.3234 0.215652 26.2355 0.231745 24.742 0.254276C23.2454 0.231745 22.1574 0.215652 21.8195 0.209215V0.292901H21.7165C18.5815 0.331525 14.2749 0.36693 11.5647 0.337962C10.8212 0.331525 10.1067 0.598676 9.62065 1.08148C9.23441 1.46128 9.0252 1.94731 9.0252 2.4462V53.7746C9.0252 54.4473 9.38891 55.0589 10.0262 55.4612C10.8405 55.973 11.8963 56.0277 12.775 55.606L23.4031 50.4915C23.8151 50.2952 24.2753 50.1954 24.7356 50.1954L24.7453 50.1922Z" fill="url(#paint2_linear_325_8536)"/>
</g>
<defs>
<linearGradient id="paint0_linear_325_8536" x1="-2.72623" y1="5.03732" x2="79.8395" y2="85.8618" gradientUnits="userSpaceOnUse">
<stop stop-color="#18B7F1"/>
<stop offset="1" stop-color="#185EF1"/>
</linearGradient>
<linearGradient id="paint1_linear_325_8536" x1="35.0451" y1="61.4254" x2="18.7264" y2="8.65181" gradientUnits="userSpaceOnUse">
<stop stop-color="#D3FFFF"/>
<stop offset="1" stop-color="#B0DBDB"/>
</linearGradient>
<linearGradient id="paint2_linear_325_8536" x1="8.82564" y1="28.0444" x2="40.6649" y2="28.0444" gradientUnits="userSpaceOnUse">
<stop stop-color="#C5FFFF"/>
<stop offset="1" stop-color="#D5FFFF"/>
</linearGradient>
<clipPath id="clip0_325_8536">
<rect width="70" height="78.3364" fill="white"/>
</clipPath>
</defs>
</svg>
