<svg width="80" height="72" viewBox="0 0 80 72" fill="none" xmlns="http://www.w3.org/2000/svg">
<path d="M55.6386 2.0437H8.83905C3.95738 2.0437 0 6.00108 0 10.8828V60.2026C0 65.0843 3.95738 69.0416 8.83905 69.0416H55.6386C60.5203 69.0416 64.4777 65.0843 64.4777 60.2026V10.8828C64.4777 6.00108 60.5203 2.0437 55.6386 2.0437Z" fill="url(#paint0_linear_325_8548)"/>
<path d="M45.782 54.5145L34.9497 57.1273C33.6097 57.4497 32.4014 56.2442 32.7238 54.9042L35.3282 44.0607C35.4655 43.486 35.7599 42.959 36.1776 42.5413L67.6988 11.0257C69.0108 9.71375 71.1357 9.71375 72.4449 11.0257L78.8198 17.4006C80.1318 18.7126 80.1318 20.8376 78.8198 22.1467L47.2986 53.6679C46.8809 54.0856 46.3567 54.38 45.782 54.5173V54.5145Z" fill="url(#paint1_linear_325_8548)"/>
<path d="M34.5124 57.3795C33.9798 57.3795 33.4639 57.1692 33.0743 56.7795C32.5669 56.2721 32.365 55.5545 32.5304 54.8564L35.1347 44.013C35.2805 43.4018 35.5945 42.844 36.0374 42.401L67.5586 10.8826C68.9463 9.49778 71.2002 9.49778 72.5851 10.8826L78.96 17.2575C80.3448 18.6424 80.3448 20.8991 78.96 22.284L47.4388 53.8052C46.9958 54.2481 46.438 54.5593 45.8296 54.7079L34.9974 57.3206C34.8348 57.3599 34.6722 57.3795 34.5124 57.3795ZM70.0704 10.2407C69.2631 10.2407 68.4529 10.549 67.8362 11.163L36.3178 42.6814C35.9253 43.0738 35.6506 43.5672 35.5188 44.1055L32.9145 54.9489C32.7799 55.5096 32.9425 56.0899 33.3518 56.4964C33.7611 56.9057 34.3386 57.0683 34.9021 56.9309L45.7343 54.3182C46.2726 54.1892 46.7632 53.9117 47.1556 53.522L78.6768 22.0008C79.9075 20.7702 79.9075 18.7657 78.6768 17.5351L72.3019 11.1602C71.6852 10.5434 70.8778 10.2379 70.0676 10.2379L70.0704 10.2407Z" fill="url(#paint2_linear_325_8548)"/>
<path d="M37.3382 17.1315H10.5604C9.37453 17.1315 8.41577 16.1699 8.41577 14.9869C8.41577 13.801 9.37733 12.8423 10.5604 12.8423H37.341C38.5269 12.8423 39.4856 13.8038 39.4856 14.9869C39.4856 16.1727 38.524 17.1315 37.341 17.1315H37.3382Z" fill="white"/>
<path d="M26.4359 26.5172H10.5604C9.37453 26.5172 8.41577 25.5556 8.41577 24.3726C8.41577 23.1868 9.37733 22.228 10.5604 22.228H26.4359C27.6217 22.228 28.5805 23.1896 28.5805 24.3726C28.5805 25.5584 27.6189 26.5172 26.4359 26.5172Z" fill="white"/>
<defs>
<linearGradient id="paint0_linear_325_8548" x1="67.3287" y1="74.2503" x2="3.51825" y2="3.85468" gradientUnits="userSpaceOnUse">
<stop stop-color="#18B7F1"/>
<stop offset="1" stop-color="#185EF1"/>
</linearGradient>
<linearGradient id="paint1_linear_325_8548" x1="59.9744" y1="40.9858" x2="48.8537" y2="29.8652" gradientUnits="userSpaceOnUse">
<stop stop-color="#D3FFFF"/>
<stop offset="1" stop-color="#B0DBDB"/>
</linearGradient>
<linearGradient id="paint2_linear_325_8548" x1="48.715" y1="29.7263" x2="60.1151" y2="41.1265" gradientUnits="userSpaceOnUse">
<stop stop-color="#C5FFFF"/>
<stop offset="1" stop-color="#D5FFFF"/>
</linearGradient>
</defs>
</svg>
