<svg width="80" height="80" viewBox="0 0 80 80" fill="none" xmlns="http://www.w3.org/2000/svg">
<g clip-path="url(#clip0_325_8543)">
<path d="M78.7288 24.9383C66.292 16.7995 53.8406 8.68571 41.3913 0.567776C41.0886 0.371559 40.7755 0.189954 40.4686 0H39.5293C31.7954 5.03901 24.0595 10.078 16.3256 15.117C11.3346 18.3692 6.34364 21.6235 1.35264 24.8757C1.15642 25.003 0.956031 25.1262 0.768165 25.266C-0.0208766 25.8547 -0.221268 26.7585 0.258836 27.5329C0.74729 28.3199 1.7409 28.5746 2.58212 28.0569C3.71141 27.3618 4.8073 26.6103 5.91989 25.8881C6.12863 25.7524 6.34781 25.6355 6.67762 25.4434V26.4705C6.67762 42.483 6.68597 58.4934 6.66719 74.5039C6.66719 76.1237 7.06797 77.5369 8.27658 78.6557C9.29941 79.6034 10.5226 80.0084 11.9128 80.0063C12.823 80.0042 13.7352 80.0042 14.6453 80.0042L63.8414 80.0063V80C65.2504 80.0021 66.6594 80 68.0684 80C70.6693 80 72.6669 78.4804 73.1971 76.0715C73.3224 75.4954 73.314 74.8817 73.314 74.2847C73.3203 58.3515 73.3203 42.4183 73.3203 26.4851V25.3913C73.8839 25.7607 74.3264 26.0509 74.771 26.341C75.4912 26.8086 76.1967 27.2971 76.9315 27.7396C78.4344 28.6434 78.9834 28.5349 80 27.1885V26.2513C79.5783 25.8087 79.2256 25.2618 78.7288 24.9383ZM28.013 23.3853C28.2406 23.3352 28.4785 23.3247 28.7102 23.3247C36.2333 23.3205 43.7542 23.3205 51.2772 23.3247C52.4566 23.3247 53.1705 23.8403 53.2916 24.7442C53.4398 25.8463 52.7092 26.6562 51.4818 26.675C49.791 26.7022 48.0981 26.6834 46.4073 26.6834H40.0031C36.2291 26.6834 32.4551 26.6875 28.681 26.6792C27.5142 26.6771 26.8044 26.1386 26.7022 25.2222C26.5999 24.3142 27.1175 23.5794 28.013 23.3873V23.3853ZM28.4013 31.6911C30.3008 31.6639 32.2004 31.6806 34.0999 31.6806H40.0344C43.8335 31.6806 47.6347 31.6765 51.4338 31.6848C52.5777 31.6869 53.2582 32.2714 53.3041 33.2337C53.3479 34.1271 52.7551 34.8556 51.8701 34.9808C51.6905 35.008 51.5068 34.9996 51.3232 34.9996C43.7772 34.9996 36.2291 34.9996 28.681 34.9996C27.5559 34.9996 26.8462 34.4986 26.7084 33.6303C26.5393 32.5469 27.2428 31.7057 28.4013 31.6911Z" fill="url(#paint0_linear_325_8543)"/>
<path d="M48.3194 63.284H31.7224C31.7078 63.0022 31.6806 62.7517 31.6806 62.4992C31.6785 59.0382 31.6765 55.5773 31.6806 52.1164C31.6806 50.5487 32.2317 50.0018 33.791 49.9998C37.9283 49.9998 42.0655 49.9998 46.2027 49.9998C47.7641 49.9998 48.3152 50.5467 48.3173 52.1122C48.3215 55.8048 48.3173 59.4975 48.3173 63.2819L48.3194 63.284Z" fill="url(#paint1_linear_325_8543)"/>
<path d="M56.4645 76.6413V80.0062H41.8192V80.002C41.8046 79.7223 41.7816 79.4697 41.7816 79.2213C41.7795 77.6349 41.7795 76.0505 41.7795 74.462C41.7795 72.5875 41.7795 70.713 41.7816 68.8385C41.7816 67.2709 42.268 66.724 43.6436 66.724C47.2966 66.7219 50.9474 66.7219 54.5983 66.724C55.976 66.724 56.4624 67.2709 56.4645 68.8344C56.4666 71.4248 56.4645 74.0174 56.4645 76.6413Z" fill="url(#paint2_linear_325_8543)"/>
<path d="M39.02 76.6204V80.0062H24.3726V80.002C24.3601 79.7223 24.3371 79.4697 24.3371 79.2213C24.3371 78.3571 24.335 77.4929 24.3371 76.6267C24.335 74.0299 24.333 71.4353 24.3371 68.8385C24.3371 67.2709 24.8235 66.724 26.1991 66.724C29.85 66.7219 33.5009 66.7219 37.1538 66.724C38.5315 66.724 39.0179 67.2709 39.02 68.8344C39.0221 71.4186 39.02 74.0028 39.02 76.6204Z" fill="url(#paint3_linear_325_8543)"/>
</g>
<defs>
<linearGradient id="paint0_linear_325_8543" x1="-2.5165e-06" y1="40.0031" x2="80" y2="40.0031" gradientUnits="userSpaceOnUse">
<stop stop-color="#18B7F1"/>
<stop offset="1" stop-color="#185EF1"/>
</linearGradient>
<linearGradient id="paint1_linear_325_8543" x1="31.6765" y1="56.6419" x2="48.3194" y2="56.6419" gradientUnits="userSpaceOnUse">
<stop stop-color="#D3FFFF"/>
<stop offset="1" stop-color="#B0DBDB"/>
</linearGradient>
<linearGradient id="paint2_linear_325_8543" x1="41.7795" y1="73.364" x2="56.4645" y2="73.364" gradientUnits="userSpaceOnUse">
<stop stop-color="#D3FFFF"/>
<stop offset="1" stop-color="#B0DBDB"/>
</linearGradient>
<linearGradient id="paint3_linear_325_8543" x1="24.335" y1="73.364" x2="39.02" y2="73.364" gradientUnits="userSpaceOnUse">
<stop stop-color="#D3FFFF"/>
<stop offset="1" stop-color="#B0DBDB"/>
</linearGradient>
<clipPath id="clip0_325_8543">
<rect width="80" height="80.0063" fill="white"/>
</clipPath>
</defs>
</svg>
