<svg width="80" height="61" viewBox="0 0 80 61" fill="none" xmlns="http://www.w3.org/2000/svg">
<g clip-path="url(#clip0_305_8061)">
<path d="M22.4971 28.3432C22.4971 26.8172 23.7285 25.5746 25.2545 25.5605C27.6361 25.5409 31.064 25.5156 33.4624 25.5156C41.429 25.5156 49.3059 17.6725 50.3971 2.22731C50.47 1.20904 51.2021 0.350668 52.2008 0.140282C58.0691 -1.09679 60.8126 6.16293 60.0468 10.6147C59.208 15.4816 56.1869 24.7106 56.1869 24.7106H70.7849C77.4976 24.7106 76.513 29.6308 75.764 34.1274C72.5661 53.3062 72.3081 58.103 65.2615 58.103H40.4135C33.1314 58.103 32.4385 54.9445 25.0666 54.3413C23.6163 54.2235 22.4971 53.0201 22.4971 51.5671V28.3432Z" fill="url(#paint0_linear_305_8061)"/>
<path d="M21.757 19.6949H8.19126C3.7372 19.6949 0.126465 23.3057 0.126465 27.7597V52.3721C0.126465 56.8262 3.7372 60.4369 8.19126 60.4369H21.757C26.211 60.4369 29.8218 56.8262 29.8218 52.3721V27.7597C29.8218 23.3057 26.211 19.6949 21.757 19.6949Z" fill="url(#paint1_linear_305_8061)"/>
<path d="M21.7567 60.566H8.19103C3.67474 60.566 0 56.8912 0 52.3749V27.7598C0 23.2435 3.67474 19.5687 8.19103 19.5687H21.7567C26.273 19.5687 29.9478 23.2435 29.9478 27.7598V52.3749C29.9478 56.8912 26.273 60.566 21.7567 60.566ZM8.19103 19.8212C3.815 19.8212 0.255268 23.3809 0.255268 27.7569V52.3721C0.255268 56.7481 3.815 60.3079 8.19103 60.3079H21.7567C26.1328 60.3079 29.6925 56.7481 29.6925 52.3721V27.7598C29.6925 23.3837 26.1328 19.824 21.7567 19.824H8.19103V19.8212Z" fill="url(#paint2_linear_305_8061)"/>
<path d="M12.1021 52.792C12.4075 50.911 11.1302 49.1387 9.24921 48.8334C7.36827 48.528 5.59595 49.8053 5.29062 51.6863C4.9853 53.5672 6.2626 55.3396 8.14355 55.6449C10.0245 55.9502 11.7968 54.6729 12.1021 52.792Z" fill="white"/>
</g>
<defs>
<linearGradient id="paint0_linear_305_8061" x1="26.73" y1="60.3556" x2="74.8748" y2="14.7467" gradientUnits="userSpaceOnUse">
<stop stop-color="#18B7F1"/>
<stop offset="1" stop-color="#185EF1"/>
</linearGradient>
<linearGradient id="paint1_linear_305_8061" x1="0.126465" y1="40.0659" x2="29.8218" y2="40.0659" gradientUnits="userSpaceOnUse">
<stop stop-color="#D3FFFF"/>
<stop offset="1" stop-color="#B0DBDB"/>
</linearGradient>
<linearGradient id="paint2_linear_305_8061" x1="0" y1="40.0659" x2="29.9478" y2="40.0659" gradientUnits="userSpaceOnUse">
<stop stop-color="#C5FFFF"/>
<stop offset="1" stop-color="#D5FFFF"/>
</linearGradient>
<clipPath id="clip0_305_8061">
<rect width="80" height="60.5659" fill="white"/>
</clipPath>
</defs>
</svg>
