<svg width="146" height="42" viewBox="0 0 146 42" fill="none" xmlns="http://www.w3.org/2000/svg">
<path d="M20.7565 42C14.9369 42 10.1343 39.9701 6.06631 35.7915C1.98464 31.5993 0 26.7585 0 21.0014C0 15.1983 1.98464 10.3493 6.06357 6.17878C10.1315 2.02175 14.9369 0 20.7565 0C26.5734 0 31.3678 2.01905 35.411 6.17607C39.4708 10.3493 41.4417 15.1983 41.4417 21.0014C41.4417 26.7612 39.4681 31.5993 35.4083 35.7942C31.365 39.9701 26.5734 42 20.7565 42ZM20.7565 7.87078C17.182 7.87078 14.12 9.19519 11.6557 11.8062C9.21871 14.3901 7.98243 17.4957 7.98243 21.0338C7.98243 24.5313 9.21871 27.6126 11.6557 30.1965C14.1173 32.8075 17.1792 34.1292 20.7565 34.1292C24.2872 34.1292 27.3245 32.8048 29.7888 30.1965C32.2258 27.6126 33.462 24.5313 33.462 21.0338C33.462 17.4957 32.2258 14.3901 29.7888 11.8062C27.3245 9.19519 24.2844 7.87078 20.7565 7.87078Z" fill="#0074FC"/>
<path d="M78.3742 40.5968C75.4905 40.5968 72.8342 39.6373 70.252 37.6669C67.6753 35.6992 65.888 33.3017 64.945 30.5394L60.6303 18.5386H72.0612C73.3496 18.5386 74.468 17.9656 75.2931 16.8845C76.0387 15.906 76.4197 14.8249 76.4197 13.6735C76.4197 12.4707 76.036 11.3733 75.2794 10.4138C74.4488 9.36237 73.3331 8.80828 72.0502 8.80828H54.3337V40.5968H46.3513V0.9375H72.0612C75.5426 0.9375 78.3989 2.16731 80.8002 4.6999C83.2234 7.25953 84.4022 10.2138 84.4022 13.7356C84.4022 16.9277 83.4044 19.6765 81.3539 22.1308C79.3254 24.5633 76.8254 25.9418 73.7169 26.3445L71.9132 26.5797L72.6396 28.2257C74.2816 31.9449 76.6637 32.726 78.3742 32.726H91.554V0.9375H99.5364V40.5968H78.3742Z" fill="#0074FC"/>
<path d="M125.312 42C119.493 42 114.69 39.9701 110.622 35.7915C106.54 31.5993 104.556 26.7585 104.556 21.0014C104.556 15.1983 106.54 10.3493 110.619 6.17878C114.687 2.02175 119.493 0 125.312 0C131.129 0 135.923 2.01905 139.967 6.17607C144.026 10.3493 146 15.1983 146 21.0014C146 26.7612 144.026 31.5993 139.964 35.7942C135.923 39.9701 131.129 42 125.312 42ZM125.312 7.87078C121.738 7.87078 118.676 9.19519 116.211 11.8062C113.774 14.3901 112.538 17.4957 112.538 21.0338C112.538 24.5313 113.774 27.6126 116.211 30.1965C118.673 32.8075 121.735 34.1292 125.312 34.1292C128.843 34.1292 131.88 32.8048 134.344 30.1965C136.781 27.6126 138.018 24.5313 138.018 21.0338C138.018 17.493 136.781 14.3901 134.344 11.8062C131.88 9.19519 128.843 7.87078 125.312 7.87078Z" fill="#0074FC"/>
</svg>
