<svg width="70" height="75" viewBox="0 0 70 75" fill="none" xmlns="http://www.w3.org/2000/svg">
<g clip-path="url(#clip0_305_8076)">
<path d="M69.9895 26.0719C69.9895 29.7938 70.0125 33.5156 69.9854 37.2396C69.8894 50.8148 63.9144 61.0708 52.4066 68.1453C47.1952 71.3477 41.5414 73.4694 35.5267 74.5898C34.8466 74.717 34.081 74.5418 33.3821 74.3853C25.6546 72.6579 18.553 69.5786 12.4424 64.4631C5.42213 58.5882 1.34143 51.086 0.304559 41.9754C0.125142 40.4023 0.0229155 38.8105 0.018743 37.2271C-0.0104645 28.6109 0.00413922 19.9946 0.00413922 11.3784C0.00413922 10.2164 0.298301 9.84919 1.37481 9.69272C11.9876 8.16767 22.1893 5.20102 32.026 0.955494C32.122 0.913769 32.2242 0.882476 32.3077 0.824061C34.1039 -0.411001 35.7604 -0.112667 37.7173 0.769818C47.2181 5.05915 57.1591 7.95904 67.4735 9.49452C70.2962 9.91386 69.9874 10.2977 69.9874 12.4048C69.9874 16.9591 69.9874 21.5155 69.9874 26.0698L69.9895 26.0719ZM34.9801 59.6939C47.3829 59.7023 57.4908 49.5985 57.4887 37.1979C57.4887 24.818 47.433 14.7435 35.0532 14.7122C22.6441 14.683 12.5258 24.7575 12.505 37.1645C12.4862 49.5652 22.5816 59.6877 34.9781 59.696L34.9801 59.6939Z" fill="url(#paint0_linear_305_8076)"/>
<path d="M39.9956 42.2006C39.9956 44.145 39.9956 46.0101 39.9956 47.8773C39.9956 49.3502 39.6409 49.6965 38.143 49.6986C35.9566 49.6986 33.7723 49.7028 31.5859 49.6986C30.4238 49.6965 30.0003 49.2647 29.9983 48.088C29.9941 46.1645 29.9983 44.241 29.9983 42.2027C29.7145 42.2027 29.4663 42.2027 29.218 42.2027C27.4739 42.2027 25.7319 42.211 23.9878 42.1985C22.9655 42.1923 22.5065 41.7354 22.5024 40.7215C22.494 38.3807 22.494 36.0378 22.5024 33.6971C22.5065 32.6748 22.9572 32.2158 23.9752 32.2096C25.9488 32.1991 27.9224 32.2054 29.9962 32.2054C29.9962 31.5691 29.9962 30.9808 29.9962 30.3924C29.9962 28.9613 29.9857 27.5301 30.0003 26.0989C30.0087 25.2185 30.4739 24.722 31.3376 24.7157C33.7827 24.697 36.2299 24.697 38.675 24.7157C39.5283 24.722 39.981 25.2248 39.9893 26.1219C40.0039 27.8639 39.9935 29.608 39.9935 31.3521C39.9935 31.6066 39.9935 31.8612 39.9935 32.2033C41.7647 32.2033 43.4734 32.2033 45.182 32.2033C45.4678 32.2033 45.7536 32.197 46.0415 32.2033C47.0179 32.2283 47.4852 32.6727 47.4894 33.6386C47.4998 36.0065 47.4998 38.3744 47.4894 40.7423C47.4852 41.7145 47.0221 42.1839 46.0561 42.1923C44.312 42.2069 42.57 42.1964 40.8259 42.1964C40.5735 42.1964 40.321 42.1964 39.9956 42.1964V42.2006Z" fill="url(#paint1_linear_305_8076)"/>
</g>
<defs>
<linearGradient id="paint0_linear_305_8076" x1="-3.32817e-05" y1="37.3168" x2="70" y2="37.3168" gradientUnits="userSpaceOnUse">
<stop stop-color="#18B7F1"/>
<stop offset="1" stop-color="#185EF1"/>
</linearGradient>
<linearGradient id="paint1_linear_305_8076" x1="22.4961" y1="37.1999" x2="47.4977" y2="37.1999" gradientUnits="userSpaceOnUse">
<stop stop-color="#D3FFFF"/>
<stop offset="1" stop-color="#B0DBDB"/>
</linearGradient>
<clipPath id="clip0_305_8076">
<rect width="70" height="74.6315" fill="white"/>
</clipPath>
</defs>
</svg>
