<svg width="98" height="113" viewBox="0 0 98 113" fill="none" xmlns="http://www.w3.org/2000/svg">
<path d="M28.1347 94.2173C31.2333 92.8471 34.5047 91.7998 37.9126 91.1278C37.8932 90.3876 37.8603 89.6496 37.7966 88.9173C39.2566 85.1308 40.604 81.3193 41.823 77.4862C39.6489 77.6977 37.4918 78.032 35.3598 78.4857C33.7792 78.8211 32.218 79.243 30.6704 79.7092C29.4276 80.0833 28.2007 80.5131 26.984 80.9714L31.795 82.1369L28.1347 94.2173Z" fill="#525353"/>
<path d="M16.7921 101.333C16.9126 100.103 16.9866 98.8624 16.9866 97.6093C16.9866 96.8554 17.5983 96.2436 18.3522 96.2436H19.5518L23.7841 82.2779C16.3054 85.6085 9.48746 90.548 3.89526 96.9589C6.97791 99.6208 10.3062 102.001 13.8471 104.062C14.7897 103.111 15.7721 102.2 16.7921 101.333Z" fill="#525353"/>
<path d="M70.2137 82.2771L74.446 96.2428H75.6445C76.3995 96.2428 77.0101 96.8546 77.0101 97.6085C77.0101 98.8627 77.084 100.103 77.2046 101.332C78.2257 102.199 79.207 103.111 80.1496 104.06C83.6905 101.999 87.0188 99.6188 90.1014 96.9569C84.5103 90.5471 77.6924 85.6076 70.2137 82.2771Z" fill="#525353"/>
<path d="M62.2031 82.1369L67.0129 80.9714C65.7963 80.5142 64.5694 80.0844 63.3265 79.7092C61.7789 79.243 60.2189 78.8211 58.6372 78.4857C56.5051 78.0331 54.3481 77.6977 52.174 77.4862C53.3929 81.3193 54.7404 85.1308 56.2004 88.9173C56.1378 89.6507 56.1037 90.3887 56.0844 91.1278C59.4934 91.7998 62.7648 92.8471 65.8634 94.2173L62.2031 82.1369Z" fill="#525353"/>
<path d="M46.999 96.2425H56.2992C56.1082 94.5289 56.04 92.821 56.0854 91.1278C53.1461 90.5479 50.1089 90.2375 46.999 90.2375C43.889 90.2375 40.853 90.5479 37.9125 91.1278C37.9568 92.821 37.8886 94.5289 37.6987 96.2425H46.999Z" fill="black"/>
<path d="M13.8472 104.062C14.6147 104.508 15.3879 104.944 16.1736 105.36C16.4488 104.038 16.6592 102.695 16.7922 101.334C15.7723 102.2 14.7898 103.111 13.8472 104.062Z" fill="black"/>
<path d="M27.5204 96.2425H37.6985C37.8895 94.5289 37.9577 92.821 37.9122 91.1279C34.5044 91.7999 31.2318 92.8471 28.1344 94.2173L27.5204 96.2425Z" fill="black"/>
<path d="M77.2046 101.334C77.3376 102.695 77.548 104.038 77.8232 105.36C78.6089 104.944 79.3832 104.508 80.1496 104.062C79.207 103.111 78.2257 102.2 77.2046 101.334Z" fill="black"/>
<path d="M66.4773 96.2429L65.8633 94.2189C62.7647 92.8487 59.4933 91.8015 56.0843 91.1295C56.04 92.8226 56.1082 94.5305 56.2981 96.2441L66.4773 96.2429Z" fill="black"/>
<path d="M27.5204 96.243L28.1345 94.2179L31.7959 82.1363L26.9849 80.9708C25.9069 81.3756 24.838 81.8077 23.7851 82.2762L19.5529 96.2419H24.0967L27.5204 96.243Z" fill="#AA9678"/>
<path d="M65.8645 94.2187L66.4785 96.2427H69.9023H74.4472L70.215 82.277C69.1609 81.8073 68.0921 81.3764 67.0141 80.9716L62.2042 82.1371L65.8645 94.2187Z" fill="#AA9678"/>
<path d="M19.6904 99.0642C19.7314 99.0346 19.7734 99.005 19.8155 98.9755H19.6961C19.695 99.005 19.6916 99.0335 19.6904 99.0642Z" fill="#C0B098"/>
<path d="M46.9989 98.9738H37.2881H26.6927H19.8168C19.7747 99.0034 19.7326 99.033 19.6917 99.0625C19.6007 101.641 19.255 104.17 18.6945 106.631C27.2727 110.71 36.8674 113 46.9989 113V98.9738Z" fill="#C0B098"/>
<path d="M74.3014 98.9738H74.182C74.2241 99.0034 74.2662 99.033 74.3071 99.0625C74.3048 99.033 74.3014 99.0045 74.3014 98.9738Z" fill="#AA9678"/>
<path d="M74.1811 98.9738H67.3062H56.7097H47.0001V113C57.1316 113 66.7263 110.711 75.3045 106.631C74.7439 104.17 74.3994 101.643 74.3073 99.0625C74.2652 99.033 74.2231 99.0045 74.1811 98.9738Z" fill="#AA9678"/>
<path d="M77.2043 101.333C77.0837 100.103 77.0098 98.8623 77.0098 97.6092C77.0098 96.8553 76.3981 96.2436 75.6442 96.2436H74.4457H69.9007H66.477H56.2989H46.9987H37.6973H27.5192H24.0954H19.5516H18.352C17.597 96.2436 16.9864 96.8553 16.9864 97.6092C16.9864 98.8634 16.9124 100.104 16.7919 101.333C16.6589 102.694 16.4485 104.037 16.1733 105.36C17.0046 105.8 17.8426 106.227 18.6931 106.632C19.2537 104.171 19.5983 101.644 19.6904 99.0636C19.6915 99.034 19.6949 99.0044 19.696 98.9749H19.8154H26.6914H37.2868H46.9975H56.7071H67.3036H74.1785H74.2979C74.299 99.0044 74.3024 99.034 74.3036 99.0636C74.3945 101.642 74.7402 104.171 75.3008 106.632C76.1525 106.227 76.9905 105.8 77.8206 105.36C77.5477 104.036 77.3373 102.694 77.2043 101.333Z" fill="#8B7460"/>
<path d="M65.8959 86.8241C65.6969 86.5955 65.4911 86.3499 65.2784 86.0713C65.4911 86.351 65.6969 86.5955 65.8959 86.8241Z" fill="#525353"/>
<path d="M87.5618 28.62C87.5623 28.62 87.5627 28.6195 87.5626 28.6191C87.5626 28.6186 87.5622 28.6182 87.5617 28.6182C87.5612 28.6183 87.5608 28.6187 87.5609 28.6192C87.5609 28.6197 87.5613 28.6201 87.5618 28.62Z" fill="white"/>
<path d="M90.2367 47.6174C90.2367 47.6109 90.2378 47.6055 90.2378 47.5989C90.2378 47.6055 90.2367 47.612 90.2367 47.6174Z" fill="white"/>
<path d="M90.9425 32.3121C90.9311 32.2973 90.9197 32.2837 90.9095 32.2689C90.3614 31.5071 89.7963 30.8123 89.2164 30.1812C89.2153 30.179 89.213 30.1767 89.2107 30.1755C89.2118 30.1778 89.2141 30.1801 89.2164 30.1812C89.2107 30.1755 89.2062 30.1687 89.2016 30.163C88.9378 29.8776 88.6717 29.6036 88.4022 29.3455C88.2999 29.2477 88.1953 29.1624 88.0929 29.0692C87.9235 28.9156 87.7541 28.7565 87.5824 28.6143V28.6177V34.7546L89.9328 45.5194C89.9578 45.6036 89.9896 45.6809 90.0112 45.7684L91.6395 47.5935L91.6554 47.5753H93.3599C93.3622 47.4172 93.3713 47.2614 93.3713 47.1034V47.1011C93.3713 42.024 92.5367 37.1448 91.0255 32.5748C90.9971 32.4884 90.972 32.3997 90.9425 32.3121Z" fill="#BBBCBD"/>
<path d="M90.1638 46.5711C90.1661 46.5881 90.1707 46.6041 90.1729 46.6223C90.1741 46.6325 90.1775 46.6427 90.1786 46.653C90.1786 46.653 90.1786 46.6552 90.1786 46.6575C90.2093 46.9099 90.2218 47.1726 90.2275 47.4387C90.2287 47.4876 90.2366 47.5331 90.2366 47.582C90.2366 47.5876 90.2378 47.5933 90.2378 47.6002C90.2378 47.607 90.2366 47.6127 90.2366 47.6195C90.2366 47.6718 90.2287 47.7207 90.2275 47.773C90.2218 48.0334 90.2105 48.2915 90.1798 48.5394V48.5428C90.1786 48.5553 90.1752 48.5667 90.1729 48.5803C90.1707 48.6008 90.165 48.619 90.1616 48.6383C90.1252 48.9078 90.0774 49.1705 90.0138 49.4195L90.0126 49.4229L90.0217 49.4127C90.0228 49.4081 90.024 49.4047 90.0251 49.4002L91.6398 47.5945L90.0115 45.7694L90.0126 45.7729C90.0774 46.0276 90.1263 46.2948 90.1638 46.5711Z" fill="#676A6A"/>
<path d="M90.1614 48.6387C90.1659 48.6046 90.175 48.5739 90.1796 48.5398C90.2103 48.2919 90.2216 48.0338 90.2273 47.7734C90.2285 47.7142 90.2376 47.6597 90.2376 47.6005C90.2376 47.5448 90.2296 47.4936 90.2285 47.4391C90.2228 47.173 90.2103 46.9103 90.1796 46.6579C90.1762 46.6283 90.1682 46.601 90.1637 46.5715C90.1261 46.2963 90.0772 46.0291 90.0124 45.7744C89.9897 45.6857 89.9578 45.6072 89.9317 45.5208C89.7759 45.0046 89.5621 44.5474 89.3097 44.1688C89.2756 44.1188 89.2415 44.0687 89.2062 44.0221C89.1369 43.9289 89.0675 43.8379 88.9936 43.7572C88.8844 43.6389 88.7719 43.5298 88.6525 43.4399C88.607 43.4058 88.5592 43.3819 88.5126 43.3512C88.4103 43.2853 88.3045 43.2273 88.1954 43.1829C88.1487 43.1636 88.1021 43.1454 88.0544 43.1306C87.9009 43.0829 87.7439 43.0488 87.5813 43.0488C87.4187 43.0488 87.2629 43.0829 87.1083 43.1306C87.0605 43.1454 87.0139 43.1636 86.9673 43.1829C86.8581 43.2273 86.7535 43.2853 86.6501 43.3512C86.6046 43.3819 86.5557 43.4047 86.5113 43.4399C86.3919 43.5298 86.2794 43.6389 86.1702 43.7572C86.0963 43.8379 86.0269 43.9289 85.9576 44.0221C85.9223 44.0699 85.8871 44.1199 85.853 44.1699C85.6005 44.5497 85.3867 45.0057 85.231 45.5219C85.2241 45.5424 85.2173 45.5629 85.2116 45.5833C85.1434 45.8199 85.0888 46.07 85.0433 46.327C85.0297 46.4055 85.0115 46.4805 85.0013 46.5612C84.9603 46.8478 84.9387 47.1468 84.9342 47.4527C84.933 47.4948 84.9274 47.5357 84.9274 47.5778H84.9376C84.9376 50.0919 86.127 52.1296 87.5938 52.1296C87.8463 52.1296 88.0896 52.0636 88.3204 51.9499C88.358 51.9317 88.3943 51.9124 88.4307 51.8908C88.5274 51.8362 88.6206 51.7748 88.7116 51.7031C88.7616 51.6633 88.8082 51.6145 88.856 51.569C88.9731 51.4598 89.0846 51.3359 89.1903 51.1983C89.2631 51.1028 89.3359 51.0061 89.4029 50.8981C89.4462 50.8299 89.4848 50.7548 89.5246 50.682C89.5985 50.5456 89.669 50.4023 89.7327 50.2499C89.7554 50.1954 89.7805 50.1431 89.8021 50.0862C89.8828 49.8747 89.9544 49.653 90.0136 49.4187C90.0772 49.1708 90.125 48.9082 90.1614 48.6387ZM87.6768 46.9933C87.1265 46.9933 86.6808 46.2292 86.6808 45.2866C86.6808 44.3439 87.1265 43.5798 87.6768 43.5798C88.2272 43.5798 88.6729 44.3439 88.6729 45.2866C88.6729 46.2292 88.2272 46.9933 87.6768 46.9933Z" fill="black"/>
<path d="M87.677 46.9927C88.2271 46.9927 88.6731 46.2285 88.6731 45.2859C88.6731 44.3433 88.2271 43.5791 87.677 43.5791C87.1269 43.5791 86.6809 44.3433 86.6809 45.2859C86.6809 46.2285 87.1269 46.9927 87.677 46.9927Z" fill="white"/>
<path d="M85.231 45.522C85.3867 45.0046 85.6005 44.5487 85.8529 44.17C85.8871 44.1188 85.9223 44.07 85.9576 44.0222C86.0258 43.929 86.0963 43.8391 86.1702 43.7572C86.2793 43.6379 86.3931 43.531 86.5113 43.44C86.5568 43.4059 86.6046 43.382 86.65 43.3513C86.7524 43.2842 86.8581 43.2274 86.9673 43.183C87.0139 43.1637 87.0605 43.1455 87.1083 43.1307C87.2618 43.083 87.4187 43.0488 87.5813 43.0488C87.7439 43.0488 87.9008 43.0818 88.0543 43.1307C88.1021 43.1455 88.1487 43.1637 88.1953 43.183C88.3034 43.2274 88.4091 43.2842 88.5126 43.3513C88.5592 43.382 88.607 43.4059 88.6524 43.44C88.7718 43.531 88.8844 43.6379 88.9936 43.7572C89.0675 43.838 89.138 43.929 89.2062 44.0222C89.2415 44.07 89.2756 44.1188 89.3097 44.1689C89.5621 44.5487 89.7748 45.0046 89.9317 45.5209L87.5813 34.7572L85.231 45.522Z" fill="#909393"/>
<path d="M56.4344 47.4992C56.431 47.2832 56.4173 47.0694 56.3923 46.8579C56.3923 46.8545 56.3912 46.8522 56.3912 46.8488C56.3662 46.6419 56.332 46.4372 56.2877 46.2359C56.2866 46.2302 56.2854 46.2257 56.2843 46.22C56.2399 46.021 56.1865 45.8266 56.1228 45.6355C56.1217 45.631 56.1194 45.6264 56.1183 45.6219C56.0546 45.4309 55.9818 45.2432 55.9011 45.0613C55.9 45.0579 55.8977 45.0533 55.8954 45.0499C55.8135 44.8669 55.7226 44.6872 55.6236 44.5144C55.3212 43.9856 54.9437 43.5046 54.5059 43.0873C53.9498 42.5574 53.2949 42.1288 52.574 41.832C52.5683 41.8297 52.5626 41.8274 52.5558 41.8252C52.1999 41.6796 51.828 41.567 51.4426 41.4897C51.4335 41.4874 51.4232 41.4874 51.4141 41.4852C51.0287 41.4101 50.6296 41.368 50.2213 41.368C49.8199 41.368 49.4288 41.409 49.049 41.4817C49.0354 41.484 49.0217 41.4852 49.0081 41.4874C48.6306 41.5625 48.2655 41.6728 47.9165 41.8138C47.9074 41.8172 47.8971 41.8206 47.888 41.824C47.5333 41.9684 47.1944 42.1447 46.876 42.3493L46.8726 42.3505C46.5508 42.5574 46.2495 42.7928 45.972 43.0532L45.9652 43.0748L45.9425 43.0805C45.499 43.5012 45.1181 43.9868 44.8133 44.5212C44.8099 44.528 44.8054 44.5337 44.802 44.5394C44.7087 44.7031 44.6257 44.8737 44.5473 45.0465C44.5393 45.0647 44.5291 45.0829 44.5211 45.1011C44.4506 45.2614 44.3903 45.4274 44.3335 45.5946C44.3221 45.6276 44.3085 45.6583 44.2982 45.6912C44.2482 45.847 44.2084 46.0074 44.1709 46.1688C44.1607 46.2143 44.1459 46.2587 44.1356 46.3053C44.1027 46.4645 44.0799 46.6259 44.0583 46.7897C44.0526 46.8397 44.0413 46.8875 44.0356 46.9375C44.0128 47.1501 44.0015 47.3673 44.0015 47.5856C44.0015 47.9973 44.0435 48.3987 44.1197 48.7875C44.1209 48.7955 44.122 48.8035 44.1231 48.8126C44.2016 49.2003 44.3153 49.5755 44.4631 49.9337C44.4654 49.9383 44.4665 49.944 44.4688 49.9485C44.7679 50.674 45.2011 51.3301 45.7355 51.8872C46.1585 52.3273 46.6452 52.7059 47.1796 53.0084C47.1819 53.0095 47.1853 53.0118 47.1876 53.013C47.3547 53.1062 47.5276 53.1915 47.7027 53.2699C47.7175 53.2768 47.7311 53.2847 47.7459 53.2904C47.9085 53.362 48.0768 53.4223 48.2474 53.4803C48.2758 53.4905 48.3042 53.5019 48.3326 53.5121C48.4896 53.5622 48.651 53.602 48.8136 53.6395C48.858 53.6497 48.9 53.6634 48.9444 53.6725C49.1024 53.7054 49.2639 53.7271 49.4265 53.7487C49.4754 53.7555 49.5243 53.7657 49.5732 53.7714C49.7858 53.793 50.0007 53.8055 50.2191 53.8055C51.0776 53.8055 51.8951 53.6315 52.6399 53.3166C53.0118 53.1596 53.3654 52.9663 53.6963 52.7435C54.3581 52.2966 54.9289 51.7258 55.3758 51.064C55.5986 50.7331 55.7919 50.3795 55.9489 50.0076C56.2638 49.264 56.4378 48.4453 56.4378 47.5868C56.4378 47.572 56.4355 47.5583 56.4355 47.5436C56.4367 47.5299 56.4344 47.5151 56.4344 47.4992ZM50.2202 46.7703C48.9296 46.7703 47.8846 45.7242 47.8846 44.4348C47.8846 43.1442 48.9307 42.0992 50.2202 42.0992C51.5108 42.0992 52.5558 43.1453 52.5558 44.4348C52.5569 45.7242 51.5108 46.7703 50.2202 46.7703Z" fill="black"/>
<path d="M50.2201 46.7688C51.51 46.7688 52.5557 45.7231 52.5557 44.4332C52.5557 43.1433 51.51 42.0976 50.2201 42.0976C48.9302 42.0976 47.8845 43.1433 47.8845 44.4332C47.8845 45.7231 48.9302 46.7688 50.2201 46.7688Z" fill="white"/>
<path d="M45.9424 43.0837L45.9651 43.078L45.972 43.0564L50.2542 29.9594C50.2542 29.9594 50.2542 29.184 50.2542 28.4096C50.2542 28.1913 50.2542 27.9752 50.2542 27.774C50.2542 27.7069 50.2542 27.6409 50.2542 27.5784C50.2542 27.4806 50.2542 27.3919 50.2542 27.3089C50.2542 27.2509 50.2542 27.1941 50.2542 27.1463C50.2542 27.0815 50.2542 27.028 50.2542 26.9837C50.2542 26.9473 50.2542 26.9155 50.2542 26.895C50.2542 26.8723 50.2542 26.8597 50.2542 26.8597C47.8698 26.3708 45.4171 26.1024 42.9064 26.1024C42.0683 26.1024 41.2371 26.1377 40.4116 26.1945C40.2911 26.2025 40.1705 26.2105 40.05 26.2196C35.7507 26.5459 31.5184 27.6671 27.5989 29.4557C24.2377 30.9908 21.1141 33.0125 18.3066 35.4095L18.3021 35.4141C17.5482 36.0542 16.8261 36.7308 16.12 37.4233C15.9881 37.5529 15.8539 37.6803 15.7243 37.811C15.0602 38.4808 14.4178 39.1721 13.7969 39.884C13.6616 40.0386 13.5297 40.1967 13.3967 40.3536C12.7735 41.0893 12.1663 41.8386 11.591 42.6141C11.5432 42.6789 11.4977 42.7471 11.45 42.812C10.9008 43.559 10.3788 44.3254 9.8751 45.1055C9.77732 45.2578 9.67611 45.4079 9.57946 45.5614C9.17238 46.2073 8.7926 46.8714 8.41736 47.5366H27.8923H27.9264L45.9424 43.0837Z" fill="#BBBCBD"/>
<path d="M62.413 41.609C62.4528 41.0985 62.4857 40.5868 62.5119 40.0763C62.5471 39.3838 62.571 38.6913 62.5847 37.9988C62.5949 37.461 62.5938 36.9231 62.5915 36.3853C62.5903 36.2295 62.5949 36.0748 62.5926 35.9191C62.5778 34.533 62.5244 33.1446 62.4391 31.7562C62.4357 31.7539 62.4312 31.7505 62.4277 31.7482C62.4255 31.7448 62.4243 31.7414 62.4221 31.738C62.4164 31.7346 62.397 31.7232 62.3788 31.713C62.3618 31.7039 62.3481 31.6948 62.3163 31.6777C62.0616 31.531 61.4351 31.1729 60.8733 30.8533C60.862 30.8465 60.8495 30.8397 60.8381 30.8329C60.696 30.7521 60.5584 30.6748 60.4344 30.6043C60.4322 30.6032 60.4276 30.5998 60.4276 30.5998C60.3207 30.5395 60.2309 30.4895 60.1479 30.4428C60.1308 30.4337 60.1081 30.4201 60.0933 30.4121C60.0023 30.361 59.9307 30.3223 59.8898 30.3018C58.9926 29.8368 58.0772 29.4058 57.1471 29.0124C54.9286 28.0754 51.9404 27.2544 50.2563 26.8576V28.0368V28.3119V28.4075C50.2563 29.183 50.2563 29.9573 50.2563 29.9573L54.5011 43.0759L54.5056 43.0873C54.9434 43.5046 55.3209 43.9856 55.6234 44.5143C55.7223 44.6883 55.8133 44.8668 55.8952 45.0499C55.8974 45.0533 55.8986 45.0567 55.9009 45.0612C55.9827 45.2432 56.0544 45.4308 56.118 45.6218C56.1192 45.6264 56.1215 45.6309 56.1226 45.6355C56.1851 45.8265 56.2397 46.0209 56.2841 46.2199C56.2852 46.2256 56.2863 46.2302 56.2875 46.2359C56.3318 46.436 56.3671 46.6407 56.3909 46.8487C56.3909 46.8522 56.3921 46.8544 56.3921 46.8578C56.4171 47.0682 56.4307 47.282 56.4341 47.4992L56.4501 47.5344H61.6477C61.9991 45.6321 62.2435 43.7047 62.3993 41.7694C62.4027 41.7159 62.4084 41.6625 62.413 41.609Z" fill="#E2DDDB"/>
<path d="M69.2101 36.9707C69.2068 36.9761 69.2047 36.9826 69.2014 36.9881C69.2047 36.9826 69.2079 36.9772 69.2101 36.9707Z" fill="#FBB040"/>
<path d="M56.4784 66.2277C57.6576 65.0543 58.7708 63.9308 59.8328 62.829C60.4639 62.1751 61.0802 61.527 61.6692 60.888C66.0129 56.1725 69.2024 51.7594 71.1207 46.0831C71.1662 45.9478 71.2117 45.7704 71.2549 45.5714C71.2617 45.5407 71.2685 45.5111 71.2753 45.4793C71.3208 45.2678 71.364 45.0324 71.4072 44.7663C71.4243 44.5833 71.4425 44.4059 71.4584 44.2342C70.9763 41.7621 70.0405 39.3606 69.2149 36.9875C69.2183 36.9955 69.2206 37.0034 69.224 37.0114C69.2195 37.0068 69.2036 36.9921 69.2002 36.9886C69.0421 36.8385 68.8761 36.6987 68.7157 36.5509C68.2268 36.1006 67.7299 35.6605 67.2239 35.2341C65.7059 33.9538 64.1117 32.7871 62.4379 31.7558C62.5232 33.1442 62.5766 34.5325 62.5914 35.9186C62.5937 36.0744 62.5891 36.2291 62.5903 36.3849C62.5925 36.9227 62.5937 37.4605 62.5834 37.9984C62.5698 38.6909 62.5459 39.3834 62.5107 40.0758C62.4845 40.5875 62.4515 41.0981 62.4117 41.6086C62.4072 41.6621 62.4015 41.7144 62.3981 41.7678C62.2434 43.7043 61.9978 45.6305 61.6465 47.5329L61.0359 50.4199C59.7612 55.5891 57.1709 60.2785 55.0411 65.1202C54.476 66.404 53.9404 67.7025 53.4708 69.025C53.4276 69.1466 53.3821 69.274 53.3378 69.3991C54.003 68.6998 54.592 68.096 55.04 67.6525C55.5289 67.1692 56.0088 66.6951 56.4784 66.2277Z" fill="#FBB040"/>
<path d="M45.9718 43.0565C46.2493 42.7961 46.5506 42.5607 46.8724 42.3538L46.8758 42.3527C47.1942 42.148 47.533 41.9717 47.8878 41.8273C47.8969 41.8239 47.9071 41.8205 47.9162 41.8171C48.2653 41.6761 48.6303 41.5658 49.0078 41.4907C49.0215 41.4885 49.0351 41.4873 49.0488 41.4851C49.4286 41.4123 49.8197 41.3713 50.2211 41.3713C50.6293 41.3713 51.0273 41.4134 51.4139 41.4885C51.4241 41.4907 51.4332 41.4907 51.4423 41.493C51.8278 41.5703 52.1996 41.684 52.5555 41.8285C52.5612 41.8307 52.5669 41.833 52.5737 41.8353C53.2958 42.1321 53.9496 42.5607 54.5056 43.0906L54.5011 43.0793L50.2563 29.9607L45.9718 43.0565Z" fill="#909393"/>
<path d="M44.4643 49.9356C44.3176 49.5774 44.2027 49.2022 44.1243 48.8144C44.1231 48.8065 44.122 48.7985 44.1209 48.7894C44.0447 48.4005 44.0026 47.9991 44.0026 47.5875C44.0026 47.3681 44.014 47.152 44.0367 46.9394C44.0424 46.8893 44.0526 46.8416 44.0595 46.7915C44.0811 46.6289 44.1027 46.4663 44.1368 46.3071C44.147 46.2605 44.1607 46.2162 44.172 46.1707C44.2095 46.0092 44.2493 45.8489 44.2994 45.6931C44.3096 45.6601 44.3233 45.6294 44.3346 45.5965C44.3915 45.4293 44.4517 45.2633 44.5222 45.103C44.5302 45.0848 44.5404 45.0666 44.5484 45.0484C44.6269 44.8756 44.7099 44.705 44.8031 44.5413C44.8065 44.5344 44.8111 44.5287 44.8145 44.5231C45.1192 43.9886 45.5001 43.5031 45.9436 43.0824L27.9264 47.5329H27.8923L45.7378 51.888C45.2034 51.3308 44.7701 50.6747 44.4711 49.9492C44.4677 49.9458 44.4665 49.9401 44.4643 49.9356Z" fill="#676A6A"/>
<path d="M85.0013 46.56C85.0127 46.4793 85.0298 46.4042 85.0434 46.3258C85.0889 46.0699 85.1423 45.8198 85.2117 45.5821C85.2196 45.556 85.2231 45.5253 85.2299 45.4991L87.5802 34.7343V28.5963C85.6597 27.0101 83.6027 26.1425 81.4604 26.1425C78.7553 26.1425 76.2321 27.6366 74.3457 29.4821C72.2807 31.5016 70.6865 34.0429 69.3959 36.6071C69.3368 36.7253 69.2765 36.8379 69.2174 36.9573C69.6154 37.3018 70.0088 37.6509 70.3966 38.0057C71.2755 38.8096 72.1352 39.634 72.9823 40.4709C73.378 40.8609 73.7646 41.2589 74.1535 41.6557C74.5663 42.0753 74.979 42.4949 75.385 42.9213C75.9069 43.4705 76.4254 44.0243 76.9382 44.5837C77.1543 44.8191 77.3692 45.0556 77.583 45.2922C78.2004 45.9767 78.8156 46.6635 79.4205 47.3605L79.4216 47.3617C79.5228 47.4685 79.5945 47.5436 79.6218 47.5754H84.9229C84.9229 47.5322 84.932 47.4936 84.932 47.4503C84.9399 47.1456 84.9604 46.8465 85.0013 46.56Z" fill="#E2DDDB"/>
<path d="M69.2162 36.9866C69.2139 36.9809 69.2128 36.9753 69.2105 36.9707C69.2071 36.9764 69.2048 36.9821 69.2014 36.9889C69.2048 36.9923 69.2207 37.0071 69.2253 37.0116C69.223 37.0037 69.2196 36.9957 69.2162 36.9866Z" fill="#E2DDDB"/>
<path d="M5.21989 54.3079C5.23467 54.2681 5.25173 54.2295 5.26651 54.1897C5.60764 53.2971 5.98174 52.4158 6.37517 51.5437C6.48433 51.3003 6.59804 51.0604 6.71061 50.8182C7.03241 50.1337 7.3724 49.4583 7.7249 48.7885C7.86817 48.5156 8.00803 48.2427 8.15699 47.9732C8.23886 47.8243 8.3321 47.6821 8.41511 47.5332C8.79148 46.868 9.17013 46.2039 9.57721 45.558C9.67386 45.4045 9.77507 45.2544 9.87286 45.1021C10.3766 44.3232 10.8996 43.5556 11.4477 42.8086C11.4955 42.7437 11.5398 42.6755 11.5887 42.6107C12.1641 41.8363 12.7713 41.0859 13.3944 40.3502C13.5275 40.1933 13.6594 40.0352 13.7947 39.8806C14.4155 39.1687 15.0568 38.4774 15.722 37.8076C15.8528 37.6769 15.9858 37.5495 16.1177 37.4199C16.8239 36.7274 17.5459 36.052 18.2998 35.4107C18.3009 35.4095 18.3032 35.4073 18.3044 35.4061C21.2688 25.4725 30.3416 18.2418 41.0768 18.2418C45.3989 18.2418 49.6948 19.4869 53.3778 21.7395C57.1553 24.05 60.2334 27.4351 62.2335 31.3808C62.2437 31.4002 62.2539 31.4206 62.263 31.44C62.3131 31.54 62.3699 31.6355 62.42 31.7367C62.4211 31.7401 62.4234 31.7436 62.4257 31.747C62.4291 31.7492 62.4336 31.7527 62.437 31.7549C64.1097 32.7851 65.705 33.9529 67.223 35.2333C67.729 35.6597 68.2259 36.0997 68.7149 36.55C68.8752 36.6979 69.0412 36.8377 69.1993 36.9878C69.2027 36.9821 69.205 36.9753 69.2084 36.9696C69.2107 36.9662 69.2129 36.9617 69.2141 36.9582C69.2687 36.8457 69.3221 36.732 69.3778 36.6228C70.8901 27.0747 75.1019 20.1964 80.0698 20.1964C83.8143 20.1964 87.1312 24.1012 89.187 30.1107L89.2075 30.1755C89.2098 30.1778 89.2109 30.1801 89.2132 30.1823C89.7931 30.8134 90.3594 31.5082 90.9074 32.27C90.9188 32.2848 90.9279 32.2985 90.9393 32.3132C90.9688 32.4008 90.9939 32.4895 91.0223 32.577L90.9438 32.2643C84.7638 13.9686 67.4595 0.79657 47.0784 0.79657C21.5132 0.79657 0.789795 21.5211 0.789795 47.0852C0.789795 52.1247 1.59485 56.9767 3.09012 61.4921C3.0924 61.483 3.09467 61.475 3.09581 61.4659C3.39032 60.1037 3.74168 58.7505 4.15217 57.411C4.47624 56.3661 4.83214 55.3313 5.21989 54.3079Z" fill="#525353"/>
<path d="M91.6396 47.5955L90.0249 49.4012C90.0238 49.4058 90.0226 49.4092 90.0215 49.4137C89.9601 49.6502 89.885 49.8731 89.802 50.0869C89.7804 50.1437 89.7565 50.196 89.7327 50.2506C89.6678 50.4019 89.5996 50.5463 89.5246 50.6827C89.4848 50.7555 89.445 50.8305 89.4029 50.8988C89.3358 51.0068 89.2642 51.1034 89.1903 51.199C89.0845 51.3365 88.9731 51.4605 88.856 51.5696C88.8082 51.6151 88.7616 51.664 88.7116 51.7038C88.6206 51.7766 88.5262 51.8369 88.4307 51.8914C88.3943 51.9119 88.3579 51.9324 88.3204 51.9506C88.0896 52.0631 87.8462 52.1302 87.5938 52.1302C86.127 52.1302 84.9376 50.0926 84.9376 47.5785H84.9273H84.9251H79.624H79.608L79.6114 47.5819C80.6007 48.7247 81.5741 49.8833 82.5326 51.0523C82.544 51.0659 82.5554 51.0807 82.5679 51.0943C83.5003 52.2326 84.4202 53.3822 85.3287 54.5374C85.3731 54.5943 85.4185 54.65 85.4629 54.7069C86.3248 55.8064 87.1776 56.9128 88.0225 58.0215C88.1044 58.1295 88.1874 58.2364 88.2692 58.3433C89.163 59.519 90.0488 60.6982 90.9266 61.8785C90.9323 61.8865 90.9391 61.8955 90.9448 61.9035C92.4674 57.3972 93.319 52.5839 93.3725 47.5773H93.3611H91.6566L91.6396 47.5955Z" fill="white"/>
<path d="M40.0501 26.2173C40.1706 26.2082 40.2912 26.2002 40.4117 26.1922C41.2372 26.1365 42.0684 26.1001 42.9065 26.1001C45.416 26.1001 47.8687 26.3696 50.2543 26.8574C50.2543 26.8574 50.2543 26.8699 50.2543 26.8927C50.2543 26.9132 50.2543 26.945 50.2543 26.9814C50.2543 27.0257 50.2543 27.0814 50.2543 27.144C50.2543 27.1929 50.2543 27.2486 50.2543 27.3066C50.2543 27.3885 50.2543 27.4806 50.2543 27.5761C50.2543 27.6386 50.2543 27.7046 50.2543 27.7717C50.2543 27.8569 50.2543 27.9456 50.2543 28.0366V26.8574C51.9384 27.2543 54.9266 28.0753 57.1451 29.0122C58.0764 29.4057 58.9917 29.8355 59.8877 30.3017C59.9287 30.3233 60.0003 30.3619 60.0913 30.412C60.1072 30.4211 60.1299 30.4336 60.1459 30.4427C60.2289 30.4893 60.3198 30.5393 60.4256 30.5996C60.4279 30.6007 60.4313 30.603 60.4324 30.6041C60.5575 30.6746 60.6928 30.752 60.8361 30.8327C60.8475 30.8395 60.86 30.8463 60.8713 30.8532C61.4421 31.1772 62.0732 31.5388 62.3143 31.6776C62.345 31.6958 62.3598 31.7037 62.3768 31.7128C62.3882 31.7196 62.4166 31.7355 62.42 31.7378C62.37 31.6378 62.3132 31.5411 62.2631 31.441C62.2529 31.4217 62.2438 31.4012 62.2336 31.3819C60.2346 27.4362 57.1553 24.0511 53.3779 21.7405C49.6949 19.488 45.3978 18.2429 41.0769 18.2429C30.3417 18.2429 21.2688 25.4736 18.3044 35.4072C21.1119 33.0102 24.2344 30.9885 27.5967 29.4534C31.5185 27.6636 35.7519 26.5436 40.0501 26.2173Z" fill="black"/>
<path d="M74.3457 29.4842C76.2322 27.6387 78.7554 26.1446 81.4605 26.1446C83.6028 26.1446 85.6598 27.0122 87.5803 28.5984C87.5803 28.5984 87.5803 28.6121 87.5803 28.6166C87.752 28.7576 87.9203 28.9168 88.0909 29.0715C88.1932 29.1647 88.2989 29.25 88.4002 29.3478C88.6696 29.6059 88.9357 29.8788 89.1995 30.1653C89.2052 30.171 89.2098 30.1778 89.2143 30.1835C89.2132 30.1813 89.2109 30.179 89.2086 30.1778L89.187 30.113C87.1312 24.1035 83.8143 20.1988 80.0698 20.1988C75.1019 20.1988 70.8901 27.077 69.3778 36.6251L69.3937 36.6115C70.6866 34.0451 72.2819 31.5037 74.3457 29.4842Z" fill="black"/>
<path d="M30.5089 90.2625C30.9319 90.4251 31.3617 90.5718 31.7904 90.7219C36.5787 92.3991 41.7206 93.3236 47.0831 93.3236C53.1972 93.3236 59.0282 92.1273 64.3714 89.9737C64.6545 89.86 64.9308 89.7349 65.2106 89.6155C65.6643 89.4222 66.1146 89.2232 66.5603 89.0163C66.9594 88.8309 67.3585 88.6467 67.7508 88.4511C67.6564 88.4625 67.5609 88.4807 67.4666 88.4921C65.8053 88.6785 64.1576 88.6899 62.5464 88.4591C53.0221 87.09 50.9117 82.4973 51.2142 77.7147C50.5285 77.319 49.8303 76.8744 49.1208 76.3593C41.7957 71.0457 37.4486 65.3842 37.4486 65.3842C37.4486 65.3842 43.0988 69.746 51.5394 73.0106C51.7202 73.0811 51.8896 73.1414 52.0681 73.2085C52.4627 71.8451 52.9289 70.5488 53.3394 69.4004C53.3837 69.2753 53.4292 69.1479 53.4724 69.0262C53.942 67.7038 54.4776 66.4064 55.0427 65.1215C57.1725 60.2798 59.7616 55.5904 61.0375 50.4212L61.6481 47.5341H56.4504H56.4391C56.4391 47.5376 56.4391 47.541 56.4391 47.5444L56.4368 47.5455C56.4368 47.5603 56.4391 47.5739 56.4391 47.5887C56.4391 48.4472 56.2651 49.2648 55.9501 50.0096C55.7921 50.3814 55.5999 50.7351 55.377 51.0659C54.9302 51.7277 54.3593 52.2985 53.6976 52.7454C53.3667 52.9694 53.013 53.1616 52.6412 53.3185C51.8975 53.6335 51.0788 53.8075 50.2203 53.8075C50.002 53.8075 49.7871 53.7961 49.5745 53.7733C49.5244 53.7677 49.4767 53.7574 49.4278 53.7506C49.2652 53.7301 49.1037 53.7074 48.9457 53.6744C48.9013 53.6653 48.8592 53.6517 48.8149 53.6414C48.6523 53.6039 48.4908 53.5641 48.3339 53.5141C48.3055 53.505 48.2771 53.4925 48.2486 53.4823C48.0792 53.4254 47.9098 53.364 47.7472 53.2924C47.7324 53.2855 47.7187 53.2787 47.704 53.2719C47.5277 53.1934 47.3549 53.1093 47.1889 53.0149C47.1866 53.0138 47.1832 53.0115 47.1809 53.0104C46.6453 52.709 46.1587 52.3304 45.7368 51.8892L27.8913 47.5341H8.41643C8.33229 47.682 8.24018 47.8252 8.15831 47.9742C8.00936 48.2437 7.86949 48.5177 7.72622 48.7895C7.37372 49.4581 7.0326 50.1335 6.71194 50.8192C6.59823 51.0603 6.48566 51.3013 6.3765 51.5447C5.9842 52.4168 5.6101 53.298 5.26784 54.1907C5.25305 54.2305 5.236 54.2691 5.22122 54.3089C4.83347 55.3323 4.47756 56.3671 4.15804 57.4109C3.74869 58.7504 3.39619 60.1035 3.10168 61.4658C6.16841 70.8172 12.1324 78.8518 19.9306 84.5157C20.1569 84.6805 20.3968 84.8272 20.6265 84.9876C21.9455 85.9097 23.3077 86.7716 24.7223 87.5551C26.578 88.5819 28.5076 89.4938 30.5089 90.2625Z" fill="white"/>
<path d="M62.4677 75.8857C62.3972 76.3815 62.3483 76.8693 62.3347 77.34C62.3074 78.1963 62.3665 79.0093 62.4916 79.778C62.5746 80.2908 62.686 80.7831 62.8202 81.2539C63.0215 81.9612 63.2739 82.6218 63.557 83.2324C63.839 83.8431 64.1517 84.4036 64.4724 84.9131C64.5793 85.0825 64.6873 85.2462 64.7953 85.4043C64.9579 85.6408 65.1205 85.8637 65.2809 86.0729C65.4935 86.3515 65.6993 86.5959 65.8983 86.8256C66.7477 87.8024 67.4163 88.3334 67.4163 88.3334C67.4163 88.3334 67.4209 88.3493 67.43 88.3766C67.4391 88.4039 67.4527 88.4448 67.4686 88.4937C67.563 88.4835 67.6585 88.4653 67.7529 88.4528C69.8167 88.1947 71.8964 87.6352 73.9477 86.8973C74.9939 86.5209 76.0354 86.1127 77.0611 85.6453C77.3738 85.5021 77.6797 85.344 77.9901 85.1939C88.5934 80.0668 97.4718 70.9985 97.4718 70.9985C84.1474 77.5436 71.1266 77.2832 62.4677 75.8857Z" fill="#9F2255"/>
<path d="M88.0216 58.0226C87.1767 56.9128 86.325 55.8064 85.462 54.708C85.4176 54.6511 85.3721 54.5954 85.3278 54.5385C84.4193 53.3821 83.4994 52.2337 82.5669 51.0954C82.5556 51.0818 82.5442 51.067 82.5317 51.0534C81.572 49.8844 80.5998 48.7257 79.6105 47.583C79.548 47.5102 79.4854 47.4374 79.4218 47.3646C78.8168 46.6688 78.2017 45.9808 77.5842 45.2963C77.3693 45.0598 77.1555 44.8233 76.9395 44.5879C76.4267 44.0284 75.9093 43.4747 75.3862 42.9255C74.9792 42.4991 74.5675 42.0795 74.1548 41.6599C73.7659 41.2642 73.3781 40.8651 72.9836 40.475C72.1342 39.6393 71.2757 38.8138 70.3978 38.0098C70.0089 37.6551 69.6155 37.3048 69.2175 36.9603C69.2153 36.9648 69.2141 36.9683 69.2118 36.9717C70.0487 39.3755 71.0028 41.81 71.4803 44.3161C71.6043 44.9677 71.7078 45.6033 71.7908 46.223C72.9563 54.9001 70.1761 60.5651 65.7596 68.0176C65.4435 68.552 65.1183 69.0944 64.7863 69.6493C63.7766 71.3322 63.1296 72.9264 62.7555 74.4239C62.6304 74.9231 62.536 75.4109 62.4678 75.8874C71.1267 77.2849 84.1475 77.5452 97.4696 70.999C97.4696 70.999 94.8577 67.1591 90.9257 61.8807C90.0467 60.7004 89.1609 59.5213 88.2683 58.3455C88.1864 58.2364 88.1034 58.1295 88.0216 58.0226Z" fill="#E2066F"/>
<path d="M67.4138 88.3321C67.4138 88.3321 66.7452 87.8022 65.8958 86.8243C65.6968 86.5946 65.4922 86.3502 65.2784 86.0716C65.1181 85.8624 64.9555 85.6395 64.7929 85.403C64.6848 85.2449 64.5768 85.0812 64.4699 84.9118C64.1493 84.4035 63.8366 83.8429 63.5546 83.2311C63.2726 82.6205 63.0201 81.9599 62.8177 81.2526C62.6836 80.7807 62.5721 80.2884 62.4891 79.7767C62.3652 79.008 62.306 78.195 62.3322 77.3388C62.347 76.868 62.3947 76.3802 62.4652 75.8844C62.5335 75.408 62.6278 74.919 62.7529 74.421C63.127 72.9246 63.774 71.3304 64.7838 69.6463C64.7872 69.6418 64.7894 69.6373 64.7917 69.6327C65.1215 69.0835 65.4433 68.5445 65.7571 68.0158C70.1724 60.5633 72.9526 54.8983 71.7882 46.2212C71.7052 45.6015 71.6017 44.967 71.4778 44.3143C71.4118 44.7646 71.3436 45.1523 71.2743 45.4787C71.2674 45.5105 71.2606 45.5401 71.2538 45.5708C71.2094 45.7686 71.1651 45.9483 71.1196 46.0825C69.2013 51.7588 66.0118 56.1719 61.6681 60.8874C61.0791 61.5264 60.4628 62.1745 59.8317 62.8284C58.7697 63.9291 57.6565 65.0536 56.4773 66.2271C56.0077 66.6945 55.5279 67.1698 55.04 67.653C54.592 68.0965 54.003 68.7014 53.3378 69.3996C52.9273 70.5492 52.46 71.8455 52.0666 73.2077C51.8892 73.1406 51.7198 73.0804 51.5378 73.0099C43.0984 69.7453 37.447 65.3834 37.447 65.3834C37.447 65.3834 41.7941 71.045 49.1192 76.3586C49.8288 76.8737 50.5269 77.3183 51.2126 77.714C50.9101 82.4966 53.0206 87.0893 62.5448 88.4583C64.1549 88.6903 65.8037 88.6789 67.465 88.4913C67.448 88.4424 67.4354 88.4015 67.4263 88.3742C67.4184 88.348 67.4138 88.3321 67.4138 88.3321Z" fill="black"/>
</svg>
