<svg width="94" height="107" viewBox="0 0 94 107" fill="none" xmlns="http://www.w3.org/2000/svg">
<path d="M82.2242 20.8361C82.147 20.2946 81.6839 20.0023 81.2894 19.9679C80.9034 19.9336 72.6956 19.3233 72.6956 19.3233C72.6956 19.3233 67.0007 13.6501 66.3746 13.0226C65.7485 12.3951 64.5306 12.5842 64.0503 12.7217C63.9817 12.7389 62.8067 13.1085 60.8598 13.7102C58.9644 8.22614 55.6023 3.18043 49.693 3.18043C49.5301 3.18043 49.3585 3.18903 49.1956 3.19762C47.506 0.971321 45.4304 0 43.6294 0C29.8638 0 23.2856 17.2517 21.2186 26.0194C15.8668 27.6783 12.0673 28.8646 11.5785 29.0107C8.59379 29.9476 8.49945 30.0422 8.10492 32.8616C7.81332 35.0019 0 95.5676 0 95.5676L60.8941 107L93.8884 99.8483C93.8799 99.8483 82.3014 21.3691 82.2242 20.8361ZM57.4978 14.7589C55.9711 15.2317 54.2301 15.7732 52.3432 16.3577C52.3432 15.9967 52.3432 15.6357 52.3432 15.2403C52.3432 11.8278 51.8715 9.07712 51.1168 6.90239C54.1615 7.2892 56.1941 10.7619 57.4978 14.7589ZM47.343 7.58146C48.1921 9.70461 48.741 12.7561 48.741 16.8821C48.741 17.0884 48.741 17.2861 48.741 17.4838C45.3876 18.5239 41.7511 19.6499 38.0974 20.7845C40.1472 12.8507 43.981 9.02555 47.343 7.58146ZM43.252 3.70477C43.8438 3.70477 44.4441 3.90247 45.0188 4.29788C40.6018 6.37805 35.8761 11.6215 33.8777 22.0911C30.9617 22.9937 28.1056 23.879 25.464 24.7042C27.8055 16.7188 33.3631 3.70477 43.252 3.70477Z" fill="#95BF47"/>
<path d="M81.2979 19.9678C80.912 19.9334 72.7041 19.3231 72.7041 19.3231C72.7041 19.3231 67.0092 13.6499 66.3832 13.0224C66.1516 12.7903 65.8342 12.67 65.4998 12.6184L60.8941 107L93.8798 99.8482C93.8798 99.8482 82.3014 21.3689 82.2242 20.836C82.1556 20.2944 81.6839 19.9936 81.2979 19.9678Z" fill="#5E8E3E"/>
<path d="M49.693 38.234L45.6277 50.3627C45.6277 50.3627 42.0598 48.4544 37.6943 48.4544C31.2876 48.4544 30.9702 52.4858 30.9702 53.5001C30.9702 59.0358 45.379 61.1589 45.379 74.1385C45.379 84.3503 38.9208 90.9174 30.2069 90.9174C19.752 90.9174 14.4088 84.4019 14.4088 84.4019L17.2047 75.1356C17.2047 75.1356 22.7024 79.8633 27.3337 79.8633C30.3613 79.8633 31.5963 77.4737 31.5963 75.7287C31.5963 68.4997 19.7777 68.1817 19.7777 56.3109C19.7777 46.3141 26.9306 36.6438 41.3823 36.6438C46.9399 36.6352 49.693 38.234 49.693 38.234Z" fill="white"/>
</svg>
