<svg width="22" height="20" viewBox="0 0 22 20" fill="none" xmlns="http://www.w3.org/2000/svg">
<path d="M10.9998 16.7552L5.66777 19.8127C5.43222 19.9554 5.18597 20.0166 4.929 19.9962C4.67204 19.9758 4.4472 19.8943 4.25447 19.7516C4.06175 19.6089 3.91186 19.4307 3.80479 19.2171C3.69772 19.0027 3.67631 18.763 3.74055 18.498L5.15385 12.7193L0.432147 8.83623C0.218011 8.65278 0.0843906 8.44365 0.0312849 8.20883C-0.0226774 7.97483 -0.00683139 7.74572 0.078823 7.5215C0.164477 7.29728 0.292959 7.11383 0.464268 6.97114C0.635576 6.82846 0.871126 6.73674 1.17092 6.69597L7.40227 6.17619L9.8113 0.733805C9.91837 0.489204 10.0845 0.305752 10.3098 0.183451C10.5342 0.0611505 10.7642 0 10.9998 0C11.2353 0 11.4657 0.0611505 11.691 0.183451C11.9154 0.305752 12.0811 0.489204 12.1882 0.733805L14.5972 6.17619L20.8286 6.69597C21.1284 6.73674 21.3639 6.82846 21.5352 6.97114C21.7066 7.11383 21.835 7.29728 21.9207 7.5215C22.0063 7.74572 22.0226 7.97483 21.9695 8.20883C21.9156 8.44365 21.7815 8.65278 21.5674 8.83623L16.8457 12.7193L18.259 18.498C18.3232 18.763 18.3018 19.0027 18.1947 19.2171C18.0877 19.4307 17.9378 19.6089 17.745 19.7516C17.5523 19.8943 17.3275 19.9758 17.0705 19.9962C16.8135 20.0166 16.5673 19.9554 16.3317 19.8127L10.9998 16.7552Z" fill="#FFC700"/>
</svg>
