<svg width="20" height="26" viewBox="0 0 20 26" fill="none" xmlns="http://www.w3.org/2000/svg">
<path d="M12.5 0.5H2.5C1.125 0.5 0 1.625 0 3V23C0 24.375 1.125 25.5 2.5 25.5H17.5C18.875 25.5 20 24.375 20 23V8L12.5 0.5ZM10 10.5C11.375 10.5 12.5 11.625 12.5 13C12.5 14.375 11.375 15.5 10 15.5C8.625 15.5 7.5 14.375 7.5 13C7.5 11.625 8.625 10.5 10 10.5ZM15 20.5H5V19.7875C5 18.775 5.6 17.875 6.525 17.475C7.62107 16.9966 8.80409 16.7497 10 16.7497C11.1959 16.7497 12.3789 16.9966 13.475 17.475C13.9279 17.6686 14.3138 17.991 14.585 18.4021C14.8561 18.8132 15.0004 19.295 15 19.7875V20.5Z" fill="#0074FC"/>
</svg>
