<svg width="25" height="25" viewBox="0 0 25 25" fill="none" xmlns="http://www.w3.org/2000/svg">
<path d="M7.66675 14.917H14.9167C15.2591 14.917 15.5463 14.801 15.7783 14.569C16.0095 14.3378 16.1251 14.051 16.1251 13.7087V11.292L18.5417 13.7087V6.45866L16.1251 8.87533V6.45866C16.1251 6.1163 16.0095 5.82912 15.7783 5.59712C15.5463 5.36592 15.2591 5.25033 14.9167 5.25033H7.66675C7.32439 5.25033 7.03721 5.36592 6.80521 5.59712C6.57401 5.82912 6.45841 6.1163 6.45841 6.45866V13.7087C6.45841 14.051 6.57401 14.3378 6.80521 14.569C7.03721 14.801 7.32439 14.917 7.66675 14.917ZM0.416748 24.5837V2.83366C0.416748 2.16908 0.653581 1.59995 1.12725 1.12628C1.60011 0.653423 2.16883 0.416992 2.83341 0.416992H22.1667C22.8313 0.416992 23.4005 0.653423 23.8741 1.12628C24.347 1.59995 24.5834 2.16908 24.5834 2.83366V17.3337C24.5834 17.9982 24.347 18.5674 23.8741 19.041C23.4005 19.5139 22.8313 19.7503 22.1667 19.7503H5.25008L0.416748 24.5837Z" fill="#737373"/>
</svg>
