<svg width="26" height="26" viewBox="0 0 26 26" fill="none" xmlns="http://www.w3.org/2000/svg">
<mask id="mask0_1_597" style="mask-type:luminance" maskUnits="userSpaceOnUse" x="0" y="0" width="26" height="26">
<path d="M0 0H26V26H0V0Z" fill="white"/>
</mask>
<g mask="url(#mask0_1_597)">
<path d="M15.4495 0.19181L14.6695 0.0823362C12.3253 -0.256132 9.93316 0.0787171 7.772 1.04785C5.61084 2.01698 3.76968 3.58046 2.46316 5.55602C1.07305 7.44441 0.24438 9.68693 0.0724979 12.0255C-0.099384 14.364 0.392512 16.7036 1.49158 18.775C1.60406 18.9826 1.67409 19.2105 1.69758 19.4454C1.72108 19.6804 1.69757 19.9176 1.62842 20.1434C1.06737 22.0729 0.547368 24.016 0 26.055L0.684211 25.8497C2.53158 25.3571 4.37895 24.8644 6.22632 24.4129C6.61624 24.3318 7.02153 24.3699 7.38947 24.5223C9.0469 25.3312 10.8582 25.7763 12.7018 25.8275C14.5453 25.8788 16.3785 25.5351 18.0784 24.8196C19.7782 24.1041 21.3053 23.0332 22.5572 21.6789C23.8091 20.3246 24.7568 18.7182 25.3368 16.9675C25.9168 15.2168 26.1155 13.3622 25.9198 11.5284C25.724 9.6945 25.1383 7.92372 24.2018 6.33487C23.2654 4.74601 21.9999 3.37584 20.4903 2.31632C18.9808 1.25679 17.262 0.532416 15.4495 0.19181ZM18.8979 18.1455C18.4006 18.5908 17.7941 18.8963 17.1402 19.0309C16.4864 19.1655 15.8086 19.1244 15.1758 18.9118C12.3083 18.1044 9.82063 16.3053 8.15579 13.835C7.51986 12.9613 7.00864 12.0033 6.63684 10.9887C6.43548 10.3999 6.39917 9.7673 6.53185 9.15939C6.66453 8.55149 6.96112 7.99152 7.38947 7.54023C7.598 7.27409 7.88185 7.07693 8.20403 6.97441C8.52622 6.8719 8.87181 6.86879 9.19579 6.96549C9.46947 7.03392 9.66105 7.43076 9.90737 7.73181C10.1072 8.29697 10.3412 8.84981 10.6053 9.3876C10.8056 9.66198 10.8893 10.0045 10.838 10.3403C10.7868 10.6762 10.6047 10.9781 10.3316 11.1802C9.71579 11.7276 9.81158 12.1792 10.2495 12.795C11.2176 14.1896 12.5533 15.2886 14.1084 15.9697C14.5463 16.1613 14.8747 16.2023 15.1621 15.7508C15.2853 15.5729 15.4495 15.4223 15.5863 15.2581C16.38 14.2592 16.1337 14.2729 17.3926 14.8202C17.7936 14.9885 18.1822 15.1856 18.5558 15.4087C18.9253 15.6276 19.4863 15.8602 19.5684 16.1887C19.6474 16.5449 19.6266 16.9161 19.5083 17.2614C19.39 17.6066 19.1788 17.9125 18.8979 18.1455Z" fill="white"/>
</g>
</svg>
