<svg width="85" height="51" viewBox="0 0 85 51" fill="none" xmlns="http://www.w3.org/2000/svg">
<path fill-rule="evenodd" clip-rule="evenodd" d="M0.621613 4.76109C1.77352 1.97225 4.66433 0.00187371 7.69292 0.00738524C30.4749 -0.000882065 53.2568 0.010141 76.0388 0.00187371C78.0146 -0.0422186 79.9933 0.693572 81.4511 2.03012C83.1211 3.52375 84.0718 5.75592 84.025 7.99361C84.0167 16.7266 84.0415 25.4569 84.014 34.19C83.9974 38.1362 80.55 41.6581 76.6064 41.7656C68.2978 41.8014 59.9864 41.7683 51.6778 41.7821C52.7938 44.5324 53.9237 47.2799 55.0398 50.0329C50.0904 47.3074 45.1907 44.4855 40.2138 41.8179C29.2844 41.7215 18.3467 41.8262 7.41459 41.7628C3.47659 41.6526 0.0429016 38.1335 0.0208555 34.1955C-0.0122138 25.6471 0.0208555 17.0959 0.00432083 8.54476C-0.0259926 7.26057 0.0952612 5.94883 0.621613 4.76109Z" fill="#9C5C8F"/>
<path fill-rule="evenodd" clip-rule="evenodd" d="M34.038 5.39768C35.3002 4.05562 37.6949 4.49103 38.6264 6.00946C39.1307 6.80588 39.1748 7.8696 38.7697 8.71838C37.0143 12.1714 36.2812 16.0184 35.6061 19.7993C34.8069 24.7294 34.1427 29.7229 34.4018 34.7273C34.4734 36.0033 33.8561 37.552 32.4865 37.8496C31.1913 38.139 30.0118 37.2902 29.1989 36.3753C25.4786 32.3739 23.3732 27.1903 21.8548 22.0177C20.3198 25.0463 18.7793 28.0749 17.2912 31.1283C16.2495 33.1924 15.15 35.2978 13.4855 36.9375C12.7828 37.6347 11.595 38.2657 10.6884 37.5492C9.32428 36.356 8.98808 34.4545 8.40936 32.8203C6.21302 25.2447 4.96741 17.4376 3.69149 9.66637C3.39937 8.37115 3.94226 6.81965 5.23472 6.30157C6.27915 5.91025 7.6157 5.85514 8.50582 6.624C9.12586 7.1779 9.29672 8.03495 9.41246 8.81759C10.3081 14.8334 11.3746 20.83 12.8269 26.7384C15.3153 22.0205 17.79 17.2943 20.2702 12.5709C20.6395 11.8792 21.0804 11.1848 21.7583 10.7549C22.665 10.1734 24.0098 10.2148 24.7676 11.0277C25.4042 11.6946 25.6164 12.6233 25.7928 13.4996C26.5341 17.4046 27.5372 21.2709 28.995 24.9719C29.6233 19.3942 30.3921 13.7477 32.4287 8.48138C32.8889 7.42041 33.294 6.29881 34.038 5.39768ZM48.0263 8.38493C50.7049 8.057 53.5957 8.94711 55.42 10.9836C56.9082 12.6674 57.7432 14.8527 58.0242 17.0629C58.4789 20.8438 57.7983 24.7735 55.9795 28.1273C54.9516 30.0398 53.6067 31.8724 51.7108 32.9967C48.933 34.6832 45.2072 34.4766 42.523 32.6963C40.3791 31.2275 39.1748 28.7253 38.6843 26.2313C37.6977 20.5875 39.3842 14.2961 43.6584 10.3553C44.8847 9.29709 46.4142 8.58059 48.0263 8.38493ZM48.5857 14.1913C47.2988 14.6185 46.4858 15.798 45.7941 16.8948C44.0608 19.6863 43.5592 23.3681 44.9536 26.4049C45.3201 27.2041 45.9099 28.0446 46.8386 28.2127C47.8251 28.3753 48.7428 27.8104 49.4621 27.1958C51.0466 25.8372 51.8348 23.7952 52.2178 21.7918C52.6477 19.51 52.4273 16.9829 51.088 15.0291C50.5506 14.2327 49.4951 13.8717 48.5857 14.1913ZM69.5186 8.39044C72.1365 8.06526 74.9777 8.8727 76.8103 10.8265C78.45 12.5957 79.3374 14.963 79.5881 17.3412C79.9739 20.9953 79.3015 24.7735 77.5682 28.0226C76.5265 29.9874 75.1514 31.8779 73.2003 33.0215C70.5327 34.6199 67.0108 34.4738 64.368 32.8975C62.5823 31.8228 61.3946 29.9874 60.7111 28.0584C58.8372 22.1583 60.419 15.2165 64.7373 10.7632C66.0325 9.50102 67.7135 8.61642 69.5186 8.39044ZM70.0863 14.1996C68.6808 14.7012 67.8375 16.0432 67.1073 17.2613C65.5255 20.0501 65.1369 23.6409 66.5671 26.5703C66.9529 27.3805 67.6364 28.1962 68.6036 28.2403C69.6563 28.2788 70.563 27.6119 71.2933 26.923C72.8834 25.355 73.6109 23.1145 73.8644 20.9402C74.1262 18.9037 73.7872 16.7156 72.6023 15.007C72.0594 14.2106 70.9929 13.8717 70.0863 14.1996Z" fill="white"/>
</svg>
