<svg width="32" height="23" viewBox="0 0 32 23" fill="none" xmlns="http://www.w3.org/2000/svg">
<path d="M12.6667 15.8333L20.8842 11.0833L12.6667 6.33333V15.8333ZM30.97 3.43583C31.1758 4.18 31.3183 5.1775 31.4133 6.44417C31.5242 7.71083 31.5717 8.80333 31.5717 9.75333L31.6667 11.0833C31.6667 14.5508 31.4133 17.1 30.97 18.7308C30.5742 20.1558 29.6558 21.0742 28.2308 21.47C27.4867 21.6758 26.125 21.8183 24.035 21.9133C21.9767 22.0242 20.0925 22.0717 18.3508 22.0717L15.8333 22.1667C9.19917 22.1667 5.06667 21.9133 3.43583 21.47C2.01083 21.0742 1.0925 20.1558 0.696667 18.7308C0.490833 17.9867 0.348333 16.9892 0.253333 15.7225C0.1425 14.4558 0.0949999 13.3633 0.0949999 12.4133L0 11.0833C0 7.61583 0.253333 5.06667 0.696667 3.43583C1.0925 2.01083 2.01083 1.0925 3.43583 0.696667C4.18 0.490833 5.54167 0.348333 7.63167 0.253333C9.69 0.1425 11.5742 0.0949999 13.3158 0.0949999L15.8333 0C22.4675 0 26.6 0.253333 28.2308 0.696667C29.6558 1.0925 30.5742 2.01083 30.97 3.43583Z" fill="white"/>
</svg>
